<svg width="147" height="56" viewBox="0 0 147 56" fill="none" xmlns="http://www.w3.org/2000/svg">
<g clip-path="url(#clip0_11635_75801)">
<path fill-rule="evenodd" clip-rule="evenodd" d="M142.24 36.8419C142.327 37.8411 143.126 39.1129 144.512 39.1129H145.321C145.636 39.1129 145.893 38.8555 145.893 38.5413V20.7242H145.889C145.874 20.424 145.626 20.1836 145.321 20.1836H142.812C142.507 20.1836 142.259 20.424 142.244 20.7242H142.24V22.1719C140.702 20.2761 138.277 19.4892 135.845 19.4892C130.318 19.4892 125.837 23.9733 125.837 29.5052C125.837 35.0374 130.318 39.5216 135.845 39.5216C138.277 39.5216 140.927 38.5779 142.24 36.8397V36.8419ZM135.855 36.0162C132.339 36.0162 129.49 33.1013 129.49 29.5052C129.49 25.9097 132.339 22.9947 135.855 22.9947C139.371 22.9947 142.22 25.9097 142.22 29.5052C142.22 33.1013 139.371 36.0162 135.855 36.0162Z" fill="#868686"/>
<path fill-rule="evenodd" clip-rule="evenodd" d="M122.663 28.2351C122.663 23.0381 119.387 19.5321 114.163 19.5321C111.669 19.5321 109.625 20.9753 108.902 22.215C108.746 21.2456 108.232 20.2267 106.637 20.2267H105.825C105.51 20.2267 105.254 20.4843 105.254 20.7986V36.8865C105.254 36.887 105.254 36.8882 105.254 36.889V38.6172H105.257C105.273 38.9168 105.521 39.1575 105.825 39.1575H108.335C108.374 39.1575 108.411 39.1529 108.448 39.1459C108.464 39.1426 108.48 39.1361 108.496 39.1315C108.515 39.1258 108.534 39.1213 108.552 39.114C108.574 39.1047 108.594 39.0923 108.615 39.0807C108.625 39.0744 108.636 39.0701 108.646 39.0636C108.671 39.0474 108.694 39.028 108.716 39.0081C108.72 39.0045 108.724 39.002 108.728 38.9986C108.753 38.9744 108.776 38.9478 108.796 38.9201C108.858 38.8338 108.897 38.7293 108.903 38.6172H108.906V28.0921C108.906 25.301 111.168 23.0381 113.957 23.0381C116.746 23.0381 119.007 25.301 119.007 28.0921L119.009 36.8897L119.01 36.8865C119.01 36.8944 119.011 36.9023 119.011 36.9107V38.6172H119.015C119.031 38.9168 119.279 39.1575 119.583 39.1575H122.093C122.132 39.1575 122.169 39.1529 122.205 39.1459C122.22 39.1431 122.234 39.1371 122.249 39.1331C122.269 39.1271 122.29 39.122 122.31 39.114C122.331 39.1055 122.349 39.0936 122.369 39.0827C122.381 39.076 122.393 39.0712 122.404 39.0636C122.427 39.0483 122.449 39.0299 122.47 39.0118C122.475 39.0068 122.481 39.0032 122.486 38.9982C122.51 38.9752 122.531 38.9504 122.55 38.9244C122.552 38.9225 122.553 38.9209 122.555 38.9189C122.617 38.8334 122.654 38.7301 122.661 38.6186C122.661 38.6178 122.661 38.6172 122.661 38.6172H122.665L122.663 28.2351Z" fill="#868686"/>
<path fill-rule="evenodd" clip-rule="evenodd" d="M96.5198 36.8419C96.6075 37.8411 97.4068 39.1129 98.7914 39.1129H99.6015C99.9155 39.1129 100.173 38.8555 100.173 38.5412V20.7242H100.169C100.153 20.424 99.9047 20.1836 99.6015 20.1836H97.0912C96.7876 20.1836 96.5396 20.424 96.5227 20.7242H96.5198V22.1719C94.9816 20.2761 92.5567 19.4892 90.125 19.4892C84.5977 19.4892 80.1171 23.9733 80.1171 29.5052C80.1171 35.0373 84.5977 39.5217 90.125 39.5217C92.5567 39.5217 95.2068 38.578 96.5195 36.8397L96.5198 36.8419ZM90.1348 36.0161C86.6197 36.0161 83.7697 33.1014 83.7697 29.5052C83.7697 25.9097 86.6197 22.9947 90.1348 22.9947C93.6502 22.9947 96.4997 25.9097 96.4997 29.5052C96.4997 33.1014 93.6502 36.0161 90.1348 36.0161Z" fill="#868686"/>
<path fill-rule="evenodd" clip-rule="evenodd" d="M65.2722 34.2902C66.948 35.452 68.7772 36.0164 70.535 36.0164C72.2096 36.0164 73.9409 35.1475 73.9409 33.6352C73.9409 31.6162 70.1685 31.3021 67.7983 30.4959C65.4275 29.6897 63.3857 28.0231 63.3857 25.3242C63.3857 21.1945 67.0626 19.4889 70.4944 19.4889C72.6687 19.4889 74.9122 20.2065 76.3666 21.2344C76.8675 21.6142 76.5625 22.0503 76.5625 22.0503L75.1741 24.0348C75.0181 24.2583 74.7452 24.4514 74.3536 24.2095C73.9618 23.9678 72.5881 22.9946 70.4944 22.9946C68.4005 22.9946 67.1393 23.9623 67.1393 25.1617C67.1393 26.6 68.7785 27.0524 70.6985 27.5426C74.0445 28.4452 77.6945 29.5302 77.6945 33.6352C77.6945 37.2738 74.2936 39.5224 70.535 39.5224C67.6868 39.5224 65.2617 38.7099 63.2279 37.2162C62.8042 36.7918 63.1 36.3978 63.1 36.3978L64.4817 34.4233C64.7628 34.0542 65.1172 34.1829 65.2722 34.2902Z" fill="#868686"/>
<path fill-rule="evenodd" clip-rule="evenodd" d="M55.6215 36.8419C55.7093 37.8411 56.5085 39.1129 57.893 39.1129H58.7032C59.0173 39.1129 59.2746 38.8555 59.2746 38.5412V20.7242H59.2711C59.2547 20.424 59.0067 20.1836 58.7032 20.1836H56.1929C55.8893 20.1836 55.6414 20.424 55.6245 20.7242H55.6215V22.1719C54.0835 20.2761 51.6586 19.4892 49.2268 19.4892C43.6996 19.4892 39.2188 23.9733 39.2188 29.5052C39.2188 35.0373 43.6996 39.5217 49.2268 39.5217C51.6586 39.5217 54.3086 38.578 55.6211 36.8397L55.6215 36.8419ZM49.2366 36.0161C45.7213 36.0161 42.8715 33.1014 42.8715 29.5052C42.8715 25.9097 45.7213 22.9947 49.2366 22.9947C52.7519 22.9947 55.6014 25.9097 55.6014 29.5052C55.6014 33.1014 52.7519 36.0161 49.2366 36.0161Z" fill="#868686"/>
<path fill-rule="evenodd" clip-rule="evenodd" d="M25.1864 30.1858C21.4668 30.1858 18.4513 33.2012 18.4513 36.9212C18.4513 40.6409 21.4668 43.6562 25.1864 43.6562C28.9061 43.6562 31.9215 40.6409 31.9215 36.9212C31.9215 33.2012 28.9061 30.1858 25.1864 30.1858ZM7.68819 30.1865C3.96855 30.1865 0.953125 33.2012 0.953125 36.9212C0.953125 40.6409 3.96855 43.6562 7.68819 43.6562C11.408 43.6562 14.4236 40.6409 14.4236 36.9212C14.4236 33.2012 11.408 30.1865 7.68819 30.1865ZM23.1723 21.7668C23.1723 25.4867 20.157 28.5024 16.4373 28.5024C12.7175 28.5024 9.70226 25.4867 9.70226 21.7668C9.70226 18.0476 12.7175 15.0319 16.4373 15.0319C20.157 15.0319 23.1723 18.0476 23.1723 21.7668Z" fill="#868686"/>
</g>
<defs>
<clipPath id="clip0_11635_75801">
<rect width="145.931" height="55.1551" fill="white" transform="translate(0.953125 0.0943604)"/>
</clipPath>
</defs>
</svg>
