<svg width="518" height="387" viewBox="0 0 518 387" fill="none" xmlns="http://www.w3.org/2000/svg">
<path d="M518 340.164H0V340.423H518V340.164Z" fill="#D1E3FF"/>
<path d="M439.379 354.7H428.386V354.959H439.379V354.7Z" fill="#D1E3FF"/>
<path d="M420.787 354.83H376.083V355.089H420.787V354.83Z" fill="#D1E3FF"/>
<path d="M320.814 352.357H245.376V352.616H320.814V352.357Z" fill="#D1E3FF"/>
<path d="M201.982 356.86H178.042V357.119H201.982V356.86Z" fill="#D1E3FF"/>
<path d="M122.193 352.487H89.2275V352.746H122.193V352.487Z" fill="#D1E3FF"/>
<path d="M158.758 352.487H127.946V352.746H158.758V352.487Z" fill="#D1E3FF"/>
<path d="M99.1099 347.954H67.6445V348.213H99.1099V347.954Z" fill="#D1E3FF"/>
<path d="M245.547 293.961H45.496C42.2357 293.961 39.5825 291.308 39.5825 288.047V6.84366C39.5825 3.58337 42.2357 0.930176 45.496 0.930176H245.547C248.806 0.930176 251.459 3.58337 251.459 6.84366V288.047C251.459 291.308 248.806 293.961 245.547 293.961ZM45.496 1.19021C42.3776 1.19021 39.8415 3.72634 39.8415 6.8447V288.048C39.8415 291.167 42.3776 293.703 45.496 293.703H245.547C248.664 293.703 251.2 291.167 251.2 288.048V6.84366C251.2 3.72634 248.664 1.18918 245.547 1.18918L45.496 1.19021Z" fill="#D1E3FF"/>
<path d="M469.629 293.961H269.579C266.32 293.961 263.667 291.308 263.667 288.047V6.84366C263.667 3.58337 266.32 0.930176 269.579 0.930176H469.629C472.89 0.930176 475.542 3.58337 475.542 6.84366V288.047C475.544 291.308 472.89 293.961 469.629 293.961ZM269.579 1.19021C266.462 1.19021 263.926 3.72634 263.926 6.8447V288.048C263.926 291.167 266.462 293.703 269.579 293.703H469.629C472.747 293.703 475.283 291.167 475.283 288.048V6.84366C475.283 3.72634 472.747 1.18918 469.629 1.18918L269.579 1.19021Z" fill="#D1E3FF"/>
<path d="M217.398 23.2188H56.04V163.633H217.398V23.2188Z" fill="#D1E3FF"/>
<path d="M224 23.219H59.1245V163.633H224V23.219Z" fill="#E3EEFF"/>
<path d="M217.398 163.632H56.04V169.266H217.398V163.632Z" fill="#D1E3FF"/>
<path d="M235 163.632H70.1245V169.266H235V163.632Z" fill="#E3EEFF"/>
<path d="M214.758 154.389L214.758 32.462L68.37 32.462L68.37 154.389L214.758 154.389Z" fill="#F5FCFF"/>
<path d="M92.0811 154.389L120.323 32.462H159.08L130.838 154.389H92.0811Z" fill="white"/>
<path d="M73.7029 134.014C73.3382 134.014 73.043 133.719 73.043 133.354V38.4762C73.043 38.1115 73.3382 37.8163 73.7029 37.8163C74.0676 37.8163 74.3628 38.1115 74.3628 38.4762V133.354C74.3628 133.719 74.0676 134.014 73.7029 134.014Z" fill="#E2EEFF"/>
<path d="M138.779 154.389L167.021 32.462H180.43L152.188 154.389H138.779Z" fill="white"/>
<path d="M214.757 154.389L214.757 32.4618H213.583L213.583 154.389H214.757Z" fill="#D1E3FF"/>
<path d="M226.187 33.4681H64.8286L63.978 30.6627H225.336L226.187 33.4681Z" fill="#D1E3FF"/>
<path d="M226.187 38.099H64.8286L63.978 35.2946H225.336L226.187 38.099Z" fill="#D1E3FF"/>
<path d="M226.187 42.731H64.8286L63.978 39.9255H225.336L226.187 42.731Z" fill="#D1E3FF"/>
<path d="M226.187 47.3618H64.8286L63.978 44.5574H225.336L226.187 47.3618Z" fill="#D1E3FF"/>
<path d="M226.187 51.9937H64.8286L63.978 49.1882H225.336L226.187 51.9937Z" fill="#D1E3FF"/>
<path d="M226.187 56.6249H64.8286L63.978 53.8204H225.336L226.187 56.6249Z" fill="#D1E3FF"/>
<path d="M417.7 32.3583H349.854V153.317H417.7V32.3583Z" fill="#D1E3FF"/>
<path d="M388.08 38.7475C385.196 38.7475 382.849 36.4009 382.849 33.5167C382.849 30.6325 385.196 28.2859 388.08 28.2859C390.964 28.2859 393.312 30.6325 393.312 33.5167C393.312 36.4009 390.964 38.7475 388.08 38.7475ZM388.08 29.3219C385.768 29.3219 383.885 31.2033 383.885 33.5167C383.885 35.8301 385.767 37.7115 388.08 37.7115C390.393 37.7115 392.276 35.8301 392.276 33.5167C392.276 31.2033 390.393 29.3219 388.08 29.3219Z" fill="#CADEFF"/>
<path d="M425.047 32.3583H354.968V153.317H425.047V32.3583Z" fill="#EEF9FF"/>
<path d="M419.176 147.446V38.2299L360.839 38.2299V147.446H419.176Z" fill="white"/>
<path d="M419.176 147.446V38.2296H418.455V147.446H419.176Z" fill="#D1E3FF"/>
<path d="M367.529 196.324C367.529 196.324 368.252 208.526 395.966 208.526C423.681 208.526 424.404 196.324 424.404 196.324H367.529Z" fill="#CADEFC"/>
<path d="M311.483 218.097H283.182V334.664H311.483V218.097Z" fill="#E3EEFF"/>
<path d="M436.495 334.664H288.616V340.164H436.495V334.664Z" fill="#E3EEFF"/>
<path d="M311.483 334.664H441.93V218.097H311.483V334.664Z" fill="#F3F8FF"/>
<path d="M322.61 290.616H430.803V262.145H322.61V290.616Z" fill="#E3EEFF"/>
<path d="M322.61 324.279H430.803V295.809H322.61V324.279Z" fill="#E3EEFF"/>
<path d="M392.883 265.265H360.53C359.457 265.265 358.578 264.387 358.578 263.314C358.578 262.24 359.457 261.362 360.53 261.362H392.883C393.956 261.362 394.835 262.24 394.835 263.314C394.835 264.387 393.956 265.265 392.883 265.265Z" fill="#F3F8FF"/>
<path d="M322.61 256.952H430.803V228.482H322.61V256.952Z" fill="#E3EEFF"/>
<path d="M392.883 231.602H360.53C359.457 231.602 358.578 230.723 358.578 229.65C358.578 228.577 359.457 227.698 360.53 227.698H392.883C393.956 227.698 394.835 228.577 394.835 229.65C394.835 230.724 393.956 231.602 392.883 231.602Z" fill="#F3F8FF"/>
<path d="M392.883 298.928H360.53C359.457 298.928 358.578 298.05 358.578 296.976C358.578 295.903 359.457 295.025 360.53 295.025H392.883C393.956 295.025 394.835 295.903 394.835 296.976C394.835 298.05 393.956 298.928 392.883 298.928Z" fill="#F3F8FF"/>
<path d="M445.701 208.525H311.483V218.097H445.701V208.525Z" fill="#E3EEFF"/>
<path d="M279.228 218.097H311.483V208.525H279.228V218.097Z" fill="#D1E3FF"/>
<path d="M294.074 208.525H322.205V174.815H294.074V208.525Z" fill="#E3EEFF"/>
<path d="M372.114 174.816H322.205V208.526H372.114V174.816Z" fill="#F3F8FF"/>
<path d="M358.672 192.61C358.672 195.018 353.518 196.97 347.16 196.97C340.802 196.97 335.648 195.017 335.648 192.61C335.648 190.201 340.802 188.249 347.16 188.249C353.518 188.249 358.672 190.202 358.672 192.61Z" fill="white"/>
<path opacity="0.7" d="M294.073 181.445H372.408V179.132H294.073V181.445Z" fill="#D1E3FF"/>
<path d="M292.522 180.106H322.207V173.417H292.522V180.106Z" fill="#E3EEFF"/>
<path d="M373.667 173.416H322.205V180.105H373.667V173.416Z" fill="#F3F8FF"/>
<path d="M180.099 191.67H72.8726L79.562 340.164H186.788L180.099 191.67Z" fill="#E3EEFF"/>
<path d="M181.653 191.67H74.4272L81.1167 340.164H188.343L181.653 191.67Z" fill="#F3F8FF"/>
<path d="M98.0726 340.165H126.204V306.455H98.0726V340.165Z" fill="#E3EEFF"/>
<path d="M260.857 306.456H126.203V340.166H260.857V306.456Z" fill="#F3F8FF"/>
<path opacity="0.7" d="M98.0725 313.085H261.152V310.772H98.0725V313.085Z" fill="#D1E3FF"/>
<path d="M96.5186 311.746H126.203V305.056H96.5186V311.746Z" fill="#E3EEFF"/>
<path d="M262.41 305.056H126.203V311.745H262.41V305.056Z" fill="#F3F8FF"/>
<path d="M121.383 305.055H157.985V244.145H121.383V305.055Z" fill="#D1E3FF"/>
<path d="M249.44 244.146H157.985V305.056H249.44V244.146Z" fill="#E3EEFF"/>
<path opacity="0.7" d="M121.384 252.77L249.823 252.77V249.761L121.384 249.761V252.77Z" fill="#D1E3FF"/>
<path d="M119.363 251.027H157.985V237.187H119.363V251.027Z" fill="#D1E3FF"/>
<path d="M251.46 237.188H157.985V251.027H251.46V237.188Z" fill="#E3EEFF"/>
<path d="M80.6068 340.164C94.895 340.164 106.478 328.581 106.478 314.293C106.478 300.005 94.895 288.422 80.6068 288.422C66.3187 288.422 54.7358 300.005 54.7358 314.293C54.7358 328.581 66.3187 340.164 80.6068 340.164Z" fill="#D1E3FF"/>
<path opacity="0.7" d="M67.9381 298.874C69.4786 297.277 70.093 295.371 69.3118 294.618C68.5307 293.865 66.6483 294.549 65.1088 296.146C63.5682 297.744 62.9539 299.649 63.735 300.402C64.5162 301.155 66.3976 300.472 67.9381 298.874Z" fill="#D1E3FF"/>
<path opacity="0.7" d="M78.6828 294.024C80.8615 293.605 82.4621 292.401 82.257 291.335C82.0519 290.269 80.1197 289.744 77.941 290.164C75.7623 290.582 74.1617 291.786 74.3668 292.852C74.572 293.918 76.5041 294.443 78.6828 294.024Z" fill="#D1E3FF"/>
<path opacity="0.7" d="M76.476 303.052C78.5698 302.318 79.901 300.681 79.4504 299.396C78.9997 298.112 76.937 297.666 74.8433 298.402C72.7495 299.137 71.4183 300.774 71.8689 302.058C72.3206 303.341 74.3833 303.787 76.476 303.052Z" fill="#D1E3FF"/>
<path d="M258.999 386.953C369.936 386.953 459.868 381.701 459.868 375.223C459.868 368.744 369.936 363.492 258.999 363.492C148.062 363.492 58.1304 368.744 58.1304 375.223C58.1304 381.701 148.062 386.953 258.999 386.953Z" fill="#F0F6FF"/>
<path d="M318.299 375.223H199.068C190.741 375.223 183.927 368.409 183.927 360.082V74.5987C183.927 66.2713 190.741 59.4575 199.068 59.4575H318.299C326.627 59.4575 333.44 66.2713 333.44 74.5987V360.082C333.44 368.409 326.626 375.223 318.299 375.223Z" fill="#C0DAFF"/>
<path d="M333.189 151.064H323.32C321.035 151.064 319.166 149.195 319.166 146.909V116.829C319.166 114.545 321.034 112.675 323.32 112.675H333.189C335.473 112.675 337.343 114.544 337.343 116.829V146.909C337.343 149.195 335.474 151.064 333.189 151.064Z" fill="#C0DAFF"/>
<path d="M334.223 183.793H322.286C320.57 183.793 319.166 182.389 319.166 180.673V165.256C319.166 163.539 320.569 162.136 322.286 162.136H334.223C335.938 162.136 337.343 163.539 337.343 165.256V180.673C337.343 182.389 335.939 183.793 334.223 183.793Z" fill="#C0DAFF"/>
<path d="M176.15 84.0906H175.114V97.7886H176.15V84.0906Z" fill="#DCE9FF"/>
<path d="M176.15 101.588H175.114V105.88H176.15V101.588Z" fill="#DCE9FF"/>
<path opacity="0.6" d="M313.113 375.223H193.882C185.555 375.223 178.741 368.409 178.741 360.082V74.5987C178.741 66.2713 185.555 59.4575 193.882 59.4575H313.113C321.44 59.4575 328.254 66.2713 328.254 74.5987V360.082C328.254 368.409 321.44 375.223 313.113 375.223Z" fill="#0053CC"/>
<path d="M260.236 360.763C260.236 364.484 257.219 367.501 253.497 367.501C249.776 367.501 246.759 364.484 246.759 360.763C246.759 357.041 249.776 354.025 253.497 354.025C257.219 354.025 260.236 357.041 260.236 360.763Z" fill="#0053CC"/>
<path d="M328.254 76.8594H178.739V348.216H328.254V76.8594Z" fill="#DCE9FF"/>
<path d="M328.254 76.8594H178.739V348.216H328.254V76.8594Z" fill="#DCE9FF"/>
<path d="M305.097 172.966H201.896C196.235 172.966 191.604 168.334 191.604 162.673V101.066C191.604 95.4058 196.235 90.7738 201.896 90.7738H305.097C310.758 90.7738 315.39 95.4058 315.39 101.066V162.673C315.39 168.334 310.759 172.966 305.097 172.966Z" fill="white"/>
<path d="M215.873 122.398C222.858 119.477 226.152 111.448 223.231 104.463C220.311 97.4788 212.281 94.1845 205.297 97.1051C198.312 100.026 195.018 108.055 197.939 115.04C200.859 122.024 208.889 125.319 215.873 122.398Z" fill="#DCE9FF"/>
<path d="M221.895 109.75C221.895 111.704 221.4 113.538 220.527 115.138C218.619 118.665 214.882 121.062 210.582 121.062C206.281 121.062 202.544 118.664 200.636 115.138C199.765 113.538 199.269 111.703 199.269 109.75C199.269 103.501 204.333 98.437 210.582 98.437C216.831 98.437 221.895 103.501 221.895 109.75Z" fill="white"/>
<path d="M220.527 115.138C218.619 118.665 214.882 121.062 210.581 121.062C206.281 121.062 202.544 118.664 200.636 115.138C203.484 113.235 206.901 112.125 210.581 112.125C214.261 112.126 217.679 113.236 220.527 115.138Z" fill="#C0DAFF"/>
<path d="M210.581 110.919C213.364 110.919 215.62 108.663 215.62 105.88C215.62 103.097 213.364 100.841 210.581 100.841C207.798 100.841 205.542 103.097 205.542 105.88C205.542 108.663 207.798 110.919 210.581 110.919Z" fill="#C0DAFF"/>
<path d="M307.796 209.332H199.197C195.02 209.332 191.604 205.914 191.604 201.738V188.155C191.604 183.978 195.021 180.561 199.197 180.561H307.796C311.972 180.561 315.39 183.978 315.39 188.155V201.738C315.39 205.915 311.973 209.332 307.796 209.332Z" fill="white"/>
<path d="M236.342 67.4657C236.342 66.149 237.409 65.0829 238.726 65.0829C240.043 65.0829 241.11 66.15 241.11 67.4657C241.11 68.7825 240.043 69.8496 238.726 69.8496C237.409 69.8496 236.342 68.7815 236.342 67.4657Z" fill="#0053CC"/>
<path d="M246.959 65.0819H266.759C268.07 65.0819 269.143 66.1542 269.143 67.4647C269.143 68.7753 268.071 69.8485 266.759 69.8485H246.959C245.649 69.8485 244.575 68.7763 244.575 67.4647C244.575 66.1542 245.649 65.0819 246.959 65.0819Z" fill="#0053CC"/>
<path opacity="0.6" d="M333.333 212.115L347.967 252.461C348.76 254.646 347.62 257.083 345.435 257.875L268.629 285.735C266.445 286.528 264.008 285.388 263.215 283.203L248.581 242.857C248.166 241.716 248.28 240.502 248.794 239.49C249.267 238.574 250.069 237.821 251.113 237.443L327.919 209.583C328.962 209.205 330.059 209.267 331.01 209.668C332.053 210.115 332.919 210.973 333.333 212.115Z" fill="#0053CC"/>
<path d="M331.011 209.668L309.063 245.797C304.871 252.696 296.443 255.754 288.802 253.146L248.796 239.49C249.268 238.574 250.071 237.821 251.114 237.443L327.92 209.583C328.962 209.206 330.06 209.268 331.011 209.668Z" fill="#9FC6FF"/>
<path opacity="0.6" d="M309.244 281.451L308.541 317.797C308.503 319.766 306.862 321.345 304.893 321.307L235.703 319.969C233.735 319.931 232.156 318.289 232.193 316.321L232.895 279.975C232.915 278.946 233.375 278.021 234.088 277.379C234.741 276.798 235.604 276.447 236.543 276.465L305.733 277.804C306.673 277.821 307.522 278.206 308.152 278.811C308.84 279.481 309.264 280.423 309.244 281.451Z" fill="#0053CC"/>
<path d="M308.153 278.812L279.813 300.696C274.401 304.875 266.808 304.729 261.561 300.343L234.088 277.379C234.741 276.798 235.604 276.448 236.544 276.465L305.734 277.804C306.675 277.822 307.523 278.206 308.153 278.812Z" fill="#9FC6FF"/>
<mask id="mask0_10029_6124" style="mask-type:luminance" maskUnits="userSpaceOnUse" x="178" y="76" width="151" height="273">
<path d="M328.252 76.8597H178.738V348.216H328.252V76.8597Z" fill="white"/>
</mask>
<g mask="url(#mask0_10029_6124)">
<path d="M265.718 139.229C265.718 133.013 263.646 108.552 273.833 106.48C277.056 103.084 293.018 102.736 295.474 111.372C298.697 122.71 293.92 150.395 293.92 150.395L265.718 139.229Z" fill="#0F264C"/>
<path d="M296.036 150.453C296.026 150.453 296.015 150.452 296.005 150.451C295.863 150.433 295.763 150.304 295.78 150.163C295.814 149.885 299.143 122.208 295.429 111.226C294.416 108.225 291.51 106.116 287.248 105.287C281.689 104.205 275.678 105.556 274.017 107.486C273.924 107.595 273.76 107.607 273.652 107.513C273.544 107.419 273.531 107.256 273.625 107.147C275.566 104.887 282.103 103.758 287.346 104.778C291.799 105.644 294.844 107.874 295.92 111.059C299.671 122.153 296.328 149.946 296.292 150.225C296.277 150.358 296.166 150.453 296.036 150.453Z" fill="#0F264C"/>
<path d="M286.898 156.233L287.15 156.786L287.468 157.437C287.68 157.876 287.916 158.325 288.151 158.767C288.638 159.651 289.144 160.536 289.708 161.391C290.797 163.122 291.998 164.796 293.306 166.382C294.642 167.944 296.041 169.454 297.544 170.862C298.317 171.538 299.071 172.244 299.878 172.884L301.093 173.843L301.38 174.07C301.38 174.07 301.401 174.097 301.375 174.082C301.34 174.076 301.216 174.019 300.969 173.998C300.716 173.964 300.363 174.007 300.093 174.126C299.832 174.227 299.695 174.349 299.651 174.412C299.584 174.51 299.764 174.352 299.921 174.082C300.261 173.525 300.606 172.624 300.882 171.698C301.461 169.813 301.857 167.694 302.219 165.57C302.579 163.436 302.862 161.257 303.094 159.066C303.368 156.881 303.559 154.654 303.771 152.477L307.763 152.418C308.014 154.723 308.121 156.979 308.216 159.273C308.266 161.561 308.262 163.858 308.169 166.182C308.059 168.513 307.851 170.85 307.356 173.317C307.081 174.56 306.771 175.819 306.097 177.263C305.738 177.986 305.304 178.786 304.418 179.651C303.952 180.086 303.345 180.522 302.561 180.828C301.76 181.134 300.839 181.23 300.029 181.132C299.228 181.03 298.569 180.782 298.037 180.518C297.759 180.383 297.552 180.247 297.311 180.102L296.917 179.838L295.412 178.819C294.41 178.136 293.465 177.374 292.518 176.617C290.659 175.059 288.899 173.38 287.287 171.563C285.691 169.735 284.196 167.816 282.865 165.775C282.199 164.756 281.59 163.694 281 162.613C280.711 162.065 280.422 161.524 280.156 160.95L279.763 160.077C279.628 159.765 279.522 159.513 279.358 159.084L286.898 156.233Z" fill="#FF8B7B"/>
<path d="M290.403 161.59L283.438 171.192L286.316 174.022L293.73 165.11L290.403 161.59Z" fill="#DCE9FF"/>
<path d="M279.485 148.916C287.327 151.026 292.732 161.988 292.732 161.988L283.675 174.684C283.675 174.684 272.793 160.995 273.057 156.643C273.332 152.109 274.76 147.645 279.485 148.916Z" fill="#9FC6FF"/>
<path d="M303.888 153.483L301.817 145.236L309.728 147.543C309.728 147.543 309.502 153.11 306.776 154.929L303.888 153.483Z" fill="#FF8B7B"/>
<path d="M304.309 138.542L309.863 141.349L309.728 147.544L301.817 145.236L304.309 138.542Z" fill="#FF8B7B"/>
<path d="M205.009 141.594L197.769 137.135L205.044 133.265C205.044 133.265 208.768 137.409 208.086 140.615L205.009 141.594Z" fill="#FF8B7B"/>
<path d="M194.88 130.601L200.816 128.735L205.044 133.264L197.769 137.135L194.88 130.601Z" fill="#FF8B7B"/>
<path d="M201.277 341.681L208.894 342.425L216.819 324.297L209.202 323.552L201.277 341.681Z" fill="#FF8B7B"/>
<path d="M209.905 340.072H200.551C200.21 340.072 199.903 340.308 199.812 340.641L197.779 348.041C197.567 348.808 198.133 349.535 198.92 349.521C202.189 349.465 203.785 349.274 207.899 349.274C210.43 349.274 216.971 349.537 220.466 349.537C223.884 349.537 224.598 346.081 223.184 345.768C216.843 344.364 213.187 342.429 211.231 340.583C210.877 340.251 210.403 340.072 209.905 340.072Z" fill="#14365B"/>
<path d="M216.815 324.301L212.731 333.646H204.785L209.194 323.556L216.815 324.301Z" fill="#EA7063"/>
<path d="M286.285 152.971C286.285 152.971 288.859 156.01 258.998 192.144C248.03 185.726 236.695 179.093 231.357 175.971C238.403 164.993 242.476 158.063 250.607 131.831C250.607 131.831 257.136 133.96 263.25 137.152C271.525 141.474 275.34 144.167 275.801 144.496C280.904 148.144 286.285 152.971 286.285 152.971Z" fill="#9FC6FF"/>
<path d="M272.763 123.748C271.191 128.249 267.652 136.111 263.25 137.153C263.25 137.153 261.958 141.895 269.461 146.286C277.712 151.114 275.802 144.497 275.802 144.497C271.928 140.786 273.999 137.513 276.619 134.834L272.763 123.748Z" fill="#FF8B7B"/>
<path d="M282.66 149.853C280.714 148.229 278.223 146.229 275.8 144.494C271.929 141.724 268.026 139.646 263.247 137.149C260.802 135.867 258.296 134.755 256.162 133.9C255.819 134.472 256.097 136.214 257.148 138.766C261.126 143.894 270.362 151.442 278.071 152.941C281.657 152.427 282.781 151.292 282.66 149.853Z" fill="#FF8B7B"/>
<path d="M257.149 138.766C258.59 142.262 261.492 147.288 266.321 152.982C271.781 153.361 275.537 153.305 278.072 152.941C270.363 151.443 261.126 143.895 257.149 138.766Z" fill="#DCE9FF"/>
<path d="M274.334 128.27L276.617 134.829C275.994 135.461 275.407 136.129 274.926 136.83C273.351 135.575 271.661 132.517 272.532 130.609C272.967 129.657 273.942 128.603 274.334 128.27Z" fill="#EA7063"/>
<path d="M272.844 114.794C270.701 122.32 269.633 125.46 272.022 130.552C275.615 138.211 285.328 139.198 289.678 132.463C293.592 126.401 296.438 115.111 290.26 109.638C284.171 104.247 274.986 107.267 272.844 114.794Z" fill="#FF8B7B"/>
<path d="M270.639 119.517C275.991 121.512 288.582 114.869 292.007 110.797C292.467 104.523 277.747 106.998 277.747 106.998C277.747 106.998 269.891 104.61 270.639 119.517Z" fill="#0F264C"/>
<path d="M269.358 121.038C268.972 122.613 269.349 124.22 270.059 125.349C271.127 127.047 273.002 126.417 273.83 124.706C274.575 123.167 274.917 120.427 273.305 119.32C271.716 118.228 269.799 119.236 269.358 121.038Z" fill="#FF8B7B"/>
<path d="M258.998 192.143C258.998 192.143 259.45 263.133 246.861 283.626C233.766 304.942 216.692 330.926 216.692 330.926L201.913 330.211C201.913 330.211 219.151 291.754 225.653 273.907C234.618 249.303 238.757 180.299 238.757 180.299L258.998 192.143Z" fill="#0053CC"/>
<path d="M243.27 194.109C241.315 195.551 239.19 198.201 237.169 201.207C236.711 206.484 236.149 212.427 235.484 218.643C239.99 212.537 243.558 201.792 243.27 194.109Z" fill="#004DAA"/>
<path d="M251.699 187.873C251.699 187.873 220.417 232.273 200.916 256.2C185.164 275.527 139.577 289.329 139.577 289.329L134.017 279.999C134.017 279.999 170.283 259.761 181.099 246.686C215.715 204.833 215.286 183.126 231.359 175.971L251.699 187.873Z" fill="#0053CC"/>
<path d="M231.893 174.107L229.2 175.851C228.99 175.987 229.103 176.315 229.423 176.502L258.411 193.463C258.66 193.609 258.938 193.607 259.045 193.46L260.742 191.132C260.859 190.971 260.728 190.699 260.456 190.54L232.466 174.161C232.259 174.041 232.028 174.019 231.893 174.107Z" fill="#14365B"/>
<path d="M233.82 179.436L233.07 178.998C232.921 178.911 232.853 178.767 232.918 178.679L235.15 175.67C235.216 175.582 235.391 175.582 235.541 175.669L236.291 176.107C236.44 176.194 236.509 176.338 236.443 176.426L234.211 179.435C234.145 179.522 233.969 179.523 233.82 179.436Z" fill="#0053CC"/>
<path d="M256.146 192.499L255.396 192.061C255.247 191.974 255.179 191.83 255.244 191.742L257.477 188.733C257.542 188.645 257.718 188.645 257.867 188.732L258.616 189.17C258.765 189.257 258.834 189.401 258.768 189.489L256.536 192.498C256.472 192.586 256.296 192.586 256.146 192.499Z" fill="#0053CC"/>
<path d="M244.983 185.967L244.233 185.529C244.084 185.442 244.016 185.298 244.081 185.21L246.313 182.201C246.379 182.113 246.555 182.112 246.704 182.2L247.454 182.638C247.603 182.725 247.672 182.869 247.606 182.957L245.374 185.966C245.308 186.054 245.132 186.055 244.983 185.967Z" fill="#0053CC"/>
<path d="M283.293 120.789C283.081 121.389 283.227 121.988 283.62 122.125C284.012 122.263 284.502 121.889 284.713 121.289C284.924 120.69 284.778 120.092 284.386 119.953C283.993 119.814 283.504 120.189 283.293 120.789Z" fill="#0F264C"/>
<path d="M290.073 123.178C289.862 123.778 290.008 124.376 290.4 124.514C290.792 124.652 291.282 124.278 291.493 123.678C291.705 123.078 291.557 122.481 291.166 122.342C290.773 122.203 290.284 122.578 290.073 123.178Z" fill="#0F264C"/>
<path d="M290.981 122.314L292.568 122.406C292.568 122.406 291.433 123.271 290.981 122.314Z" fill="#0F264C"/>
<path d="M287.918 123.577C287.918 123.577 288.026 126.518 288.708 128.159C287.655 128.619 286.427 127.807 286.427 127.807L287.918 123.577Z" fill="#FF5652"/>
<path d="M283.547 129.437C283.526 129.437 283.505 129.433 283.484 129.426C280.66 128.433 280.05 126.042 280.025 125.94C280.001 125.84 280.061 125.739 280.162 125.715C280.268 125.69 280.364 125.753 280.388 125.852C280.394 125.875 280.982 128.15 283.608 129.075C283.705 129.109 283.756 129.216 283.722 129.313C283.696 129.388 283.623 129.437 283.547 129.437Z" fill="#0F264C"/>
<path d="M282.992 118.419C282.86 118.419 282.731 118.348 282.664 118.223C282.565 118.042 282.634 117.815 282.815 117.716C284.632 116.736 286.158 117.541 286.221 117.576C286.404 117.675 286.47 117.902 286.372 118.083C286.272 118.264 286.044 118.33 285.867 118.233C285.807 118.202 284.618 117.593 283.17 118.373C283.113 118.405 283.053 118.419 282.992 118.419Z" fill="#0F264C"/>
<path d="M294.376 121.159C294.209 121.159 294.057 121.046 294.013 120.877C293.604 119.262 292.307 118.803 292.294 118.799C292.099 118.732 291.994 118.52 292.06 118.324C292.126 118.129 292.339 118.024 292.534 118.091C292.602 118.115 294.229 118.69 294.737 120.693C294.788 120.892 294.667 121.096 294.467 121.146C294.437 121.156 294.407 121.159 294.376 121.159Z" fill="#0F264C"/>
<path d="M248.325 143.713C246.363 145.285 244.496 146.545 242.516 147.845C240.559 149.131 238.529 150.299 236.46 151.409C232.343 153.656 227.979 155.534 223.398 156.94C222.835 157.132 222.239 157.261 221.661 157.422C221.056 157.573 220.547 157.732 219.864 157.875C218.462 158.191 216.906 158.306 215.33 158.11C213.754 157.919 212.161 157.368 210.814 156.53C209.463 155.691 208.376 154.607 207.514 153.481C205.791 151.205 204.92 148.748 204.281 146.37C203.961 145.175 203.76 143.972 203.614 142.775C203.465 141.561 203.373 140.419 203.38 139.123L207.359 138.786C207.825 140.746 208.495 142.847 209.296 144.697C210.086 146.566 211.134 148.269 212.306 149.45C213.506 150.642 214.685 151.153 215.979 151.16C216.64 151.151 217.353 151.07 218.128 150.823C219.034 150.533 220.093 150.203 221.057 149.847C224.996 148.384 228.857 146.54 232.588 144.407C234.464 143.361 236.273 142.184 238.09 141.031C239.875 139.878 241.713 138.587 243.305 137.404L248.325 143.713Z" fill="#FF8B7B"/>
<path d="M235.509 140.999L239.093 151.834L242.46 149.82L239.308 139.071L235.509 140.999Z" fill="#DCE9FF"/>
<path d="M250.609 131.831C247.347 131.053 237.308 138.701 237.308 138.701L241.567 152.284C241.567 152.284 252.103 146.455 253.033 142.195C254.003 137.759 254.331 132.718 250.609 131.831Z" fill="#9FC6FF"/>
<path d="M214.054 341.617C213.151 341.617 212.173 341.443 211.495 341.291C211.417 341.274 211.358 341.209 211.35 341.13C211.341 341.051 211.384 340.974 211.456 340.94C212.086 340.644 215.273 339.195 216.119 339.773C216.235 339.85 216.37 340.002 216.355 340.281C216.333 340.655 216.173 340.957 215.879 341.179C215.449 341.504 214.776 341.617 214.054 341.617ZM212.14 341.04C213.161 341.225 214.918 341.436 215.654 340.881C215.859 340.727 215.966 340.523 215.981 340.258C215.987 340.15 215.948 340.106 215.91 340.08C215.45 339.771 213.537 340.433 212.14 341.04Z" fill="#407BFF"/>
<path d="M211.536 341.295C211.492 341.295 211.449 341.28 211.414 341.251C211.362 341.205 211.338 341.135 211.353 341.066C211.386 340.921 212.17 337.534 214.032 337.767C214.513 337.825 214.646 338.066 214.672 338.26C214.791 339.142 212.662 340.849 211.606 341.281C211.583 341.29 211.559 341.295 211.536 341.295ZM213.861 338.131C212.742 338.131 212.069 339.946 211.824 340.762C212.9 340.171 214.371 338.823 214.302 338.312C214.289 338.22 214.184 338.161 213.988 338.139C213.945 338.132 213.903 338.131 213.861 338.131Z" fill="#407BFF"/>
<path d="M284.2 119.925L285.787 120.017C285.787 120.017 284.652 120.882 284.2 119.925Z" fill="#0F264C"/>
</g>
<path opacity="0.8" d="M375.018 47.0245H298.147C291.309 47.0245 285.715 52.6189 285.715 59.4565V83.2586C285.715 90.0962 291.309 95.6906 298.147 95.6906H304.593V107.919L316.82 95.6906H375.018C381.856 95.6906 387.45 90.0962 387.45 83.2586V59.4565C387.45 52.6189 381.856 47.0245 375.018 47.0245Z" fill="#0053CC"/>
<path d="M373.222 62.6266H299.943C298.369 62.6266 297.092 61.3503 297.092 59.7756C297.092 58.2009 298.369 56.9245 299.943 56.9245H373.222C374.796 56.9245 376.073 58.2009 376.073 59.7756C376.073 61.3503 374.796 62.6266 373.222 62.6266Z" fill="#9FC6FF"/>
<path d="M373.222 73.9419H326.242C324.667 73.9419 323.391 72.6655 323.391 71.0908C323.391 69.5161 324.667 68.2397 326.242 68.2397H373.222C374.796 68.2397 376.073 69.5161 376.073 71.0908C376.073 72.6655 374.796 73.9419 373.222 73.9419Z" fill="#9FC6FF"/>
<path d="M312.305 73.9419H299.943C298.369 73.9419 297.092 72.6655 297.092 71.0908C297.092 69.5161 298.369 68.2397 299.943 68.2397H312.305C313.88 68.2397 315.156 69.5161 315.156 71.0908C315.156 72.6655 313.88 73.9419 312.305 73.9419Z" fill="#9FC6FF"/>
<path d="M354.919 85.257H299.943C298.369 85.257 297.092 83.9806 297.092 82.4059C297.092 80.8312 298.369 79.5548 299.943 79.5548H354.919C356.493 79.5548 357.77 80.8312 357.77 82.4059C357.77 83.9806 356.493 85.257 354.919 85.257Z" fill="#9FC6FF"/>
</svg>
