<svg width="502" height="334" viewBox="0 0 502 334" fill="none" xmlns="http://www.w3.org/2000/svg">
<g clipPath="url(#clip0_7553_4325)">
<path d="M501.649 0H0V333.897H501.649V0Z" fill="white"/>
<path d="M438.768 296.302H65.0188C64.8524 296.302 64.7178 296.167 64.7178 296.001C64.7178 295.835 64.8524 295.7 65.0188 295.7H438.768C438.934 295.7 439.069 295.835 439.069 296.001C439.069 296.167 438.934 296.302 438.768 296.302Z" fill="#292929"/>
<path d="M349.968 118.628H349.576C322.986 118.628 301.43 140.184 301.43 166.775V200.124H398.106V166.774C398.106 140.184 376.558 118.628 349.968 118.628ZM379.306 188.938H320.238V168.556C320.238 152.313 333.405 139.146 349.648 139.146H349.888C366.139 139.146 379.306 152.313 379.306 168.556V188.938Z" fill="#5379F6"/>
<path d="M301.43 198.189C301.264 198.189 301.129 198.055 301.129 197.888V166.774C301.129 158.195 303.401 149.765 307.701 142.396C311.873 135.244 317.847 129.238 324.977 125.028C325.12 124.944 325.305 124.991 325.39 125.134C325.474 125.277 325.427 125.462 325.284 125.546C310.756 134.125 301.731 149.923 301.731 166.774V197.888C301.731 198.055 301.596 198.189 301.43 198.189Z" fill="#292929"/>
<path d="M325.13 125.588C325.027 125.588 324.927 125.535 324.871 125.44C324.786 125.297 324.834 125.112 324.977 125.028C327.021 123.82 329.172 122.756 331.368 121.865C331.523 121.803 331.698 121.877 331.76 122.031C331.823 122.185 331.749 122.36 331.595 122.423C329.426 123.303 327.302 124.354 325.283 125.546C325.235 125.574 325.182 125.588 325.13 125.588Z" fill="#292929"/>
<path d="M401.637 296.001H297.905C288.381 296.001 280.659 288.28 280.659 278.755V199.792C280.659 190.267 288.381 182.546 297.905 182.546H401.637C411.161 182.546 418.883 190.267 418.883 199.792V278.755C418.883 288.28 411.162 296.001 401.637 296.001Z" fill="#5379F6"/>
<path d="M401.636 296.303H297.905C288.229 296.303 280.357 288.432 280.357 278.756V199.793C280.357 190.118 288.229 182.246 297.905 182.246H401.636C411.311 182.246 419.183 190.118 419.183 199.793V278.756C419.183 288.432 411.311 296.303 401.636 296.303ZM297.905 182.848C288.561 182.848 280.959 190.449 280.959 199.793V278.756C280.959 288.099 288.561 295.701 297.905 295.701H401.636C410.979 295.701 418.581 288.099 418.581 278.756V199.793C418.581 190.45 410.979 182.848 401.636 182.848L297.905 182.848Z" fill="#292929"/>
<path d="M349.771 272.032C346.461 272.032 343.778 269.349 343.778 266.04V247.264H355.763V266.04C355.763 269.349 353.08 272.032 349.771 272.032Z" fill="#292929"/>
<path d="M358.135 248.862H341.407C338.746 248.862 336.588 246.704 336.588 244.043V229.712C336.588 227.05 338.746 224.893 341.407 224.893H358.135C360.797 224.893 362.954 227.05 362.954 229.712V244.043C362.954 246.704 360.796 248.862 358.135 248.862Z" fill="#292929"/>
<path d="M146.754 64.1631H99.9629V110.954H146.754V64.1631Z" fill="white"/>
<path d="M146.754 111.256H99.9631C99.7968 111.256 99.6621 111.121 99.6621 110.955V64.1633C99.6621 63.9969 99.7968 63.8623 99.9631 63.8623H146.754C146.921 63.8623 147.055 63.9969 147.055 64.1633V110.955C147.055 111.121 146.921 111.256 146.754 111.256ZM100.264 110.654H146.454V64.4643H100.264V110.654Z" fill="#292929"/>
<path d="M136.097 100.3C143.133 93.2635 143.133 81.8556 136.097 74.8195C129.061 67.7833 117.653 67.7833 110.617 74.8195C103.581 81.8556 103.581 93.2635 110.617 100.3C117.653 107.336 129.061 107.336 136.097 100.3Z" fill="#5379F6"/>
<path d="M125.301 89.0002C126.1 87.9284 125.878 86.4121 124.806 85.6134C123.735 84.8148 122.218 85.0363 121.42 86.1081C120.621 87.1799 120.843 88.6962 121.914 89.4949C122.986 90.2935 124.502 90.072 125.301 89.0002Z" fill="white"/>
<path d="M137.342 88.2665H123.493C123.327 88.2665 123.192 88.1318 123.192 87.9655V75.3205C123.192 75.1542 123.327 75.0195 123.493 75.0195C123.66 75.0195 123.794 75.1542 123.794 75.3205V87.6645H137.342C137.509 87.6645 137.643 87.7991 137.643 87.9655C137.643 88.1318 137.509 88.2665 137.342 88.2665Z" fill="white"/>
<path d="M133.365 148.024H123.492C123.326 148.024 123.191 147.889 123.191 147.723V121.19C123.191 121.023 123.326 120.889 123.492 120.889C123.659 120.889 123.793 121.023 123.793 121.19V147.422H133.365C133.532 147.422 133.666 147.556 133.666 147.723C133.666 147.889 133.532 148.024 133.365 148.024Z" fill="#292929"/>
<path d="M313.803 296.002H193.54C187.024 296.002 181.741 290.719 181.741 284.203V48.0902C181.741 41.5738 187.024 36.291 193.54 36.291H313.803C320.319 36.291 325.602 41.5736 325.602 48.0902V284.203C325.602 290.719 320.319 296.002 313.803 296.002Z" fill="white"/>
<path d="M313.803 296.303H193.541C186.868 296.303 181.44 290.875 181.44 284.203V48.0904C181.44 41.4183 186.868 35.9902 193.541 35.9902H313.803C320.475 35.9902 325.903 41.4183 325.903 48.0904V284.203C325.903 290.875 320.475 296.303 313.803 296.303ZM193.541 36.5922C187.201 36.5922 182.042 41.7504 182.042 48.0904V284.203C182.042 290.543 187.201 295.701 193.541 295.701H313.803C320.143 295.701 325.301 290.543 325.301 284.203V48.0904C325.301 41.7504 320.143 36.5922 313.803 36.5922H193.541Z" fill="#292929"/>
<path d="M309.408 288.931H197.937C193.143 288.931 189.242 285.03 189.242 280.236V52.0549C189.242 47.2608 193.143 43.3604 197.937 43.3604H309.408C314.202 43.3604 318.103 47.2608 318.103 52.0549V280.236C318.103 285.031 314.202 288.931 309.408 288.931ZM197.937 43.9625C193.475 43.9625 189.844 47.5929 189.844 52.0551V280.237C189.844 284.699 193.475 288.329 197.937 288.329H309.408C313.87 288.329 317.501 284.699 317.501 280.237V52.0549C317.501 47.5927 313.87 43.9623 309.408 43.9623L197.937 43.9625Z" fill="#292929"/>
<path d="M268.137 52.1221H235.854V52.724H268.137V52.1221Z" fill="#292929"/>
<path d="M288.796 85.3026V133.652C286.881 138.8 283.106 146.975 275.738 155.014C267.628 163.861 258.896 168.476 253.672 170.753C253.638 170.768 253.605 170.782 253.572 170.797C248.318 168.472 239.657 163.823 231.607 155.014C224.264 146.978 220.478 138.82 218.549 133.652V85.3026C230.237 81.8601 241.926 78.4164 253.614 74.9727C253.634 74.9779 253.653 74.9847 253.672 74.9899C265.38 78.4284 277.088 81.8655 288.796 85.3026Z" fill="white"/>
<path d="M288.795 85.302V133.652C286.88 138.799 283.105 146.975 275.738 155.013C267.627 163.861 258.895 168.476 253.672 170.752V74.9893C265.38 78.4278 277.087 81.8649 288.795 85.302Z" fill="#5379F6"/>
<path d="M252.371 93.313C247.186 94.8409 242 96.3685 236.814 97.8963C234.903 98.4592 233.592 100.213 233.592 102.205V125.648C233.592 126.224 233.703 126.793 233.917 127.327C235.103 130.283 237.238 134.52 241.057 138.699C244.723 142.71 248.609 145.212 251.557 146.736C252.85 147.404 254.381 147.41 255.678 146.75C258.634 145.247 262.574 142.749 266.286 138.699C270.118 134.518 272.251 130.273 273.428 127.325C273.641 126.792 273.752 126.225 273.752 125.651V102.208C273.752 100.215 272.438 98.4597 270.525 97.8983L254.906 93.3118C254.079 93.0688 253.199 93.0692 252.371 93.313Z" fill="white"/>
<path d="M253.633 147.541C252.873 147.541 252.112 147.362 251.42 147.004C247.42 144.936 243.859 142.211 240.836 138.903C237.762 135.539 235.341 131.682 233.639 127.44C233.409 126.866 233.292 126.263 233.292 125.649V102.206C233.292 100.095 234.706 98.2047 236.73 97.6082L252.287 93.0249C253.172 92.7642 254.107 92.7638 254.992 93.0237L270.611 97.6102C272.638 98.2053 274.054 100.097 274.054 102.209V125.652C274.054 126.264 273.938 126.865 273.709 127.438C272.012 131.685 269.59 135.542 266.509 138.903C263.458 142.232 259.86 144.963 255.815 147.02C255.132 147.367 254.382 147.541 253.633 147.541ZM252.457 93.6024L236.9 98.1857C235.13 98.7072 233.894 100.36 233.894 102.206V125.649C233.894 126.186 233.996 126.713 234.198 127.216C235.872 131.391 238.255 135.186 241.28 138.497C244.256 141.752 247.76 144.434 251.696 146.469C252.899 147.091 254.337 147.096 255.543 146.483C259.523 144.459 263.063 141.772 266.066 138.497C269.097 135.189 271.48 131.393 273.15 127.214C273.35 126.713 273.452 126.187 273.452 125.652V102.209C273.452 100.362 272.214 98.7082 270.442 98.1879L254.822 93.6014C254.049 93.374 253.231 93.3746 252.457 93.6024Z" fill="#292929"/>
<path d="M256.308 117.358C258.314 115.352 258.314 112.099 256.308 110.093C254.302 108.087 251.049 108.087 249.043 110.093C247.037 112.099 247.037 115.352 249.043 117.358C251.049 119.364 254.302 119.364 256.308 117.358Z" fill="#5379F6"/>
<path d="M252.678 127.75C251.594 127.75 250.716 126.872 250.716 125.788V115.745H254.641V125.788C254.641 126.871 253.762 127.75 252.678 127.75Z" fill="#5379F6"/>
<path d="M253.572 171.098C253.53 171.098 253.489 171.089 253.45 171.072C245.13 167.391 237.5 161.909 231.385 155.217C225.656 148.947 221.243 141.727 218.267 133.758C218.254 133.724 218.248 133.688 218.248 133.652V85.3027C218.248 85.1692 218.336 85.0516 218.464 85.0139C230.152 81.5714 241.841 78.1277 253.529 74.684C253.583 74.6685 253.639 74.6679 253.692 74.682L253.733 74.6942C253.735 74.6948 253.755 74.7008 253.757 74.7012C265.465 78.1397 277.173 81.5768 288.881 85.0141C289.009 85.0518 289.097 85.1694 289.097 85.3031V133.653C289.097 133.689 289.091 133.724 289.078 133.758C286.109 141.74 281.695 148.96 275.96 155.218C269.819 161.918 262.153 167.385 253.793 171.029L253.692 171.073C253.654 171.089 253.613 171.098 253.572 171.098ZM218.85 133.598C221.798 141.475 226.165 148.612 231.829 154.811C237.859 161.409 245.376 166.821 253.573 170.468C261.847 166.859 269.435 161.444 275.516 154.811C281.187 148.624 285.553 141.487 288.495 133.598V85.5282C276.868 82.1148 265.241 78.7014 253.614 75.2865C242.027 78.7006 230.438 82.115 218.85 85.528V133.598Z" fill="#292929"/>
<path d="M300.404 191.234H206.941V184.268H300.404V191.234ZM207.543 190.632H299.802V184.87H207.543V190.632Z" fill="#292929"/>
<path d="M300.404 209.181H206.941V202.215H300.404V209.181ZM207.543 208.579H299.802V202.817H207.543V208.579Z" fill="#292929"/>
<path d="M300.102 220.461H207.242V226.825H300.102V220.461Z" fill="#E7ECF2"/>
<path d="M300.102 238.407H207.242V244.772H300.102V238.407Z" fill="#E7ECF2"/>
<path d="M149.591 151.373C148.907 153.493 148.149 155.669 147.309 157.893C145.278 163.268 143.054 168.159 140.789 172.562C142.116 173.821 143.991 175.291 146.479 176.453C152.83 179.418 158.886 178.37 161.248 177.824C161.165 171.941 161.082 166.058 161 160.175L149.591 151.373Z" fill="white"/>
<path d="M155.732 178.752C152.951 178.752 149.67 178.276 146.351 176.726C144.246 175.743 142.305 174.415 140.582 172.78C140.485 172.688 140.46 172.543 140.522 172.424C142.96 167.684 145.149 162.759 147.027 157.787C147.835 155.647 148.601 153.459 149.304 151.281C149.355 151.123 149.525 151.036 149.683 151.087C149.841 151.138 149.928 151.308 149.877 151.466C149.171 153.653 148.402 155.851 147.59 157.999C145.73 162.923 143.567 167.799 141.16 172.498C142.795 174.017 144.626 175.256 146.606 176.18C152.334 178.854 157.958 178.241 160.944 177.584L160.699 160.179C160.696 160.013 160.829 159.876 160.995 159.874C160.997 159.874 160.998 159.874 161 159.874C161.164 159.874 161.298 160.006 161.301 160.17L161.549 177.819C161.551 177.961 161.454 178.085 161.316 178.117C159.965 178.43 158.018 178.752 155.732 178.752Z" fill="#292929"/>
<path d="M142.185 167.724C143.943 171.642 147.823 174.185 152.082 174.214C156.191 174.242 159.991 171.925 161.88 168.243C169.936 168.311 175.61 170.492 179.297 172.513C196.763 182.087 205.084 207.49 200.325 236.205C182.543 245.478 164.761 254.751 146.979 264.024C130.31 247.808 113.641 231.592 96.9717 215.377C97.5137 212.363 104.399 176.817 129.97 169.111C133.218 168.132 137.285 167.446 142.185 167.724Z" fill="#5379F6"/>
<path d="M140.872 215.178C151.193 210.842 162.127 213.267 167.406 220.281C171.399 225.585 170.947 231.907 170.691 234.066C162.916 234.066 155.142 234.066 147.368 234.066C146.004 235.148 143.776 236.645 140.707 237.634C138.2 238.442 135.985 238.637 134.408 238.651C136.563 230.826 138.717 223.002 140.872 215.178Z" fill="white"/>
<path d="M141.798 256.651C127.482 249.627 113.166 242.604 98.8496 235.58C136.807 234.139 174.764 232.697 212.721 231.256L211.62 256.651C189.095 265.382 166.571 274.114 144.046 282.845L141.798 256.651Z" fill="white"/>
<path d="M144.046 283.146C143.925 283.146 143.812 283.073 143.765 282.954C143.705 282.799 143.782 282.625 143.937 282.565L211.328 256.441L212.406 231.569L100.054 235.836L141.931 256.381C142.08 256.454 142.142 256.634 142.069 256.784C141.996 256.933 141.815 256.995 141.666 256.921L98.7173 235.851C98.5935 235.79 98.5269 235.653 98.5554 235.518C98.5841 235.384 98.7006 235.285 98.8383 235.28L212.71 230.955C212.794 230.952 212.875 230.984 212.935 231.044C212.994 231.103 213.026 231.185 213.022 231.269L211.921 256.664C211.916 256.783 211.841 256.888 211.729 256.932L144.155 283.126C144.119 283.14 144.082 283.146 144.046 283.146Z" fill="#292929"/>
<path d="M176.236 251.097L154.804 267.426L186.101 289.878L203.11 282.054L176.236 251.097Z" fill="white"/>
<path d="M186.1 290.179C186.038 290.179 185.977 290.16 185.925 290.122L154.627 267.67C154.55 267.614 154.503 267.525 154.502 267.429C154.501 267.334 154.545 267.243 154.621 267.186L176.052 250.857C176.179 250.76 176.358 250.779 176.462 250.899L203.337 281.856C203.399 281.927 203.424 282.024 203.404 282.117C203.384 282.209 203.321 282.287 203.236 282.327L186.226 290.151C186.186 290.17 186.143 290.179 186.1 290.179ZM155.309 267.418L186.133 289.531L202.619 281.947L176.192 251.506L155.309 267.418Z" fill="#292929"/>
<path d="M162.287 263.684L193.536 290.882C195.436 292.536 194.266 295.661 191.747 295.661H129.629V268.446L162.287 263.684Z" fill="white"/>
<path d="M191.747 295.961H129.629C129.463 295.961 129.328 295.827 129.328 295.66V268.445C129.328 268.296 129.438 268.169 129.586 268.148L162.244 263.385C162.331 263.372 162.419 263.398 162.485 263.456L193.734 290.654C194.71 291.504 195.034 292.784 194.581 293.996C194.128 295.208 193.042 295.961 191.747 295.961ZM129.93 295.359H191.747C192.987 295.359 193.733 294.546 194.017 293.785C194.302 293.024 194.273 291.921 193.339 291.108L162.194 264.001L129.93 268.705V295.359Z" fill="#292929"/>
<path d="M105.816 216.398C125.151 232.557 144.485 248.715 163.818 264.875L133.542 291.069L137.624 295.491L113.3 296.001C94.2855 284.386 83.2647 270.968 77.3667 262.424C69.4997 251.028 59.2199 236.137 64.182 221.886C64.6385 220.575 67.8593 211.737 76.0498 208.403C85.4824 204.563 96.9597 208.995 105.816 216.398Z" fill="white"/>
<path d="M113.3 296.302C113.245 296.302 113.191 296.287 113.144 296.258C98.4731 287.297 86.3527 275.971 77.1189 262.595C73.1404 256.832 68.6312 250.3 65.6861 243.343C62.2547 235.237 61.6695 228.186 63.8976 221.787C64.7316 219.392 68.0643 211.329 75.9362 208.124C80.4677 206.28 85.615 206.202 91.2357 207.896C96.2261 209.399 101.335 212.259 106.009 216.166L164.011 264.643C164.079 264.7 164.118 264.783 164.119 264.872C164.12 264.96 164.082 265.044 164.015 265.102L133.974 291.093L137.845 295.286C137.925 295.374 137.947 295.5 137.901 295.608C137.854 295.717 137.748 295.789 137.63 295.792L113.307 296.302C113.305 296.302 113.303 296.302 113.3 296.302ZM83.5613 207.29C80.9485 207.29 78.4589 207.747 76.1634 208.682C68.3286 211.871 65.045 220.323 64.4665 221.985C59.5546 236.092 69.5683 250.597 77.6145 262.253C86.7845 275.536 98.8178 286.788 113.382 295.699L136.95 295.204L133.321 291.273C133.265 291.213 133.237 291.133 133.241 291.052C133.246 290.971 133.283 290.894 133.345 290.841L163.354 264.878L105.623 216.628C98.3224 210.526 90.5097 207.29 83.5613 207.29Z" fill="#292929"/>
<path d="M196.646 285.456C235.193 270.859 255.047 245.258 250.396 228.644C250.142 227.736 249.606 226.112 248.341 224.1C242.065 214.124 228.616 211.591 219.021 218.436C203.285 229.663 187.549 240.89 171.812 252.117L196.646 285.456Z" fill="white"/>
<path d="M196.647 285.757C196.554 285.757 196.463 285.713 196.405 285.636L171.571 252.297C171.523 252.232 171.503 252.15 171.515 252.07C171.528 251.99 171.572 251.919 171.638 251.872L218.847 218.191C223.529 214.85 229.451 213.573 235.095 214.686C240.749 215.802 245.544 219.088 248.596 223.94C249.561 225.474 250.245 226.987 250.686 228.563C253.046 236.99 249.13 247.722 239.945 258.007C230.046 269.09 214.707 278.938 196.753 285.737C196.719 285.751 196.682 285.757 196.647 285.757ZM172.238 252.184L196.752 285.094C214.526 278.332 229.7 268.575 239.496 257.606C248.542 247.478 252.409 236.951 250.107 228.725C249.681 227.206 249.02 225.745 248.087 224.261C245.124 219.551 240.469 216.36 234.979 215.277C229.497 214.196 223.745 215.436 219.197 218.681L172.238 252.184Z" fill="#292929"/>
<path d="M135.413 293.58C135.339 293.58 135.264 293.553 135.206 293.498C126.784 285.55 118.426 277.306 110.363 268.996C103.689 262.117 97.0477 255.018 90.6244 247.896C90.513 247.773 90.5228 247.582 90.6463 247.471C90.7697 247.36 90.9601 247.37 91.0713 247.493C97.4895 254.609 104.126 261.703 110.795 268.576C118.852 276.88 127.204 285.118 135.619 293.061C135.74 293.175 135.745 293.365 135.631 293.486C135.573 293.549 135.493 293.58 135.413 293.58Z" fill="#292929"/>
<path d="M130.31 200.068L124.186 213.335L144.938 213.675C142.989 216.141 140.241 220.243 138.474 225.922C136.983 230.716 136.723 234.923 136.773 237.829C122.457 242.845 107.294 242.504 100.033 234.767C89.8504 223.917 92.9769 196.145 117.825 176.535C121.986 184.379 126.148 192.224 130.31 200.068Z" fill="#5379F6"/>
<path d="M156.996 233.474C156.875 233.474 156.761 233.401 156.715 233.281C156.188 231.906 155.554 230.553 154.831 229.259C154.035 227.84 153.128 226.479 152.135 225.217C152.032 225.086 152.055 224.897 152.185 224.794C152.316 224.691 152.505 224.714 152.608 224.844C153.62 226.132 154.545 227.519 155.356 228.966C156.093 230.284 156.739 231.664 157.277 233.066C157.337 233.221 157.259 233.395 157.104 233.455C157.069 233.468 157.032 233.474 156.996 233.474Z" fill="#292929"/>
<path d="M162.951 233.296C162.83 233.296 162.716 233.222 162.67 233.103C162.145 231.734 161.51 230.381 160.784 229.081C159.994 227.668 159.087 226.308 158.088 225.038C157.985 224.907 158.008 224.718 158.138 224.616C158.269 224.512 158.458 224.535 158.561 224.666C159.579 225.961 160.504 227.347 161.309 228.787C162.05 230.112 162.697 231.492 163.232 232.887C163.292 233.042 163.214 233.217 163.059 233.276C163.023 233.289 162.987 233.296 162.951 233.296Z" fill="#292929"/>
<path d="M168.904 233.117C168.783 233.117 168.669 233.043 168.623 232.924C168.098 231.555 167.463 230.202 166.737 228.902C165.949 227.493 165.043 226.133 164.043 224.859C163.94 224.728 163.963 224.539 164.094 224.436C164.224 224.334 164.414 224.356 164.516 224.487C165.535 225.786 166.459 227.172 167.262 228.608C168.003 229.933 168.65 231.313 169.185 232.708C169.245 232.863 169.167 233.038 169.012 233.097C168.976 233.111 168.94 233.117 168.904 233.117Z" fill="#292929"/>
<path d="M169.395 145.698C168.828 141.638 167.681 139.971 167.322 139.478C165.373 136.803 161.641 134.459 158.179 135.078C153.736 135.871 150.649 141.376 150.547 146.699C149.081 146.224 147.569 146.514 146.719 147.576C145.546 149.043 146.082 151.422 147.917 152.888C149.367 154.048 151.192 154.286 152.474 153.611C156.073 159.187 163.861 161.95 167.322 159.692C171.015 157.282 169.87 149.097 169.395 145.698Z" fill="white"/>
<path d="M164.235 160.78C163.547 160.78 162.811 160.699 162.041 160.535C158.286 159.736 154.518 157.182 152.367 153.994C150.971 154.588 149.144 154.254 147.729 153.123C146.788 152.371 146.138 151.368 145.897 150.298C145.65 149.203 145.859 148.17 146.485 147.387C147.31 146.355 148.761 145.949 150.259 146.305C150.494 141.222 153.439 135.617 158.126 134.78C161.696 134.143 165.577 136.572 167.566 139.3C168.833 141.04 169.423 143.716 169.694 145.655C170.186 149.178 171.34 157.429 167.487 159.943C166.637 160.497 165.52 160.78 164.235 160.78ZM152.474 153.31C152.573 153.31 152.67 153.359 152.727 153.447C154.768 156.609 158.473 159.16 162.166 159.946C164.215 160.383 165.988 160.202 167.157 159.439C170.69 157.133 169.574 149.148 169.097 145.739C168.722 143.056 168.024 140.952 167.079 139.655C165.201 137.077 161.559 134.779 158.232 135.373C153.73 136.177 150.942 141.765 150.848 146.704C150.846 146.799 150.799 146.888 150.722 146.943C150.644 146.999 150.545 147.014 150.454 146.985C149.066 146.535 147.692 146.841 146.955 147.763C146.445 148.4 146.278 149.253 146.484 150.165C146.695 151.102 147.271 151.986 148.105 152.652C149.421 153.705 151.121 153.983 152.334 153.344C152.378 153.321 152.426 153.31 152.474 153.31Z" fill="#292929"/>
<path d="M140.89 214.931C140.876 214.931 140.862 214.93 140.847 214.928L114.933 211.3C114.769 211.277 114.654 211.125 114.677 210.96C114.7 210.796 114.852 210.682 115.017 210.704L140.931 214.332C141.096 214.355 141.211 214.507 141.187 214.672C141.166 214.822 141.037 214.931 140.89 214.931Z" fill="#292929"/>
<path d="M126.129 212.455C126.103 212.455 126.077 212.452 126.05 212.444C125.89 212.401 125.795 212.236 125.839 212.075L129.456 198.743C129.499 198.583 129.665 198.487 129.825 198.531C129.986 198.575 130.08 198.74 130.037 198.9L126.42 212.233C126.383 212.367 126.262 212.455 126.129 212.455Z" fill="#292929"/>
<path d="M183.23 232.457C183.08 232.457 182.95 232.345 182.931 232.193L179.271 203.081C179.25 202.916 179.367 202.765 179.532 202.744C179.697 202.725 179.847 202.841 179.868 203.005L183.529 232.118C183.549 232.283 183.432 232.433 183.267 232.454C183.255 232.456 183.242 232.457 183.23 232.457Z" fill="#292929"/>
<path d="M146.331 146.993C147.043 147.332 148.898 148.09 150.996 147.511C153.847 146.724 155.976 143.792 156.164 140.195C162.734 144.537 169.688 143.696 172.153 140.195C173.659 138.057 173.648 134.703 172.153 132.37C169.926 128.895 164.342 127.585 159.226 130.329C154.769 128.518 149.656 129.779 146.639 133.391C143.438 137.224 143.284 142.883 146.331 146.993Z" fill="#292929"/>
</g>
<defs>
<clipPath id="clip0_7553_4325">
<rect width="501.649" height="333.897" fill="white"/>
</clipPath>
</defs>
</svg>
