<svg width="172" height="56" viewBox="0 0 172 56" fill="none" xmlns="http://www.w3.org/2000/svg">
<path d="M101.853 17.2943C98.3589 17.2943 94.9434 20.4584 94.5505 25.0301V17.6712H89.5329V39.8601H94.6121V29.1198C94.6121 26.1112 96.7446 21.8672 101.853 21.8672V17.2943Z" fill="#868686"/>
<path d="M155.131 36.3079V21.1058H158.073C161.996 21.1058 165.184 23.5578 165.184 28.5843C165.184 33.6107 161.996 36.3079 158.073 36.3079H155.131ZM150.104 39.8633H158.686C163.958 39.8633 170.455 36.4305 170.455 28.5843C170.455 20.8606 163.958 17.6731 158.686 17.6731H150.104V39.8633Z" fill="#868686"/>
<path d="M130.871 28.8297C130.871 24.784 132.955 21.4739 136.388 21.4739C139.698 21.4739 141.537 24.784 141.537 28.8297C141.537 32.8755 139.698 36.1856 136.388 36.1856C132.955 36.1856 130.871 32.8755 130.871 28.8297ZM125.722 29.0749C125.722 35.6952 129.155 40.3539 134.549 40.3539C138.472 40.3539 140.801 37.7794 142.027 33.611V39.8635H147.053V17.6734H142.027V23.5581C140.924 19.6349 138.595 17.3056 134.917 17.3056C129.4 17.3056 125.722 22.3321 125.722 29.0749Z" fill="#868686"/>
<path d="M11.2595 40.3539C5.00702 40.3539 1.3291 35.3274 1.3291 29.0749C1.3291 22.5773 5.37481 17.3056 13.0984 17.3056C21.0673 17.3056 23.7644 22.6999 23.887 25.7648H18.1249C18.0023 24.0484 16.5312 21.4739 12.9758 21.4739C9.17532 21.4739 6.72339 24.784 6.72339 28.8297C6.72339 32.8755 9.17532 36.1856 12.9758 36.1856C16.4085 36.1856 17.8797 33.4885 18.4927 30.7913H12.9758V28.5845H24.5521V39.8635H19.4735V32.7528C19.1057 35.3274 17.5119 40.3539 11.2595 40.3539Z" fill="#868686"/>
<path d="M34.8492 40.3536C30.068 40.3536 27.1256 37.1661 27.1256 30.791V17.6731H32.2747V30.791C32.2747 34.1011 33.8685 35.6949 36.5656 35.6949C41.8373 35.6949 43.7989 29.1972 43.7989 24.6612V17.6731H48.9479V39.8633H43.9214V31.6492C42.9406 36.1853 40.2435 40.3536 34.8492 40.3536Z" fill="#868686"/>
<path d="M79.7174 17.2939C75.3243 17.2939 72.553 21.5376 71.6484 25.4614C71.4937 20.2031 68.9079 17.2939 64.7704 17.2939C61.1957 17.2939 57.8793 20.4818 57.018 25.5249V17.6714H51.9985V39.8621H57.0823V31.9068C57.0823 29.9346 57.9045 21.8411 63.0223 21.8411C66.3375 21.8411 66.6832 24.8315 66.6832 28.9193V39.8621H71.7646V31.9068C71.7646 29.9346 72.6209 21.8411 77.7386 21.8411C81.0512 21.8411 81.3933 24.8315 81.3933 28.9193V39.8621H86.4817V26.7364C86.5047 20.4395 84.2815 17.2939 79.7174 17.2939Z" fill="#868686"/>
<path d="M112.76 17.2939C106.179 17.2939 101.719 22.4544 101.719 28.8239C101.719 35.8422 105.96 40.3538 112.76 40.3538C119.341 40.3538 123.88 35.1934 123.88 28.8239C123.88 21.8057 119.557 17.2939 112.76 17.2939ZM112.76 36.426C108.929 36.426 106.447 33.1823 106.447 28.8239C106.447 24.4655 108.937 21.2217 112.76 21.2217C116.582 21.2217 118.973 24.4655 118.973 28.8239C118.973 33.1823 116.58 36.426 112.76 36.426Z" fill="#868686"/>
</svg>
