<svg width="617" height="536" viewBox="0 0 617 536" fill="none" xmlns="http://www.w3.org/2000/svg">
<rect x="324" y="52" width="261" height="256" rx="8" fill="black"/>
<path d="M370 87L375.253 90.832L381.756 90.82L383.753 97.008L389.021 100.82L387 107L389.021 113.18L383.753 116.992L381.756 123.18L375.253 123.168L370 127L364.747 123.168L358.244 123.18L356.247 116.992L350.979 113.18L353 107L350.979 100.82L356.247 97.008L358.244 90.82L364.747 90.832L370 87Z" stroke="white" strokeWidth="2" stroke-linecap="round" stroke-linejoin="round"/>
<path d="M363 107L368 112L378 102" stroke="white" strokeWidth="2" stroke-linecap="round" stroke-linejoin="round"/>
<path d="M352.98 166.2C348.88 166.2 346.9 164.3 346.9 160.62V151.76H349.62V160.36C349.62 163.04 350.64 163.98 352.98 163.98C355.32 163.98 356.36 163.04 356.36 160.36V151.76H359.08V160.62C359.08 164.3 357.1 166.2 352.98 166.2ZM370.084 166H367.504V159.68C367.504 158.28 367.004 157.58 365.744 157.58C364.384 157.58 363.504 158.56 363.504 160.24V166H360.924V155.68H363.384V157.36C363.944 156.26 364.864 155.48 366.544 155.48C368.904 155.48 370.084 156.68 370.084 159.18V166ZM376.1 166.2C373.32 166.2 371.56 164.22 371.56 160.84C371.56 157.46 373.32 155.48 376.1 155.48C377.66 155.48 378.7 156.12 379.28 157.24V151.76H381.86V166H379.4V164.24C378.84 165.44 377.82 166.2 376.1 166.2ZM376.7 164.24C378.24 164.24 379.28 163.2 379.28 160.84C379.28 158.48 378.24 157.44 376.7 157.44C375.18 157.44 374.14 158.48 374.14 160.84C374.14 163.2 375.18 164.24 376.7 164.24ZM388.577 166.2C385.217 166.2 383.337 164.1 383.337 160.84C383.337 157.66 385.137 155.48 388.457 155.48C391.797 155.48 393.597 157.68 393.597 160.72C393.597 160.94 393.577 161.14 393.557 161.38H385.917C385.997 163.48 386.997 164.44 388.577 164.44C389.857 164.44 390.697 163.8 390.997 162.74H393.377C392.937 164.86 391.357 166.2 388.577 166.2ZM388.457 157.24C387.037 157.24 386.137 158.06 385.917 159.7H391.017C390.797 158.06 389.877 157.24 388.457 157.24ZM397.665 166H395.085V155.68H397.545V157.98C398.085 156.16 398.985 155.54 400.425 155.54C400.705 155.54 401.125 155.62 401.365 155.68V157.94L400.305 157.92C398.725 157.92 397.665 159.1 397.665 161.2V166ZM406.943 166.2C403.623 166.2 402.263 164.78 402.263 162.74H404.763C404.883 163.84 405.383 164.5 406.983 164.5C408.523 164.5 409.063 163.86 409.063 163.1C409.063 162.4 408.503 162.04 407.623 161.9L405.843 161.64C403.463 161.3 402.543 160.5 402.543 158.74C402.543 156.9 403.803 155.48 406.943 155.48C410.103 155.48 411.363 156.9 411.363 158.78H408.863C408.763 157.92 408.443 157.18 406.923 157.18C405.623 157.18 405.123 157.72 405.123 158.54C405.123 159.22 405.523 159.52 406.263 159.62L408.023 159.88C410.303 160.2 411.643 160.96 411.643 162.94C411.643 164.78 410.283 166.2 406.943 166.2ZM416.936 166.1C414.596 166.1 413.816 165.38 413.816 163.1V157.52H412.196V155.68H413.816V152.56H416.396V155.68H418.636V157.52H416.396V163.2C416.396 164 416.736 164.28 417.556 164.28L418.636 164.26V166C418.216 166.04 417.396 166.1 416.936 166.1ZM423.424 166.2C421.004 166.2 419.704 164.98 419.704 163.08C419.704 161.5 420.644 160.24 423.244 160.04L425.344 159.86C426.384 159.76 426.684 159.48 426.684 158.94C426.684 157.92 426.064 157.32 424.784 157.32C423.584 157.32 422.924 157.84 422.824 158.94H420.264C420.264 156.84 421.584 155.48 424.764 155.48C427.944 155.48 429.264 156.84 429.264 158.94V163.36C429.264 164.76 429.384 165.66 429.584 166H427.244C426.944 165.62 426.804 165.2 426.804 164.4C426.224 165.58 425.184 166.2 423.424 166.2ZM424.184 164.44C425.784 164.44 426.684 163.22 426.684 161.72V161C426.504 161.22 426.024 161.34 425.324 161.4L424.104 161.5C422.804 161.62 422.284 162.16 422.284 162.9C422.284 163.82 422.864 164.44 424.184 164.44ZM440.299 166H437.719V159.68C437.719 158.28 437.219 157.58 435.959 157.58C434.599 157.58 433.719 158.56 433.719 160.24V166H431.139V155.68H433.599V157.36C434.159 156.26 435.079 155.48 436.759 155.48C439.119 155.48 440.299 156.68 440.299 159.18V166ZM446.314 166.2C443.534 166.2 441.774 164.22 441.774 160.84C441.774 157.46 443.534 155.48 446.314 155.48C447.874 155.48 448.914 156.12 449.494 157.24V151.76H452.074V166H449.614V164.24C449.054 165.44 448.034 166.2 446.314 166.2ZM446.914 164.24C448.454 164.24 449.494 163.2 449.494 160.84C449.494 158.48 448.454 157.44 446.914 157.44C445.394 157.44 444.354 158.48 444.354 160.84C444.354 163.2 445.394 164.24 446.914 164.24ZM469.012 166L467.912 164.88C466.672 165.76 465.212 166.2 463.632 166.2C460.232 166.2 458.552 164.4 458.552 162.3C458.552 160.5 459.352 159.28 461.552 158.38C460.572 157.3 460.172 156.34 460.172 155.16C460.172 153.2 461.672 151.56 464.332 151.56C467.012 151.56 468.512 153.2 468.512 155.16C468.512 156.86 467.452 157.84 464.892 158.78L467.952 161.9C468.412 161.18 468.772 160.24 468.972 159.1H471.292C470.972 160.84 470.332 162.3 469.432 163.42L471.972 166H469.012ZM463.812 164.24C464.752 164.24 465.672 164 466.492 163.44L462.732 159.58C461.592 160.14 461.132 160.92 461.132 162.04C461.132 163.36 462.312 164.24 463.812 164.24ZM462.632 155.1C462.632 155.88 462.832 156.56 463.752 157.58C465.332 156.96 466.052 156.1 466.052 155.1C466.052 154.02 465.372 153.4 464.332 153.4C463.312 153.4 462.632 154.02 462.632 155.1ZM491.135 166H488.335L487.255 163.04H481.055L479.975 166H477.175L482.475 151.76H485.835L491.135 166ZM486.575 160.94L484.155 154.24L481.715 160.94H486.575ZM501.373 166H498.793V159.68C498.793 158.28 498.293 157.58 497.033 157.58C495.673 157.58 494.793 158.56 494.793 160.24V166H492.213V155.68H494.673V157.36C495.233 156.26 496.153 155.48 497.833 155.48C500.193 155.48 501.373 156.68 501.373 159.18V166ZM506.569 166.2C504.149 166.2 502.849 164.98 502.849 163.08C502.849 161.5 503.789 160.24 506.389 160.04L508.489 159.86C509.529 159.76 509.829 159.48 509.829 158.94C509.829 157.92 509.209 157.32 507.929 157.32C506.729 157.32 506.069 157.84 505.969 158.94H503.409C503.409 156.84 504.729 155.48 507.909 155.48C511.089 155.48 512.409 156.84 512.409 158.94V163.36C512.409 164.76 512.529 165.66 512.729 166H510.389C510.089 165.62 509.949 165.2 509.949 164.4C509.369 165.58 508.329 166.2 506.569 166.2ZM507.329 164.44C508.929 164.44 509.829 163.22 509.829 161.72V161C509.649 161.22 509.169 161.34 508.469 161.4L507.249 161.5C505.949 161.62 505.429 162.16 505.429 162.9C505.429 163.82 506.009 164.44 507.329 164.44ZM516.864 166H514.284V151.76H516.864V166ZM518.877 169.92V168.08H519.917C521.117 168.08 521.817 167.5 521.817 166.54C521.817 166.24 521.757 165.9 521.617 165.54L517.937 155.68H520.637L523.317 164L525.997 155.68H528.697L525.017 165.54C523.777 168.88 522.417 169.92 519.897 169.92H518.877ZM537.792 166H529.292V164.3L534.592 157.52H529.492V155.68H537.592V157.38L532.312 164.16H537.792V166ZM544.046 166.2C540.686 166.2 538.806 164.1 538.806 160.84C538.806 157.66 540.606 155.48 543.926 155.48C547.266 155.48 549.066 157.68 549.066 160.72C549.066 160.94 549.046 161.14 549.026 161.38H541.386C541.466 163.48 542.466 164.44 544.046 164.44C545.326 164.44 546.166 163.8 546.466 162.74H548.846C548.406 164.86 546.826 166.2 544.046 166.2ZM543.926 157.24C542.506 157.24 541.606 158.06 541.386 159.7H546.486C546.266 158.06 545.346 157.24 543.926 157.24Z" fill="white"/>
<path d="M356.656 207.304C356.656 210.84 354.912 213 351.248 213H346.944V201.608H351.248C354.912 201.608 356.656 203.784 356.656 207.304ZM355.28 207.304C355.28 204.28 353.952 202.712 351.296 202.712H348.32V211.896H351.296C353.952 211.896 355.28 210.328 355.28 207.304ZM361.668 213.16C359.124 213.16 357.715 211.528 357.715 208.872C357.715 206.328 359.028 204.584 361.572 204.584C364.132 204.584 365.444 206.376 365.444 208.68C365.444 208.808 365.444 208.952 365.411 209.08H359.044C359.076 211.32 360.132 212.232 361.668 212.232C362.996 212.232 363.796 211.528 364.084 210.488H365.267C364.884 212.136 363.748 213.16 361.668 213.16ZM361.572 205.512C360.148 205.512 359.22 206.392 359.044 208.184H364.116C363.94 206.392 362.996 205.512 361.572 205.512ZM370.449 213.16C367.905 213.16 366.497 211.528 366.497 208.872C366.497 206.328 367.809 204.584 370.353 204.584C372.913 204.584 374.225 206.376 374.225 208.68C374.225 208.808 374.225 208.952 374.193 209.08H367.825C367.857 211.32 368.913 212.232 370.449 212.232C371.777 212.232 372.577 211.528 372.865 210.488H374.049C373.665 212.136 372.529 213.16 370.449 213.16ZM370.353 205.512C368.929 205.512 368.001 206.392 367.825 208.184H372.897C372.721 206.392 371.777 205.512 370.353 205.512ZM379.774 213.16C378.366 213.16 377.39 212.584 376.926 211.432V216.136H375.598V204.744H376.862V206.392C377.326 205.224 378.286 204.584 379.774 204.584C381.998 204.584 383.358 206.168 383.358 208.872C383.358 211.576 381.998 213.16 379.774 213.16ZM379.47 212.136C380.99 212.136 382.03 211.128 382.03 208.872C382.03 206.616 380.99 205.608 379.47 205.608C377.966 205.608 376.926 206.616 376.926 208.872C376.926 211.128 377.966 212.136 379.47 212.136ZM392.003 213.16C389.779 213.16 388.419 211.576 388.419 208.872C388.419 206.168 389.779 204.584 392.003 204.584C393.411 204.584 394.387 205.16 394.851 206.312V201.608H396.179V213H394.915V211.352C394.451 212.52 393.475 213.16 392.003 213.16ZM392.291 212.136C393.811 212.136 394.851 211.128 394.851 208.872C394.851 206.616 393.811 205.608 392.291 205.608C390.787 205.608 389.747 206.616 389.747 208.872C389.747 211.128 390.787 212.136 392.291 212.136ZM399.207 213H397.879V204.744H399.207V213ZM398.535 203.096C398.007 203.096 397.719 202.776 397.719 202.36C397.719 201.944 398.007 201.624 398.535 201.624C399.063 201.624 399.367 201.944 399.367 202.36C399.367 202.776 399.063 203.096 398.535 203.096ZM405.087 213H403.487L400.271 204.744H401.647L404.286 211.8L406.927 204.744H408.303L405.087 213ZM412.511 213.16C409.967 213.16 408.559 211.528 408.559 208.872C408.559 206.328 409.871 204.584 412.415 204.584C414.975 204.584 416.287 206.376 416.287 208.68C416.287 208.808 416.287 208.952 416.255 209.08H409.887C409.919 211.32 410.975 212.232 412.511 212.232C413.839 212.232 414.639 211.528 414.927 210.488H416.111C415.727 212.136 414.591 213.16 412.511 213.16ZM412.415 205.512C410.991 205.512 410.063 206.392 409.887 208.184H414.959C414.783 206.392 413.839 205.512 412.415 205.512ZM422.989 213H421.661V204.744H422.989V213ZM422.317 203.096C421.789 203.096 421.501 202.776 421.501 202.36C421.501 201.944 421.789 201.624 422.317 201.624C422.845 201.624 423.149 201.944 423.149 202.36C423.149 202.776 422.845 203.096 422.317 203.096ZM431.444 213H430.116V207.752C430.116 206.376 429.62 205.656 428.292 205.656C426.916 205.656 426.02 206.728 426.02 208.392V213H424.692V204.744H425.956V206.264C426.42 205.24 427.268 204.584 428.66 204.584C430.548 204.584 431.444 205.544 431.444 207.544V213ZM435.885 213.08C434.301 213.08 433.709 212.616 433.709 211.08V205.704H432.301V204.744H433.709V202.248H435.037V204.744H437.021V205.704H435.037V211.112C435.037 211.912 435.309 212.104 436.157 212.104L437.021 212.072V213C436.701 213.032 436.173 213.08 435.885 213.08ZM441.449 213.16C438.905 213.16 437.497 211.528 437.497 208.872C437.497 206.232 438.905 204.584 441.449 204.584C444.009 204.584 445.417 206.232 445.417 208.872C445.417 211.528 444.009 213.16 441.449 213.16ZM441.449 212.136C443.129 212.136 444.089 211.032 444.089 208.872C444.089 206.712 443.129 205.608 441.449 205.608C439.785 205.608 438.825 206.712 438.825 208.872C438.825 211.032 439.785 212.136 441.449 212.136ZM450.898 216.136V215.176H451.538C452.498 215.176 453.09 214.648 453.554 213.448L450.146 204.744H451.522L454.146 211.896L456.802 204.744H458.178L454.802 213.288C453.922 215.496 453.09 216.136 451.538 216.136H450.898ZM462.386 213.16C459.842 213.16 458.434 211.528 458.434 208.872C458.434 206.232 459.842 204.584 462.386 204.584C464.946 204.584 466.354 206.232 466.354 208.872C466.354 211.528 464.946 213.16 462.386 213.16ZM462.386 212.136C464.066 212.136 465.026 211.032 465.026 208.872C465.026 206.712 464.066 205.608 462.386 205.608C460.722 205.608 459.762 206.712 459.762 208.872C459.762 211.032 460.722 212.136 462.386 212.136ZM470.491 213.16C468.603 213.16 467.723 212.2 467.723 210.2V204.744H469.051V209.992C469.051 211.368 469.547 212.088 470.875 212.088C472.251 212.088 473.147 211.016 473.147 209.352V204.744H474.475V213H473.211V211.48C472.747 212.504 471.899 213.16 470.491 213.16ZM477.504 213H476.176V204.744H477.44V206.696C477.888 205.256 478.64 204.664 479.872 204.664C480.096 204.664 480.384 204.696 480.624 204.744V205.896L479.824 205.864C478.416 205.864 477.504 206.984 477.504 209.016V213ZM494.826 213H493.418L491.466 206.456L489.514 213H488.106L485.146 204.744H486.522L488.874 211.512L490.858 204.744H492.074L494.058 211.512L496.41 204.744H497.786L494.826 213ZM501.996 213.16C499.452 213.16 498.044 211.528 498.044 208.872C498.044 206.232 499.452 204.584 501.996 204.584C504.556 204.584 505.964 206.232 505.964 208.872C505.964 211.528 504.556 213.16 501.996 213.16ZM501.996 212.136C503.676 212.136 504.636 211.032 504.636 208.872C504.636 206.712 503.676 205.608 501.996 205.608C500.332 205.608 499.372 206.712 499.372 208.872C499.372 211.032 500.332 212.136 501.996 212.136ZM508.66 213H507.332V204.744H508.596V206.696C509.044 205.256 509.796 204.664 511.028 204.664C511.252 204.664 511.54 204.696 511.78 204.744V205.896L510.98 205.864C509.572 205.864 508.66 206.984 508.66 209.016V213ZM520.302 213H518.766L515.838 208.984L514.27 210.488V213H512.942V201.608H514.27V209L518.606 204.744H520.142L516.734 208.072L520.302 213ZM523.412 213H522.084V205.704H520.676V204.744H522.084V203.72C522.084 202.248 522.692 201.528 524.26 201.528C524.548 201.528 525.076 201.576 525.396 201.608V202.536L524.532 202.504C523.684 202.504 523.412 202.888 523.412 203.688V204.744H525.396V205.704H523.412V213ZM527.895 213H526.567V201.608H527.895V213ZM533.23 213.16C530.686 213.16 529.278 211.528 529.278 208.872C529.278 206.232 530.686 204.584 533.23 204.584C535.79 204.584 537.198 206.232 537.198 208.872C537.198 211.528 535.79 213.16 533.23 213.16ZM533.23 212.136C534.91 212.136 535.87 211.032 535.87 208.872C535.87 206.712 534.91 205.608 533.23 205.608C531.566 205.608 530.606 206.712 530.606 208.872C530.606 211.032 531.566 212.136 533.23 212.136ZM547.122 213H545.714L543.762 206.456L541.81 213H540.402L537.442 204.744H538.818L541.17 211.512L543.154 204.744H544.37L546.354 211.512L548.706 204.744H550.082L547.122 213ZM553.78 213.16C551.268 213.16 550.372 212.024 550.372 210.488H551.636C551.716 211.512 552.132 212.248 553.796 212.248C555.444 212.248 555.876 211.512 555.876 210.712C555.876 209.96 555.364 209.592 554.516 209.464L552.9 209.224C551.348 209 550.596 208.424 550.596 207.096C550.596 205.72 551.38 204.584 553.78 204.584C556.196 204.584 556.98 205.72 556.98 207.128H555.716C555.636 206.28 555.38 205.496 553.78 205.496C552.42 205.496 551.924 206.056 551.924 207C551.924 207.8 552.372 208.056 553.076 208.152L554.708 208.392C556.244 208.616 557.204 209.208 557.204 210.648C557.204 212.024 556.308 213.16 553.78 213.16ZM349.744 237.08C348.16 237.08 347.568 236.616 347.568 235.08V229.704H346.16V228.744H347.568V226.248H348.896V228.744H350.88V229.704H348.896V235.112C348.896 235.912 349.168 236.104 350.016 236.104L350.88 236.072V237C350.56 237.032 350.032 237.08 349.744 237.08ZM355.308 237.16C352.764 237.16 351.356 235.528 351.356 232.872C351.356 230.232 352.764 228.584 355.308 228.584C357.868 228.584 359.276 230.232 359.276 232.872C359.276 235.528 357.868 237.16 355.308 237.16ZM355.308 236.136C356.988 236.136 357.948 235.032 357.948 232.872C357.948 230.712 356.988 229.608 355.308 229.608C353.644 229.608 352.684 230.712 352.684 232.872C352.684 235.032 353.644 236.136 355.308 236.136ZM367.413 237.16C365.525 237.16 364.645 236.2 364.645 234.2V228.744H365.973V233.992C365.973 235.368 366.469 236.088 367.797 236.088C369.173 236.088 370.069 235.016 370.069 233.352V228.744H371.397V237H370.133V235.48C369.669 236.504 368.821 237.16 367.413 237.16ZM379.85 237H378.522V231.752C378.522 230.376 378.026 229.656 376.698 229.656C375.322 229.656 374.426 230.728 374.426 232.392V237H373.098V228.744H374.362V230.264C374.826 229.24 375.674 228.584 377.066 228.584C378.954 228.584 379.85 229.544 379.85 231.544V237ZM385.087 237.16C382.639 237.16 381.231 235.528 381.231 232.872C381.231 230.232 382.639 228.584 385.087 228.584C387.615 228.584 388.687 230.232 388.687 231.688H387.487C387.327 230.6 386.655 229.608 385.087 229.608C383.519 229.608 382.559 230.712 382.559 232.872C382.559 235.032 383.519 236.136 385.087 236.136C386.463 236.136 387.295 235.384 387.487 233.992H388.687C388.687 235.608 387.519 237.16 385.087 237.16ZM393.543 237.16C390.999 237.16 389.59 235.528 389.59 232.872C389.59 230.232 390.999 228.584 393.543 228.584C396.103 228.584 397.51 230.232 397.51 232.872C397.51 235.528 396.103 237.16 393.543 237.16ZM393.543 236.136C395.223 236.136 396.183 235.032 396.183 232.872C396.183 230.712 395.223 229.608 393.543 229.608C391.879 229.608 390.919 230.712 390.919 232.872C390.919 235.032 391.879 236.136 393.543 236.136ZM402.571 237H400.971L397.755 228.744H399.131L401.771 235.8L404.411 228.744H405.787L402.571 237ZM409.996 237.16C407.452 237.16 406.044 235.528 406.044 232.872C406.044 230.328 407.356 228.584 409.9 228.584C412.46 228.584 413.772 230.376 413.772 232.68C413.772 232.808 413.772 232.952 413.74 233.08H407.372C407.404 235.32 408.46 236.232 409.996 236.232C411.324 236.232 412.124 235.528 412.412 234.488H413.596C413.212 236.136 412.076 237.16 409.996 237.16ZM409.9 229.512C408.476 229.512 407.548 230.392 407.372 232.184H412.444C412.268 230.392 411.324 229.512 409.9 229.512ZM416.473 237H415.145V228.744H416.409V230.696C416.857 229.256 417.609 228.664 418.841 228.664C419.065 228.664 419.353 228.696 419.593 228.744V229.896L418.793 229.864C417.385 229.864 416.473 230.984 416.473 233.016V237ZM426.082 237H424.754V228.744H426.082V237ZM425.41 227.096C424.882 227.096 424.594 226.776 424.594 226.36C424.594 225.944 424.882 225.624 425.41 225.624C425.938 225.624 426.242 225.944 426.242 226.36C426.242 226.776 425.938 227.096 425.41 227.096ZM434.538 237H433.21V231.752C433.21 230.376 432.714 229.656 431.386 229.656C430.01 229.656 429.114 230.728 429.114 232.392V237H427.786V228.744H429.049V230.264C429.514 229.24 430.362 228.584 431.754 228.584C433.642 228.584 434.538 229.544 434.538 231.544V237ZM439.871 237.16C437.327 237.16 435.919 235.528 435.919 232.872C435.919 230.328 437.231 228.584 439.775 228.584C442.335 228.584 443.647 230.376 443.647 232.68C443.647 232.808 443.647 232.952 443.615 233.08H437.247C437.279 235.32 438.335 236.232 439.871 236.232C441.199 236.232 441.999 235.528 442.287 234.488H443.471C443.087 236.136 441.951 237.16 439.871 237.16ZM439.775 229.512C438.351 229.512 437.423 230.392 437.247 232.184H442.319C442.143 230.392 441.199 229.512 439.775 229.512ZM446.693 237H445.365V229.704H443.957V228.744H445.365V227.72C445.365 226.248 445.973 225.528 447.541 225.528C447.829 225.528 448.357 225.576 448.677 225.608V226.536L447.813 226.504C446.965 226.504 446.693 226.888 446.693 227.688V228.744H448.677V229.704H446.693V237ZM451.896 237H450.568V229.704H449.16V228.744H450.568V227.72C450.568 226.248 451.176 225.528 452.744 225.528C453.032 225.528 453.56 225.576 453.88 225.608V226.536L453.016 226.504C452.168 226.504 451.896 226.888 451.896 227.688V228.744H453.88V229.704H451.896V237ZM456.379 237H455.051V228.744H456.379V237ZM455.707 227.096C455.179 227.096 454.891 226.776 454.891 226.36C454.891 225.944 455.179 225.624 455.707 225.624C456.235 225.624 456.539 225.944 456.539 226.36C456.539 226.776 456.235 227.096 455.707 227.096ZM461.618 237.16C459.17 237.16 457.762 235.528 457.762 232.872C457.762 230.232 459.17 228.584 461.618 228.584C464.146 228.584 465.218 230.232 465.218 231.688H464.018C463.858 230.6 463.186 229.608 461.618 229.608C460.05 229.608 459.09 230.712 459.09 232.872C459.09 235.032 460.05 236.136 461.618 236.136C462.994 236.136 463.826 235.384 464.018 233.992H465.218C465.218 235.608 464.05 237.16 461.618 237.16ZM467.77 237H466.442V228.744H467.77V237ZM467.098 227.096C466.57 227.096 466.282 226.776 466.282 226.36C466.282 225.944 466.57 225.624 467.098 225.624C467.626 225.624 467.93 225.944 467.93 226.36C467.93 226.776 467.626 227.096 467.098 227.096ZM473.105 237.16C470.561 237.16 469.153 235.528 469.153 232.872C469.153 230.328 470.465 228.584 473.009 228.584C475.569 228.584 476.881 230.376 476.881 232.68C476.881 232.808 476.881 232.952 476.849 233.08H470.481C470.513 235.32 471.569 236.232 473.105 236.232C474.433 236.232 475.233 235.528 475.521 234.488H476.705C476.321 236.136 475.185 237.16 473.105 237.16ZM473.009 229.512C471.585 229.512 470.657 230.392 470.481 232.184H475.553C475.377 230.392 474.433 229.512 473.009 229.512ZM485.006 237H483.678V231.752C483.678 230.376 483.182 229.656 481.854 229.656C480.478 229.656 479.582 230.728 479.582 232.392V237H478.254V228.744H479.518V230.264C479.982 229.24 480.83 228.584 482.222 228.584C484.11 228.584 485.006 229.544 485.006 231.544V237ZM490.243 237.16C487.795 237.16 486.387 235.528 486.387 232.872C486.387 230.232 487.795 228.584 490.243 228.584C492.771 228.584 493.843 230.232 493.843 231.688H492.643C492.483 230.6 491.811 229.608 490.243 229.608C488.675 229.608 487.715 230.712 487.715 232.872C487.715 235.032 488.675 236.136 490.243 236.136C491.619 236.136 492.451 235.384 492.643 233.992H493.843C493.843 235.608 492.675 237.16 490.243 237.16ZM496.395 237H495.067V228.744H496.395V237ZM495.723 227.096C495.195 227.096 494.907 226.776 494.907 226.36C494.907 225.944 495.195 225.624 495.723 225.624C496.251 225.624 496.555 225.944 496.555 226.36C496.555 226.776 496.251 227.096 495.723 227.096ZM501.73 237.16C499.186 237.16 497.778 235.528 497.778 232.872C497.778 230.328 499.09 228.584 501.634 228.584C504.194 228.584 505.506 230.376 505.506 232.68C505.506 232.808 505.506 232.952 505.474 233.08H499.106C499.138 235.32 500.194 236.232 501.73 236.232C503.058 236.232 503.858 235.528 504.146 234.488H505.33C504.946 236.136 503.81 237.16 501.73 237.16ZM501.634 229.512C500.21 229.512 499.282 230.392 499.106 232.184H504.178C504.002 230.392 503.058 229.512 501.634 229.512ZM509.967 237.16C507.455 237.16 506.559 236.024 506.559 234.488H507.823C507.903 235.512 508.319 236.248 509.983 236.248C511.631 236.248 512.063 235.512 512.063 234.712C512.063 233.96 511.551 233.592 510.703 233.464L509.087 233.224C507.535 233 506.783 232.424 506.783 231.096C506.783 229.72 507.567 228.584 509.967 228.584C512.383 228.584 513.167 229.72 513.167 231.128H511.903C511.823 230.28 511.567 229.496 509.967 229.496C508.607 229.496 508.111 230.056 508.111 231C508.111 231.8 508.559 232.056 509.263 232.152L510.895 232.392C512.431 232.616 513.391 233.208 513.391 234.648C513.391 236.024 512.495 237.16 509.967 237.16ZM515.426 237.096C514.882 237.096 514.578 236.76 514.578 236.328C514.578 235.912 514.882 235.56 515.426 235.56C515.97 235.56 516.274 235.912 516.274 236.328C516.274 236.76 515.97 237.096 515.426 237.096Z" fill="white"/>
<rect x="128.5" y="277.5" width="260" height="255" rx="7.5" stroke="#BBBBBB"/>
<path d="M174 312L179.253 315.832L185.756 315.82L187.753 322.008L193.021 325.82L191 332L193.021 338.18L187.753 341.992L185.756 348.18L179.253 348.168L174 352L168.747 348.168L162.244 348.18L160.247 341.992L154.979 338.18L157 332L154.979 325.82L160.247 322.008L162.244 315.82L168.747 315.832L174 312Z" stroke="#0E2642" strokeWidth="2" stroke-linecap="round" stroke-linejoin="round"/>
<path d="M167 332L172 337L182 327" stroke="#0E2642" strokeWidth="2" stroke-linecap="round" stroke-linejoin="round"/>
<path d="M157.6 391.2C153.08 391.2 150.54 388.22 150.54 383.88C150.54 379.54 153.08 376.56 157.6 376.56C162.14 376.56 164.68 379.54 164.68 383.88C164.68 388.22 162.14 391.2 157.6 391.2ZM157.6 388.98C160.48 388.98 161.96 387.16 161.96 383.88C161.96 380.6 160.48 378.78 157.6 378.78C154.74 378.78 153.26 380.6 153.26 383.88C153.26 387.16 154.74 388.98 157.6 388.98ZM171.915 391.2C170.355 391.2 169.315 390.56 168.735 389.44V394.92H166.155V380.68H168.615V382.44C169.175 381.24 170.175 380.48 171.915 380.48C174.695 380.48 176.455 382.46 176.455 385.84C176.455 389.22 174.695 391.2 171.915 391.2ZM171.295 389.24C172.835 389.24 173.875 388.2 173.875 385.84C173.875 383.48 172.835 382.44 171.295 382.44C169.775 382.44 168.735 383.48 168.735 385.84C168.735 388.2 169.775 389.24 171.295 389.24ZM181.737 391.1C179.397 391.1 178.617 390.38 178.617 388.1V382.52H176.997V380.68H178.617V377.56H181.197V380.68H183.437V382.52H181.197V388.2C181.197 389 181.537 389.28 182.357 389.28L183.437 389.26V391C183.017 391.04 182.197 391.1 181.737 391.1ZM187.485 391H184.905V380.68H187.485V391ZM186.205 379.14C185.245 379.14 184.705 378.56 184.705 377.8C184.705 377.04 185.245 376.46 186.205 376.46C187.165 376.46 187.685 377.04 187.685 377.8C187.685 378.56 187.165 379.14 186.205 379.14ZM203.598 391H201.118V384.6C201.118 383.22 200.658 382.58 199.658 382.58C198.578 382.58 197.718 383.48 197.718 385.16V391H195.218V384.6C195.218 383.22 194.758 382.58 193.778 382.58C192.698 382.58 191.838 383.48 191.838 385.16V391H189.358V380.68H191.818V382.36C192.318 381.26 193.198 380.48 194.618 380.48C196.118 380.48 197.058 381.12 197.478 382.42C197.998 381.22 199.018 380.48 200.438 380.48C202.558 380.48 203.598 381.68 203.598 384.18V391ZM208.051 391H205.471V380.68H208.051V391ZM206.771 379.14C205.811 379.14 205.271 378.56 205.271 377.8C205.271 377.04 205.811 376.46 206.771 376.46C207.731 376.46 208.251 377.04 208.251 377.8C208.251 378.56 207.731 379.14 206.771 379.14ZM217.944 391H209.444V389.3L214.744 382.52H209.644V380.68H217.744V382.38L212.464 389.16H217.944V391ZM224.198 391.2C220.838 391.2 218.958 389.1 218.958 385.84C218.958 382.66 220.758 380.48 224.078 380.48C227.418 380.48 229.218 382.68 229.218 385.72C229.218 385.94 229.198 386.14 229.178 386.38H221.538C221.618 388.48 222.618 389.44 224.198 389.44C225.478 389.44 226.318 388.8 226.618 387.74H228.998C228.558 389.86 226.978 391.2 224.198 391.2ZM224.078 382.24C222.658 382.24 221.758 383.06 221.538 384.7H226.638C226.418 383.06 225.498 382.24 224.078 382.24ZM245.766 391L244.666 389.88C243.426 390.76 241.966 391.2 240.386 391.2C236.986 391.2 235.306 389.4 235.306 387.3C235.306 385.5 236.106 384.28 238.306 383.38C237.326 382.3 236.926 381.34 236.926 380.16C236.926 378.2 238.426 376.56 241.086 376.56C243.766 376.56 245.266 378.2 245.266 380.16C245.266 381.86 244.206 382.84 241.646 383.78L244.706 386.9C245.166 386.18 245.526 385.24 245.726 384.1H248.046C247.726 385.84 247.086 387.3 246.186 388.42L248.726 391H245.766ZM240.566 389.24C241.506 389.24 242.426 389 243.246 388.44L239.486 384.58C238.346 385.14 237.886 385.92 237.886 387.04C237.886 388.36 239.066 389.24 240.566 389.24ZM239.386 380.1C239.386 380.88 239.586 381.56 240.506 382.58C242.086 381.96 242.806 381.1 242.806 380.1C242.806 379.02 242.126 378.4 241.086 378.4C240.066 378.4 239.386 379.02 239.386 380.1ZM265.269 391H254.889V376.76H265.269V378.98H257.609V382.7H264.629V384.78H257.609V388.78H265.269V391ZM272.92 391H269.8L265.98 380.68H268.68L271.36 388.74L274.04 380.68H276.74L272.92 391ZM282.05 391.2C278.69 391.2 276.81 389.1 276.81 385.84C276.81 382.6 278.69 380.48 282.05 380.48C285.43 380.48 287.31 382.6 287.31 385.84C287.31 389.1 285.43 391.2 282.05 391.2ZM282.05 389.24C283.77 389.24 284.73 388.12 284.73 385.84C284.73 383.56 283.77 382.44 282.05 382.44C280.35 382.44 279.39 383.56 279.39 385.84C279.39 388.12 280.35 389.24 282.05 389.24ZM291.372 391H288.792V376.76H291.372V391ZM299.385 391H296.265L292.445 380.68H295.145L297.825 388.74L300.505 380.68H303.205L299.385 391ZM308.514 391.2C305.154 391.2 303.274 389.1 303.274 385.84C303.274 382.66 305.074 380.48 308.394 380.48C311.734 380.48 313.534 382.68 313.534 385.72C313.534 385.94 313.514 386.14 313.494 386.38H305.854C305.934 388.48 306.934 389.44 308.514 389.44C309.794 389.44 310.634 388.8 310.934 387.74H313.314C312.874 389.86 311.294 391.2 308.514 391.2ZM308.394 382.24C306.974 382.24 306.074 383.06 305.854 384.7H310.954C310.734 383.06 309.814 382.24 308.394 382.24Z" fill="#0E2642"/>
<path d="M155.936 438.16C152.368 438.16 150.528 435.776 150.528 432.304C150.528 428.832 152.368 426.448 155.936 426.448C159.024 426.448 160.928 428.304 160.928 430.576H159.664C159.456 428.864 158.224 427.584 155.936 427.584C153.28 427.584 151.904 429.296 151.904 432.304C151.904 435.312 153.28 437.024 155.936 437.024C158.192 437.024 159.456 435.808 159.664 433.936H160.928C160.928 436.256 159.088 438.16 155.936 438.16ZM165.933 438.16C163.389 438.16 161.981 436.528 161.981 433.872C161.981 431.232 163.389 429.584 165.933 429.584C168.493 429.584 169.901 431.232 169.901 433.872C169.901 436.528 168.493 438.16 165.933 438.16ZM165.933 437.136C167.613 437.136 168.573 436.032 168.573 433.872C168.573 431.712 167.613 430.608 165.933 430.608C164.269 430.608 163.309 431.712 163.309 433.872C163.309 436.032 164.269 437.136 165.933 437.136ZM178.022 438H176.694V432.752C176.694 431.376 176.198 430.656 174.87 430.656C173.494 430.656 172.598 431.728 172.598 433.392V438H171.27V429.744H172.534V431.264C172.998 430.24 173.846 429.584 175.238 429.584C177.126 429.584 178.022 430.544 178.022 432.544V438ZM182.463 438.08C180.879 438.08 180.287 437.616 180.287 436.08V430.704H178.879V429.744H180.287V427.248H181.615V429.744H183.599V430.704H181.615V436.112C181.615 436.912 181.887 437.104 182.735 437.104L183.599 437.072V438C183.279 438.032 182.751 438.08 182.463 438.08ZM186.192 438H184.864V429.744H186.192V438ZM185.52 428.096C184.992 428.096 184.704 427.776 184.704 427.36C184.704 426.944 184.992 426.624 185.52 426.624C186.048 426.624 186.352 426.944 186.352 427.36C186.352 427.776 186.048 428.096 185.52 428.096ZM194.647 438H193.319V432.752C193.319 431.376 192.823 430.656 191.495 430.656C190.119 430.656 189.223 431.728 189.223 433.392V438H187.895V429.744H189.159V431.264C189.623 430.24 190.471 429.584 191.863 429.584C193.751 429.584 194.647 430.544 194.647 432.544V438ZM199.116 438.16C197.228 438.16 196.348 437.2 196.348 435.2V429.744H197.676V434.992C197.676 436.368 198.172 437.088 199.5 437.088C200.876 437.088 201.772 436.016 201.772 434.352V429.744H203.1V438H201.836V436.48C201.372 437.504 200.524 438.16 199.116 438.16ZM208.433 438.16C205.889 438.16 204.481 436.528 204.481 433.872C204.481 431.232 205.889 429.584 208.433 429.584C210.993 429.584 212.401 431.232 212.401 433.872C212.401 436.528 210.993 438.16 208.433 438.16ZM208.433 437.136C210.113 437.136 211.073 436.032 211.073 433.872C211.073 431.712 210.113 430.608 208.433 430.608C206.769 430.608 205.809 431.712 205.809 433.872C205.809 436.032 206.769 437.136 208.433 437.136ZM216.538 438.16C214.65 438.16 213.77 437.2 213.77 435.2V429.744H215.098V434.992C215.098 436.368 215.594 437.088 216.922 437.088C218.298 437.088 219.194 436.016 219.194 434.352V429.744H220.522V438H219.258V436.48C218.794 437.504 217.946 438.16 216.538 438.16ZM225.311 438.16C222.799 438.16 221.903 437.024 221.903 435.488H223.167C223.247 436.512 223.663 437.248 225.327 437.248C226.975 437.248 227.407 436.512 227.407 435.712C227.407 434.96 226.895 434.592 226.047 434.464L224.431 434.224C222.879 434 222.127 433.424 222.127 432.096C222.127 430.72 222.911 429.584 225.311 429.584C227.727 429.584 228.511 430.72 228.511 432.128H227.247C227.167 431.28 226.911 430.496 225.311 430.496C223.951 430.496 223.455 431.056 223.455 432C223.455 432.8 223.903 433.056 224.607 433.152L226.239 433.392C227.775 433.616 228.735 434.208 228.735 435.648C228.735 437.024 227.839 438.16 225.311 438.16ZM235.442 438H234.114V429.744H235.442V438ZM234.77 428.096C234.242 428.096 233.954 427.776 233.954 427.36C233.954 426.944 234.242 426.624 234.77 426.624C235.298 426.624 235.602 426.944 235.602 427.36C235.602 427.776 235.298 428.096 234.77 428.096ZM247.897 438H246.617V432.72C246.617 431.344 246.201 430.656 245.097 430.656C243.977 430.656 243.129 431.696 243.129 433.36V438H241.865V432.72C241.865 431.344 241.433 430.656 240.361 430.656C239.241 430.656 238.425 431.696 238.425 433.36V438H237.145V429.744H238.409V431.264C238.793 430.24 239.609 429.584 240.745 429.584C242.009 429.584 242.745 430.176 243.017 431.36C243.433 430.192 244.329 429.584 245.465 429.584C247.113 429.584 247.897 430.544 247.897 432.544V438ZM253.774 438.16C252.366 438.16 251.39 437.584 250.926 436.432V441.136H249.598V429.744H250.862V431.392C251.326 430.224 252.286 429.584 253.774 429.584C255.998 429.584 257.358 431.168 257.358 433.872C257.358 436.576 255.998 438.16 253.774 438.16ZM253.47 437.136C254.99 437.136 256.03 436.128 256.03 433.872C256.03 431.616 254.99 430.608 253.47 430.608C251.966 430.608 250.926 431.616 250.926 433.872C250.926 436.128 251.966 437.136 253.47 437.136ZM260.067 438H258.739V429.744H260.003V431.696C260.451 430.256 261.203 429.664 262.435 429.664C262.659 429.664 262.947 429.696 263.187 429.744V430.896L262.387 430.864C260.979 430.864 260.067 431.984 260.067 434.016V438ZM267.558 438.16C265.014 438.16 263.606 436.528 263.606 433.872C263.606 431.232 265.014 429.584 267.558 429.584C270.118 429.584 271.526 431.232 271.526 433.872C271.526 436.528 270.118 438.16 267.558 438.16ZM267.558 437.136C269.238 437.136 270.198 436.032 270.198 433.872C270.198 431.712 269.238 430.608 267.558 430.608C265.894 430.608 264.934 431.712 264.934 433.872C264.934 436.032 265.894 437.136 267.558 437.136ZM276.587 438H274.987L271.771 429.744H273.147L275.786 436.8L278.427 429.744H279.803L276.587 438ZM284.011 438.16C281.467 438.16 280.059 436.528 280.059 433.872C280.059 431.328 281.371 429.584 283.915 429.584C286.475 429.584 287.787 431.376 287.787 433.68C287.787 433.808 287.787 433.952 287.755 434.08H281.387C281.419 436.32 282.475 437.232 284.011 437.232C285.339 437.232 286.139 436.528 286.427 435.488H287.611C287.227 437.136 286.091 438.16 284.011 438.16ZM283.915 430.512C282.491 430.512 281.563 431.392 281.387 433.184H286.459C286.283 431.392 285.339 430.512 283.915 430.512ZM299.913 438H298.633V432.72C298.633 431.344 298.217 430.656 297.113 430.656C295.993 430.656 295.145 431.696 295.145 433.36V438H293.881V432.72C293.881 431.344 293.449 430.656 292.377 430.656C291.257 430.656 290.441 431.696 290.441 433.36V438H289.161V429.744H290.424V431.264C290.809 430.24 291.625 429.584 292.761 429.584C294.025 429.584 294.761 430.176 295.033 431.36C295.449 430.192 296.345 429.584 297.481 429.584C299.129 429.584 299.913 430.544 299.913 432.544V438ZM305.246 438.16C302.702 438.16 301.294 436.528 301.294 433.872C301.294 431.328 302.606 429.584 305.15 429.584C307.71 429.584 309.022 431.376 309.022 433.68C309.022 433.808 309.022 433.952 308.99 434.08H302.622C302.654 436.32 303.71 437.232 305.246 437.232C306.574 437.232 307.374 436.528 307.662 435.488H308.846C308.462 437.136 307.326 438.16 305.246 438.16ZM305.15 430.512C303.726 430.512 302.798 431.392 302.622 433.184H307.694C307.518 431.392 306.574 430.512 305.15 430.512ZM317.147 438H315.819V432.752C315.819 431.376 315.323 430.656 313.995 430.656C312.619 430.656 311.723 431.728 311.723 433.392V438H310.395V429.744H311.659V431.264C312.123 430.24 312.971 429.584 314.363 429.584C316.251 429.584 317.147 430.544 317.147 432.544V438ZM321.588 438.08C320.004 438.08 319.412 437.616 319.412 436.08V430.704H318.004V429.744H319.412V427.248H320.74V429.744H322.724V430.704H320.74V436.112C320.74 436.912 321.012 437.104 321.86 437.104L322.724 437.072V438C322.404 438.032 321.876 438.08 321.588 438.08ZM327.077 438.16C324.565 438.16 323.669 437.024 323.669 435.488H324.933C325.013 436.512 325.429 437.248 327.093 437.248C328.741 437.248 329.173 436.512 329.173 435.712C329.173 434.96 328.661 434.592 327.813 434.464L326.197 434.224C324.645 434 323.893 433.424 323.893 432.096C323.893 430.72 324.677 429.584 327.077 429.584C329.493 429.584 330.277 430.72 330.277 432.128H329.013C328.933 431.28 328.677 430.496 327.077 430.496C325.717 430.496 325.221 431.056 325.221 432C325.221 432.8 325.669 433.056 326.373 433.152L328.005 433.392C329.541 433.616 330.501 434.208 330.501 435.648C330.501 437.024 329.605 438.16 327.077 438.16ZM344.919 438H343.511L341.559 431.456L339.607 438H338.199L335.239 429.744H336.615L338.967 436.512L340.951 429.744H342.167L344.151 436.512L346.503 429.744H347.879L344.919 438ZM350.27 438H348.942V429.744H350.27V438ZM349.598 428.096C349.07 428.096 348.782 427.776 348.782 427.36C348.782 426.944 349.07 426.624 349.598 426.624C350.126 426.624 350.43 426.944 350.43 427.36C350.43 427.776 350.126 428.096 349.598 428.096ZM354.869 438.08C353.285 438.08 352.693 437.616 352.693 436.08V430.704H351.285V429.744H352.693V427.248H354.021V429.744H356.005V430.704H354.021V436.112C354.021 436.912 354.293 437.104 355.141 437.104L356.005 437.072V438C355.685 438.032 355.157 438.08 354.869 438.08ZM364.022 438H362.694V432.752C362.694 431.376 362.198 430.656 360.87 430.656C359.494 430.656 358.598 431.728 358.598 433.392V438H357.27V426.608H358.598V431.184C359.046 430.192 359.894 429.584 361.238 429.584C363.126 429.584 364.022 430.544 364.022 432.544V438ZM160.8 462H159.376L158.24 459.12H152.768L151.632 462H150.208L154.672 450.608H156.336L160.8 462ZM157.872 458.048L155.504 451.92L153.12 458.048H157.872ZM163.336 462H161.96V450.608H163.336V462ZM169.145 457.92H165.049V456.896H169.145V457.92ZM174.018 462.16C171.794 462.16 170.434 460.576 170.434 457.872C170.434 455.168 171.794 453.584 174.018 453.584C175.426 453.584 176.402 454.16 176.866 455.312V450.608H178.194V462H176.93V460.352C176.466 461.52 175.49 462.16 174.018 462.16ZM174.306 461.136C175.826 461.136 176.866 460.128 176.866 457.872C176.866 455.616 175.826 454.608 174.306 454.608C172.802 454.608 171.762 455.616 171.762 457.872C171.762 460.128 172.802 461.136 174.306 461.136ZM181.223 462H179.895V453.744H181.159V455.696C181.607 454.256 182.359 453.664 183.591 453.664C183.815 453.664 184.103 453.696 184.343 453.744V454.896L183.543 454.864C182.135 454.864 181.223 455.984 181.223 458.016V462ZM186.832 462H185.504V453.744H186.832V462ZM186.16 452.096C185.632 452.096 185.344 451.776 185.344 451.36C185.344 450.944 185.632 450.624 186.16 450.624C186.688 450.624 186.992 450.944 186.992 451.36C186.992 451.776 186.688 452.096 186.16 452.096ZM192.712 462H191.112L187.896 453.744H189.272L191.911 460.8L194.552 453.744H195.928L192.712 462ZM200.136 462.16C197.592 462.16 196.184 460.528 196.184 457.872C196.184 455.328 197.496 453.584 200.04 453.584C202.6 453.584 203.912 455.376 203.912 457.68C203.912 457.808 203.912 457.952 203.88 458.08H197.512C197.544 460.32 198.6 461.232 200.136 461.232C201.464 461.232 202.264 460.528 202.552 459.488H203.736C203.352 461.136 202.216 462.16 200.136 462.16ZM200.04 454.512C198.616 454.512 197.688 455.392 197.512 457.184H202.584C202.408 455.392 201.464 454.512 200.04 454.512ZM212.038 462H210.71V456.752C210.71 455.376 210.214 454.656 208.886 454.656C207.51 454.656 206.614 455.728 206.614 457.392V462H205.286V453.744H206.549V455.264C207.014 454.24 207.862 453.584 209.254 453.584C211.142 453.584 212.038 454.544 212.038 456.544V462ZM219.067 462H217.739V453.744H219.067V462ZM218.395 452.096C217.867 452.096 217.579 451.776 217.579 451.36C217.579 450.944 217.867 450.624 218.395 450.624C218.923 450.624 219.227 450.944 219.227 451.36C219.227 451.776 218.923 452.096 218.395 452.096ZM227.522 462H226.194V456.752C226.194 455.376 225.698 454.656 224.37 454.656C222.994 454.656 222.098 455.728 222.098 457.392V462H220.77V453.744H222.034V455.264C222.498 454.24 223.346 453.584 224.738 453.584C226.626 453.584 227.522 454.544 227.522 456.544V462ZM232.311 462.16C229.799 462.16 228.903 461.024 228.903 459.488H230.167C230.247 460.512 230.663 461.248 232.327 461.248C233.975 461.248 234.407 460.512 234.407 459.712C234.407 458.96 233.895 458.592 233.047 458.464L231.431 458.224C229.879 458 229.127 457.424 229.127 456.096C229.127 454.72 229.911 453.584 232.311 453.584C234.727 453.584 235.511 454.72 235.511 456.128H234.247C234.167 455.28 233.911 454.496 232.311 454.496C230.951 454.496 230.455 455.056 230.455 456C230.455 456.8 230.903 457.056 231.607 457.152L233.239 457.392C234.775 457.616 235.735 458.208 235.735 459.648C235.735 461.024 234.839 462.16 232.311 462.16ZM238.442 462H237.114V453.744H238.442V462ZM237.77 452.096C237.242 452.096 236.954 451.776 236.954 451.36C236.954 450.944 237.242 450.624 237.77 450.624C238.298 450.624 238.602 450.944 238.602 451.36C238.602 451.776 238.298 452.096 237.77 452.096ZM243.409 461.68C241.185 461.68 239.825 460.032 239.825 457.632C239.825 455.232 241.185 453.584 243.409 453.584C244.881 453.584 245.857 454.224 246.321 455.392V453.744H247.585V461.456C247.585 464 246.225 465.296 243.777 465.296C241.457 465.296 240.273 464.128 240.273 462.432H241.489C241.601 463.696 242.449 464.384 243.841 464.384C245.361 464.384 246.257 463.568 246.257 461.744V459.952C245.793 461.104 244.817 461.68 243.409 461.68ZM243.697 460.72C245.217 460.72 246.257 459.648 246.257 457.632C246.257 455.616 245.217 454.544 243.697 454.544C242.193 454.544 241.153 455.616 241.153 457.632C241.153 459.648 242.193 460.72 243.697 460.72ZM256.038 462H254.71V456.752C254.71 455.376 254.214 454.656 252.886 454.656C251.51 454.656 250.614 455.728 250.614 457.392V462H249.286V450.608H250.614V455.184C251.062 454.192 251.91 453.584 253.254 453.584C255.142 453.584 256.038 454.544 256.038 456.544V462ZM260.478 462.08C258.894 462.08 258.302 461.616 258.302 460.08V454.704H256.894V453.744H258.302V451.248H259.63V453.744H261.614V454.704H259.63V460.112C259.63 460.912 259.902 461.104 260.75 461.104L261.614 461.072V462C261.294 462.032 260.766 462.08 260.478 462.08ZM265.967 462.16C263.455 462.16 262.559 461.024 262.559 459.488H263.823C263.903 460.512 264.319 461.248 265.983 461.248C267.631 461.248 268.063 460.512 268.063 459.712C268.063 458.96 267.551 458.592 266.703 458.464L265.087 458.224C263.535 458 262.783 457.424 262.783 456.096C262.783 454.72 263.567 453.584 265.967 453.584C268.383 453.584 269.167 454.72 269.167 456.128H267.903C267.823 455.28 267.567 454.496 265.967 454.496C264.607 454.496 264.111 455.056 264.111 456C264.111 456.8 264.559 457.056 265.263 457.152L266.895 457.392C268.431 457.616 269.391 458.208 269.391 459.648C269.391 461.024 268.495 462.16 265.967 462.16ZM271.426 462.096C270.882 462.096 270.578 461.76 270.578 461.328C270.578 460.912 270.882 460.56 271.426 460.56C271.97 460.56 272.274 460.912 272.274 461.328C272.274 461.76 271.97 462.096 271.426 462.096Z" fill="#6E7D8E"/>
<rect x="32.5" y="4.5" width="260" height="255" rx="7.5" stroke="#BBBBBB"/>
<path d="M77.9995 39L83.2525 42.832L89.7555 42.82L91.7525 49.008L97.0205 52.82L94.9995 59L97.0205 65.18L91.7525 68.992L89.7555 75.18L83.2525 75.168L77.9995 79L72.7465 75.168L66.2435 75.18L64.2465 68.992L58.9785 65.18L60.9995 59L58.9785 52.82L64.2465 49.008L66.2435 42.82L72.7465 42.832L77.9995 39Z" stroke="#0E2642" strokeWidth="2" stroke-linecap="round" stroke-linejoin="round"/>
<path d="M71 59L76 64L86 54" stroke="#0E2642" strokeWidth="2" stroke-linecap="round" stroke-linejoin="round"/>
<path d="M67.84 110.88C67.84 115.36 65.46 118 60.76 118H55.1V103.76H60.76C65.46 103.76 67.84 106.42 67.84 110.88ZM65.12 110.88C65.12 107.58 63.72 105.9 60.9 105.9H57.82V115.86H60.9C63.72 115.86 65.12 114.18 65.12 110.88ZM74.155 118.2C70.795 118.2 68.915 116.1 68.915 112.84C68.915 109.66 70.715 107.48 74.035 107.48C77.375 107.48 79.175 109.68 79.175 112.72C79.175 112.94 79.155 113.14 79.135 113.38H71.495C71.575 115.48 72.575 116.44 74.155 116.44C75.435 116.44 76.275 115.8 76.575 114.74H78.955C78.515 116.86 76.935 118.2 74.155 118.2ZM74.035 109.24C72.615 109.24 71.715 110.06 71.495 111.7H76.595C76.375 110.06 75.455 109.24 74.035 109.24ZM84.9427 118.2C81.6227 118.2 80.2627 116.78 80.2627 114.74H82.7627C82.8827 115.84 83.3827 116.5 84.9827 116.5C86.5227 116.5 87.0627 115.86 87.0627 115.1C87.0627 114.4 86.5027 114.04 85.6227 113.9L83.8427 113.64C81.4627 113.3 80.5427 112.5 80.5427 110.74C80.5427 108.9 81.8027 107.48 84.9427 107.48C88.1027 107.48 89.3627 108.9 89.3627 110.78H86.8627C86.7627 109.92 86.4427 109.18 84.9227 109.18C83.6227 109.18 83.1227 109.72 83.1227 110.54C83.1227 111.22 83.5227 111.52 84.2627 111.62L86.0227 111.88C88.3027 112.2 89.6427 112.96 89.6427 114.94C89.6427 116.78 88.2827 118.2 84.9427 118.2ZM93.7114 118H91.1314V107.68H93.7114V118ZM92.4314 106.14C91.4714 106.14 90.9314 105.56 90.9314 104.8C90.9314 104.04 91.4714 103.46 92.4314 103.46C93.3914 103.46 93.9114 104.04 93.9114 104.8C93.9114 105.56 93.3914 106.14 92.4314 106.14ZM99.7245 117.6C96.9445 117.6 95.1845 115.58 95.1845 112.54C95.1845 109.5 96.9445 107.48 99.7245 107.48C101.445 107.48 102.465 108.24 103.025 109.44V107.68H105.485V117.16C105.485 120.36 103.765 122.12 100.385 122.12C97.2845 122.12 95.7445 120.64 95.7445 118.42H98.1645C98.3245 119.72 99.1045 120.42 100.505 120.42C102.025 120.42 102.905 119.6 102.905 117.88V115.84C102.325 116.96 101.285 117.6 99.7245 117.6ZM100.325 115.76C101.865 115.76 102.905 114.68 102.905 112.54C102.905 110.4 101.865 109.32 100.325 109.32C98.8045 109.32 97.7645 110.4 97.7645 112.54C97.7645 114.68 98.8045 115.76 100.325 115.76ZM116.522 118H113.942V111.68C113.942 110.28 113.442 109.58 112.182 109.58C110.822 109.58 109.942 110.56 109.942 112.24V118H107.362V107.68H109.822V109.36C110.382 108.26 111.302 107.48 112.982 107.48C115.342 107.48 116.522 108.68 116.522 111.18V118ZM133.457 118L132.357 116.88C131.117 117.76 129.657 118.2 128.077 118.2C124.677 118.2 122.997 116.4 122.997 114.3C122.997 112.5 123.797 111.28 125.997 110.38C125.017 109.3 124.617 108.34 124.617 107.16C124.617 105.2 126.117 103.56 128.777 103.56C131.457 103.56 132.957 105.2 132.957 107.16C132.957 108.86 131.897 109.84 129.337 110.78L132.397 113.9C132.857 113.18 133.217 112.24 133.417 111.1H135.737C135.417 112.84 134.777 114.3 133.877 115.42L136.417 118H133.457ZM128.257 116.24C129.197 116.24 130.117 116 130.937 115.44L127.177 111.58C126.037 112.14 125.577 112.92 125.577 114.04C125.577 115.36 126.757 116.24 128.257 116.24ZM127.077 107.1C127.077 107.88 127.277 108.56 128.197 109.58C129.777 108.96 130.497 108.1 130.497 107.1C130.497 106.02 129.817 105.4 128.777 105.4C127.757 105.4 127.077 106.02 127.077 107.1ZM145.3 118H142.58V103.76H145.3V118ZM161.582 118H159.102V111.6C159.102 110.22 158.642 109.58 157.642 109.58C156.562 109.58 155.702 110.48 155.702 112.16V118H153.202V111.6C153.202 110.22 152.742 109.58 151.762 109.58C150.682 109.58 149.822 110.48 149.822 112.16V118H147.342V107.68H149.802V109.36C150.302 108.26 151.182 107.48 152.602 107.48C154.102 107.48 155.042 108.12 155.462 109.42C155.982 108.22 157.002 107.48 158.422 107.48C160.542 107.48 161.582 108.68 161.582 111.18V118ZM169.216 118.2C167.656 118.2 166.616 117.56 166.036 116.44V121.92H163.456V107.68H165.916V109.44C166.476 108.24 167.476 107.48 169.216 107.48C171.996 107.48 173.756 109.46 173.756 112.84C173.756 116.22 171.996 118.2 169.216 118.2ZM168.596 116.24C170.136 116.24 171.176 115.2 171.176 112.84C171.176 110.48 170.136 109.44 168.596 109.44C167.076 109.44 166.036 110.48 166.036 112.84C166.036 115.2 167.076 116.24 168.596 116.24ZM177.813 118H175.233V103.76H177.813V118ZM184.526 118.2C181.166 118.2 179.286 116.1 179.286 112.84C179.286 109.66 181.086 107.48 184.406 107.48C187.746 107.48 189.546 109.68 189.546 112.72C189.546 112.94 189.526 113.14 189.506 113.38H181.866C181.946 115.48 182.946 116.44 184.526 116.44C185.806 116.44 186.646 115.8 186.946 114.74H189.326C188.886 116.86 187.306 118.2 184.526 118.2ZM184.406 109.24C182.986 109.24 182.086 110.06 181.866 111.7H186.966C186.746 110.06 185.826 109.24 184.406 109.24ZM205.274 118H202.794V111.6C202.794 110.22 202.334 109.58 201.334 109.58C200.254 109.58 199.394 110.48 199.394 112.16V118H196.894V111.6C196.894 110.22 196.434 109.58 195.454 109.58C194.374 109.58 193.514 110.48 193.514 112.16V118H191.034V107.68H193.494V109.36C193.994 108.26 194.874 107.48 196.294 107.48C197.794 107.48 198.734 108.12 199.154 109.42C199.674 108.22 200.694 107.48 202.114 107.48C204.234 107.48 205.274 108.68 205.274 111.18V118ZM211.987 118.2C208.627 118.2 206.747 116.1 206.747 112.84C206.747 109.66 208.547 107.48 211.867 107.48C215.207 107.48 217.007 109.68 217.007 112.72C217.007 112.94 216.987 113.14 216.967 113.38H209.327C209.407 115.48 210.407 116.44 211.987 116.44C213.267 116.44 214.107 115.8 214.407 114.74H216.787C216.347 116.86 214.767 118.2 211.987 118.2ZM211.867 109.24C210.447 109.24 209.547 110.06 209.327 111.7H214.427C214.207 110.06 213.287 109.24 211.867 109.24ZM227.655 118H225.075V111.68C225.075 110.28 224.575 109.58 223.315 109.58C221.955 109.58 221.075 110.56 221.075 112.24V118H218.495V107.68H220.955V109.36C221.515 108.26 222.435 107.48 224.115 107.48C226.475 107.48 227.655 108.68 227.655 111.18V118ZM233.335 118.1C230.995 118.1 230.215 117.38 230.215 115.1V109.52H228.595V107.68H230.215V104.56H232.795V107.68H235.035V109.52H232.795V115.2C232.795 116 233.135 116.28 233.955 116.28L235.035 116.26V118C234.615 118.04 233.795 118.1 233.335 118.1Z" fill="#0E2642"/>
<path d="M59.312 165H57.936V154.744H54.304V153.608H62.928V154.744H59.312V165ZM65.3154 165.16C63.4434 165.16 62.3874 164.2 62.3874 162.664C62.3874 161.448 63.1554 160.504 65.1714 160.328L66.6914 160.2C67.8114 160.104 68.1314 159.864 68.1314 159.256C68.1314 158.2 67.5394 157.544 66.1634 157.544C64.8834 157.544 64.2114 158.088 64.1154 159.256H62.8354C62.8354 157.624 63.8434 156.584 66.1474 156.584C68.4514 156.584 69.4594 157.624 69.4594 159.256V162.888C69.4594 164.008 69.5554 164.728 69.7154 165H68.5474C68.2914 164.648 68.1954 164.312 68.1954 163.432C67.7474 164.584 66.7714 165.16 65.3154 165.16ZM65.6674 164.232C67.2994 164.232 68.1314 162.936 68.1314 161.4V160.584C67.9394 160.84 67.4274 161 66.6914 161.064L65.5554 161.16C64.2434 161.256 63.7154 161.816 63.7154 162.584C63.7154 163.528 64.2914 164.232 65.6674 164.232ZM72.4885 165H71.1605V156.744H72.4885V165ZM71.8165 155.096C71.2885 155.096 71.0005 154.776 71.0005 154.36C71.0005 153.944 71.2885 153.624 71.8165 153.624C72.3445 153.624 72.6485 153.944 72.6485 154.36C72.6485 154.776 72.3445 155.096 71.8165 155.096ZM75.5198 165H74.1918V153.608H75.5198V165ZM80.855 165.16C78.311 165.16 76.903 163.528 76.903 160.872C76.903 158.232 78.311 156.584 80.855 156.584C83.415 156.584 84.823 158.232 84.823 160.872C84.823 163.528 83.415 165.16 80.855 165.16ZM80.855 164.136C82.535 164.136 83.495 163.032 83.495 160.872C83.495 158.712 82.535 157.608 80.855 157.608C79.191 157.608 78.231 158.712 78.231 160.872C78.231 163.032 79.191 164.136 80.855 164.136ZM87.5198 165H86.1918V156.744H87.4557V158.696C87.9038 157.256 88.6558 156.664 89.8878 156.664C90.1118 156.664 90.3998 156.696 90.6398 156.744V157.896L89.8398 157.864C88.4318 157.864 87.5198 158.984 87.5198 161.016V165ZM95.0113 165.16C92.4673 165.16 91.0592 163.528 91.0592 160.872C91.0592 158.328 92.3713 156.584 94.9153 156.584C97.4753 156.584 98.7873 158.376 98.7873 160.68C98.7873 160.808 98.7873 160.952 98.7552 161.08H92.3873C92.4193 163.32 93.4753 164.232 95.0113 164.232C96.3393 164.232 97.1393 163.528 97.4273 162.488H98.6112C98.2273 164.136 97.0913 165.16 95.0113 165.16ZM94.9153 157.512C93.4913 157.512 92.5633 158.392 92.3873 160.184H97.4593C97.2833 158.392 96.3393 157.512 94.9153 157.512ZM103.424 165.16C101.201 165.16 99.8405 163.576 99.8405 160.872C99.8405 158.168 101.201 156.584 103.424 156.584C104.833 156.584 105.809 157.16 106.273 158.312V153.608H107.601V165H106.337V163.352C105.873 164.52 104.897 165.16 103.424 165.16ZM103.713 164.136C105.233 164.136 106.273 163.128 106.273 160.872C106.273 158.616 105.233 157.608 103.713 157.608C102.209 157.608 101.169 158.616 101.169 160.872C101.169 163.128 102.209 164.136 103.713 164.136ZM116.389 165.16C113.877 165.16 112.981 164.024 112.981 162.488H114.245C114.325 163.512 114.741 164.248 116.405 164.248C118.053 164.248 118.485 163.512 118.485 162.712C118.485 161.96 117.973 161.592 117.125 161.464L115.509 161.224C113.957 161 113.205 160.424 113.205 159.096C113.205 157.72 113.989 156.584 116.389 156.584C118.805 156.584 119.589 157.72 119.589 159.128H118.325C118.245 158.28 117.989 157.496 116.389 157.496C115.029 157.496 114.533 158.056 114.533 159C114.533 159.8 114.981 160.056 115.685 160.152L117.317 160.392C118.853 160.616 119.813 161.208 119.813 162.648C119.813 164.024 118.917 165.16 116.389 165.16ZM124.824 165.16C122.28 165.16 120.872 163.528 120.872 160.872C120.872 158.232 122.28 156.584 124.824 156.584C127.384 156.584 128.792 158.232 128.792 160.872C128.792 163.528 127.384 165.16 124.824 165.16ZM124.824 164.136C126.504 164.136 127.464 163.032 127.464 160.872C127.464 158.712 126.504 157.608 124.824 157.608C123.16 157.608 122.2 158.712 122.2 160.872C122.2 163.032 123.16 164.136 124.824 164.136ZM131.489 165H130.161V153.608H131.489V165ZM135.96 165.16C134.072 165.16 133.192 164.2 133.192 162.2V156.744H134.52V161.992C134.52 163.368 135.016 164.088 136.344 164.088C137.72 164.088 138.616 163.016 138.616 161.352V156.744H139.944V165H138.68V163.48C138.216 164.504 137.368 165.16 135.96 165.16ZM144.541 165.08C142.957 165.08 142.365 164.616 142.365 163.08V157.704H140.957V156.744H142.365V154.248H143.693V156.744H145.677V157.704H143.693V163.112C143.693 163.912 143.965 164.104 144.813 164.104L145.677 164.072V165C145.357 165.032 144.829 165.08 144.541 165.08ZM148.27 165H146.942V156.744H148.27V165ZM147.598 155.096C147.07 155.096 146.782 154.776 146.782 154.36C146.782 153.944 147.07 153.624 147.598 153.624C148.126 153.624 148.43 153.944 148.43 154.36C148.43 154.776 148.126 155.096 147.598 155.096ZM153.605 165.16C151.061 165.16 149.653 163.528 149.653 160.872C149.653 158.232 151.061 156.584 153.605 156.584C156.165 156.584 157.573 158.232 157.573 160.872C157.573 163.528 156.165 165.16 153.605 165.16ZM153.605 164.136C155.285 164.136 156.245 163.032 156.245 160.872C156.245 158.712 155.285 157.608 153.605 157.608C151.941 157.608 150.981 158.712 150.981 160.872C150.981 163.032 151.941 164.136 153.605 164.136ZM165.694 165H164.366V159.752C164.366 158.376 163.87 157.656 162.542 157.656C161.166 157.656 160.27 158.728 160.27 160.392V165H158.942V156.744H160.206V158.264C160.67 157.24 161.518 156.584 162.91 156.584C164.798 156.584 165.694 157.544 165.694 159.544V165ZM170.483 165.16C167.971 165.16 167.075 164.024 167.075 162.488H168.339C168.419 163.512 168.835 164.248 170.499 164.248C172.147 164.248 172.579 163.512 172.579 162.712C172.579 161.96 172.067 161.592 171.219 161.464L169.603 161.224C168.051 161 167.299 160.424 167.299 159.096C167.299 157.72 168.083 156.584 170.483 156.584C172.899 156.584 173.683 157.72 173.683 159.128H172.419C172.339 158.28 172.083 157.496 170.483 157.496C169.123 157.496 168.627 158.056 168.627 159C168.627 159.8 169.075 160.056 169.779 160.152L171.411 160.392C172.947 160.616 173.907 161.208 173.907 162.648C173.907 164.024 173.011 165.16 170.483 165.16ZM182.182 165.08C180.598 165.08 180.006 164.616 180.006 163.08V157.704H178.598V156.744H180.006V154.248H181.334V156.744H183.318V157.704H181.334V163.112C181.334 163.912 181.606 164.104 182.454 164.104L183.318 164.072V165C182.998 165.032 182.47 165.08 182.182 165.08ZM191.334 165H190.006V159.752C190.006 158.376 189.51 157.656 188.182 157.656C186.806 157.656 185.91 158.728 185.91 160.392V165H184.582V153.608H185.91V158.184C186.358 157.192 187.206 156.584 188.55 156.584C190.438 156.584 191.334 157.544 191.334 159.544V165ZM195.644 165.16C193.772 165.16 192.715 164.2 192.715 162.664C192.715 161.448 193.484 160.504 195.5 160.328L197.02 160.2C198.14 160.104 198.46 159.864 198.46 159.256C198.46 158.2 197.868 157.544 196.492 157.544C195.212 157.544 194.539 158.088 194.444 159.256H193.164C193.164 157.624 194.172 156.584 196.476 156.584C198.78 156.584 199.788 157.624 199.788 159.256V162.888C199.788 164.008 199.884 164.728 200.044 165H198.876C198.62 164.648 198.524 164.312 198.524 163.432C198.076 164.584 197.1 165.16 195.644 165.16ZM195.996 164.232C197.628 164.232 198.46 162.936 198.46 161.4V160.584C198.268 160.84 197.756 161 197.02 161.064L195.884 161.16C194.572 161.256 194.044 161.816 194.044 162.584C194.044 163.528 194.62 164.232 195.996 164.232ZM204.228 165.08C202.644 165.08 202.052 164.616 202.052 163.08V157.704H200.644V156.744H202.052V154.248H203.38V156.744H205.364V157.704H203.38V163.112C203.38 163.912 203.652 164.104 204.5 164.104L205.364 164.072V165C205.044 165.032 204.516 165.08 204.228 165.08ZM212.677 165H211.349V157.704H209.941V156.744H211.349V155.72C211.349 154.248 211.957 153.528 213.525 153.528C213.813 153.528 214.341 153.576 214.661 153.608V154.536L213.797 154.504C212.949 154.504 212.677 154.888 212.677 155.688V156.744H214.661V157.704H212.677V165ZM217.16 165H215.832V156.744H217.16V165ZM216.488 155.096C215.96 155.096 215.672 154.776 215.672 154.36C215.672 153.944 215.96 153.624 216.488 153.624C217.016 153.624 217.32 153.944 217.32 154.36C217.32 154.776 217.016 155.096 216.488 155.096ZM221.76 165.08C220.176 165.08 219.584 164.616 219.584 163.08V157.704H218.176V156.744H219.584V154.248H220.912V156.744H222.896V157.704H220.912V163.112C220.912 163.912 221.184 164.104 222.032 164.104L222.896 164.072V165C222.576 165.032 222.048 165.08 221.76 165.08ZM57.936 189.16C55.424 189.16 54.528 188.024 54.528 186.488H55.792C55.872 187.512 56.288 188.248 57.952 188.248C59.6 188.248 60.032 187.512 60.032 186.712C60.032 185.96 59.52 185.592 58.672 185.464L57.056 185.224C55.504 185 54.752 184.424 54.752 183.096C54.752 181.72 55.536 180.584 57.936 180.584C60.352 180.584 61.136 181.72 61.136 183.128H59.872C59.792 182.28 59.536 181.496 57.936 181.496C56.576 181.496 56.08 182.056 56.08 183C56.08 183.8 56.528 184.056 57.232 184.152L58.864 184.392C60.4 184.616 61.36 185.208 61.36 186.648C61.36 188.024 60.464 189.16 57.936 189.16ZM66.3706 189.16C63.8266 189.16 62.4186 187.528 62.4186 184.872C62.4186 182.328 63.7306 180.584 66.2746 180.584C68.8346 180.584 70.1466 182.376 70.1466 184.68C70.1466 184.808 70.1466 184.952 70.1146 185.08H63.7466C63.7786 187.32 64.8346 188.232 66.3706 188.232C67.6986 188.232 68.4986 187.528 68.7866 186.488H69.9706C69.5866 188.136 68.4506 189.16 66.3706 189.16ZM66.2746 181.512C64.8506 181.512 63.9226 182.392 63.7466 184.184H68.8186C68.6426 182.392 67.6986 181.512 66.2746 181.512ZM74.1279 189.16C72.2559 189.16 71.1999 188.2 71.1999 186.664C71.1999 185.448 71.9679 184.504 73.9839 184.328L75.5039 184.2C76.6239 184.104 76.9439 183.864 76.9439 183.256C76.9439 182.2 76.3519 181.544 74.9759 181.544C73.6959 181.544 73.0239 182.088 72.9279 183.256H71.6479C71.6479 181.624 72.6559 180.584 74.9599 180.584C77.2639 180.584 78.2719 181.624 78.2719 183.256V186.888C78.2719 188.008 78.3679 188.728 78.5279 189H77.3599C77.1039 188.648 77.0079 188.312 77.0079 187.432C76.5599 188.584 75.5839 189.16 74.1279 189.16ZM74.4799 188.232C76.1119 188.232 76.9439 186.936 76.9439 185.4V184.584C76.7519 184.84 76.2399 185 75.5039 185.064L74.3679 185.16C73.0559 185.256 72.5279 185.816 72.5279 186.584C72.5279 187.528 73.1039 188.232 74.4799 188.232ZM90.725 189H89.445V183.72C89.445 182.344 89.029 181.656 87.925 181.656C86.805 181.656 85.957 182.696 85.957 184.36V189H84.693V183.72C84.693 182.344 84.261 181.656 83.189 181.656C82.069 181.656 81.253 182.696 81.253 184.36V189H79.973V180.744H81.237V182.264C81.621 181.24 82.437 180.584 83.573 180.584C84.837 180.584 85.573 181.176 85.845 182.36C86.261 181.192 87.157 180.584 88.293 180.584C89.941 180.584 90.725 181.544 90.725 183.544V189ZM93.7541 189H92.4261V177.608H93.7541V189ZM99.0894 189.16C96.5454 189.16 95.1374 187.528 95.1374 184.872C95.1374 182.328 96.4494 180.584 98.9934 180.584C101.553 180.584 102.865 182.376 102.865 184.68C102.865 184.808 102.865 184.952 102.833 185.08H96.4654C96.4974 187.32 97.5534 188.232 99.0894 188.232C100.417 188.232 101.217 187.528 101.505 186.488H102.689C102.305 188.136 101.169 189.16 99.0894 189.16ZM98.9934 181.512C97.5694 181.512 96.6414 182.392 96.4654 184.184H101.537C101.361 182.392 100.417 181.512 98.9934 181.512ZM107.327 189.16C104.815 189.16 103.919 188.024 103.919 186.488H105.183C105.263 187.512 105.679 188.248 107.343 188.248C108.991 188.248 109.423 187.512 109.423 186.712C109.423 185.96 108.911 185.592 108.063 185.464L106.447 185.224C104.895 185 104.143 184.424 104.143 183.096C104.143 181.72 104.927 180.584 107.327 180.584C109.743 180.584 110.527 181.72 110.527 183.128H109.263C109.183 182.28 108.927 181.496 107.327 181.496C105.967 181.496 105.471 182.056 105.471 183C105.471 183.8 105.919 184.056 106.623 184.152L108.255 184.392C109.791 184.616 110.751 185.208 110.751 186.648C110.751 188.024 109.855 189.16 107.327 189.16ZM115.217 189.16C112.705 189.16 111.809 188.024 111.809 186.488H113.073C113.153 187.512 113.569 188.248 115.233 188.248C116.881 188.248 117.313 187.512 117.313 186.712C117.313 185.96 116.801 185.592 115.953 185.464L114.337 185.224C112.785 185 112.033 184.424 112.033 183.096C112.033 181.72 112.817 180.584 115.217 180.584C117.633 180.584 118.417 181.72 118.417 183.128H117.153C117.073 182.28 116.817 181.496 115.217 181.496C113.857 181.496 113.361 182.056 113.361 183C113.361 183.8 113.809 184.056 114.513 184.152L116.145 184.392C117.681 184.616 118.641 185.208 118.641 186.648C118.641 188.024 117.745 189.16 115.217 189.16ZM121.348 189H120.02V177.608H121.348V189ZM123.163 192.136V191.176H123.803C124.763 191.176 125.355 190.648 125.819 189.448L122.411 180.744H123.787L126.411 187.896L129.067 180.744H130.443L127.067 189.288C126.187 191.496 125.355 192.136 123.803 192.136H123.163ZM136.832 189H135.504V180.744H136.832V189ZM136.16 179.096C135.632 179.096 135.344 178.776 135.344 178.36C135.344 177.944 135.632 177.624 136.16 177.624C136.688 177.624 136.992 177.944 136.992 178.36C136.992 178.776 136.688 179.096 136.16 179.096ZM145.288 189H143.96V183.752C143.96 182.376 143.464 181.656 142.136 181.656C140.76 181.656 139.864 182.728 139.864 184.392V189H138.536V180.744H139.799V182.264C140.264 181.24 141.112 180.584 142.504 180.584C144.392 180.584 145.288 181.544 145.288 183.544V189ZM149.728 189.08C148.144 189.08 147.552 188.616 147.552 187.08V181.704H146.144V180.744H147.552V178.248H148.88V180.744H150.864V181.704H148.88V187.112C148.88 187.912 149.152 188.104 150 188.104L150.864 188.072V189C150.544 189.032 150.016 189.08 149.728 189.08ZM155.293 189.16C152.749 189.16 151.34 187.528 151.34 184.872C151.34 182.232 152.749 180.584 155.293 180.584C157.853 180.584 159.26 182.232 159.26 184.872C159.26 187.528 157.853 189.16 155.293 189.16ZM155.293 188.136C156.973 188.136 157.933 187.032 157.933 184.872C157.933 182.712 156.973 181.608 155.293 181.608C153.629 181.608 152.669 182.712 152.669 184.872C152.669 187.032 153.629 188.136 155.293 188.136ZM164.741 192.136V191.176H165.381C166.341 191.176 166.933 190.648 167.397 189.448L163.989 180.744H165.365L167.989 187.896L170.645 180.744H172.021L168.645 189.288C167.765 191.496 166.933 192.136 165.381 192.136H164.741ZM176.23 189.16C173.686 189.16 172.278 187.528 172.278 184.872C172.278 182.232 173.686 180.584 176.23 180.584C178.79 180.584 180.198 182.232 180.198 184.872C180.198 187.528 178.79 189.16 176.23 189.16ZM176.23 188.136C177.91 188.136 178.87 187.032 178.87 184.872C178.87 182.712 177.91 181.608 176.23 181.608C174.566 181.608 173.606 182.712 173.606 184.872C173.606 187.032 174.566 188.136 176.23 188.136ZM184.335 189.16C182.447 189.16 181.567 188.2 181.567 186.2V180.744H182.895V185.992C182.895 187.368 183.391 188.088 184.719 188.088C186.095 188.088 186.991 187.016 186.991 185.352V180.744H188.319V189H187.055V187.48C186.591 188.504 185.743 189.16 184.335 189.16ZM191.348 189H190.02V180.744H191.284V182.696C191.732 181.256 192.484 180.664 193.716 180.664C193.94 180.664 194.228 180.696 194.468 180.744V181.896L193.668 181.864C192.26 181.864 191.348 182.984 191.348 185.016V189ZM58.48 213.16C55.936 213.16 54.528 211.528 54.528 208.872C54.528 206.328 55.84 204.584 58.384 204.584C60.944 204.584 62.256 206.376 62.256 208.68C62.256 208.808 62.256 208.952 62.224 209.08H55.856C55.888 211.32 56.944 212.232 58.48 212.232C59.808 212.232 60.608 211.528 60.896 210.488H62.08C61.696 212.136 60.56 213.16 58.48 213.16ZM58.384 205.512C56.96 205.512 56.032 206.392 55.856 208.184H60.928C60.752 206.392 59.808 205.512 58.384 205.512ZM67.1653 213.16C64.7173 213.16 63.3092 211.528 63.3092 208.872C63.3092 206.232 64.7173 204.584 67.1653 204.584C69.6933 204.584 70.7653 206.232 70.7653 207.688H69.5653C69.4053 206.6 68.7333 205.608 67.1653 205.608C65.5973 205.608 64.6373 206.712 64.6373 208.872C64.6373 211.032 65.5973 212.136 67.1653 212.136C68.5413 212.136 69.3733 211.384 69.5653 209.992H70.7653C70.7653 211.608 69.5973 213.16 67.1653 213.16ZM75.6206 213.16C73.0766 213.16 71.6686 211.528 71.6686 208.872C71.6686 206.232 73.0766 204.584 75.6206 204.584C78.1806 204.584 79.5886 206.232 79.5886 208.872C79.5886 211.528 78.1806 213.16 75.6206 213.16ZM75.6206 212.136C77.3006 212.136 78.2606 211.032 78.2606 208.872C78.2606 206.712 77.3006 205.608 75.6206 205.608C73.9566 205.608 72.9966 206.712 72.9966 208.872C72.9966 211.032 73.9566 212.136 75.6206 212.136ZM84.0454 213.16C81.5334 213.16 80.6374 212.024 80.6374 210.488H81.9014C81.9814 211.512 82.3974 212.248 84.0614 212.248C85.7094 212.248 86.1414 211.512 86.1414 210.712C86.1414 209.96 85.6294 209.592 84.7814 209.464L83.1654 209.224C81.6134 209 80.8614 208.424 80.8614 207.096C80.8614 205.72 81.6454 204.584 84.0454 204.584C86.4614 204.584 87.2454 205.72 87.2454 207.128H85.9814C85.9014 206.28 85.6454 205.496 84.0454 205.496C82.6854 205.496 82.1894 206.056 82.1894 207C82.1894 207.8 82.6374 208.056 83.3414 208.152L84.9734 208.392C86.5094 208.616 87.4694 209.208 87.4694 210.648C87.4694 212.024 86.5734 213.16 84.0454 213.16ZM88.5069 216.136V215.176H89.1469C90.1069 215.176 90.6989 214.648 91.1629 213.448L87.7549 204.744H89.1309L91.7549 211.896L94.4109 204.744H95.7869L92.4109 213.288C91.5309 215.496 90.6989 216.136 89.1469 216.136H88.5069ZM99.4829 213.16C96.9709 213.16 96.0749 212.024 96.0749 210.488H97.3389C97.4189 211.512 97.8349 212.248 99.4989 212.248C101.147 212.248 101.579 211.512 101.579 210.712C101.579 209.96 101.067 209.592 100.219 209.464L98.6029 209.224C97.0509 209 96.2989 208.424 96.2989 207.096C96.2989 205.72 97.0829 204.584 99.4829 204.584C101.899 204.584 102.683 205.72 102.683 207.128H101.419C101.339 206.28 101.083 205.496 99.4829 205.496C98.1229 205.496 97.6269 206.056 97.6269 207C97.6269 207.8 98.0749 208.056 98.7789 208.152L100.411 208.392C101.947 208.616 102.907 209.208 102.907 210.648C102.907 212.024 102.011 213.16 99.4829 213.16ZM107.025 213.08C105.441 213.08 104.849 212.616 104.849 211.08V205.704H103.441V204.744H104.849V202.248H106.177V204.744H108.161V205.704H106.177V211.112C106.177 211.912 106.449 212.104 107.297 212.104L108.161 212.072V213C107.841 213.032 107.313 213.08 107.025 213.08ZM112.589 213.16C110.045 213.16 108.637 211.528 108.637 208.872C108.637 206.328 109.949 204.584 112.493 204.584C115.053 204.584 116.365 206.376 116.365 208.68C116.365 208.808 116.365 208.952 116.333 209.08H109.965C109.997 211.32 111.053 212.232 112.589 212.232C113.917 212.232 114.717 211.528 115.005 210.488H116.189C115.805 212.136 114.669 213.16 112.589 213.16ZM112.493 205.512C111.069 205.512 110.141 206.392 109.965 208.184H115.037C114.861 206.392 113.917 205.512 112.493 205.512ZM128.491 213H127.211V207.72C127.211 206.344 126.795 205.656 125.691 205.656C124.571 205.656 123.723 206.696 123.723 208.36V213H122.459V207.72C122.459 206.344 122.027 205.656 120.955 205.656C119.835 205.656 119.019 206.696 119.019 208.36V213H117.739V204.744H119.003V206.264C119.387 205.24 120.203 204.584 121.339 204.584C122.603 204.584 123.339 205.176 123.611 206.36C124.027 205.192 124.923 204.584 126.059 204.584C127.707 204.584 128.491 205.544 128.491 207.544V213ZM130.848 213.096C130.304 213.096 130 212.76 130 212.328C130 211.912 130.304 211.56 130.848 211.56C131.392 211.56 131.696 211.912 131.696 212.328C131.696 212.76 131.392 213.096 130.848 213.096Z" fill="#6E7D8E"/>
</svg>
