<svg width="357" height="249" viewBox="0 0 357 249" fill="none" xmlns="http://www.w3.org/2000/svg">
<path d="M151.278 138.002H123.689C123.625 138.002 123.563 137.976 123.518 137.931L113.149 127.562C113.054 127.467 113.054 127.314 113.149 127.22C113.243 127.125 113.396 127.125 113.491 127.22L123.789 137.518H151.278C151.412 137.518 151.52 137.626 151.52 137.76C151.52 137.894 151.412 138.002 151.278 138.002Z" fill="#5479F7"/>
<path d="M113.32 130.198C114.87 130.198 116.127 128.941 116.127 127.391C116.127 125.841 114.87 124.584 113.32 124.584C111.77 124.584 110.513 125.841 110.513 127.391C110.513 128.941 111.77 130.198 113.32 130.198Z" fill="white"/>
<path d="M113.32 130.44C111.639 130.44 110.271 129.072 110.271 127.391C110.271 125.71 111.639 124.342 113.32 124.342C115.001 124.342 116.368 125.71 116.368 127.391C116.368 129.072 115.001 130.44 113.32 130.44ZM113.32 124.826C111.905 124.826 110.755 125.977 110.755 127.391C110.755 128.805 111.905 129.956 113.32 129.956C114.734 129.956 115.885 128.805 115.885 127.391C115.885 125.977 114.734 124.826 113.32 124.826Z" fill="#5479F7"/>
<path d="M154.519 147.38H123.689C123.555 147.38 123.447 147.272 123.447 147.138C123.447 147.005 123.555 146.896 123.689 146.896H154.519C154.652 146.896 154.761 147.005 154.761 147.138C154.761 147.272 154.652 147.38 154.519 147.38Z" fill="#5479F7"/>
<path d="M126.424 147.638C126.672 146.108 125.633 144.666 124.103 144.418C122.573 144.169 121.131 145.209 120.883 146.739C120.635 148.269 121.674 149.711 123.204 149.959C124.734 150.207 126.176 149.168 126.424 147.638Z" fill="white"/>
<path d="M123.649 150.236C121.968 150.236 120.601 148.868 120.601 147.187C120.601 145.506 121.968 144.139 123.649 144.139C125.33 144.139 126.698 145.506 126.698 147.187C126.698 148.868 125.33 150.236 123.649 150.236ZM123.649 144.622C122.235 144.622 121.084 145.773 121.084 147.187C121.084 148.602 122.235 149.752 123.649 149.752C125.063 149.752 126.214 148.602 126.214 147.187C126.214 145.773 125.063 144.622 123.649 144.622Z" fill="#5479F7"/>
<path d="M306.022 102.889H267.713C267.58 102.889 267.472 102.781 267.472 102.647C267.472 102.513 267.58 102.405 267.713 102.405H305.922L321.281 87.0455C321.376 86.951 321.529 86.951 321.623 87.0455C321.718 87.1399 321.718 87.293 321.623 87.3874L306.193 102.818C306.148 102.863 306.086 102.889 306.022 102.889Z" fill="#5479F7"/>
<path d="M321.452 89.7998C322.865 89.7998 324.01 88.6548 324.01 87.2422C324.01 85.8297 322.865 84.6846 321.452 84.6846C320.04 84.6846 318.895 85.8297 318.895 87.2422C318.895 88.6548 320.04 89.7998 321.452 89.7998Z" fill="white"/>
<path d="M321.452 90.0417C319.908 90.0417 318.653 88.7859 318.653 87.2422C318.653 85.6987 319.908 84.4429 321.452 84.4429C322.996 84.4429 324.252 85.6987 324.252 87.2422C324.252 88.7859 322.996 90.0417 321.452 90.0417ZM321.452 84.9266C320.175 84.9266 319.136 85.9654 319.136 87.2422C319.136 88.519 320.175 89.558 321.452 89.558C322.729 89.558 323.768 88.519 323.768 87.2422C323.768 85.9654 322.729 84.9266 321.452 84.9266Z" fill="#5479F7"/>
<path d="M315.141 110.46H248.91C248.776 110.46 248.668 110.352 248.668 110.218C248.668 110.085 248.776 109.977 248.91 109.977H315.141C315.274 109.977 315.382 110.085 315.382 110.218C315.382 110.352 315.274 110.46 315.141 110.46Z" fill="#5479F7"/>
<path d="M315.141 112.776C316.553 112.776 317.698 111.631 317.698 110.218C317.698 108.806 316.553 107.661 315.141 107.661C313.728 107.661 312.583 108.806 312.583 110.218C312.583 111.631 313.728 112.776 315.141 112.776Z" fill="white"/>
<path d="M315.14 113.018C313.597 113.018 312.341 111.762 312.341 110.218C312.341 108.675 313.597 107.419 315.14 107.419C316.684 107.419 317.94 108.675 317.94 110.218C317.94 111.762 316.684 113.018 315.14 113.018ZM315.14 107.903C313.864 107.903 312.825 108.942 312.825 110.218C312.825 111.495 313.864 112.534 315.14 112.534C316.417 112.534 317.456 111.495 317.456 110.218C317.456 108.942 316.417 107.903 315.14 107.903Z" fill="#5479F7"/>
<path d="M255.181 111.622C257.869 111.594 260.027 109.391 259.999 106.701C259.997 106.5 259.979 106.304 259.954 106.11C261.903 105.605 263.736 104.816 265.405 103.785C265.527 103.938 265.657 104.087 265.8 104.227C267.721 106.11 270.803 106.078 272.685 104.156C274.567 102.235 274.535 99.1508 272.614 97.2682C272.471 97.1279 272.32 97.0015 272.165 96.8826C273.16 95.1918 273.911 93.3421 274.376 91.3821C274.57 91.4037 274.767 91.4174 274.967 91.4153C277.656 91.3877 279.813 89.1847 279.786 86.4947C279.758 83.8048 277.556 81.6465 274.867 81.6741C274.667 81.6762 274.471 81.6939 274.277 81.7195C273.772 79.7694 272.983 77.9355 271.953 76.2657C272.105 76.1435 272.254 76.0141 272.394 75.8709C274.276 73.9493 274.244 70.8654 272.324 68.9828C270.403 67.1002 267.32 67.1318 265.438 69.0535C265.298 69.1966 265.172 69.348 265.053 69.5032C263.363 68.5075 261.514 67.7557 259.555 67.2907C259.576 67.0964 259.59 66.8999 259.588 66.6993C259.561 64.0092 257.358 61.851 254.67 61.8787C251.981 61.9063 249.823 64.1093 249.851 66.7993C249.853 66.9999 249.871 67.1962 249.896 67.3899C247.947 67.8951 246.114 68.6849 244.445 69.7149C244.323 69.5621 244.194 69.4135 244.051 69.2732C242.13 67.3906 239.047 67.4222 237.165 69.3439C235.284 71.2655 235.315 74.3494 237.236 76.232C237.379 76.3723 237.53 76.4987 237.685 76.6176C236.69 78.3084 235.939 80.1581 235.474 82.1181C235.28 82.0965 235.083 82.0828 234.883 82.0849C232.194 82.1125 230.037 84.3155 230.064 87.0055C230.092 89.6955 232.294 91.8537 234.983 91.8261C235.183 91.824 235.38 91.8063 235.573 91.7807C236.078 93.7308 236.868 95.5647 237.897 97.2347C237.745 97.3568 237.596 97.4861 237.456 97.6294C235.574 99.551 235.606 102.635 237.527 104.518C239.447 106.4 242.53 106.368 244.412 104.447C244.552 104.304 244.678 104.152 244.797 103.997C246.487 104.993 248.336 105.745 250.295 106.21C250.274 106.404 250.26 106.6 250.262 106.801C250.29 109.491 252.492 111.649 255.181 111.622ZM255.018 95.7954C250.025 95.8466 245.935 91.8385 245.884 86.8431C245.832 81.8477 249.839 77.7564 254.832 77.705C259.826 77.6538 263.915 81.6619 263.966 86.6573C264.018 91.6527 260.011 95.7442 255.018 95.7954Z" fill="white"/>
<path d="M255.129 111.864C253.784 111.864 252.516 111.346 251.554 110.403C250.579 109.448 250.034 108.169 250.02 106.804C250.019 106.675 250.024 106.54 250.035 106.395C248.218 105.944 246.478 105.244 244.857 104.312C244.764 104.424 244.675 104.523 244.584 104.616C243.629 105.592 242.352 106.137 240.986 106.151C240.969 106.151 240.95 106.151 240.932 106.151C239.587 106.151 238.32 105.633 237.357 104.69C235.344 102.718 235.311 99.4742 237.283 97.4604C237.374 97.368 237.472 97.276 237.582 97.182C236.617 95.5797 235.881 93.8536 235.393 92.0451C235.248 92.0593 235.115 92.0669 234.985 92.068C233.611 92.0787 232.331 91.5633 231.357 90.6077C230.382 89.652 229.837 88.3735 229.823 87.0082C229.794 84.189 232.063 81.8722 234.881 81.8432C235.011 81.8415 235.145 81.8467 235.289 81.8578C235.74 80.0394 236.44 78.2987 237.371 76.677C237.26 76.5851 237.159 76.4951 237.067 76.4046C235.054 74.432 235.021 71.1886 236.993 69.175C237.948 68.1993 239.226 67.6543 240.591 67.6402C240.609 67.6402 240.627 67.6399 240.645 67.6399C241.99 67.6399 243.258 68.1574 244.22 69.1005C244.312 69.1905 244.404 69.2892 244.498 69.3995C246.1 68.4342 247.825 67.6982 249.633 67.2098C249.618 67.0655 249.611 66.9306 249.61 66.8018C249.58 63.9827 251.849 61.6659 254.667 61.6369C256.024 61.6154 257.321 62.1414 258.296 63.0972C259.271 64.0529 259.816 65.3314 259.83 66.6967C259.832 66.8268 259.827 66.9599 259.816 67.1051C261.634 67.5567 263.373 68.2567 264.994 69.1887C265.086 69.077 265.175 68.9766 265.266 68.8842C266.221 67.9086 267.499 67.3636 268.864 67.3495C268.882 67.3495 268.9 67.3493 268.918 67.3493C270.263 67.3493 271.531 67.8668 272.493 68.8101C274.506 70.7828 274.539 74.0261 272.568 76.0398C272.478 76.1319 272.379 76.2237 272.269 76.3185C273.233 77.9199 273.969 79.646 274.457 81.4551C274.602 81.4412 274.736 81.4337 274.865 81.4323C274.883 81.432 274.901 81.4321 274.919 81.4321C276.264 81.4321 277.532 81.9495 278.494 82.8926C279.469 83.8483 280.014 85.1268 280.028 86.4921C280.057 89.3112 277.788 91.6283 274.97 91.6573C274.839 91.6573 274.706 91.6538 274.562 91.6427C274.111 93.4606 273.411 95.2013 272.479 96.8233C272.591 96.9156 272.692 97.0056 272.784 97.0956C274.797 99.0687 274.83 102.312 272.858 104.326C271.903 105.301 270.625 105.846 269.26 105.86C269.242 105.86 269.224 105.861 269.206 105.861C267.861 105.861 266.593 105.343 265.631 104.4C265.538 104.309 265.447 104.211 265.353 104.101C263.751 105.066 262.026 105.802 260.218 106.29C260.232 106.435 260.24 106.568 260.241 106.698C260.27 109.518 258.001 111.835 255.183 111.864C255.165 111.864 255.147 111.864 255.129 111.864ZM244.797 103.755C244.839 103.755 244.881 103.766 244.92 103.789C246.612 104.785 248.439 105.521 250.351 105.974C250.47 106.002 250.549 106.115 250.536 106.236C250.513 106.444 250.502 106.629 250.504 106.799C250.517 108.035 251.01 109.193 251.893 110.058C252.776 110.923 253.934 111.385 255.178 111.38C257.729 111.354 259.784 109.256 259.757 106.703C259.756 106.532 259.742 106.354 259.714 106.142C259.698 106.021 259.775 105.907 259.893 105.876C261.797 105.383 263.609 104.61 265.278 103.58C265.383 103.515 265.518 103.539 265.594 103.634C265.725 103.798 265.847 103.935 265.969 104.054C266.841 104.908 267.988 105.377 269.206 105.377C269.222 105.377 269.238 105.376 269.255 105.376C270.49 105.364 271.647 104.87 272.512 103.987C274.298 102.164 274.268 99.2273 272.445 97.4408C272.324 97.3221 272.184 97.2023 272.018 97.0742C271.921 96.9998 271.894 96.865 271.957 96.7598C272.952 95.0678 273.687 93.2397 274.141 91.3263C274.169 91.2073 274.282 91.1284 274.403 91.1416C274.611 91.1645 274.797 91.1733 274.965 91.1735C277.516 91.1472 279.57 89.0494 279.544 86.4972C279.531 85.2607 279.038 84.1032 278.155 83.238C277.284 82.384 276.136 81.9156 274.919 81.9156C274.902 81.9156 274.886 81.9156 274.87 81.9159C274.7 81.9177 274.516 81.9319 274.308 81.9591C274.185 81.973 274.074 81.8984 274.043 81.7801C273.549 79.8753 272.777 78.0627 271.747 76.3926C271.683 76.2885 271.707 76.1532 271.802 76.0768C271.966 75.9456 272.103 75.8229 272.222 75.7016C274.007 73.8782 273.977 70.9417 272.155 69.1554C271.283 68.3016 270.136 67.833 268.918 67.833C268.902 67.833 268.885 67.8332 268.869 67.8332C267.633 67.846 266.476 68.3394 265.611 69.2225C265.492 69.3445 265.372 69.4844 265.245 69.6502C265.171 69.7471 265.036 69.7737 264.93 69.7113C263.24 68.7153 261.412 67.98 259.499 67.5259C259.38 67.4978 259.301 67.3854 259.315 67.264C259.338 67.0512 259.348 66.8726 259.346 66.7019C259.334 65.4654 258.841 64.3079 257.958 63.4427C257.086 62.5889 255.939 62.1204 254.721 62.1204C254.705 62.1204 254.689 62.1204 254.672 62.1206C252.121 62.1467 250.067 64.2446 250.093 66.7967C250.095 66.967 250.109 67.1507 250.136 67.3583C250.152 67.4795 250.075 67.5935 249.957 67.6241C248.055 68.1173 246.243 68.8901 244.572 69.9208C244.468 69.985 244.332 69.9612 244.256 69.8661C244.125 69.7021 244.002 69.5647 243.881 69.4459C243.01 68.5923 241.862 68.1238 240.645 68.1238C240.628 68.1238 240.612 68.1238 240.596 68.124C239.36 68.1367 238.203 68.6301 237.338 69.5132C235.552 71.3365 235.583 74.2731 237.405 76.0594C237.528 76.1791 237.667 76.2989 237.833 76.426C237.93 76.5001 237.956 76.6352 237.894 76.7403C236.898 78.4322 236.163 80.2602 235.709 82.174C235.681 82.2931 235.572 82.3715 235.447 82.3588C235.24 82.3359 235.054 82.3255 234.885 82.3269C232.334 82.3531 230.28 84.451 230.306 87.003C230.319 88.2395 230.812 89.397 231.695 90.2622C232.578 91.1275 233.741 91.6038 234.98 91.5843C235.151 91.5827 235.33 91.5689 235.542 91.5411C235.659 91.5234 235.777 91.6018 235.807 91.7201C236.3 93.624 237.073 95.4365 238.103 97.1081C238.167 97.212 238.144 97.3473 238.048 97.4237C237.886 97.5541 237.748 97.6766 237.628 97.7989C235.843 99.6221 235.873 102.559 237.696 104.345C238.579 105.21 239.736 105.68 240.981 105.667C242.217 105.654 243.374 105.161 244.239 104.278C244.358 104.156 244.475 104.02 244.605 103.85C244.653 103.788 244.724 103.755 244.797 103.755ZM254.924 96.0378C249.849 96.0378 245.694 91.9343 245.642 86.8456C245.589 81.7249 249.711 77.516 254.83 77.4631C254.862 77.4629 254.895 77.4626 254.928 77.4626C257.371 77.4626 259.674 78.4027 261.422 80.1159C263.193 81.8522 264.183 84.1744 264.208 86.6547C264.261 91.7757 260.139 95.9848 255.021 96.0373C254.988 96.0376 254.956 96.0378 254.924 96.0378ZM254.927 77.9464C254.897 77.9464 254.866 77.9466 254.835 77.9468C249.983 77.9968 246.076 81.9866 246.126 86.8405C246.175 91.6639 250.114 95.5539 254.924 95.5541C254.955 95.5541 254.985 95.5539 255.016 95.5537C259.868 95.5039 263.775 91.5142 263.725 86.66C263.701 84.3086 262.763 82.1073 261.083 80.4615C259.426 78.8375 257.243 77.9464 254.927 77.9464Z" fill="black"/>
<path d="M290.481 72.9481C292.088 72.4466 292.983 70.7372 292.481 69.1302C292.444 69.0104 292.398 68.896 292.348 68.7845C293.425 68.1302 294.381 67.3263 295.195 66.4079C295.296 66.4774 295.4 66.5432 295.511 66.6014C297.002 67.3831 298.843 66.8081 299.624 65.3171C300.406 63.826 299.83 61.9838 298.34 61.2021C298.229 61.1438 298.115 61.0954 298.001 61.0521C298.292 59.8595 298.409 58.6154 298.334 57.3571C298.454 57.335 298.574 57.3077 298.694 57.2703C300.3 56.7688 301.196 55.0595 300.694 53.4524C300.192 51.8454 298.483 50.9492 296.877 51.4509C296.757 51.4882 296.643 51.5343 296.531 51.5846C295.877 50.507 295.073 49.5504 294.155 48.7354C294.224 48.6347 294.29 48.5304 294.348 48.4193C295.129 46.9284 294.554 45.086 293.063 44.3043C291.573 43.5226 289.731 44.0976 288.95 45.5886C288.892 45.6997 288.844 45.8132 288.801 45.9276C287.608 45.6358 286.364 45.5188 285.107 45.5936C285.084 45.4733 285.057 45.353 285.02 45.2331C284.518 43.6261 282.809 42.7299 281.203 43.2316C279.597 43.7331 278.701 45.4424 279.203 47.0494C279.24 47.1693 279.286 47.2836 279.337 47.3951C278.26 48.0494 277.304 48.8534 276.489 49.7718C276.388 49.7023 276.284 49.6364 276.173 49.5783C274.682 48.7966 272.841 49.3715 272.06 50.8626C271.279 52.3535 271.854 54.1959 273.345 54.9776C273.456 55.0358 273.569 55.0842 273.684 55.1275C273.392 56.3201 273.275 57.5642 273.351 58.8226C273.23 58.8447 273.11 58.872 272.99 58.9093C271.384 59.4109 270.488 61.1202 270.99 62.7272C271.492 64.3343 273.201 65.2304 274.807 64.7288C274.927 64.6914 275.041 64.6453 275.153 64.5951C275.807 65.6726 276.611 66.6292 277.529 67.4442C277.46 67.5449 277.394 67.6493 277.336 67.7604C276.555 69.2513 277.13 71.0936 278.621 71.8753C280.111 72.657 281.953 72.0821 282.734 70.591C282.792 70.48 282.84 70.3665 282.884 70.252C284.076 70.5437 285.32 70.6608 286.578 70.5861C286.6 70.7064 286.627 70.8267 286.664 70.9465C287.166 72.5534 288.875 73.4496 290.481 72.9481ZM287.529 63.4934C284.546 64.4249 281.373 62.7605 280.441 59.7763C279.509 56.792 281.172 53.6175 284.155 52.6861C287.138 51.7547 290.312 53.419 291.244 56.4033C292.175 59.3876 290.512 62.562 287.529 63.4934Z" fill="white"/>
<path d="M289.576 73.3288C288.175 73.3288 286.873 72.4254 286.434 71.0187C286.416 70.9613 286.399 70.9016 286.384 70.8382C285.256 70.8862 284.129 70.7849 283.03 70.535C283.003 70.5938 282.976 70.6498 282.948 70.7031C282.541 71.4816 281.854 72.0546 281.016 72.3163C280.177 72.5784 279.287 72.4977 278.508 72.0896C276.902 71.2473 276.28 69.2548 277.122 67.6483C277.15 67.5945 277.18 67.5409 277.214 67.4856C276.383 66.7229 275.658 65.854 275.056 64.8979C274.995 64.9214 274.936 64.9419 274.879 64.9598C273.149 65.5003 271.3 64.5311 270.76 62.7992C270.497 61.9604 270.578 61.0698 270.986 60.2913C271.393 59.513 272.079 58.9404 272.918 58.6787C272.975 58.6608 273.035 58.6442 273.098 58.6289C273.049 57.4997 273.151 56.3728 273.401 55.2732C273.341 55.2467 273.286 55.2197 273.232 55.1919C271.626 54.3494 271.004 52.3569 271.846 50.7503C272.253 49.972 272.939 49.3991 273.778 49.1375C274.617 48.8748 275.507 48.9558 276.285 49.3642C276.339 49.3923 276.393 49.4226 276.448 49.4563C277.21 48.6249 278.079 47.9003 279.034 47.2983C279.011 47.2376 278.99 47.179 278.972 47.1216C278.71 46.2828 278.79 45.3923 279.198 44.6138C279.606 43.8356 280.292 43.2625 281.131 43.0009C282.861 42.4602 284.71 43.4293 285.251 45.1612C285.269 45.2191 285.285 45.2784 285.301 45.3417C286.428 45.2937 287.556 45.3954 288.655 45.645C288.681 45.5855 288.708 45.5297 288.736 45.4763C289.144 44.6983 289.83 44.1253 290.669 43.8636C291.507 43.6009 292.398 43.682 293.176 44.0904C294.782 44.9326 295.405 46.9251 294.563 48.5316C294.535 48.5852 294.504 48.6394 294.47 48.6943C295.302 49.457 296.027 50.3259 296.629 51.2818C296.689 51.2586 296.747 51.2383 296.805 51.2201C298.537 50.6792 300.384 51.6488 300.925 53.3808C301.187 54.2194 301.107 55.1101 300.699 55.8884C300.291 56.6669 299.605 57.2397 298.766 57.5012C298.709 57.5194 298.649 57.5358 298.586 57.5511C298.635 58.6798 298.533 59.8066 298.284 60.9068C298.343 60.9332 298.399 60.9601 298.452 60.9882C300.058 61.8305 300.68 63.8228 299.839 65.4295C299.431 66.2078 298.745 66.7808 297.906 67.0424C297.067 67.3045 296.177 67.2238 295.399 66.8156C295.345 66.7875 295.292 66.7572 295.236 66.7235C294.474 67.5549 293.606 68.2795 292.65 68.8815C292.674 68.9422 292.694 69.001 292.712 69.0584C292.974 69.8972 292.894 70.7875 292.486 71.566C292.078 72.3443 291.392 72.917 290.553 73.1787C290.228 73.2804 289.899 73.3288 289.576 73.3288ZM286.578 70.3443C286.694 70.3443 286.794 70.427 286.816 70.5422C286.839 70.6698 286.865 70.7756 286.895 70.8747C287.357 72.3514 288.933 73.1776 290.409 72.7172C291.125 72.4938 291.71 72.0053 292.058 71.3414C292.406 70.6775 292.474 69.9179 292.251 69.2023C292.22 69.1029 292.181 69.002 292.128 68.8839C292.077 68.7727 292.118 68.6411 292.222 68.5778C293.266 67.9439 294.205 67.1598 295.015 66.2476C295.096 66.156 295.232 66.1396 295.333 66.2089C295.44 66.2828 295.533 66.3395 295.624 66.3872C296.288 66.7356 297.047 66.8041 297.762 66.5806C298.477 66.3574 299.063 65.8688 299.41 65.205C300.129 63.8344 299.598 62.1349 298.227 61.4163C298.136 61.3682 298.034 61.3233 297.916 61.2784C297.801 61.2352 297.737 61.1136 297.766 60.9947C298.055 59.81 298.165 58.591 298.093 57.3714C298.085 57.2493 298.171 57.1411 298.291 57.1191C298.414 57.0965 298.523 57.0705 298.622 57.0393C299.338 56.8161 299.923 56.3277 300.271 55.6637C300.618 54.9998 300.687 54.2402 300.464 53.5246C300.002 52.0475 298.427 51.2208 296.949 51.6816C296.851 51.7125 296.749 51.7517 296.631 51.8051C296.52 51.8544 296.388 51.8143 296.325 51.7098C295.691 50.6657 294.907 49.7259 293.995 48.9162C293.903 48.835 293.887 48.6985 293.956 48.5979C294.028 48.494 294.086 48.3988 294.135 48.3067C294.853 46.9364 294.322 45.237 292.952 44.5185C292.288 44.1702 291.528 44.1017 290.813 44.3251C290.098 44.5483 289.513 45.037 289.165 45.7007C289.117 45.7929 289.073 45.892 289.027 46.013C288.984 46.1273 288.862 46.1913 288.744 46.1628C287.56 45.8729 286.341 45.7626 285.121 45.835C285.001 45.8446 284.891 45.7578 284.869 45.6375C284.846 45.5093 284.82 45.4037 284.789 45.3054C284.328 43.8286 282.753 43.0021 281.275 43.4622C280.56 43.6856 279.975 44.1743 279.627 44.8382C279.279 45.5021 279.211 46.2617 279.434 46.9773C279.465 47.0756 279.505 47.1798 279.557 47.2958C279.608 47.407 279.567 47.5386 279.463 47.6019C278.419 48.2358 277.48 49.0197 276.67 49.9324C276.589 50.0237 276.452 50.0403 276.352 49.9708C276.245 49.8969 276.152 49.8402 276.061 49.7927C275.397 49.4446 274.638 49.3756 273.923 49.5991C273.207 49.8223 272.622 50.3109 272.274 50.9746C271.556 52.3453 272.087 54.0448 273.457 54.7634C273.548 54.8109 273.65 54.856 273.77 54.9016C273.884 54.9448 273.948 55.0664 273.919 55.1851C273.629 56.3695 273.519 57.5885 273.592 58.8084C273.599 58.9306 273.514 59.0387 273.394 59.0607C273.268 59.0839 273.16 59.1098 273.063 59.1403C272.347 59.3637 271.762 59.8522 271.414 60.5161C271.066 61.18 270.998 61.9396 271.221 62.6552C271.683 64.1323 273.258 64.9597 274.735 64.4982C274.835 64.4673 274.936 64.4281 275.054 64.375C275.165 64.3237 275.296 64.3655 275.36 64.4696C275.994 65.514 276.778 66.4539 277.69 67.2635C277.781 67.3445 277.798 67.481 277.729 67.5814C277.655 67.6886 277.598 67.7812 277.551 67.8725C276.832 69.2434 277.363 70.9428 278.733 71.6613C279.397 72.0096 280.156 72.0786 280.872 71.8547C281.587 71.6315 282.172 71.1428 282.52 70.4791C282.568 70.387 282.613 70.2847 282.658 70.1668C282.701 70.0522 282.822 69.9876 282.941 70.0171C284.126 70.3071 285.345 70.4176 286.563 70.3448C286.568 70.3446 286.573 70.3443 286.578 70.3443ZM285.836 63.9954C284.895 63.9954 283.962 63.7675 283.104 63.3175C281.708 62.5853 280.68 61.3533 280.21 59.8484C279.74 58.3434 279.884 56.7456 280.616 55.3492C281.347 53.9527 282.578 52.925 284.083 52.4555C285.587 51.9857 287.185 52.1298 288.581 52.8622C289.977 53.5944 291.005 54.8263 291.474 56.3313C291.944 57.8363 291.8 59.4341 291.069 60.8305C290.337 62.227 289.106 63.2547 287.601 63.7242C287.021 63.9055 286.427 63.9954 285.836 63.9954ZM285.847 52.6683C285.305 52.6683 284.76 52.7508 284.227 52.9171C282.846 53.3483 281.716 54.2917 281.044 55.5737C280.373 56.8557 280.24 58.3226 280.672 59.7044C281.103 61.0861 282.046 62.2171 283.328 62.8891C284.61 63.5613 286.076 63.6938 287.457 63.2627C288.838 62.8315 289.969 61.8882 290.64 60.6061C291.312 59.3241 291.444 57.8572 291.013 56.4754C290.581 55.0937 289.638 53.9627 288.356 53.2907C287.569 52.8776 286.711 52.6683 285.847 52.6683Z" fill="black"/>
<path d="M158.003 226.941H242.664C248.168 226.941 252.672 222.438 252.672 216.933V46.2365C252.672 40.7321 248.168 36.2285 242.664 36.2285H158.003C152.498 36.2285 147.995 40.7321 147.995 46.2365V216.933C147.995 222.438 152.498 226.941 158.003 226.941Z" fill="white"/>
<path d="M242.664 227.183H158.003C152.351 227.183 147.752 222.585 147.752 216.934V46.2366C147.752 40.5848 152.351 35.9868 158.003 35.9868H242.664C248.316 35.9868 252.914 40.585 252.914 46.2366V216.934C252.914 222.585 248.316 227.183 242.664 227.183ZM158.003 36.4705C152.617 36.4705 148.236 40.8516 148.236 46.2366V216.934C148.236 222.319 152.618 226.7 158.003 226.7H242.664C248.049 226.7 252.43 222.319 252.43 216.934V46.2366C252.43 40.8515 248.049 36.4705 242.664 36.4705H158.003Z" fill="black"/>
<path d="M160.714 220.887H239.953C244.124 220.887 247.537 217.474 247.537 213.303V49.3403C247.537 45.1691 244.124 41.7563 239.953 41.7563H160.714C156.543 41.7563 153.13 45.1691 153.13 49.3403V213.303C153.13 217.474 156.543 220.887 160.714 220.887Z" fill="white"/>
<path d="M239.953 221.129H160.714C156.398 221.129 152.888 217.618 152.888 213.303V49.34C152.888 45.0249 156.398 41.5142 160.714 41.5142H239.953C244.268 41.5142 247.779 45.0248 247.779 49.34V213.303C247.779 217.618 244.268 221.129 239.953 221.129ZM160.714 41.9979C156.665 41.9979 153.371 45.2915 153.371 49.34V213.303C153.371 217.351 156.665 220.645 160.714 220.645H239.953C244.001 220.645 247.295 217.351 247.295 213.303V49.34C247.295 45.2916 244.001 41.9979 239.953 41.9979H160.714Z" fill="black"/>
<path d="M210.143 47.3948H189.339C189.205 47.3948 189.097 47.2866 189.097 47.1529C189.097 47.0192 189.205 46.9111 189.339 46.9111H210.143C210.276 46.9111 210.385 47.0193 210.385 47.1529C210.385 47.2866 210.276 47.3948 210.143 47.3948Z" fill="black"/>
<path d="M236.768 69.5161H163.898V142.386H236.768V69.5161Z" fill="#5479F7"/>
<path d="M206.296 61.7098H163.899C163.765 61.7098 163.657 61.6016 163.657 61.4679C163.657 61.3342 163.765 61.2261 163.899 61.2261H206.296C206.43 61.2261 206.538 61.3343 206.538 61.4679C206.538 61.6017 206.43 61.7098 206.296 61.7098Z" fill="black"/>
<path d="M236.768 148.941H219.977C219.844 148.941 219.735 148.833 219.735 148.699C219.735 148.566 219.844 148.458 219.977 148.458H236.768C236.902 148.458 237.01 148.566 237.01 148.699C237.01 148.833 236.902 148.941 236.768 148.941Z" fill="black"/>
<path d="M6.17827 182.667C6.53859 181.141 5.59368 179.612 4.06775 179.252C2.54182 178.891 1.01272 179.836 0.652409 181.362C0.292095 182.888 1.237 184.417 2.76293 184.777C4.28886 185.138 5.81796 184.193 6.17827 182.667Z" fill="white"/>
<path d="M3.40956 185.07C1.71092 185.07 0.328735 183.688 0.328735 181.989C0.328735 180.29 1.71092 178.908 3.40956 178.908C5.1082 178.908 6.49039 180.29 6.49039 181.989C6.49039 183.688 5.1082 185.07 3.40956 185.07ZM3.40956 179.392C1.97757 179.392 0.812462 180.557 0.812462 181.989C0.812462 183.421 1.97757 184.586 3.40956 184.586C4.84155 184.586 6.00666 183.421 6.00666 181.989C6.00666 180.557 4.84155 179.392 3.40956 179.392Z" fill="#5479F7"/>
<path d="M136.642 181.842L106.289 181.842L6.89016 181.842" stroke="#5479F7" stroke-width="0.572701" stroke-linecap="round"/>
<path d="M236.768 174.718H136.059V198.19H236.768V174.718Z" fill="#E2EAFF"/>
<path d="M206.296 168.623H163.899C163.765 168.623 163.657 168.515 163.657 168.381C163.657 168.248 163.765 168.14 163.899 168.14H206.296C206.43 168.14 206.538 168.248 206.538 168.381C206.538 168.515 206.43 168.623 206.296 168.623Z" fill="black"/>
<path d="M200.333 122.261C209.772 122.261 217.424 114.782 217.424 105.556C217.424 96.3291 209.772 88.8496 200.333 88.8496C190.894 88.8496 183.243 96.3291 183.243 105.556C183.243 114.782 190.894 122.261 200.333 122.261Z" fill="white"/>
<path d="M200.333 126.68C188.421 126.68 178.729 117.203 178.729 105.555C178.729 105.422 178.837 105.313 178.97 105.313C179.104 105.313 179.212 105.422 179.212 105.555C179.212 116.937 188.687 126.196 200.333 126.196C211.979 126.196 221.454 116.937 221.454 105.555C221.454 105.422 221.563 105.313 221.696 105.313C221.83 105.313 221.938 105.422 221.938 105.555C221.938 117.203 212.246 126.68 200.333 126.68Z" fill="white"/>
<path d="M208.094 109.386H192.572C190.767 109.386 189.299 107.918 189.299 106.113C189.299 104.308 190.767 102.839 192.572 102.839H208.094C209.899 102.839 211.368 104.308 211.368 106.113C211.368 107.918 209.899 109.386 208.094 109.386ZM192.572 103.323C191.034 103.323 189.782 104.575 189.782 106.113C189.782 107.651 191.034 108.903 192.572 108.903H208.094C209.633 108.903 210.884 107.651 210.884 106.113C210.884 104.575 209.633 103.323 208.094 103.323H192.572Z" fill="#5479F7"/>
<path d="M206.707 107.995C207.703 107.933 208.46 107.076 208.398 106.08C208.336 105.085 207.479 104.328 206.483 104.39C205.487 104.452 204.731 105.309 204.792 106.305C204.854 107.3 205.712 108.057 206.707 107.995Z" fill="#5479F7"/>
<path d="M194.484 107.924C195.455 107.695 196.056 106.722 195.827 105.751C195.598 104.78 194.625 104.179 193.654 104.408C192.683 104.637 192.082 105.61 192.312 106.581C192.541 107.552 193.514 108.153 194.484 107.924Z" fill="#5479F7"/>
<path d="M196.737 112.503C197.547 113.612 198.856 114.332 200.333 114.332C201.811 114.332 203.12 113.612 203.93 112.503H196.737Z" fill="#5479F7"/>
<path d="M174.06 97.8086C171.112 98.9153 169.014 101.759 169.014 105.093C169.014 108.427 171.112 111.271 174.06 112.377V97.8086Z" fill="white"/>
<path d="M194.075 116.983H176.47C176.336 116.983 176.228 116.874 176.228 116.741V105.836C176.228 92.5443 187.042 81.7305 200.333 81.7305C213.625 81.7305 224.439 92.5443 224.439 105.836V112.377C224.439 112.511 224.331 112.619 224.197 112.619C224.064 112.619 223.955 112.511 223.955 112.377V105.836C223.955 92.811 213.359 82.2142 200.334 82.2142C187.308 82.2142 176.711 92.811 176.711 105.836V116.499H194.075C194.209 116.499 194.317 116.607 194.317 116.741C194.317 116.874 194.208 116.983 194.075 116.983Z" fill="white"/>
<path d="M194.074 116.983H187.639C187.505 116.983 187.397 116.875 187.397 116.741C187.397 116.607 187.505 116.499 187.639 116.499H194.074C194.208 116.499 194.316 116.607 194.316 116.741C194.316 116.875 194.208 116.983 194.074 116.983Z" fill="#5479F7"/>
<path d="M226.606 97.8086C229.554 98.9153 231.652 101.759 231.652 105.093C231.652 108.427 229.554 111.271 226.606 112.377V97.8086Z" fill="white"/>
<path d="M196.033 116.741C196.033 117.823 195.156 118.699 194.074 118.699C192.993 118.699 192.116 117.823 192.116 116.741C192.116 115.66 192.993 114.783 194.074 114.783C195.156 114.783 196.033 115.659 196.033 116.741Z" fill="#5479F7"/>
<path d="M54.3517 95.9136L53.6437 96.7574C45.6276 106.31 41.0829 118.295 40.7508 130.76C39.9774 159.796 38.6453 213.345 38.8113 231.903C38.8364 234.71 41.1197 236.969 43.9263 236.969H73.0372C75.008 236.969 76.1093 234.695 74.8875 233.149L70.6165 227.744L67.3969 161.315L92.9515 233.552C93.6759 235.6 95.6122 236.969 97.7843 236.969H128.829C130.865 236.969 131.944 234.564 130.591 233.043L124.85 226.591L77.9063 115.472L54.3517 95.9136Z" fill="white"/>
<path d="M128.829 237.211H97.7844C95.5145 237.211 93.4807 235.773 92.7236 233.633L67.7182 162.948L70.8546 227.655L75.0774 232.999C75.7008 233.787 75.8157 234.839 75.3774 235.744C74.9393 236.649 74.0427 237.211 73.0375 237.211H43.9266C40.9989 237.211 38.5958 234.831 38.5696 231.905C38.4046 213.445 39.714 160.607 40.5092 130.754C40.8415 118.286 45.4403 106.157 53.4587 96.6019L54.1668 95.758C54.252 95.6559 54.4039 95.642 54.5065 95.7273L78.0611 115.286C78.0909 115.311 78.1142 115.342 78.1293 115.378L125.058 226.46L130.772 232.882C131.462 233.658 131.627 234.728 131.202 235.675C130.777 236.622 129.868 237.211 128.829 237.211ZM67.3973 161.073C67.4979 161.073 67.5902 161.136 67.625 161.234L93.1796 233.472C93.8686 235.419 95.7191 236.727 97.7845 236.727H128.829C129.675 236.727 130.415 236.248 130.761 235.477C131.106 234.706 130.972 233.835 130.411 233.204L124.67 226.751C124.652 226.732 124.638 226.709 124.628 226.685L77.7065 115.621L54.3826 96.2532L53.8289 96.9127C45.8808 106.384 41.3221 118.407 40.9928 130.767C40.1976 160.617 38.8881 213.448 39.0532 231.901C39.0769 234.562 41.263 236.727 43.9265 236.727H73.0373C73.8679 236.727 74.5798 236.281 74.9419 235.533C75.304 234.786 75.2128 233.95 74.6979 233.298L70.4269 227.894C70.3954 227.854 70.3775 227.806 70.3748 227.755L67.1551 161.326C67.1494 161.206 67.2323 161.1 67.35 161.077C67.366 161.074 67.3817 161.073 67.3973 161.073Z" fill="black"/>
<path d="M92.4838 229.006C92.355 229.006 92.2478 228.904 92.2424 228.774C92.2367 228.641 92.3404 228.528 92.4739 228.523C102.484 228.101 112.611 227.341 122.573 226.266C122.707 226.25 122.825 226.348 122.84 226.48C122.854 226.613 122.758 226.732 122.625 226.747C112.653 227.823 102.515 228.583 92.4942 229.006C92.4906 229.006 92.4873 229.006 92.4838 229.006Z" fill="black"/>
<path d="M48.932 228.774C45.7409 228.774 42.5545 228.732 39.382 228.648C39.2485 228.645 39.1429 228.533 39.1466 228.4C39.1501 228.268 39.2579 228.164 39.3882 228.164C39.3905 228.164 39.3927 228.164 39.3948 228.164C49.1526 228.423 59.0427 228.283 68.7906 227.748C68.9231 227.732 69.0379 227.843 69.0452 227.976C69.0524 228.11 68.9505 228.224 68.817 228.231C62.2254 228.593 55.5687 228.774 48.932 228.774Z" fill="black"/>
<path d="M66.7067 160.5C66.6078 160.5 66.5148 160.439 66.4794 160.34L56.3909 132.37C55.2834 129.3 54.0762 126.436 51.5039 125.122C51.3851 125.062 51.3378 124.916 51.3985 124.797C51.4595 124.678 51.6053 124.631 51.724 124.691C54.4513 126.084 55.7496 129.168 56.8458 132.206L66.9342 160.177C66.9796 160.302 66.9145 160.441 66.7888 160.486C66.7618 160.496 66.7339 160.5 66.7067 160.5Z" fill="black"/>
<path d="M97.673 57.109L88.8049 66.7237L99.2124 71.9684L103.937 64.9379C103.937 64.9379 107.948 65.7349 110.946 64.4014C113.943 63.068 110.869 51.8914 110.194 48.877C109.519 45.8625 100.396 50.3457 97.673 57.109Z" fill="white"/>
<path d="M99.2123 72.2104C99.1757 72.2104 99.1384 72.2021 99.1036 72.1844L88.6963 66.9396C88.6285 66.9057 88.5808 66.8417 88.5671 66.767C88.5537 66.6923 88.5758 66.6156 88.6273 66.5598L97.4655 56.9775C99.6902 51.5105 106.007 47.4473 108.956 47.6884C109.757 47.7536 110.281 48.1567 110.43 48.824C110.502 49.1447 110.601 49.558 110.717 50.042C111.752 54.3614 113.905 63.3495 111.044 64.6225C108.316 65.8358 104.841 65.3397 104.05 65.2043L99.4133 72.1033C99.367 72.1723 99.2908 72.2104 99.2123 72.2104ZM89.2003 66.6519L99.1308 71.6564L103.737 64.8029C103.791 64.7217 103.889 64.6809 103.984 64.7007C104.024 64.708 107.957 65.4659 110.848 64.1803C113.341 63.071 111.093 53.6872 110.246 50.1548C110.13 49.6678 110.03 49.252 109.958 48.9296C109.854 48.4671 109.514 48.2187 108.917 48.1703C106.166 47.954 99.9961 51.9866 97.8973 57.199C97.8864 57.2261 97.8706 57.2512 97.8508 57.2726L89.2003 66.6519Z" fill="black"/>
<path d="M94.6817 59.5947C94.6817 59.5947 95.9159 60.624 97.3773 61.5554C98.8583 62.4992 100.753 62.4953 102.219 61.5284L105.151 59.5947C105.151 59.5947 101.399 57.4001 103.496 55.179C103.496 55.179 104.885 54.1446 105.757 55.4786C105.757 55.4786 108.656 54.0017 107.96 51.0837C107.96 51.0837 112.864 49.4972 112.563 45.6526C112.263 41.808 106.083 40.7056 100.909 42.8053C95.7361 44.9051 92.8551 48.1915 94.269 52.5289C95.6829 56.8662 96.1904 57.731 94.6817 59.5947Z" fill="black"/>
<path d="M104.152 64.7641C104.101 64.7641 104.05 64.748 104.006 64.7149C103.899 64.6341 103.879 64.4822 103.959 64.376L105.882 61.8425C105.956 61.7466 106.088 61.719 106.194 61.778C106.299 61.8373 106.344 61.9653 106.3 62.0778L106.235 62.2436C106.206 62.317 106.146 62.3685 106.075 62.3886L104.345 64.6685C104.297 64.731 104.225 64.7641 104.152 64.7641Z" fill="black"/>
<path d="M105.874 58.6381C105.742 58.6381 105.633 58.5311 105.632 58.3981C105.629 57.9012 105.245 57.4322 104.759 57.3301C104.628 57.3027 104.544 57.1745 104.572 57.0439C104.599 56.913 104.728 56.8291 104.858 56.8569C105.558 57.0038 106.111 57.679 106.116 58.3944C106.117 58.5281 106.01 58.6372 105.876 58.6382C105.876 58.6381 105.875 58.6381 105.874 58.6381Z" fill="black"/>
<path d="M106.168 56.6025C106.048 56.6025 105.945 56.5144 105.928 56.393C105.868 55.9466 105.633 55.5283 105.282 55.2456C105.178 55.1617 105.162 55.0094 105.246 54.9055C105.329 54.8016 105.482 54.7851 105.586 54.8691C106.031 55.2288 106.331 55.7607 106.408 56.3282C106.425 56.4607 106.333 56.5824 106.2 56.6003C106.189 56.6017 106.178 56.6025 106.168 56.6025Z" fill="black"/>
<path d="M105.748 60.2047C105.705 60.2047 105.66 60.1929 105.62 60.1681L104.785 59.6459C104.672 59.5751 104.638 59.4257 104.708 59.3126C104.779 59.1992 104.928 59.1645 105.042 59.2358L105.877 59.7576C105.99 59.8284 106.024 59.9777 105.954 60.0909C105.908 60.1643 105.829 60.2047 105.748 60.2047Z" fill="black"/>
<path d="M86.411 66.4375C86.411 66.4375 86.9493 63.8279 88.805 64.4018C90.6607 64.9757 97.7881 68.1209 101.186 71.4703V73.9031L86.411 66.4375Z" fill="white"/>
<path d="M101.186 74.1444C101.149 74.1444 101.112 74.1359 101.077 74.1184L86.3022 66.6528C86.2047 66.6034 86.1524 66.495 86.1744 66.388C86.1872 66.3266 86.4964 64.8752 87.4624 64.3044C87.8827 64.0557 88.3586 64.0101 88.8769 64.1705C90.9829 64.8216 98.0102 67.9996 101.356 71.2977C101.402 71.343 101.428 71.4051 101.428 71.4698V73.9026C101.428 73.9867 101.385 74.0646 101.313 74.1085C101.274 74.1324 101.23 74.1444 101.186 74.1444ZM86.6934 66.3084L100.944 73.5092V71.5716C97.6287 68.3561 90.7939 65.2694 88.7338 64.6324C88.3467 64.5133 88.0115 64.5419 87.708 64.7207C87.1002 65.08 86.7991 65.9366 86.6934 66.3084Z" fill="black"/>
<path d="M117.488 84.502L120.203 83.433L125.653 85.9987C125.653 85.9987 137.489 78.7913 144.111 72.8438C150.734 66.8963 157.068 63.435 158.644 63.8195C160.22 64.2042 159.627 66.3952 156.334 68.2909C156.334 68.2909 159.204 69.0793 158.644 71.4919C158.644 71.4919 160.69 71.5377 160.227 74.4652C160.227 74.4652 162.56 75.7179 161.518 78.3152C160.477 80.9125 157.587 80.9861 157.587 80.9861C157.587 80.9861 149.737 90.2398 141.48 98.3061C133.898 105.713 122.423 107.498 112.992 102.661C110.048 101.152 107.32 99.3567 105.434 97.2864L117.488 84.502Z" fill="white"/>
<path d="M124.193 105.611C120.343 105.611 116.467 104.716 112.881 102.877C109.541 101.163 106.975 99.3377 105.255 97.4498C105.17 97.3562 105.171 97.2129 105.258 97.121L117.312 84.3365C117.336 84.3105 117.366 84.2902 117.399 84.2772L120.115 83.2082C120.177 83.1841 120.246 83.1862 120.306 83.2146L125.638 85.7245C126.856 84.976 137.759 78.2232 143.95 72.664C150.492 66.7888 156.977 63.1646 158.702 63.5847C159.277 63.7253 159.635 64.0847 159.708 64.5972C159.859 65.6563 158.768 67.0538 156.898 68.234C157.909 68.6657 159.165 69.654 158.928 71.2891C159.21 71.3515 159.653 71.514 160.005 71.9362C160.466 72.4872 160.628 73.2966 160.489 74.3439C161.012 74.6932 162.691 76.0402 161.742 78.4053C160.774 80.8213 158.265 81.172 157.705 81.2205C156.923 82.1366 149.42 90.8871 141.649 98.4791C136.857 103.161 130.561 105.611 124.193 105.611ZM105.765 97.2885C107.444 99.0752 109.911 100.81 113.102 102.446C122.435 107.233 133.771 105.5 141.311 98.1335C149.466 90.1671 157.324 80.9223 157.402 80.83C157.447 80.7775 157.512 80.7466 157.58 80.7444C157.692 80.7414 160.326 80.6395 161.294 78.2255C162.24 75.8658 160.199 74.7256 160.112 74.6783C160.022 74.6293 159.972 74.529 159.988 74.4277C160.143 73.447 160.024 72.7132 159.634 72.2465C159.222 71.7527 158.645 71.734 158.639 71.734C158.566 71.7324 158.498 71.6978 158.453 71.6404C158.408 71.5828 158.392 71.5084 158.409 71.4373C158.909 69.2826 156.378 68.5544 156.27 68.5244C156.176 68.4985 156.107 68.4184 156.095 68.3218C156.082 68.2249 156.129 68.1304 156.214 68.0818C158.437 66.8015 159.336 65.4134 159.229 64.6656C159.184 64.3534 158.969 64.148 158.587 64.0548C157.17 63.7114 151.034 66.9523 144.273 73.024C137.709 78.9184 125.897 86.1334 125.779 86.2057C125.71 86.2482 125.623 86.2527 125.55 86.2177L120.195 83.6967L117.627 84.7076L105.765 97.2885Z" fill="black"/>
<path d="M157.497 81.3567C157.449 81.3567 157.401 81.3426 157.359 81.3133C157.249 81.2368 157.223 81.0861 157.299 80.9765C158.131 79.784 158.906 78.5315 159.602 77.2532C159.666 77.1361 159.812 77.0923 159.93 77.1567C160.047 77.2204 160.091 77.3673 160.027 77.4847C159.322 78.7782 158.538 80.0464 157.696 81.2533C157.649 81.3206 157.573 81.3567 157.497 81.3567Z" fill="black"/>
<path d="M157.23 75.8439C157.163 75.8439 157.095 75.8157 157.047 75.7607C156.96 75.6599 156.971 75.5071 157.071 75.4194C157.963 74.6433 159.152 74.2257 160.335 74.2825C160.468 74.2886 160.571 74.4015 160.566 74.5349C160.56 74.6684 160.447 74.7751 160.313 74.7657C159.249 74.7164 158.188 75.0893 157.389 75.7846C157.343 75.8243 157.286 75.8439 157.23 75.8439Z" fill="black"/>
<path d="M154.986 73.5041C154.922 73.5041 154.859 73.4788 154.811 73.429C154.719 73.3321 154.723 73.1791 154.819 73.0871C155.841 72.1139 157.175 71.4775 158.574 71.2948C158.708 71.2761 158.828 71.3709 158.846 71.5031C158.863 71.6356 158.77 71.757 158.637 71.7743C157.339 71.9438 156.101 72.5345 155.153 73.4375C155.106 73.4819 155.046 73.5041 154.986 73.5041Z" fill="black"/>
<path d="M153.123 70.5904C153.051 70.5904 152.98 70.5588 152.932 70.4981C152.85 70.3929 152.868 70.2409 152.973 70.1584C154 69.3511 155.128 68.6742 156.323 68.1468C156.446 68.0935 156.588 68.1485 156.642 68.2705C156.696 68.3927 156.641 68.5355 156.519 68.5894C155.36 69.1005 154.267 69.7564 153.272 70.5386C153.227 70.5736 153.175 70.5904 153.123 70.5904Z" fill="black"/>
<path d="M121.85 83.7776L107.897 101.187L101.814 97.2865L82.6635 121.978C82.6635 121.978 69.9307 122.539 47.1689 105.297C47.1689 105.297 60.7576 84.3669 70.954 71.2715C75.0751 65.9785 82.1906 64.0464 88.4292 66.5119C95.1099 69.1519 105.59 74.202 121.85 83.7776Z" fill="#5479F7"/>
<path d="M100.929 97.187C100.876 97.187 100.822 97.1694 100.777 97.1327C98.5949 95.3559 95.9881 94.1017 93.2386 93.5059C93.108 93.4775 93.025 93.3488 93.0534 93.2182C93.0818 93.0876 93.2119 93.0042 93.3411 93.033C96.1645 93.645 98.8414 94.9329 101.082 96.7577C101.186 96.842 101.201 96.9943 101.117 97.098C101.07 97.1566 101 97.187 100.929 97.187Z" fill="black"/>
<path d="M291.809 210.477L322.162 210.477L349.365 243.408" stroke="#5479F7" stroke-width="0.572701" stroke-linecap="round"/>
<path d="M354.381 246.237C354.741 244.711 353.796 243.182 352.27 242.822C350.744 242.462 349.215 243.406 348.855 244.932C348.494 246.458 349.439 247.987 350.965 248.348C352.491 248.708 354.02 247.763 354.381 246.237Z" fill="white"/>
<path d="M351.612 248.64C349.913 248.64 348.531 247.257 348.531 245.559C348.531 243.86 349.913 242.478 351.612 242.478C353.31 242.478 354.693 243.86 354.693 245.559C354.693 247.257 353.31 248.64 351.612 248.64ZM351.612 242.962C350.18 242.962 349.015 244.127 349.015 245.559C349.015 246.991 350.18 248.156 351.612 248.156C353.044 248.156 354.209 246.991 354.209 245.559C354.209 244.127 353.044 242.962 351.612 242.962Z" fill="#5479F7"/>
<path d="M251.655 232.561H220.472C220.338 232.561 220.23 232.453 220.23 232.319C220.23 232.186 220.338 232.078 220.472 232.078H251.655C251.788 232.078 251.897 232.186 251.897 232.319C251.897 232.453 251.788 232.561 251.655 232.561Z" fill="#5479F7"/>
<path d="M222.436 234.377C223.545 233.268 223.545 231.47 222.436 230.362C221.327 229.253 219.53 229.253 218.421 230.362C217.312 231.47 217.312 233.268 218.421 234.377C219.53 235.485 221.327 235.485 222.436 234.377Z" fill="white"/>
<path d="M220.432 235.45C218.733 235.45 217.351 234.068 217.351 232.369C217.351 230.67 218.733 229.288 220.432 229.288C222.13 229.288 223.512 230.67 223.512 232.369C223.512 234.068 222.13 235.45 220.432 235.45ZM220.432 229.772C219 229.772 217.834 230.937 217.834 232.369C217.834 233.801 219 234.966 220.432 234.966C221.864 234.966 223.029 233.801 223.029 232.369C223.029 230.937 221.864 229.772 220.432 229.772Z" fill="#5479F7"/>
<path d="M277.79 195.742C277.656 195.742 277.548 195.634 277.548 195.501V148.272C277.548 148.138 277.656 148.03 277.79 148.03C277.924 148.03 278.032 148.138 278.032 148.272V195.501C278.032 195.634 277.924 195.742 277.79 195.742Z" fill="#5479F7"/>
<path d="M280.559 148.946C280.92 147.42 279.975 145.891 278.449 145.53C276.923 145.17 275.394 146.115 275.034 147.641C274.673 149.167 275.618 150.696 277.144 151.056C278.67 151.417 280.199 150.472 280.559 148.946Z" fill="white"/>
<path d="M277.79 151.353C276.092 151.353 274.709 149.97 274.709 148.272C274.709 146.573 276.092 145.191 277.79 145.191C279.489 145.191 280.871 146.573 280.871 148.272C280.871 149.97 279.489 151.353 277.79 151.353ZM277.79 145.675C276.358 145.675 275.193 146.84 275.193 148.272C275.193 149.704 276.358 150.869 277.79 150.869C279.222 150.869 280.387 149.704 280.387 148.272C280.387 146.84 279.222 145.675 277.79 145.675Z" fill="#5479F7"/>
<path d="M285.134 192.38C285 192.38 284.892 192.272 284.892 192.138V167.018C284.892 166.954 284.917 166.892 284.963 166.847L306.755 145.054C306.85 144.96 307.003 144.96 307.097 145.054C307.192 145.149 307.192 145.302 307.097 145.396L285.375 167.118V192.138C285.375 192.272 285.267 192.38 285.134 192.38Z" fill="#5479F7"/>
<path d="M310.157 145.9C310.517 144.374 309.572 142.845 308.046 142.484C306.52 142.124 304.991 143.069 304.631 144.595C304.27 146.121 305.215 147.65 306.741 148.01C308.267 148.371 309.796 147.426 310.157 145.9Z" fill="white"/>
<path d="M307.386 148.306C305.687 148.306 304.305 146.924 304.305 145.225C304.305 143.526 305.687 142.144 307.386 142.144C309.084 142.144 310.466 143.526 310.466 145.225C310.466 146.924 309.084 148.306 307.386 148.306ZM307.386 142.628C305.954 142.628 304.789 143.793 304.789 145.225C304.789 146.657 305.954 147.822 307.386 147.822C308.818 147.822 309.983 146.657 309.983 145.225C309.983 143.793 308.818 142.628 307.386 142.628Z" fill="#5479F7"/>
<path d="M284.898 185.636H247.272C243.487 185.636 240.419 188.705 240.419 192.49V230.116C240.419 233.901 243.487 236.969 247.272 236.969H284.898C288.683 236.969 291.752 233.901 291.752 230.116V192.49C291.752 188.705 288.683 185.636 284.898 185.636Z" fill="#5479F7"/>
<path d="M268.611 216.729H257.368L254.816 223.686H252.622L261.995 198.919H263.985L273.357 223.686H271.18L268.611 216.729ZM258.014 214.96H267.948L262.981 201.471L258.014 214.96Z" fill="white"/>
<path d="M279.549 223.686H277.457V198.919H279.549V223.686Z" fill="white"/>
<path d="M65.2971 237.211H22.8993C22.7656 237.211 22.6575 237.103 22.6575 236.969C22.6575 236.836 22.7657 236.728 22.8993 236.728H65.2971C65.4308 236.728 65.539 236.836 65.539 236.969C65.5389 237.103 65.4308 237.211 65.2971 237.211Z" fill="black"/>
<path d="M134.463 5.70251C134.824 4.17659 133.879 2.64748 132.353 2.28716C130.827 1.92685 129.298 2.87177 128.938 4.3977C128.577 5.92363 129.522 7.45274 131.048 7.81305C132.574 8.17337 134.103 7.22844 134.463 5.70251Z" fill="white"/>
<path d="M131.694 8.105C129.996 8.105 128.614 6.72281 128.614 5.02417C128.614 3.32553 129.996 1.94336 131.694 1.94336C133.393 1.94336 134.775 3.32553 134.775 5.02417C134.775 6.72281 133.393 8.105 131.694 8.105ZM131.694 2.42706C130.262 2.42706 129.097 3.59218 129.097 5.02417C129.097 6.45616 130.262 7.62129 131.694 7.62129C133.126 7.62129 134.292 6.45616 134.292 5.02417C134.292 3.59218 133.126 2.42706 131.694 2.42706Z" fill="#5479F7"/>
<path d="M155.792 36.3763L155.792 17.7635L134.602 6.30943" stroke="#5479F7" stroke-width="0.572701" stroke-linecap="round"/>
<path d="M163.098 10.8563C163.459 9.33039 162.514 7.80128 160.988 7.44097C159.462 7.08066 157.933 8.02558 157.572 9.55151C157.212 11.0774 158.157 12.6065 159.683 12.9669C161.209 13.3272 162.738 12.3822 163.098 10.8563Z" fill="white"/>
<path d="M160.329 13.2593C158.631 13.2593 157.249 11.8771 157.249 10.1785C157.249 8.47983 158.631 7.09766 160.329 7.09766C162.028 7.09766 163.41 8.47983 163.41 10.1785C163.41 11.8771 162.028 13.2593 160.329 13.2593ZM160.329 7.58136C158.897 7.58136 157.732 8.74648 157.732 10.1785C157.732 11.6105 158.897 12.7756 160.329 12.7756C161.761 12.7756 162.927 11.6105 162.927 10.1785C162.927 8.74648 161.761 7.58136 160.329 7.58136Z" fill="#5479F7"/>
<path d="M160.374 36.3758L160.374 24.9217L160.374 13.4678" stroke="#5479F7" stroke-width="0.572701" stroke-linecap="round"/>
</svg>
