<svg width="24" height="24" viewBox="0 0 24 24" fill="none" xmlns="http://www.w3.org/2000/svg">
<circle cx="12" cy="12" r="12" fill="white"/>
<circle cx="11.999" cy="12.0005" r="10.5" stroke="#00A129"/>
<path d="M18.8793 12.1649C18.7521 12.3684 18.5836 12.5429 18.3847 12.6772L13.1991 16.1775C12.4746 16.6665 11.5258 16.6665 10.8013 16.1775L5.61571 12.6772C4.96344 12.2369 4.71049 11.4264 4.94789 10.7147L10.8115 14.6228C11.4864 15.0727 12.3527 15.1009 13.0514 14.7072L13.1888 14.6228L19.052 10.7143C19.2078 11.1823 19.1612 11.7139 18.8793 12.1649ZM19.052 13.5C19.2078 13.9681 19.1612 14.4996 18.8793 14.9506C18.7521 15.1541 18.5836 15.3286 18.3847 15.4629L13.1991 18.9632C12.4746 19.4522 11.5258 19.4522 10.8013 18.9632L5.61571 15.4629C4.96344 15.0226 4.71049 14.2121 4.94789 13.5004L10.8115 17.4085C11.4864 17.8585 12.3527 17.8866 13.0514 17.4929L13.1888 17.4085L19.052 13.5ZM13.1888 4.64994L18.6447 8.28718C19.0386 8.54977 19.145 9.08194 18.8825 9.47582C18.8196 9.56998 18.7389 9.65077 18.6447 9.71355L13.1888 13.3508C12.4691 13.8307 11.5314 13.8307 10.8115 13.3508L5.3557 9.71355C4.96182 9.45096 4.85539 8.91879 5.11797 8.52491C5.18075 8.43074 5.26154 8.34995 5.3557 8.28718L10.8115 4.64994C11.5314 4.17007 12.4691 4.17007 13.1888 4.64994ZM11.6238 5.66284L11.5248 5.71971L6.6045 9.00037L11.5248 12.281C11.7807 12.4516 12.1055 12.4705 12.3767 12.3379L12.4757 12.281L17.3951 9.00037L12.4757 5.71971C12.2197 5.5491 11.895 5.53014 11.6238 5.66284Z" fill="#00A129"/>
</svg>
