<?xml version="1.0" encoding="utf-8"?>
<!-- Generator: Adobe Illustrator 27.5.0, SVG Export Plug-In . SVG Version: 6.00 Build 0)  -->
<svg version="1.1" id="_x2DC_รรฐ_x5F_1" xmlns="http://www.w3.org/2000/svg" xmlns:xlink="http://www.w3.org/1999/xlink" x="0px"
	 y="0px" viewBox="0 0 2500 1664" style="enable-background:new 0 0 2500 1664;" xml:space="preserve">
<rect style="fill:#FFFFFF;" width="2500" height="1664"/>
<path style="fill:#292929;" d="M2051.888,1487.495H823.557c-0.829,0-1.5-0.672-1.5-1.5s0.671-1.5,1.5-1.5h1228.331
	c0.828,0,1.5,0.672,1.5,1.5S2052.716,1487.495,2051.888,1487.495z"/>
<path style="fill:#292929;" d="M651.907,1487.004H448.112c-0.829,0-1.5-0.672-1.5-1.5s0.671-1.5,1.5-1.5h203.795
	c0.829,0,1.5,0.672,1.5,1.5S652.736,1487.004,651.907,1487.004z"/>
<path style="fill:#FFFFFF;" d="M759.133,256.738c1.263-2.907,2.206-6.011,3.856-8.679c3.217-5.201,9.821-6.887,15.904-4.437
	c2.475,0.997,4.88,2.179,7.384,3.092c4.543,1.658,8.525,0.407,11.862-2.858c3.422-3.348,4.191-7.455,2.701-11.94
	c-0.788-2.371-1.824-4.66-2.735-6.991c-2.503-6.405,0.643-13.713,7.017-16.265c4.725-1.892,9.454-3.775,14.196-5.624
	c7.04-2.746,13.647,0.123,16.493,7.163c0.875,2.164,1.604,4.387,2.482,6.549c1.894,4.666,5.599,7.019,10.432,7.149
	c4.651,0.126,8.349-1.963,10.45-6.332c1.263-2.627,2.261-5.402,3.726-7.907c3.416-5.842,7.583-7.784,13.996-5.626
	c5.897,1.984,11.662,4.573,17.136,7.539c5.589,3.029,7.141,8.976,4.673,14.877c-0.966,2.309-2.072,4.563-2.961,6.901
	c-1.826,4.802-0.72,9.021,2.917,12.544c3.454,3.346,7.475,3.959,11.951,2.247c3.181-1.216,6.34-2.703,9.648-3.326
	c5.666-1.066,10.986,2.197,13.139,7.532c1.967,4.874,3.896,9.764,5.757,14.679c2.367,6.253-0.46,13.092-6.561,15.882
	c-2.198,1.005-4.498,1.783-6.729,2.72c-4.808,2.018-7.744,5.502-7.705,10.854c0.038,5.231,2.597,8.991,7.449,11.103
	c2.219,0.966,4.466,1.872,6.652,2.908c6.193,2.935,8.767,9.883,6.038,16.185c-1.923,4.441-3.967,8.835-5.757,13.329
	c-2.484,6.238-9.689,9.424-16.594,6.651c-2.245-0.901-4.442-1.922-6.663-2.882c-4.42-1.911-9.344-1.037-12.686,2.269
	c-3.633,3.594-4.529,7.804-2.745,12.576c0.789,2.11,1.679,4.182,2.466,6.292c2.57,6.892-0.428,13.831-7.219,16.611
	c-4.704,1.926-9.433,3.791-14.176,5.62c-6.68,2.576-13.463-0.429-16.146-7.106c-0.778-1.936-1.565-3.869-2.291-5.824
	c-1.799-4.844-5.201-7.737-10.394-7.948c-5.358-0.217-9.178,2.369-11.403,7.263c-0.992,2.184-1.97,4.374-2.962,6.558
	c-2.972,6.542-9.883,9.223-16.447,6.378c-4.058-1.758-8.032-3.751-12.188-5.234c-6.793-2.424-10.631-9.788-7.255-17.799
	c0.778-1.845,1.596-3.674,2.388-5.513c2.181-5.065,1.519-9.552-1.978-13.124c-3.74-3.821-8.151-4.452-13.035-2.634
	c-1.642,0.611-3.277,1.246-4.89,1.93c-8.086,3.43-14.859,0.506-17.984-7.789c-1.646-4.369-3.295-8.738-4.93-13.111
	c-2.484-6.644,0.692-13.724,7.262-16.372c2.928-1.18,6.027-2.153,8.644-3.844c7.35-4.749,6.554-15.783-1.268-19.676
	c-3.053-1.52-6.302-2.699-9.202-4.46c-5.379-3.267-7.178-9.674-4.673-15.471c0.96-2.221,1.928-4.439,2.892-6.659
	C759.088,256.719,759.111,256.729,759.133,256.738z M831.245,331.713c20.232,9.031,43.633-0.338,52.475-20.233
	c9.196-20.692,0.006-44.424-20.881-53.277c-20.553-8.712-43.458,0.887-52.241,20.64
	C801.409,299.509,811.286,323.384,831.245,331.713z"/>
<path style="fill:#292929;" d="M870.107,389.57c-5.508,0-10.436-3.293-12.719-8.973l-0.299-0.743
	c-0.672-1.669-1.367-3.395-2.007-5.119c-1.675-4.512-4.635-6.792-9.049-6.972c-4.608-0.186-7.965,1.962-9.976,6.386
	c-0.506,1.113-1.008,2.229-1.511,3.344c-0.482,1.072-0.965,2.143-1.451,3.213c-3.324,7.317-11.066,10.316-18.409,7.135
	c-1.287-0.558-2.565-1.138-3.843-1.719c-2.687-1.221-5.465-2.484-8.253-3.478c-3.794-1.354-6.746-4.06-8.313-7.62
	c-1.631-3.706-1.567-8.03,0.179-12.175c0.479-1.137,0.973-2.267,1.468-3.398c0.31-0.708,0.619-1.416,0.925-2.126
	c1.94-4.503,1.377-8.366-1.672-11.482c-3.156-3.224-6.898-3.968-11.44-2.277c-1.867,0.695-3.401,1.301-4.827,1.906
	c-4.338,1.84-8.485,2.018-11.992,0.517c-3.536-1.514-6.295-4.681-7.982-9.158l-0.833-2.213c-1.369-3.633-2.738-7.266-4.098-10.901
	c-2.783-7.442,0.702-15.305,8.105-18.289c0.687-0.277,1.383-0.542,2.08-0.808c2.279-0.87,4.432-1.691,6.311-2.905
	c2.94-1.9,4.578-5.147,4.38-8.685c-0.204-3.639-2.261-6.775-5.503-8.389c-1.092-0.543-2.243-1.057-3.357-1.554
	c-1.986-0.886-4.039-1.803-5.956-2.967c-5.955-3.617-8.123-10.751-5.271-17.349c0.679-1.571,1.362-3.141,2.044-4.71l0.848-1.952
	c0.063-0.143,0.146-0.275,0.248-0.391c0.317-0.753,0.617-1.518,0.917-2.283c0.812-2.072,1.652-4.215,2.86-6.167
	c3.553-5.744,10.85-7.815,17.74-5.039c1.025,0.413,2.039,0.857,3.052,1.302c1.401,0.614,2.849,1.249,4.286,1.773
	c3.785,1.383,7.153,0.556,10.299-2.521c2.894-2.832,3.677-6.329,2.326-10.394c-0.507-1.525-1.14-3.063-1.752-4.552
	c-0.324-0.788-0.647-1.575-0.956-2.367c-2.806-7.179,0.719-15.345,7.856-18.204c3.902-1.563,9.043-3.614,14.208-5.629
	c7.853-3.064,15.257,0.152,18.428,7.998c0.438,1.085,0.841,2.184,1.244,3.283c0.4,1.093,0.8,2.186,1.237,3.264
	c1.625,4.004,4.681,6.095,9.082,6.214c4.222,0.124,7.254-1.731,9.057-5.483c0.447-0.929,0.859-1.878,1.272-2.826
	c0.752-1.725,1.528-3.509,2.51-5.188c3.865-6.611,8.877-8.61,15.77-6.292c5.726,1.927,11.57,4.499,17.372,7.643
	c6.12,3.317,8.217,9.901,5.342,16.775c-0.384,0.917-0.79,1.827-1.195,2.735c-0.601,1.347-1.223,2.739-1.748,4.119
	c-1.581,4.158-0.744,7.734,2.559,10.934c2.933,2.842,6.326,3.472,10.371,1.924c0.73-0.279,1.458-0.573,2.188-0.867
	c2.474-0.996,5.032-2.026,7.718-2.532c6.243-1.173,12.327,2.299,14.808,8.445c2.184,5.411,4.07,10.222,5.768,14.71
	c2.653,7.008-0.502,14.65-7.339,17.777c-1.338,0.611-2.714,1.142-4.044,1.655c-0.913,0.352-1.826,0.704-2.728,1.083
	c-4.598,1.931-6.818,5.025-6.786,9.46c0.033,4.585,2.236,7.862,6.548,9.738c0.694,0.302,1.391,0.599,2.088,0.895
	c1.515,0.644,3.081,1.31,4.607,2.033c6.918,3.278,9.83,11.076,6.772,18.137c-0.621,1.433-1.253,2.861-1.887,4.289
	c-1.303,2.939-2.65,5.978-3.853,8.999c-1.344,3.374-3.934,6.026-7.293,7.466c-3.527,1.512-7.523,1.52-11.253,0.022
	c-1.513-0.608-3.018-1.274-4.473-1.919c-0.741-0.328-1.482-0.657-2.227-0.978c-3.887-1.68-8.116-0.93-11.036,1.958
	c-3.194,3.159-3.977,6.753-2.395,10.984c0.388,1.037,0.8,2.063,1.212,3.091c0.427,1.064,0.854,2.129,1.254,3.203
	c2.854,7.654-0.534,15.444-8.056,18.523c-4.355,1.783-9.001,3.625-14.204,5.632C873.666,389.238,871.856,389.57,870.107,389.57z
	 M845.476,364.753c0.225,0,0.451,0.004,0.68,0.014c5.597,0.227,9.656,3.313,11.74,8.925c0.626,1.685,1.313,3.392,1.977,5.042
	l0.299,0.744c2.369,5.893,8.347,8.527,14.215,6.266c5.184-2,9.811-3.834,14.147-5.609c6.06-2.481,8.684-8.525,6.382-14.698
	c-0.392-1.051-0.81-2.092-1.228-3.134c-0.421-1.049-0.842-2.099-1.238-3.157c-2.011-5.38-0.97-10.146,3.096-14.168
	c3.752-3.71,9.378-4.723,14.336-2.579c0.752,0.325,1.501,0.657,2.251,0.989c1.432,0.634,2.912,1.289,4.376,1.878
	c2.983,1.198,6.163,1.2,8.953,0.004c2.621-1.124,4.641-3.19,5.688-5.818c1.225-3.075,2.583-6.141,3.898-9.105
	c0.63-1.42,1.259-2.84,1.876-4.265c2.401-5.544,0.121-11.663-5.304-14.233c-1.471-0.697-3.009-1.351-4.497-1.983
	c-0.705-0.3-1.41-0.599-2.112-0.905c-5.421-2.359-8.308-6.67-8.351-12.467c-0.041-5.626,2.942-9.862,8.625-12.248
	c0.929-0.39,1.869-0.753,2.81-1.116c1.289-0.497,2.622-1.011,3.877-1.585c5.382-2.461,7.868-8.474,5.781-13.986
	c-1.69-4.467-3.569-9.259-5.745-14.649c-1.938-4.804-6.652-7.523-11.471-6.62c-2.395,0.451-4.706,1.382-7.152,2.367
	c-0.746,0.301-1.491,0.6-2.238,0.886c-5.173,1.979-9.726,1.115-13.53-2.571c-4.139-4.01-5.272-8.905-3.275-14.155
	c0.555-1.459,1.194-2.891,1.812-4.275c0.397-0.888,0.793-1.775,1.168-2.671c2.274-5.435,0.74-10.409-4.004-12.979
	c-5.65-3.063-11.336-5.564-16.899-7.437c-5.534-1.861-9.074-0.424-12.223,4.962c-0.892,1.526-1.6,3.151-2.35,4.872
	c-0.428,0.982-0.856,1.964-1.319,2.928c-2.295,4.776-6.5,7.328-11.842,7.182c-5.542-0.15-9.726-3.021-11.781-8.085
	c-0.451-1.11-0.863-2.235-1.275-3.361c-0.391-1.068-0.782-2.136-1.207-3.191c-2.546-6.299-8.259-8.782-14.557-6.327
	c-5.154,2.011-10.287,4.059-14.183,5.62c-5.615,2.249-8.386,8.675-6.178,14.327c0.303,0.776,0.62,1.546,0.937,2.317
	c0.632,1.536,1.285,3.123,1.824,4.747c1.719,5.172,0.656,9.835-3.075,13.485c-3.943,3.857-8.587,4.961-13.425,3.195
	c-1.525-0.557-3.019-1.211-4.462-1.844c-0.986-0.432-1.971-0.865-2.969-1.267c-5.514-2.22-11.298-0.644-14.068,3.835
	c-1.065,1.722-1.819,3.646-2.617,5.684c-0.369,0.941-0.738,1.882-1.138,2.804c-0.064,0.146-0.15,0.28-0.253,0.397l-0.664,1.526
	c-0.682,1.568-1.363,3.135-2.042,4.704c-2.241,5.185-0.566,10.775,4.075,13.594c1.755,1.066,3.633,1.904,5.621,2.792
	c1.142,0.509,2.322,1.036,3.471,1.608c4.219,2.1,6.896,6.177,7.161,10.906c0.259,4.628-1.889,8.88-5.747,11.372
	c-2.144,1.385-4.547,2.302-6.87,3.188c-0.68,0.259-1.358,0.518-2.028,0.787c-5.857,2.361-8.616,8.576-6.418,14.456
	c1.359,3.633,2.727,7.264,4.095,10.894l0.834,2.213c1.392,3.694,3.589,6.272,6.355,7.458c2.738,1.171,6.072,0.992,9.64-0.521
	c1.468-0.623,3.042-1.245,4.952-1.956c5.691-2.119,10.613-1.112,14.63,2.99c3.927,4.012,4.717,9.119,2.283,14.767
	c-0.308,0.715-0.62,1.429-0.932,2.142c-0.489,1.118-0.978,2.236-1.452,3.36c-1.444,3.427-1.512,6.816-0.198,9.802
	c1.231,2.797,3.566,4.929,6.575,6.003c2.906,1.037,5.743,2.326,8.486,3.572c1.262,0.574,2.524,1.147,3.794,1.698
	c5.777,2.503,11.869,0.139,14.485-5.623c0.484-1.067,0.966-2.136,1.447-3.205c0.504-1.118,1.007-2.236,1.515-3.353
	C835.756,367.563,839.949,364.753,845.476,364.753z M847.359,336.672c-5.686,0-11.358-1.197-16.708-3.582
	c-9.949-4.157-17.987-12.406-22.054-22.633c-4.17-10.486-3.946-21.93,0.631-32.224c9.311-20.942,33.117-30.348,54.198-21.411
	c10.411,4.413,18.394,12.545,22.479,22.898c4.116,10.431,3.827,21.927-0.814,32.37c-4.494,10.112-12.665,17.867-23.008,21.835
	C857.305,335.758,852.327,336.672,847.359,336.672z M847.022,256.457c-14.743,0-28.623,8.532-35.054,22.995
	c-4.246,9.55-4.454,20.167-0.584,29.896c3.773,9.487,11.223,17.134,20.439,20.98c0.011,0.005,0.023,0.01,0.034,0.015
	c9.295,4.148,19.648,4.425,29.151,0.781c9.594-3.682,17.173-10.874,21.342-20.253c4.312-9.701,4.583-20.373,0.765-30.05
	c-3.788-9.599-11.196-17.141-20.86-21.237C857.254,257.464,852.087,256.457,847.022,256.457z"/>
<path style="fill:#FFFFFF;" d="M1252.5,1145.651H700.592c-18.356,0-33.236-14.88-33.236-33.236V484.238
	c0-18.356,14.88-33.236,33.236-33.236H1252.5c18.356,0,33.236,14.88,33.236,33.236v628.177
	C1285.736,1130.771,1270.856,1145.651,1252.5,1145.651z"/>
<path style="fill:#292929;" d="M1252.5,1147.151H700.592c-19.154,0-34.736-15.583-34.736-34.736V484.238
	c0-19.153,15.582-34.736,34.736-34.736H1252.5c19.153,0,34.736,15.583,34.736,34.736v628.177
	C1287.236,1131.568,1271.653,1147.151,1252.5,1147.151z M700.592,452.502c-17.5,0-31.736,14.237-31.736,31.736v628.177
	c0,17.499,14.237,31.736,31.736,31.736H1252.5c17.499,0,31.736-14.237,31.736-31.736V484.238c0-17.499-14.237-31.736-31.736-31.736
	H700.592z"/>
<path style="fill:#292929;" d="M1285.736,521.791h-618.38c-0.829,0-1.5-0.671-1.5-1.5c0-0.829,0.671-1.5,1.5-1.5h618.38
	c0.828,0,1.5,0.671,1.5,1.5C1287.236,521.119,1286.564,521.791,1285.736,521.791z"/>
<circle style="fill:#292929;" cx="712.74" cy="483.221" r="5.197"/>
<circle style="fill:#292929;" cx="734.912" cy="483.221" r="5.197"/>
<circle style="fill:#292929;" cx="757.084" cy="483.221" r="5.197"/>
<rect x="721.045" y="613.731" style="fill:#292929;" width="102.246" height="29.213"/>
<path style="fill:#292929;" d="M725.61,691.915h-10.955c-0.829,0-1.5-0.671-1.5-1.5c0-0.829,0.671-1.5,1.5-1.5h10.955
	c0.829,0,1.5,0.671,1.5,1.5C727.11,691.244,726.438,691.915,725.61,691.915z"/>
<path style="fill:#292929;" d="M829.682,692.828h-83.075c-0.829,0-1.5-0.671-1.5-1.5c0-0.829,0.671-1.5,1.5-1.5h83.075
	c0.829,0,1.5,0.671,1.5,1.5C831.182,692.157,830.51,692.828,829.682,692.828z"/>
<rect x="925.423" y="613.731" style="fill:#FFFFFF;" width="102.246" height="29.213"/>
<path style="fill:#292929;" d="M1027.669,644.444H925.423c-0.829,0-1.5-0.671-1.5-1.5v-29.213c0-0.829,0.671-1.5,1.5-1.5h102.246
	c0.829,0,1.5,0.671,1.5,1.5v29.213C1029.169,643.773,1028.498,644.444,1027.669,644.444z M926.923,641.444h99.246v-26.213h-99.246
	V641.444z"/>
<path style="fill:#292929;" d="M929.988,691.915h-10.955c-0.829,0-1.5-0.671-1.5-1.5c0-0.829,0.671-1.5,1.5-1.5h10.955
	c0.829,0,1.5,0.671,1.5,1.5C931.488,691.244,930.816,691.915,929.988,691.915z"/>
<path style="fill:#292929;" d="M1034.06,692.828h-83.075c-0.829,0-1.5-0.671-1.5-1.5c0-0.829,0.671-1.5,1.5-1.5h83.075
	c0.829,0,1.5,0.671,1.5,1.5C1035.56,692.157,1034.888,692.828,1034.06,692.828z"/>
<rect x="1129.801" y="613.731" style="fill:#625EF3;" width="102.246" height="29.213"/>
<path style="fill:#292929;" d="M1134.366,691.915h-10.955c-0.829,0-1.5-0.671-1.5-1.5c0-0.829,0.671-1.5,1.5-1.5h10.955
	c0.829,0,1.5,0.671,1.5,1.5C1135.866,691.244,1135.194,691.915,1134.366,691.915z"/>
<path style="fill:#292929;" d="M1238.438,692.828h-83.075c-0.829,0-1.5-0.671-1.5-1.5c0-0.829,0.671-1.5,1.5-1.5h83.075
	c0.829,0,1.5,0.671,1.5,1.5C1239.938,692.157,1239.266,692.828,1238.438,692.828z"/>
<rect x="812.893" y="869.696" style="fill:#FFFFFF;" width="18.68" height="160.314"/>
<path style="fill:#292929;" d="M831.573,1031.51h-18.681c-0.829,0-1.5-0.672-1.5-1.5V869.696c0-0.828,0.671-1.5,1.5-1.5h18.681
	c0.829,0,1.5,0.672,1.5,1.5v160.313C833.073,1030.838,832.402,1031.51,831.573,1031.51z M814.393,1028.51h15.681V871.196h-15.681
	V1028.51z"/>
<rect x="764.971" y="939" style="fill:#292929;" width="18.681" height="89.01"/>
<rect x="1004.577" y="968.07" style="fill:#FFFFFF;" width="18.681" height="61.94"/>
<path style="fill:#292929;" d="M1023.257,1031.51h-18.681c-0.829,0-1.5-0.672-1.5-1.5v-61.94c0-0.828,0.671-1.5,1.5-1.5h18.681
	c0.829,0,1.5,0.672,1.5,1.5v61.94C1024.757,1030.838,1024.086,1031.51,1023.257,1031.51z M1006.077,1028.51h15.681v-58.94h-15.681
	V1028.51z"/>
<rect x="908.735" y="921.826" style="fill:#625EF3;" width="18.681" height="106.184"/>
<rect x="1148.34" y="968.07" style="fill:#FFFFFF;" width="18.681" height="61.94"/>
<path style="fill:#292929;" d="M1167.02,1031.51h-18.68c-0.829,0-1.5-0.672-1.5-1.5v-61.94c0-0.828,0.671-1.5,1.5-1.5h18.68
	c0.829,0,1.5,0.672,1.5,1.5v61.94C1168.52,1030.838,1167.849,1031.51,1167.02,1031.51z M1149.84,1028.51h15.68v-58.94h-15.68
	V1028.51z"/>
<rect x="1052.498" y="921.826" style="fill:#292929;" width="18.681" height="106.184"/>
<rect x="860.814" y="760.162" style="fill:#625EF3;" width="18.68" height="267.848"/>
<rect x="1100.419" y="798.567" style="fill:#625EF3;" width="18.68" height="229.443"/>
<rect x="956.656" y="830.251" style="fill:#292929;" width="18.68" height="197.759"/>
<path style="fill:#292929;" d="M774.285,1050.689H763.33c-0.829,0-1.5-0.672-1.5-1.5s0.671-1.5,1.5-1.5h10.955
	c0.829,0,1.5,0.672,1.5,1.5S775.113,1050.689,774.285,1050.689z"/>
<path style="fill:#292929;" d="M823.581,1050.689h-10.954c-0.829,0-1.5-0.672-1.5-1.5s0.671-1.5,1.5-1.5h10.954
	c0.829,0,1.5,0.672,1.5,1.5S824.41,1050.689,823.581,1050.689z"/>
<path style="fill:#292929;" d="M872.879,1050.689h-10.955c-0.829,0-1.5-0.672-1.5-1.5s0.671-1.5,1.5-1.5h10.955
	c0.829,0,1.5,0.672,1.5,1.5S873.707,1050.689,872.879,1050.689z"/>
<path style="fill:#292929;" d="M922.176,1050.689h-10.955c-0.829,0-1.5-0.672-1.5-1.5s0.671-1.5,1.5-1.5h10.955
	c0.829,0,1.5,0.672,1.5,1.5S923.005,1050.689,922.176,1050.689z"/>
<path style="fill:#292929;" d="M971.473,1050.689h-10.955c-0.829,0-1.5-0.672-1.5-1.5s0.671-1.5,1.5-1.5h10.955
	c0.829,0,1.5,0.672,1.5,1.5S972.302,1050.689,971.473,1050.689z"/>
<path style="fill:#292929;" d="M1020.771,1050.689h-10.955c-0.829,0-1.5-0.672-1.5-1.5s0.671-1.5,1.5-1.5h10.955
	c0.829,0,1.5,0.672,1.5,1.5S1021.599,1050.689,1020.771,1050.689z"/>
<path style="fill:#292929;" d="M1070.068,1050.689h-10.955c-0.829,0-1.5-0.672-1.5-1.5s0.671-1.5,1.5-1.5h10.955
	c0.829,0,1.5,0.672,1.5,1.5S1070.896,1050.689,1070.068,1050.689z"/>
<path style="fill:#292929;" d="M1119.365,1050.689h-10.955c-0.829,0-1.5-0.672-1.5-1.5s0.671-1.5,1.5-1.5h10.955
	c0.829,0,1.5,0.672,1.5,1.5S1120.193,1050.689,1119.365,1050.689z"/>
<path style="fill:#292929;" d="M1168.662,1050.689h-10.955c-0.829,0-1.5-0.672-1.5-1.5s0.671-1.5,1.5-1.5h10.955
	c0.829,0,1.5,0.672,1.5,1.5S1169.491,1050.689,1168.662,1050.689z"/>
<path style="fill:#292929;" d="M1235.636,1031.546H717.456c-0.829,0-1.5-0.672-1.5-1.5V760.709c0-0.829,0.671-1.5,1.5-1.5
	c0.829,0,1.5,0.671,1.5,1.5v267.836h516.679c0.829,0,1.5,0.672,1.5,1.5S1236.464,1031.546,1235.636,1031.546z"/>
<rect x="845.009" y="1145.651" style="fill:#292929;" width="263.074" height="25.923"/>
<path style="fill:#292929;" d="M976.546,1487.495c-0.829,0-1.5-0.672-1.5-1.5v-318.68c0-0.828,0.671-1.5,1.5-1.5s1.5,0.672,1.5,1.5
	v318.68C978.046,1486.823,977.375,1487.495,976.546,1487.495z"/>
<path style="fill:#292929;" d="M842.933,1483.063c-0.116,0-0.233-0.013-0.35-0.041c-0.806-0.192-1.303-1.002-1.11-1.808
	l75.206-314.679c0.192-0.807,1.002-1.307,1.808-1.11c0.806,0.192,1.303,1.002,1.11,1.808l-75.206,314.679
	C844.226,1482.601,843.61,1483.063,842.933,1483.063z"/>
<path style="fill:#292929;" d="M1110.16,1483.063c-0.679,0-1.293-0.463-1.458-1.151l-75.205-314.679
	c-0.192-0.806,0.305-1.615,1.11-1.808c0.806-0.193,1.615,0.305,1.808,1.11l75.205,314.679c0.192,0.806-0.305,1.615-1.11,1.808
	C1110.393,1483.051,1110.275,1483.063,1110.16,1483.063z"/>
<path style="fill:#292929;" d="M1057.648,1267.668H895.444c-0.829,0-1.5-0.672-1.5-1.5s0.671-1.5,1.5-1.5h162.205
	c0.829,0,1.5,0.672,1.5,1.5S1058.477,1267.668,1057.648,1267.668z"/>
<path style="fill:#FFFFFF;" d="M1402.775,556.026h-342.026c-6.962,0-12.605-5.643-12.605-12.605V174.611
	c0-6.962,5.644-12.605,12.605-12.605h342.026c6.962,0,12.605,5.644,12.605,12.605v368.811
	C1415.38,550.383,1409.736,556.026,1402.775,556.026z"/>
<path style="fill:#292929;" d="M1402.774,557.526h-342.026c-7.777,0-14.105-6.328-14.105-14.105V174.61
	c0-7.777,6.328-14.105,14.105-14.105h342.026c7.777,0,14.105,6.328,14.105,14.105v368.811
	C1416.88,551.199,1410.552,557.526,1402.774,557.526z M1060.749,163.505c-6.123,0-11.105,4.981-11.105,11.105v368.811
	c0,6.123,4.982,11.105,11.105,11.105h342.026c6.124,0,11.105-4.982,11.105-11.105V174.61c0-6.124-4.981-11.105-11.105-11.105
	H1060.749z"/>
<path style="fill:#625EF3;" d="M1223.43,277.789c0,32.786-26.576,59.362-59.362,59.362c-32.739,0-59.287-26.501-59.362-59.224
	h58.117v-59.487c0.415-0.008,0.83-0.014,1.245-0.014C1196.854,218.428,1223.43,245.003,1223.43,277.789z"/>
<path style="fill:#292929;" d="M1164.068,338.651c-33.483,0-60.785-27.239-60.862-60.72c-0.001-0.398,0.157-0.781,0.438-1.063
	c0.282-0.282,0.664-0.44,1.062-0.44h56.617v-57.986c0-0.817,0.653-1.483,1.47-1.5c0.425-0.009,0.85-0.015,1.275-0.015
	c33.56,0,60.862,27.303,60.862,60.862C1224.931,311.349,1197.628,338.651,1164.068,338.651z M1106.229,279.428
	c0.872,31.138,26.51,56.224,57.839,56.224c31.905,0,57.862-25.957,57.862-57.862c0-31.82-25.82-57.723-57.607-57.862v58
	c0,0.829-0.671,1.5-1.5,1.5H1106.229z"/>
<path style="fill:#FFFFFF;" d="M1151.717,209.118v59.487H1093.6v-0.138C1093.6,236.096,1119.506,209.78,1151.717,209.118z"/>
<path style="fill:#292929;" d="M1151.717,270.105H1093.6c-0.829,0-1.5-0.671-1.5-1.5v-0.138c0-16.036,6.183-31.17,17.409-42.616
	c11.21-11.429,26.189-17.904,42.177-18.232c0.401-0.009,0.793,0.146,1.081,0.428c0.288,0.282,0.45,0.668,0.45,1.071v59.486
	C1153.217,269.434,1152.545,270.105,1151.717,270.105z M1095.116,267.105h55.101V210.67
	C1120.138,212.089,1095.831,236.97,1095.116,267.105z"/>
<path style="fill:#292929;" d="M1377.316,516.644h-125.466c-0.828,0-1.5-0.671-1.5-1.5v-107.14c0-0.829,0.672-1.5,1.5-1.5
	s1.5,0.671,1.5,1.5v105.64h123.966c0.828,0,1.5,0.671,1.5,1.5C1378.816,515.973,1378.145,516.644,1377.316,516.644z"/>
<rect x="1105.238" y="358.663" style="fill:#625EF3;" width="7.753" height="7.753"/>
<rect x="1118.278" y="359.016" style="fill:#292929;" width="33.834" height="7.753"/>
<rect x="1102.771" y="436.551" style="fill:#292929;" width="21.851" height="7.754"/>
<rect x="1130.965" y="436.551" style="fill:#292929;" width="31.014" height="7.754"/>
<rect x="1102.771" y="454.878" style="fill:#292929;" width="41.587" height="7.753"/>
<rect x="1170.438" y="454.878" style="fill:#292929;" width="16.917" height="7.753"/>
<rect x="1148.587" y="454.878" style="fill:#292929;" width="16.917" height="7.753"/>
<rect x="1102.771" y="473.204" style="fill:#292929;" width="40.882" height="7.754"/>
<rect x="1149.997" y="473.204" style="fill:#292929;" width="27.49" height="7.754"/>
<rect x="1102.771" y="491.531" style="fill:#292929;" width="44.407" height="7.753"/>
<rect x="1281.807" y="241.768" style="fill:#292929;" width="21.851" height="7.753"/>
<rect x="1310.002" y="241.768" style="fill:#292929;" width="31.014" height="7.753"/>
<rect x="1281.807" y="260.095" style="fill:#292929;" width="41.587" height="7.754"/>
<rect x="1349.474" y="260.095" style="fill:#292929;" width="16.917" height="7.754"/>
<rect x="1327.624" y="260.095" style="fill:#292929;" width="16.917" height="7.754"/>
<rect x="1281.807" y="278.422" style="fill:#292929;" width="40.882" height="7.753"/>
<rect x="1329.033" y="278.422" style="fill:#292929;" width="27.49" height="7.753"/>
<rect x="1281.807" y="296.748" style="fill:#292929;" width="44.407" height="7.754"/>
<rect x="1179.954" y="358.663" style="fill:#625EF3;" width="7.754" height="7.753"/>
<rect x="1192.994" y="359.016" style="fill:#292929;" width="23.261" height="7.753"/>
<rect x="1256.784" y="358.663" style="fill:#625EF3;" width="7.753" height="7.753"/>
<rect x="1269.824" y="359.016" style="fill:#292929;" width="42.292" height="7.753"/>
<path style="fill:#625EF3;" d="M1275.815,489.859c-0.409,0-0.816-0.166-1.112-0.494c-0.556-0.614-0.508-1.563,0.106-2.119
	l29.627-26.785c0.356-0.322,0.844-0.454,1.316-0.355c0.47,0.1,0.864,0.418,1.06,0.857l7.768,17.431l42.731-41.169
	c0.597-0.574,1.548-0.557,2.121,0.04c0.575,0.596,0.558,1.546-0.039,2.121l-44.271,42.653c-0.353,0.339-0.849,0.483-1.328,0.392
	c-0.479-0.093-0.884-0.415-1.083-0.861l-7.797-17.495l-28.093,25.398C1276.534,489.731,1276.175,489.859,1275.815,489.859z"/>
<polygon style="fill:#625EF3;" points="1349.827,431.97 1368.858,426.331 1362.515,446.067 "/>
<path style="fill:#FFFFFF;" d="M1562.366,1485.995h147.107c14.289,0,26.091-11.154,26.885-25.422l0.951-16.924l5.634-100.455
	l31.715-565.923l-209.063,24.042l-0.638,16.046l-14.938,376.387l-5.519,139.1l-4.16,104.73l-0.972,24.481
	C1538.846,1475.123,1549.3,1485.995,1562.366,1485.995z"/>
<path style="fill:#292929;" d="M1709.474,1487.495h-147.107c-6.733,0-13.011-2.675-17.677-7.531
	c-4.667-4.856-7.088-11.237-6.819-17.967l26.227-660.744c0.029-0.739,0.593-1.346,1.327-1.431l209.064-24.042
	c0.436-0.048,0.878,0.096,1.2,0.399c0.321,0.304,0.493,0.733,0.469,1.175l-31.715,565.924l-6.586,117.378
	C1737.019,1475.706,1724.552,1487.495,1709.474,1487.495z M1567.043,802.656l-26.175,659.46c-0.236,5.906,1.889,11.507,5.984,15.77
	c4.095,4.262,9.604,6.609,15.514,6.609h147.107c13.486,0,24.638-10.545,25.387-24.006l6.586-117.379l31.615-564.146
	L1567.043,802.656z"/>
<path style="fill:#FFFFFF;" d="M1195.533,1485.995h220.175c10.965,0,20.823-6.701,24.847-16.913l14.3-36.241l41.279-104.615
	l53.886-136.57l126.379-320.306l-111.441-56.081l-48.492-24.408l-224.377,526.724l-43.935,103.131
	c-0.857,2.028-1.986,3.931-3.355,5.645c-1.129,1.463-2.436,2.78-3.868,3.962l-50.562,41.165
	C1184.411,1476.346,1187.84,1485.995,1195.533,1485.995z"/>
<path style="fill:#292929;" d="M1415.708,1487.495h-220.175c-4.146,0-7.723-2.521-9.113-6.425c-1.392-3.906-0.214-8.125,3-10.747
	l50.563-41.165c1.386-1.144,2.609-2.396,3.627-3.715c1.296-1.622,2.354-3.402,3.161-5.313l43.937-103.135l224.377-526.725
	c0.162-0.381,0.476-0.678,0.864-0.821c0.389-0.143,0.819-0.118,1.19,0.069l159.933,80.489c0.693,0.349,1.006,1.169,0.722,1.891
	l-235.844,597.732C1437.674,1480.483,1427.373,1487.495,1415.708,1487.495z M1517.22,792.918l-223.751,525.254l-43.935,103.131
	c-0.913,2.159-2.112,4.177-3.563,5.993c-1.139,1.477-2.519,2.89-4.085,4.183l-50.569,41.17c-2.691,2.196-2.834,5.271-2.07,7.415
	c0.763,2.143,2.815,4.432,6.287,4.432h220.175c10.424,0,19.63-6.267,23.452-15.964l235.341-596.459L1517.22,792.918z"/>
<path style="fill:#292929;" d="M1737.311,1443.059c-0.016,0-0.031,0-0.047-0.001c-65.656-2.028-131.313-4.057-196.969-6.073
	c-0.828-0.025-1.479-0.717-1.453-1.545s0.747-1.493,1.545-1.453c65.656,2.017,131.313,4.045,196.969,6.073
	c0.828,0.025,1.479,0.718,1.453,1.545C1738.784,1442.417,1738.117,1443.059,1737.311,1443.059z"/>
<path style="fill:#292929;" d="M1454.856,1434.34c-0.016,0-0.031,0-0.047-0.001l-12.753-0.394
	c-65.766-2.032-131.539-4.064-197.304-6.087c-0.828-0.025-1.479-0.717-1.454-1.545c0.026-0.828,0.734-1.496,1.545-1.453
	c65.765,2.022,131.538,4.055,197.305,6.086l12.752,0.395c0.828,0.025,1.479,0.718,1.453,1.545
	C1456.33,1433.698,1455.663,1434.34,1454.856,1434.34z"/>
<path style="fill:#292929;" d="M1742.945,1342.604c-0.026,0-0.053-0.001-0.079-0.002l-198.442-10.349
	c-0.827-0.043-1.463-0.749-1.42-1.576s0.734-1.471,1.576-1.42l198.442,10.349c0.827,0.043,1.463,0.749,1.42,1.576
	C1744.4,1341.982,1743.738,1342.604,1742.945,1342.604z"/>
<path style="fill:#FFFFFF;" d="M1873.96,669.018c0.197,49.897-26.512,94.007-67.554,111.849
	c-37.659,16.371-73.462,4.573-83.094,1.045l33.572-127.529L1873.96,669.018z"/>
<path style="fill:#292929;" d="M1764.925,790.786c-18.771,0-34.23-4.572-42.129-7.465c-0.728-0.267-1.132-1.042-0.935-1.791
	l33.572-127.528c0.19-0.726,0.88-1.198,1.637-1.107l117.076,14.634c0.748,0.093,1.311,0.728,1.313,1.482
	c0.2,50.62-26.671,95.065-68.457,113.23C1792.338,788.617,1777.846,790.786,1764.925,790.786z M1725.112,780.964
	c13.845,4.868,46.813,13.254,80.695-1.473c40.322-17.529,66.38-60.279,66.651-109.149L1758,656.035L1725.112,780.964z"/>
<path style="fill:#292929;" d="M1496.136,1329.725c-0.026,0-0.053-0.001-0.079-0.002l-204.046-10.641
	c-0.827-0.043-1.463-0.749-1.42-1.576s0.746-1.47,1.576-1.42l204.046,10.641c0.827,0.043,1.463,0.749,1.42,1.576
	C1497.591,1329.104,1496.929,1329.725,1496.136,1329.725z"/>
<path style="fill:#625EF3;" d="M1775.569,414.483c15.157,8.325,75.77,43.879,102.964,120.734
	c24.372,68.88,6.726,128.045,0.654,145.883l-133.8-4.181c-36.281-84.343-72.563-168.685-108.844-253.028
	C1682.884,420.755,1729.226,417.619,1775.569,414.483z"/>
<path style="fill:#292929;" d="M1734.609,749.393c26.692-0.281,53.383-0.562,80.074-0.843c4.95-0.052,9.214-3.501,10.299-8.331
	c12.346-54.938,24.691-109.876,37.037-164.813c1.499-6.671-3.574-13.011-10.412-13.011h-117.111
	c-5.894,0-10.671,4.778-10.671,10.671v165.656C1723.825,744.66,1728.672,749.456,1734.609,749.393z"/>
<path style="fill:#FFFFFF;" d="M1369.055,568.802c-2.153-21.491-4.307-42.982-6.46-64.473
	c-31.771-26.261-45.745-42.952-41.917-50.07c1.373-2.554,5.037-3.876,10.994-3.966c-0.014-0.508-0.077-6.466,4.986-10.148
	c5.036-3.661,10.649-1.805,11.139-1.633c-0.118-0.989-0.5-5.144,2.275-8.573c3.037-3.754,8.618-5.106,13.851-3.208
	c-29.036-24.637-32.182-31.798-30.706-34.147c2.909-4.63,28.029,2.581,47.399,17.877c22.605,17.851,31.847,41.838,35.78,55.376
	c5.351,15.202,10.703,30.404,16.054,45.606c-4.755,8.492-12.161,19.566-23.387,30.502
	C1394.369,556.261,1379.286,564.339,1369.055,568.802z"/>
<path style="fill:#292929;" d="M1369.056,570.302c-0.263,0-0.524-0.069-0.758-0.206c-0.414-0.242-0.687-0.668-0.734-1.145
	l-6.399-63.859c-43.102-35.696-44.512-46.513-41.807-51.543c1.546-2.874,5.113-4.42,10.888-4.71
	c0.249-2.344,1.293-6.825,5.531-9.907c3.86-2.807,8.007-2.734,10.445-2.338c0.063-2.095,0.601-5.022,2.685-7.598
	c2.374-2.934,6.031-4.554,9.958-4.621c-26.952-23.293-28.808-29.579-26.917-32.588c0.628-0.999,1.767-1.647,3.386-1.925
	c8.381-1.453,29.92,6.556,46.214,19.423c16.965,13.398,29.515,32.809,36.29,56.135l16.028,45.526
	c0.143,0.407,0.104,0.855-0.106,1.231c-6.38,11.394-14.337,21.772-23.648,30.843c-11.729,11.427-25.341,20.563-40.455,27.157
	C1369.464,570.261,1369.26,570.302,1369.056,570.302z M1343.765,439.399c-1.818,0-4.095,0.412-6.225,1.96
	c-4.393,3.194-4.384,8.32-4.369,8.894c0.011,0.401-0.139,0.79-0.416,1.079c-0.277,0.29-0.659,0.456-1.061,0.462
	c-5.268,0.079-8.62,1.178-9.694,3.176c-1.927,3.583,0.908,14.611,41.551,48.204c0.304,0.252,0.497,0.614,0.536,1.007l6.254,62.408
	c14.029-6.376,26.696-15.021,37.676-25.716c8.945-8.714,16.61-18.66,22.793-29.571l-15.828-44.964
	c-6.626-22.802-18.821-41.688-35.294-54.697c-16.738-13.218-37.151-19.975-43.845-18.821c-1.067,0.184-1.315,0.503-1.354,0.565
	c-0.27,0.428-1.699,4.965,30.406,32.206c0.554,0.47,0.691,1.268,0.327,1.896c-0.365,0.629-1.13,0.904-1.81,0.657
	c-4.6-1.67-9.496-0.569-12.174,2.741c-2.231,2.758-2.107,6.131-1.951,7.454c0.062,0.514-0.147,1.023-0.551,1.347
	c-0.405,0.323-0.946,0.415-1.435,0.245C1347.189,439.889,1345.749,439.399,1343.765,439.399z"/>
<path style="fill:#FFFFFF;" d="M1649.823,426.058c2.135-9.839,4.091-20.216,5.774-31.106c2.828-18.289,4.501-35.525,5.375-51.475
	c10.676-8.372,21.351-16.745,32.027-25.117c8.676,39.365,17.352,78.729,26.028,118.094
	C1695.96,432.988,1672.891,429.523,1649.823,426.058z"/>
<path style="fill:#292929;" d="M1719.028,437.954c-0.074,0-0.148-0.005-0.223-0.017l-69.205-10.397
	c-0.41-0.061-0.776-0.29-1.012-0.631s-0.319-0.765-0.231-1.17c2.222-10.24,4.159-20.676,5.758-31.017
	c2.618-16.938,4.422-34.208,5.359-51.328c0.024-0.432,0.232-0.831,0.572-1.098l32.027-25.117c0.406-0.318,0.945-0.406,1.433-0.232
	c0.485,0.174,0.847,0.585,0.958,1.089l26.028,118.094c0.106,0.483-0.031,0.986-0.369,1.347
	C1719.839,437.784,1719.44,437.954,1719.028,437.954z M1651.626,424.811l65.468,9.835l-25.045-113.634l-29.616,23.226
	c-0.953,16.997-2.754,34.131-5.353,50.943C1655.554,405.055,1653.72,415.016,1651.626,424.811z"/>
<path style="fill:#625EF3;" d="M1653.155,409.578c-9.854,0.29-19.948,1.252-30.231,3.023
	c-92.793,15.98-152.092,89.364-178.153,127.347c-4.219-10.823-8.438-21.646-12.657-32.469l-89.057,58.962l12.847,42.926
	c16.191,54.099,78.854,78.651,127.487,49.95l197.621-116.627C1671.726,498.319,1662.44,453.949,1653.155,409.578z"/>
<path style="fill:#625EF3;" d="M1561.279,505.426c-28.354,102.102-56.708,204.204-85.062,306.305
	c26.173,23.472,96.831,80.285,201.615,89.347c51.303,4.437,94.202-4.007,123.347-12.544c-3.615-128.031-7.23-256.062-10.844-384.092
	C1713.983,504.769,1637.631,505.098,1561.279,505.426z"/>
<path style="fill:#292929;" d="M1682.71,273.875c10.659,8.226,25.6,20.953,40.938,38.723
	c46.949,54.397,91.892,149.439,60.126,185.714c-26.85,30.661-106.339,16.864-115.666-10.09
	c-6.313-18.243,23.077-32.22,30.659-67.516c8.699-40.495-17.361-80.863-42.534-109.978
	C1665.058,298.443,1673.884,286.159,1682.71,273.875z"/>
<path style="fill:#292929;" d="M1801.178,846.898c-0.809,0-1.476-0.644-1.498-1.458l-8.022-288.548
	c-0.229-8.209,2.274-16.41,7.048-23.092l3.344-4.682c0.481-0.673,1.417-0.829,2.093-0.349c0.674,0.482,0.83,1.419,0.349,2.093
	l-3.344,4.682c-4.396,6.153-6.701,13.706-6.491,21.266l8.022,288.547c0.023,0.828-0.629,1.519-1.457,1.541
	C1801.206,846.898,1801.192,846.898,1801.178,846.898z"/>
<path style="fill:#292929;" d="M1462.252,585.088c-0.597,0-1.161-0.359-1.395-0.948l-30.138-76.108
	c-0.305-0.77,0.072-1.642,0.842-1.947c0.769-0.305,1.642,0.071,1.947,0.842l30.138,76.108c0.305,0.77-0.072,1.642-0.842,1.947
	C1462.623,585.054,1462.437,585.088,1462.252,585.088z"/>
<path style="fill:#FFFFFF;" d="M1623.095,289.97c1.45-1.233,13.754-11.368,29.581-9.019c16.397,2.434,28.302,17.093,31.97,30.257
	c1.596,5.726,1.75,11.611,0.779,17.421c2.282,0.675,4.302,1.927,5.831,3.771c4.974,6.001,2.88,15.942-4.677,22.205
	c-5.111,4.236-11.407,5.694-16.489,4.344c-10.662,12.16-25.035,20.915-37.865,22.251c-4.678,0.487-7.045-0.231-8.299-0.725
	C1603.407,372.406,1596.196,312.836,1623.095,289.97z"/>
<path style="fill:#292929;" d="M1629.283,382.862c-2.963,0-4.745-0.536-5.905-0.992c-8.624-3.391-15.391-15.135-18.101-31.415
	c-3.435-20.628,0.443-47.685,16.846-61.629l0,0c2.331-1.979,14.767-11.735,30.773-9.359c17.531,2.603,29.497,18.069,33.195,31.338
	c1.483,5.326,1.821,10.978,1.006,16.817c2.102,0.836,3.921,2.141,5.313,3.821c5.493,6.628,3.307,17.537-4.874,24.317
	c-5.004,4.147-11.397,5.96-16.916,4.852c-11.067,12.335-25.647,20.769-38.24,22.08
	C1631.226,382.811,1630.198,382.862,1629.283,382.862z M1624.066,291.112c-15.508,13.183-19.125,39.056-15.83,58.85
	c2.497,15.002,8.72,26.159,16.239,29.116c1.226,0.481,3.344,1.07,7.595,0.628c12.099-1.26,26.235-9.593,36.893-21.747
	c0.376-0.429,0.963-0.608,1.513-0.461c4.797,1.273,10.597-0.278,15.147-4.048c6.906-5.725,8.916-14.739,4.479-20.093
	c-1.298-1.565-3.015-2.672-5.102-3.289c-0.727-0.215-1.179-0.938-1.054-1.686c0.978-5.849,0.727-11.492-0.745-16.771
	c-3.556-12.758-15.258-26.877-30.746-29.176C1637.733,280.246,1626.224,289.279,1624.066,291.112L1624.066,291.112z"/>
<path style="fill:#292929;" d="M1696.915,292.916c7.634,18.784-0.591,35.874-1.971,38.626c-8.824,0.136-23.228-0.773-39.404-7.244
	c-20.446-8.179-33.232-21.046-39.382-28.177c5.806-18.794,22.831-31.515,41.375-31.382
	C1676.526,264.876,1691.037,278.453,1696.915,292.916z"/>
<ellipse transform="matrix(0.619 -0.7854 0.7854 0.619 422.8737 1450.5612)" style="fill:#292929;" cx="1706.485" cy="289.438" rx="19.861" ry="19.439"/>
<path style="fill:#292929;" d="M1674.044,352.91c-0.586,0-1.143-0.345-1.384-0.918c-0.321-0.764,0.037-1.643,0.801-1.964
	c1.617-0.681,3.961-2.007,5.946-4.461c2.188-2.705,2.969-5.548,3.238-7.458c0.116-0.82,0.881-1.384,1.695-1.275
	c0.82,0.116,1.392,0.875,1.275,1.695c-0.323,2.284-1.258,5.687-3.877,8.925c-2.377,2.939-5.181,4.526-7.114,5.339
	C1674.435,352.872,1674.237,352.91,1674.044,352.91z"/>
<path style="fill:#292929;" d="M1523.648,641.772c-0.145,0-0.29-0.021-0.435-0.064c-0.793-0.24-1.242-1.077-1.002-1.87
	l47.039-155.753c0.239-0.794,1.082-1.239,1.869-1.002c0.793,0.24,1.242,1.077,1.002,1.87l-47.039,155.752
	C1524.888,641.354,1524.292,641.772,1523.648,641.772z"/>
<path style="fill:#FFFFFF;" d="M1358.908,451.402c-3.703-4.296-7.407-8.593-11.11-12.889L1358.908,451.402z"/>
<path style="fill:#292929;" d="M1358.909,452.902c-0.422,0-0.841-0.176-1.137-0.521l-11.11-12.889
	c-0.541-0.628-0.471-1.575,0.156-2.116c0.627-0.542,1.575-0.471,2.115,0.157l11.11,12.889c0.541,0.628,0.471,1.575-0.156,2.116
	C1359.604,452.782,1359.256,452.902,1358.909,452.902z"/>
<path style="fill:#FFFFFF;" d="M1342.782,463.183c-3.703-4.296-7.407-8.593-11.11-12.889L1342.782,463.183z"/>
<path style="fill:#292929;" d="M1342.783,464.683c-0.422,0-0.841-0.176-1.137-0.52l-11.11-12.889
	c-0.541-0.628-0.471-1.575,0.156-2.116c0.628-0.543,1.576-0.471,2.115,0.157l11.11,12.889c0.541,0.628,0.471,1.575-0.156,2.116
	C1343.479,464.563,1343.13,464.683,1342.783,464.683z"/>
</svg>
