<svg width="140" height="51" viewBox="0 0 140 51" fill="none" xmlns="http://www.w3.org/2000/svg">
<g clip-path="url(#clip0_11635_75806)">
<path fill-rule="evenodd" clip-rule="evenodd" d="M18.4802 6.04138C8.53051 6.04138 0.47168 14.1002 0.47168 24.0499C0.47168 32.0187 5.62663 38.7494 12.785 41.1356C13.6855 41.2931 14.0231 40.7529 14.0231 40.2802C14.0231 39.8525 14.0006 38.4343 14.0006 36.9261C9.47596 37.759 8.3054 35.823 7.94523 34.8101C7.74264 34.2923 6.86472 32.6941 6.09935 32.2663C5.46906 31.9287 4.56863 31.0958 6.07684 31.0733C7.49502 31.0508 8.508 32.3789 8.84566 32.9192C10.4664 35.643 13.0552 34.8776 14.0907 34.4049C14.2482 33.2343 14.721 32.4464 15.2387 31.9962C11.2318 31.546 7.0448 29.9928 7.0448 23.1045C7.0448 21.1461 7.74264 19.5253 8.89068 18.2647C8.7106 17.8145 8.0803 15.9686 9.07077 13.4924C9.07077 13.4924 10.579 13.0197 14.0231 15.3383C15.4638 14.9331 16.9945 14.7305 18.5253 14.7305C20.056 14.7305 21.5867 14.9331 23.0274 15.3383C26.4715 12.9972 27.9798 13.4924 27.9798 13.4924C28.9702 15.9686 28.3399 17.8145 28.1598 18.2647C29.3079 19.5253 30.0057 21.1236 30.0057 23.1045C30.0057 30.0153 25.7962 31.546 21.7893 31.9962C22.4421 32.559 23.0049 33.6395 23.0049 35.3278C23.0049 37.7365 22.9824 39.6724 22.9824 40.2802C22.9824 40.7529 23.32 41.3157 24.2205 41.1356C27.7955 39.9287 30.902 37.631 33.1028 34.5661C35.3036 31.5011 36.4878 27.8232 36.4888 24.0499C36.4888 14.1002 28.43 6.04138 18.4802 6.04138Z" fill="#868686"/>
<path d="M84.4246 32.7422H84.3826C84.4015 32.7422 84.4141 32.7632 84.433 32.7653H84.4456L84.4246 32.7443V32.7422ZM84.433 32.7653C84.2376 32.7674 83.746 32.8704 83.227 32.8704C81.5882 32.8704 81.021 32.114 81.021 31.1266V24.5483H84.3616C84.5506 24.5483 84.6977 24.3802 84.6977 24.1491V20.5774C84.6977 20.3883 84.5296 20.2203 84.3616 20.2203H81.021V15.7872C81.021 15.6191 80.9159 15.514 80.7268 15.514H76.1887C75.9996 15.514 75.8945 15.6191 75.8945 15.7872V20.3463C75.8945 20.3463 73.6044 20.9136 73.4574 20.9346C73.2893 20.9766 73.1842 21.1237 73.1842 21.2918V24.1491C73.1842 24.3802 73.3523 24.5483 73.5414 24.5483H75.8735V31.4396C75.8735 36.566 79.4452 37.0913 81.8824 37.0913C82.9959 37.0913 84.3405 36.7341 84.5506 36.6291C84.6767 36.5871 84.7397 36.44 84.7397 36.2929V33.1414C84.7426 33.052 84.7132 32.9646 84.6569 32.8951C84.6005 32.8257 84.521 32.7788 84.433 32.7632V32.7653ZM134.218 28.141C134.218 24.3382 132.685 23.834 131.067 24.0021C129.806 24.0861 128.798 24.7164 128.798 24.7164V32.1119C128.798 32.1119 129.827 32.8263 131.361 32.8683C133.525 32.9313 134.218 32.1539 134.218 28.141ZM139.324 27.8049C139.324 35.0113 136.992 37.0703 132.916 37.0703C129.47 37.0703 127.621 35.3265 127.621 35.3265C127.621 35.3265 127.537 36.2929 127.432 36.419C127.369 36.545 127.264 36.587 127.138 36.587H124.028C123.818 36.587 123.629 36.419 123.629 36.2299L123.671 12.8878C123.671 12.6987 123.839 12.5306 124.028 12.5306H128.504C128.693 12.5306 128.861 12.6987 128.861 12.8878V20.8085C128.861 20.8085 130.584 19.695 133.105 19.695L133.084 19.653C135.605 19.653 139.324 20.5984 139.324 27.8049ZM121.003 20.2203H116.591C116.36 20.2203 116.234 20.3883 116.234 20.6195V32.0489C116.234 32.0489 115.078 32.8683 113.502 32.8683C111.927 32.8683 111.464 32.1539 111.464 30.5782V20.5984C111.464 20.4094 111.296 20.2413 111.107 20.2413H106.611C106.422 20.2413 106.254 20.4094 106.254 20.5984V31.3346C106.254 35.9568 108.838 37.1123 112.389 37.1123C115.309 37.1123 117.683 35.4945 117.683 35.4945C117.683 35.4945 117.788 36.3139 117.851 36.44C117.893 36.545 118.041 36.6291 118.188 36.6291H121.003C121.234 36.6291 121.36 36.461 121.36 36.2719L121.402 20.5774C121.402 20.3883 121.234 20.2203 121.003 20.2203ZM71.2093 20.1993H66.7342C66.5451 20.1993 66.377 20.3883 66.377 20.6195V36.0408C66.377 36.461 66.6501 36.6081 67.0073 36.6081H71.0412C71.4614 36.6081 71.5665 36.419 71.5665 36.0408V20.5564C71.5665 20.3673 71.3984 20.1993 71.2093 20.1993ZM69.0033 13.0979C67.3855 13.0979 66.1039 14.3795 66.1039 15.9973C66.1039 17.615 67.3855 18.8966 69.0033 18.8966C70.579 18.8966 71.8606 17.615 71.8606 15.9973C71.8606 14.3795 70.579 13.0979 69.0033 13.0979ZM103.649 12.5726H99.2156C99.0265 12.5726 98.8584 12.7407 98.8584 12.9298V21.5229H91.9041V12.9298C91.9041 12.7407 91.7361 12.5726 91.547 12.5726H87.0718C86.8828 12.5726 86.7147 12.7407 86.7147 12.9298V36.2719C86.7147 36.461 86.9038 36.6291 87.0718 36.6291H91.547C91.7361 36.6291 91.9041 36.461 91.9041 36.2719V26.2922H98.8584L98.8164 36.2719C98.8164 36.461 98.9845 36.6291 99.1736 36.6291H103.649C103.838 36.6291 104.006 36.461 104.006 36.2719V12.9298C104.006 12.7407 103.838 12.5726 103.649 12.5726ZM64.0029 22.9095V34.9693C64.0029 35.0533 63.9819 35.2004 63.8768 35.2424C63.8768 35.2424 61.2506 37.1123 56.9225 37.1123C51.691 37.1123 45.4931 35.4735 45.4931 24.6744C45.4931 13.8753 50.9137 11.6482 56.2082 11.6692C60.7884 11.6692 62.6372 12.6987 62.9314 12.8878C63.0154 12.9928 63.0574 13.0769 63.0574 13.1819L62.175 16.9217C62.175 17.1108 61.9859 17.3419 61.7548 17.2789C60.9984 17.0478 59.8639 16.5855 57.1956 16.5855C54.1072 16.5855 50.7876 17.468 50.7876 24.4223C50.7876 31.3766 53.9391 32.196 56.2082 32.196C58.1411 32.196 58.8344 31.9649 58.8344 31.9649V27.1326H55.746C55.5148 27.1326 55.3468 26.9645 55.3468 26.7754V22.9095C55.3468 22.7205 55.5148 22.5524 55.746 22.5524H63.6037C63.8348 22.5524 64.0029 22.7205 64.0029 22.9095Z" fill="#868686"/>
</g>
<defs>
<clipPath id="clip0_11635_75806">
<rect width="139.481" height="49.5933" fill="white" transform="translate(0.47168 0.875366)"/>
</clipPath>
</defs>
</svg>
