<svg width="556" height="529" viewBox="0 0 556 529" fill="none" xmlns="http://www.w3.org/2000/svg">
<rect x="0.5" y="0.5" width="263" height="255" rx="7.5" stroke="#BBBBBB"/>
<path d="M45.9995 35L51.2525 38.832L57.7555 38.82L59.7525 45.008L65.0205 48.82L62.9995 55L65.0205 61.18L59.7525 64.992L57.7555 71.18L51.2525 71.168L45.9995 75L40.7465 71.168L34.2435 71.18L32.2465 64.992L26.9785 61.18L28.9995 55L26.9785 48.82L32.2465 45.008L34.2435 38.82L40.7465 38.832L45.9995 35Z" stroke="#0E2642" stroke-width="2" stroke-linecap="round" stroke-linejoin="round"/>
<path d="M39 55L44 60L54 50" stroke="#0E2642" stroke-width="2" stroke-linecap="round" stroke-linejoin="round"/>
<path d="M35.84 106.88C35.84 111.36 33.46 114 28.76 114H23.1V99.76H28.76C33.46 99.76 35.84 102.42 35.84 106.88ZM33.12 106.88C33.12 103.58 31.72 101.9 28.9 101.9H25.82V111.86H28.9C31.72 111.86 33.12 110.18 33.12 106.88ZM42.155 114.2C38.795 114.2 36.915 112.1 36.915 108.84C36.915 105.66 38.715 103.48 42.035 103.48C45.375 103.48 47.175 105.68 47.175 108.72C47.175 108.94 47.155 109.14 47.135 109.38H39.495C39.575 111.48 40.575 112.44 42.155 112.44C43.435 112.44 44.275 111.8 44.575 110.74H46.955C46.515 112.86 44.935 114.2 42.155 114.2ZM42.035 105.24C40.615 105.24 39.715 106.06 39.495 107.7H44.595C44.375 106.06 43.455 105.24 42.035 105.24ZM52.9427 114.2C49.6227 114.2 48.2627 112.78 48.2627 110.74H50.7627C50.8827 111.84 51.3827 112.5 52.9827 112.5C54.5227 112.5 55.0627 111.86 55.0627 111.1C55.0627 110.4 54.5027 110.04 53.6227 109.9L51.8427 109.64C49.4627 109.3 48.5427 108.5 48.5427 106.74C48.5427 104.9 49.8027 103.48 52.9427 103.48C56.1027 103.48 57.3627 104.9 57.3627 106.78H54.8627C54.7627 105.92 54.4427 105.18 52.9227 105.18C51.6227 105.18 51.1227 105.72 51.1227 106.54C51.1227 107.22 51.5227 107.52 52.2627 107.62L54.0227 107.88C56.3027 108.2 57.6427 108.96 57.6427 110.94C57.6427 112.78 56.2827 114.2 52.9427 114.2ZM61.7114 114H59.1314V103.68H61.7114V114ZM60.4314 102.14C59.4714 102.14 58.9314 101.56 58.9314 100.8C58.9314 100.04 59.4714 99.46 60.4314 99.46C61.3914 99.46 61.9114 100.04 61.9114 100.8C61.9114 101.56 61.3914 102.14 60.4314 102.14ZM67.7245 113.6C64.9445 113.6 63.1845 111.58 63.1845 108.54C63.1845 105.5 64.9445 103.48 67.7245 103.48C69.4445 103.48 70.4645 104.24 71.0245 105.44V103.68H73.4845V113.16C73.4845 116.36 71.7645 118.12 68.3845 118.12C65.2845 118.12 63.7445 116.64 63.7445 114.42H66.1645C66.3245 115.72 67.1045 116.42 68.5045 116.42C70.0245 116.42 70.9045 115.6 70.9045 113.88V111.84C70.3245 112.96 69.2845 113.6 67.7245 113.6ZM68.3245 111.76C69.8645 111.76 70.9045 110.68 70.9045 108.54C70.9045 106.4 69.8645 105.32 68.3245 105.32C66.8045 105.32 65.7645 106.4 65.7645 108.54C65.7645 110.68 66.8045 111.76 68.3245 111.76ZM84.5219 114H81.9419V107.68C81.9419 106.28 81.4419 105.58 80.1819 105.58C78.8219 105.58 77.9419 106.56 77.9419 108.24V114H75.3619V103.68H77.8219V105.36C78.3819 104.26 79.3019 103.48 80.9819 103.48C83.3419 103.48 84.5219 104.68 84.5219 107.18V114ZM101.457 114L100.357 112.88C99.117 113.76 97.657 114.2 96.077 114.2C92.677 114.2 90.997 112.4 90.997 110.3C90.997 108.5 91.797 107.28 93.997 106.38C93.017 105.3 92.617 104.34 92.617 103.16C92.617 101.2 94.117 99.56 96.777 99.56C99.457 99.56 100.957 101.2 100.957 103.16C100.957 104.86 99.897 105.84 97.337 106.78L100.397 109.9C100.857 109.18 101.217 108.24 101.417 107.1H103.737C103.417 108.84 102.777 110.3 101.877 111.42L104.417 114H101.457ZM96.257 112.24C97.197 112.24 98.117 112 98.937 111.44L95.177 107.58C94.037 108.14 93.577 108.92 93.577 110.04C93.577 111.36 94.757 112.24 96.257 112.24ZM95.077 103.1C95.077 103.88 95.277 104.56 96.197 105.58C97.777 104.96 98.497 104.1 98.497 103.1C98.497 102.02 97.817 101.4 96.777 101.4C95.757 101.4 95.077 102.02 95.077 103.1ZM113.3 114H110.58V99.76H113.3V114ZM129.582 114H127.102V107.6C127.102 106.22 126.642 105.58 125.642 105.58C124.562 105.58 123.702 106.48 123.702 108.16V114H121.202V107.6C121.202 106.22 120.742 105.58 119.762 105.58C118.682 105.58 117.822 106.48 117.822 108.16V114H115.342V103.68H117.802V105.36C118.302 104.26 119.182 103.48 120.602 103.48C122.102 103.48 123.042 104.12 123.462 105.42C123.982 104.22 125.002 103.48 126.422 103.48C128.542 103.48 129.582 104.68 129.582 107.18V114ZM137.216 114.2C135.656 114.2 134.616 113.56 134.036 112.44V117.92H131.456V103.68H133.916V105.44C134.476 104.24 135.476 103.48 137.216 103.48C139.996 103.48 141.756 105.46 141.756 108.84C141.756 112.22 139.996 114.2 137.216 114.2ZM136.596 112.24C138.136 112.24 139.176 111.2 139.176 108.84C139.176 106.48 138.136 105.44 136.596 105.44C135.076 105.44 134.036 106.48 134.036 108.84C134.036 111.2 135.076 112.24 136.596 112.24ZM145.813 114H143.233V99.76H145.813V114ZM152.526 114.2C149.166 114.2 147.286 112.1 147.286 108.84C147.286 105.66 149.086 103.48 152.406 103.48C155.746 103.48 157.546 105.68 157.546 108.72C157.546 108.94 157.526 109.14 157.506 109.38H149.866C149.946 111.48 150.946 112.44 152.526 112.44C153.806 112.44 154.646 111.8 154.946 110.74H157.326C156.886 112.86 155.306 114.2 152.526 114.2ZM152.406 105.24C150.986 105.24 150.086 106.06 149.866 107.7H154.966C154.746 106.06 153.826 105.24 152.406 105.24ZM173.274 114H170.794V107.6C170.794 106.22 170.334 105.58 169.334 105.58C168.254 105.58 167.394 106.48 167.394 108.16V114H164.894V107.6C164.894 106.22 164.434 105.58 163.454 105.58C162.374 105.58 161.514 106.48 161.514 108.16V114H159.034V103.68H161.494V105.36C161.994 104.26 162.874 103.48 164.294 103.48C165.794 103.48 166.734 104.12 167.154 105.42C167.674 104.22 168.694 103.48 170.114 103.48C172.234 103.48 173.274 104.68 173.274 107.18V114ZM179.987 114.2C176.627 114.2 174.747 112.1 174.747 108.84C174.747 105.66 176.547 103.48 179.867 103.48C183.207 103.48 185.007 105.68 185.007 108.72C185.007 108.94 184.987 109.14 184.967 109.38H177.327C177.407 111.48 178.407 112.44 179.987 112.44C181.267 112.44 182.107 111.8 182.407 110.74H184.787C184.347 112.86 182.767 114.2 179.987 114.2ZM179.867 105.24C178.447 105.24 177.547 106.06 177.327 107.7H182.427C182.207 106.06 181.287 105.24 179.867 105.24ZM195.655 114H193.075V107.68C193.075 106.28 192.575 105.58 191.315 105.58C189.955 105.58 189.075 106.56 189.075 108.24V114H186.495V103.68H188.955V105.36C189.515 104.26 190.435 103.48 192.115 103.48C194.475 103.48 195.655 104.68 195.655 107.18V114ZM201.335 114.1C198.995 114.1 198.215 113.38 198.215 111.1V105.52H196.595V103.68H198.215V100.56H200.795V103.68H203.035V105.52H200.795V111.2C200.795 112 201.135 112.28 201.955 112.28L203.035 112.26V114C202.615 114.04 201.795 114.1 201.335 114.1Z" fill="#0E2642"/>
<path d="M27.312 161H25.936V150.744H22.304V149.608H30.928V150.744H27.312V161ZM33.3154 161.16C31.4434 161.16 30.3874 160.2 30.3874 158.664C30.3874 157.448 31.1554 156.504 33.1714 156.328L34.6914 156.2C35.8114 156.104 36.1314 155.864 36.1314 155.256C36.1314 154.2 35.5394 153.544 34.1634 153.544C32.8834 153.544 32.2114 154.088 32.1154 155.256H30.8354C30.8354 153.624 31.8434 152.584 34.1474 152.584C36.4514 152.584 37.4594 153.624 37.4594 155.256V158.888C37.4594 160.008 37.5554 160.728 37.7154 161H36.5474C36.2914 160.648 36.1954 160.312 36.1954 159.432C35.7474 160.584 34.7714 161.16 33.3154 161.16ZM33.6674 160.232C35.2994 160.232 36.1314 158.936 36.1314 157.4V156.584C35.9394 156.84 35.4274 157 34.6914 157.064L33.5554 157.16C32.2434 157.256 31.7154 157.816 31.7154 158.584C31.7154 159.528 32.2914 160.232 33.6674 160.232ZM40.4885 161H39.1605V152.744H40.4885V161ZM39.8165 151.096C39.2885 151.096 39.0005 150.776 39.0005 150.36C39.0005 149.944 39.2885 149.624 39.8165 149.624C40.3445 149.624 40.6485 149.944 40.6485 150.36C40.6485 150.776 40.3445 151.096 39.8165 151.096ZM43.5198 161H42.1918V149.608H43.5198V161ZM48.855 161.16C46.311 161.16 44.903 159.528 44.903 156.872C44.903 154.232 46.311 152.584 48.855 152.584C51.415 152.584 52.823 154.232 52.823 156.872C52.823 159.528 51.415 161.16 48.855 161.16ZM48.855 160.136C50.535 160.136 51.495 159.032 51.495 156.872C51.495 154.712 50.535 153.608 48.855 153.608C47.191 153.608 46.231 154.712 46.231 156.872C46.231 159.032 47.191 160.136 48.855 160.136ZM55.5198 161H54.1918V152.744H55.4557V154.696C55.9038 153.256 56.6558 152.664 57.8878 152.664C58.1118 152.664 58.3998 152.696 58.6398 152.744V153.896L57.8398 153.864C56.4318 153.864 55.5198 154.984 55.5198 157.016V161ZM63.0113 161.16C60.4673 161.16 59.0592 159.528 59.0592 156.872C59.0592 154.328 60.3713 152.584 62.9153 152.584C65.4753 152.584 66.7873 154.376 66.7873 156.68C66.7873 156.808 66.7873 156.952 66.7552 157.08H60.3873C60.4193 159.32 61.4753 160.232 63.0113 160.232C64.3393 160.232 65.1393 159.528 65.4273 158.488H66.6112C66.2273 160.136 65.0913 161.16 63.0113 161.16ZM62.9153 153.512C61.4913 153.512 60.5633 154.392 60.3873 156.184H65.4593C65.2833 154.392 64.3393 153.512 62.9153 153.512ZM71.4245 161.16C69.2005 161.16 67.8405 159.576 67.8405 156.872C67.8405 154.168 69.2005 152.584 71.4245 152.584C72.8325 152.584 73.8085 153.16 74.2725 154.312V149.608H75.6005V161H74.3365V159.352C73.8725 160.52 72.8965 161.16 71.4245 161.16ZM71.7125 160.136C73.2325 160.136 74.2725 159.128 74.2725 156.872C74.2725 154.616 73.2325 153.608 71.7125 153.608C70.2085 153.608 69.1685 154.616 69.1685 156.872C69.1685 159.128 70.2085 160.136 71.7125 160.136ZM84.3891 161.16C81.8771 161.16 80.9811 160.024 80.9811 158.488H82.2451C82.3251 159.512 82.7411 160.248 84.4051 160.248C86.0531 160.248 86.4851 159.512 86.4851 158.712C86.4851 157.96 85.9731 157.592 85.1251 157.464L83.5091 157.224C81.9571 157 81.2051 156.424 81.2051 155.096C81.2051 153.72 81.9891 152.584 84.3891 152.584C86.8051 152.584 87.5891 153.72 87.5891 155.128H86.3251C86.2451 154.28 85.9891 153.496 84.3891 153.496C83.0291 153.496 82.5331 154.056 82.5331 155C82.5331 155.8 82.9811 156.056 83.6851 156.152L85.3171 156.392C86.8531 156.616 87.8131 157.208 87.8131 158.648C87.8131 160.024 86.9171 161.16 84.3891 161.16ZM92.8238 161.16C90.2798 161.16 88.8717 159.528 88.8717 156.872C88.8717 154.232 90.2798 152.584 92.8238 152.584C95.3838 152.584 96.7917 154.232 96.7917 156.872C96.7917 159.528 95.3838 161.16 92.8238 161.16ZM92.8238 160.136C94.5038 160.136 95.4638 159.032 95.4638 156.872C95.4638 154.712 94.5038 153.608 92.8238 153.608C91.1598 153.608 90.1998 154.712 90.1998 156.872C90.1998 159.032 91.1598 160.136 92.8238 160.136ZM99.4885 161H98.1605V149.608H99.4885V161ZM103.96 161.16C102.072 161.16 101.192 160.2 101.192 158.2V152.744H102.52V157.992C102.52 159.368 103.016 160.088 104.344 160.088C105.72 160.088 106.616 159.016 106.616 157.352V152.744H107.944V161H106.68V159.48C106.216 160.504 105.368 161.16 103.96 161.16ZM112.541 161.08C110.957 161.08 110.365 160.616 110.365 159.08V153.704H108.957V152.744H110.365V150.248H111.693V152.744H113.677V153.704H111.693V159.112C111.693 159.912 111.965 160.104 112.813 160.104L113.677 160.072V161C113.357 161.032 112.829 161.08 112.541 161.08ZM116.27 161H114.942V152.744H116.27V161ZM115.598 151.096C115.07 151.096 114.782 150.776 114.782 150.36C114.782 149.944 115.07 149.624 115.598 149.624C116.126 149.624 116.43 149.944 116.43 150.36C116.43 150.776 116.126 151.096 115.598 151.096ZM121.605 161.16C119.061 161.16 117.653 159.528 117.653 156.872C117.653 154.232 119.061 152.584 121.605 152.584C124.165 152.584 125.573 154.232 125.573 156.872C125.573 159.528 124.165 161.16 121.605 161.16ZM121.605 160.136C123.285 160.136 124.245 159.032 124.245 156.872C124.245 154.712 123.285 153.608 121.605 153.608C119.941 153.608 118.981 154.712 118.981 156.872C118.981 159.032 119.941 160.136 121.605 160.136ZM133.694 161H132.366V155.752C132.366 154.376 131.87 153.656 130.542 153.656C129.166 153.656 128.27 154.728 128.27 156.392V161H126.942V152.744H128.206V154.264C128.67 153.24 129.518 152.584 130.91 152.584C132.798 152.584 133.694 153.544 133.694 155.544V161ZM138.483 161.16C135.971 161.16 135.075 160.024 135.075 158.488H136.339C136.419 159.512 136.835 160.248 138.499 160.248C140.147 160.248 140.579 159.512 140.579 158.712C140.579 157.96 140.067 157.592 139.219 157.464L137.603 157.224C136.051 157 135.299 156.424 135.299 155.096C135.299 153.72 136.083 152.584 138.483 152.584C140.899 152.584 141.683 153.72 141.683 155.128H140.419C140.339 154.28 140.083 153.496 138.483 153.496C137.123 153.496 136.627 154.056 136.627 155C136.627 155.8 137.075 156.056 137.779 156.152L139.411 156.392C140.947 156.616 141.907 157.208 141.907 158.648C141.907 160.024 141.011 161.16 138.483 161.16ZM150.182 161.08C148.598 161.08 148.006 160.616 148.006 159.08V153.704H146.598V152.744H148.006V150.248H149.334V152.744H151.318V153.704H149.334V159.112C149.334 159.912 149.606 160.104 150.454 160.104L151.318 160.072V161C150.998 161.032 150.47 161.08 150.182 161.08ZM159.334 161H158.006V155.752C158.006 154.376 157.51 153.656 156.182 153.656C154.806 153.656 153.91 154.728 153.91 156.392V161H152.582V149.608H153.91V154.184C154.358 153.192 155.206 152.584 156.55 152.584C158.438 152.584 159.334 153.544 159.334 155.544V161ZM163.644 161.16C161.772 161.16 160.715 160.2 160.715 158.664C160.715 157.448 161.484 156.504 163.5 156.328L165.02 156.2C166.14 156.104 166.46 155.864 166.46 155.256C166.46 154.2 165.868 153.544 164.492 153.544C163.212 153.544 162.539 154.088 162.444 155.256H161.164C161.164 153.624 162.172 152.584 164.476 152.584C166.78 152.584 167.788 153.624 167.788 155.256V158.888C167.788 160.008 167.884 160.728 168.044 161H166.876C166.62 160.648 166.524 160.312 166.524 159.432C166.076 160.584 165.1 161.16 163.644 161.16ZM163.996 160.232C165.628 160.232 166.46 158.936 166.46 157.4V156.584C166.268 156.84 165.756 157 165.02 157.064L163.884 157.16C162.572 157.256 162.044 157.816 162.044 158.584C162.044 159.528 162.62 160.232 163.996 160.232ZM172.228 161.08C170.644 161.08 170.052 160.616 170.052 159.08V153.704H168.644V152.744H170.052V150.248H171.38V152.744H173.364V153.704H171.38V159.112C171.38 159.912 171.652 160.104 172.5 160.104L173.364 160.072V161C173.044 161.032 172.516 161.08 172.228 161.08ZM180.677 161H179.349V153.704H177.941V152.744H179.349V151.72C179.349 150.248 179.957 149.528 181.525 149.528C181.813 149.528 182.341 149.576 182.661 149.608V150.536L181.797 150.504C180.949 150.504 180.677 150.888 180.677 151.688V152.744H182.661V153.704H180.677V161ZM185.16 161H183.832V152.744H185.16V161ZM184.488 151.096C183.96 151.096 183.672 150.776 183.672 150.36C183.672 149.944 183.96 149.624 184.488 149.624C185.016 149.624 185.32 149.944 185.32 150.36C185.32 150.776 185.016 151.096 184.488 151.096ZM189.76 161.08C188.176 161.08 187.584 160.616 187.584 159.08V153.704H186.176V152.744H187.584V150.248H188.912V152.744H190.896V153.704H188.912V159.112C188.912 159.912 189.184 160.104 190.032 160.104L190.896 160.072V161C190.576 161.032 190.048 161.08 189.76 161.08ZM25.936 185.16C23.424 185.16 22.528 184.024 22.528 182.488H23.792C23.872 183.512 24.288 184.248 25.952 184.248C27.6 184.248 28.032 183.512 28.032 182.712C28.032 181.96 27.52 181.592 26.672 181.464L25.056 181.224C23.504 181 22.752 180.424 22.752 179.096C22.752 177.72 23.536 176.584 25.936 176.584C28.352 176.584 29.136 177.72 29.136 179.128H27.872C27.792 178.28 27.536 177.496 25.936 177.496C24.576 177.496 24.08 178.056 24.08 179C24.08 179.8 24.528 180.056 25.232 180.152L26.864 180.392C28.4 180.616 29.36 181.208 29.36 182.648C29.36 184.024 28.464 185.16 25.936 185.16ZM34.3706 185.16C31.8266 185.16 30.4186 183.528 30.4186 180.872C30.4186 178.328 31.7306 176.584 34.2746 176.584C36.8346 176.584 38.1466 178.376 38.1466 180.68C38.1466 180.808 38.1466 180.952 38.1146 181.08H31.7466C31.7786 183.32 32.8346 184.232 34.3706 184.232C35.6986 184.232 36.4986 183.528 36.7866 182.488H37.9706C37.5866 184.136 36.4506 185.16 34.3706 185.16ZM34.2746 177.512C32.8506 177.512 31.9226 178.392 31.7466 180.184H36.8186C36.6426 178.392 35.6986 177.512 34.2746 177.512ZM42.1279 185.16C40.2559 185.16 39.1999 184.2 39.1999 182.664C39.1999 181.448 39.9679 180.504 41.9839 180.328L43.5039 180.2C44.6239 180.104 44.9439 179.864 44.9439 179.256C44.9439 178.2 44.3519 177.544 42.9759 177.544C41.6959 177.544 41.0239 178.088 40.9279 179.256H39.6479C39.6479 177.624 40.6559 176.584 42.9599 176.584C45.2639 176.584 46.2719 177.624 46.2719 179.256V182.888C46.2719 184.008 46.3679 184.728 46.5279 185H45.3599C45.1039 184.648 45.0079 184.312 45.0079 183.432C44.5599 184.584 43.5839 185.16 42.1279 185.16ZM42.4799 184.232C44.1119 184.232 44.9439 182.936 44.9439 181.4V180.584C44.7519 180.84 44.2399 181 43.5039 181.064L42.3679 181.16C41.0559 181.256 40.5279 181.816 40.5279 182.584C40.5279 183.528 41.1039 184.232 42.4799 184.232ZM58.725 185H57.445V179.72C57.445 178.344 57.029 177.656 55.925 177.656C54.805 177.656 53.957 178.696 53.957 180.36V185H52.693V179.72C52.693 178.344 52.261 177.656 51.189 177.656C50.069 177.656 49.253 178.696 49.253 180.36V185H47.973V176.744H49.237V178.264C49.621 177.24 50.437 176.584 51.573 176.584C52.837 176.584 53.573 177.176 53.845 178.36C54.261 177.192 55.157 176.584 56.293 176.584C57.941 176.584 58.725 177.544 58.725 179.544V185ZM61.7541 185H60.4261V173.608H61.7541V185ZM67.0894 185.16C64.5454 185.16 63.1374 183.528 63.1374 180.872C63.1374 178.328 64.4494 176.584 66.9934 176.584C69.5534 176.584 70.8654 178.376 70.8654 180.68C70.8654 180.808 70.8654 180.952 70.8334 181.08H64.4654C64.4974 183.32 65.5534 184.232 67.0894 184.232C68.4174 184.232 69.2174 183.528 69.5054 182.488H70.6894C70.3054 184.136 69.1694 185.16 67.0894 185.16ZM66.9934 177.512C65.5694 177.512 64.6414 178.392 64.4654 180.184H69.5374C69.3614 178.392 68.4174 177.512 66.9934 177.512ZM75.3266 185.16C72.8146 185.16 71.9186 184.024 71.9186 182.488H73.1826C73.2626 183.512 73.6786 184.248 75.3426 184.248C76.9906 184.248 77.4226 183.512 77.4226 182.712C77.4226 181.96 76.9106 181.592 76.0626 181.464L74.4466 181.224C72.8946 181 72.1426 180.424 72.1426 179.096C72.1426 177.72 72.9266 176.584 75.3266 176.584C77.7426 176.584 78.5266 177.72 78.5266 179.128H77.2626C77.1826 178.28 76.9266 177.496 75.3266 177.496C73.9666 177.496 73.4706 178.056 73.4706 179C73.4706 179.8 73.9186 180.056 74.6226 180.152L76.2546 180.392C77.7906 180.616 78.7506 181.208 78.7506 182.648C78.7506 184.024 77.8546 185.16 75.3266 185.16ZM83.2173 185.16C80.7053 185.16 79.8092 184.024 79.8092 182.488H81.0733C81.1533 183.512 81.5693 184.248 83.2333 184.248C84.8813 184.248 85.3133 183.512 85.3133 182.712C85.3133 181.96 84.8013 181.592 83.9533 181.464L82.3373 181.224C80.7853 181 80.0333 180.424 80.0333 179.096C80.0333 177.72 80.8173 176.584 83.2173 176.584C85.6333 176.584 86.4173 177.72 86.4173 179.128H85.1533C85.0733 178.28 84.8173 177.496 83.2173 177.496C81.8573 177.496 81.3613 178.056 81.3613 179C81.3613 179.8 81.8093 180.056 82.5133 180.152L84.1453 180.392C85.6813 180.616 86.6413 181.208 86.6413 182.648C86.6413 184.024 85.7453 185.16 83.2173 185.16ZM89.3479 185H88.0199V173.608H89.3479V185ZM91.1631 188.136V187.176H91.8031C92.7631 187.176 93.3551 186.648 93.8191 185.448L90.4111 176.744H91.7871L94.4111 183.896L97.0671 176.744H98.4431L95.0671 185.288C94.1871 187.496 93.3551 188.136 91.8031 188.136H91.1631ZM104.832 185H103.504V176.744H104.832V185ZM104.16 175.096C103.632 175.096 103.344 174.776 103.344 174.36C103.344 173.944 103.632 173.624 104.16 173.624C104.688 173.624 104.992 173.944 104.992 174.36C104.992 174.776 104.688 175.096 104.16 175.096ZM113.288 185H111.96V179.752C111.96 178.376 111.464 177.656 110.136 177.656C108.76 177.656 107.864 178.728 107.864 180.392V185H106.536V176.744H107.799V178.264C108.264 177.24 109.112 176.584 110.504 176.584C112.392 176.584 113.288 177.544 113.288 179.544V185ZM117.728 185.08C116.144 185.08 115.552 184.616 115.552 183.08V177.704H114.144V176.744H115.552V174.248H116.88V176.744H118.864V177.704H116.88V183.112C116.88 183.912 117.152 184.104 118 184.104L118.864 184.072V185C118.544 185.032 118.016 185.08 117.728 185.08ZM123.293 185.16C120.749 185.16 119.34 183.528 119.34 180.872C119.34 178.232 120.749 176.584 123.293 176.584C125.853 176.584 127.26 178.232 127.26 180.872C127.26 183.528 125.853 185.16 123.293 185.16ZM123.293 184.136C124.973 184.136 125.933 183.032 125.933 180.872C125.933 178.712 124.973 177.608 123.293 177.608C121.629 177.608 120.669 178.712 120.669 180.872C120.669 183.032 121.629 184.136 123.293 184.136ZM132.741 188.136V187.176H133.381C134.341 187.176 134.933 186.648 135.397 185.448L131.989 176.744H133.365L135.989 183.896L138.645 176.744H140.021L136.645 185.288C135.765 187.496 134.933 188.136 133.381 188.136H132.741ZM144.23 185.16C141.686 185.16 140.278 183.528 140.278 180.872C140.278 178.232 141.686 176.584 144.23 176.584C146.79 176.584 148.198 178.232 148.198 180.872C148.198 183.528 146.79 185.16 144.23 185.16ZM144.23 184.136C145.91 184.136 146.87 183.032 146.87 180.872C146.87 178.712 145.91 177.608 144.23 177.608C142.566 177.608 141.606 178.712 141.606 180.872C141.606 183.032 142.566 184.136 144.23 184.136ZM152.335 185.16C150.447 185.16 149.567 184.2 149.567 182.2V176.744H150.895V181.992C150.895 183.368 151.391 184.088 152.719 184.088C154.095 184.088 154.991 183.016 154.991 181.352V176.744H156.319V185H155.055V183.48C154.591 184.504 153.743 185.16 152.335 185.16ZM159.348 185H158.02V176.744H159.284V178.696C159.732 177.256 160.484 176.664 161.716 176.664C161.94 176.664 162.228 176.696 162.468 176.744V177.896L161.668 177.864C160.26 177.864 159.348 178.984 159.348 181.016V185ZM26.48 209.16C23.936 209.16 22.528 207.528 22.528 204.872C22.528 202.328 23.84 200.584 26.384 200.584C28.944 200.584 30.256 202.376 30.256 204.68C30.256 204.808 30.256 204.952 30.224 205.08H23.856C23.888 207.32 24.944 208.232 26.48 208.232C27.808 208.232 28.608 207.528 28.896 206.488H30.08C29.696 208.136 28.56 209.16 26.48 209.16ZM26.384 201.512C24.96 201.512 24.032 202.392 23.856 204.184H28.928C28.752 202.392 27.808 201.512 26.384 201.512ZM35.1653 209.16C32.7173 209.16 31.3092 207.528 31.3092 204.872C31.3092 202.232 32.7173 200.584 35.1653 200.584C37.6933 200.584 38.7653 202.232 38.7653 203.688H37.5653C37.4053 202.6 36.7333 201.608 35.1653 201.608C33.5973 201.608 32.6373 202.712 32.6373 204.872C32.6373 207.032 33.5973 208.136 35.1653 208.136C36.5413 208.136 37.3733 207.384 37.5653 205.992H38.7653C38.7653 207.608 37.5973 209.16 35.1653 209.16ZM43.6206 209.16C41.0766 209.16 39.6686 207.528 39.6686 204.872C39.6686 202.232 41.0766 200.584 43.6206 200.584C46.1806 200.584 47.5886 202.232 47.5886 204.872C47.5886 207.528 46.1806 209.16 43.6206 209.16ZM43.6206 208.136C45.3006 208.136 46.2606 207.032 46.2606 204.872C46.2606 202.712 45.3006 201.608 43.6206 201.608C41.9566 201.608 40.9966 202.712 40.9966 204.872C40.9966 207.032 41.9566 208.136 43.6206 208.136ZM52.0454 209.16C49.5334 209.16 48.6374 208.024 48.6374 206.488H49.9014C49.9814 207.512 50.3974 208.248 52.0614 208.248C53.7094 208.248 54.1414 207.512 54.1414 206.712C54.1414 205.96 53.6294 205.592 52.7814 205.464L51.1654 205.224C49.6134 205 48.8614 204.424 48.8614 203.096C48.8614 201.72 49.6454 200.584 52.0454 200.584C54.4614 200.584 55.2454 201.72 55.2454 203.128H53.9814C53.9014 202.28 53.6454 201.496 52.0454 201.496C50.6854 201.496 50.1894 202.056 50.1894 203C50.1894 203.8 50.6374 204.056 51.3414 204.152L52.9734 204.392C54.5094 204.616 55.4694 205.208 55.4694 206.648C55.4694 208.024 54.5734 209.16 52.0454 209.16ZM56.5069 212.136V211.176H57.1469C58.1069 211.176 58.6989 210.648 59.1629 209.448L55.7549 200.744H57.1309L59.7549 207.896L62.4109 200.744H63.7869L60.4109 209.288C59.5309 211.496 58.6989 212.136 57.1469 212.136H56.5069ZM67.4829 209.16C64.9709 209.16 64.0749 208.024 64.0749 206.488H65.3389C65.4189 207.512 65.8349 208.248 67.4989 208.248C69.1469 208.248 69.5789 207.512 69.5789 206.712C69.5789 205.96 69.0669 205.592 68.2189 205.464L66.6029 205.224C65.0509 205 64.2989 204.424 64.2989 203.096C64.2989 201.72 65.0829 200.584 67.4829 200.584C69.8989 200.584 70.6829 201.72 70.6829 203.128H69.4189C69.3389 202.28 69.0829 201.496 67.4829 201.496C66.1229 201.496 65.6269 202.056 65.6269 203C65.6269 203.8 66.0749 204.056 66.7789 204.152L68.4109 204.392C69.9469 204.616 70.9069 205.208 70.9069 206.648C70.9069 208.024 70.0109 209.16 67.4829 209.16ZM75.0253 209.08C73.4413 209.08 72.8493 208.616 72.8493 207.08V201.704H71.4413V200.744H72.8493V198.248H74.1773V200.744H76.1613V201.704H74.1773V207.112C74.1773 207.912 74.4493 208.104 75.2973 208.104L76.1613 208.072V209C75.8413 209.032 75.3133 209.08 75.0253 209.08ZM80.5894 209.16C78.0454 209.16 76.6374 207.528 76.6374 204.872C76.6374 202.328 77.9494 200.584 80.4934 200.584C83.0534 200.584 84.3654 202.376 84.3654 204.68C84.3654 204.808 84.3654 204.952 84.3334 205.08H77.9654C77.9974 207.32 79.0534 208.232 80.5894 208.232C81.9174 208.232 82.7174 207.528 83.0054 206.488H84.1894C83.8054 208.136 82.6694 209.16 80.5894 209.16ZM80.4934 201.512C79.0694 201.512 78.1414 202.392 77.9654 204.184H83.0374C82.8614 202.392 81.9174 201.512 80.4934 201.512ZM96.4906 209H95.2106V203.72C95.2106 202.344 94.7946 201.656 93.6906 201.656C92.5706 201.656 91.7226 202.696 91.7226 204.36V209H90.4586V203.72C90.4586 202.344 90.0266 201.656 88.9546 201.656C87.8346 201.656 87.0186 202.696 87.0186 204.36V209H85.7386V200.744H87.0026V202.264C87.3866 201.24 88.2026 200.584 89.3386 200.584C90.6026 200.584 91.3386 201.176 91.6106 202.36C92.0266 201.192 92.9226 200.584 94.0586 200.584C95.7066 200.584 96.4906 201.544 96.4906 203.544V209ZM98.8478 209.096C98.3038 209.096 97.9998 208.76 97.9998 208.328C97.9998 207.912 98.3038 207.56 98.8478 207.56C99.3918 207.56 99.6957 207.912 99.6957 208.328C99.6957 208.76 99.3918 209.096 98.8478 209.096Z" fill="#6E7D8E"/>
<rect x="0.5" y="273.5" width="263" height="255" rx="7.5" stroke="#BBBBBB"/>
<path d="M45.9995 308L51.2525 311.832L57.7555 311.82L59.7525 318.008L65.0205 321.82L62.9995 328L65.0205 334.18L59.7525 337.992L57.7555 344.18L51.2525 344.168L45.9995 348L40.7465 344.168L34.2435 344.18L32.2465 337.992L26.9785 334.18L28.9995 328L26.9785 321.82L32.2465 318.008L34.2435 311.82L40.7465 311.832L45.9995 308Z" stroke="#0E2642" stroke-width="2" stroke-linecap="round" stroke-linejoin="round"/>
<path d="M39 328L44 333L54 323" stroke="#0E2642" stroke-width="2" stroke-linecap="round" stroke-linejoin="round"/>
<path d="M29.6 387.2C25.08 387.2 22.54 384.22 22.54 379.88C22.54 375.54 25.08 372.56 29.6 372.56C34.14 372.56 36.68 375.54 36.68 379.88C36.68 384.22 34.14 387.2 29.6 387.2ZM29.6 384.98C32.48 384.98 33.96 383.16 33.96 379.88C33.96 376.6 32.48 374.78 29.6 374.78C26.74 374.78 25.26 376.6 25.26 379.88C25.26 383.16 26.74 384.98 29.6 384.98ZM43.9148 387.2C42.3548 387.2 41.3148 386.56 40.7348 385.44V390.92H38.1548V376.68H40.6148V378.44C41.1748 377.24 42.1748 376.48 43.9148 376.48C46.6948 376.48 48.4548 378.46 48.4548 381.84C48.4548 385.22 46.6948 387.2 43.9148 387.2ZM43.2948 385.24C44.8348 385.24 45.8748 384.2 45.8748 381.84C45.8748 379.48 44.8348 378.44 43.2948 378.44C41.7748 378.44 40.7348 379.48 40.7348 381.84C40.7348 384.2 41.7748 385.24 43.2948 385.24ZM53.7369 387.1C51.3969 387.1 50.6169 386.38 50.6169 384.1V378.52H48.9969V376.68H50.6169V373.56H53.1969V376.68H55.4369V378.52H53.1969V384.2C53.1969 385 53.5369 385.28 54.3569 385.28L55.4369 385.26V387C55.0169 387.04 54.1969 387.1 53.7369 387.1ZM59.4848 387H56.9048V376.68H59.4848V387ZM58.2048 375.14C57.2448 375.14 56.7048 374.56 56.7048 373.8C56.7048 373.04 57.2448 372.46 58.2048 372.46C59.1648 372.46 59.6848 373.04 59.6848 373.8C59.6848 374.56 59.1648 375.14 58.2048 375.14ZM75.598 387H73.118V380.6C73.118 379.22 72.658 378.58 71.658 378.58C70.578 378.58 69.718 379.48 69.718 381.16V387H67.218V380.6C67.218 379.22 66.758 378.58 65.778 378.58C64.698 378.58 63.838 379.48 63.838 381.16V387H61.358V376.68H63.818V378.36C64.318 377.26 65.198 376.48 66.618 376.48C68.118 376.48 69.058 377.12 69.478 378.42C69.998 377.22 71.018 376.48 72.438 376.48C74.558 376.48 75.598 377.68 75.598 380.18V387ZM80.0513 387H77.4713V376.68H80.0513V387ZM78.7713 375.14C77.8113 375.14 77.2713 374.56 77.2713 373.8C77.2713 373.04 77.8113 372.46 78.7713 372.46C79.7313 372.46 80.2513 373.04 80.2513 373.8C80.2513 374.56 79.7313 375.14 78.7713 375.14ZM89.9444 387H81.4444V385.3L86.7444 378.52H81.6444V376.68H89.7444V378.38L84.4644 385.16H89.9444V387ZM96.198 387.2C92.838 387.2 90.958 385.1 90.958 381.84C90.958 378.66 92.758 376.48 96.078 376.48C99.418 376.48 101.218 378.68 101.218 381.72C101.218 381.94 101.198 382.14 101.178 382.38H93.538C93.618 384.48 94.618 385.44 96.198 385.44C97.478 385.44 98.318 384.8 98.618 383.74H100.998C100.558 385.86 98.978 387.2 96.198 387.2ZM96.078 378.24C94.658 378.24 93.758 379.06 93.538 380.7H98.638C98.418 379.06 97.498 378.24 96.078 378.24ZM117.766 387L116.666 385.88C115.426 386.76 113.966 387.2 112.386 387.2C108.986 387.2 107.306 385.4 107.306 383.3C107.306 381.5 108.106 380.28 110.306 379.38C109.326 378.3 108.926 377.34 108.926 376.16C108.926 374.2 110.426 372.56 113.086 372.56C115.766 372.56 117.266 374.2 117.266 376.16C117.266 377.86 116.206 378.84 113.646 379.78L116.706 382.9C117.166 382.18 117.526 381.24 117.726 380.1H120.046C119.726 381.84 119.086 383.3 118.186 384.42L120.726 387H117.766ZM112.566 385.24C113.506 385.24 114.426 385 115.246 384.44L111.486 380.58C110.346 381.14 109.886 381.92 109.886 383.04C109.886 384.36 111.066 385.24 112.566 385.24ZM111.386 376.1C111.386 376.88 111.586 377.56 112.506 378.58C114.086 377.96 114.806 377.1 114.806 376.1C114.806 375.02 114.126 374.4 113.086 374.4C112.066 374.4 111.386 375.02 111.386 376.1ZM137.269 387H126.889V372.76H137.269V374.98H129.609V378.7H136.629V380.78H129.609V384.78H137.269V387ZM144.92 387H141.8L137.98 376.68H140.68L143.36 384.74L146.04 376.68H148.74L144.92 387ZM154.05 387.2C150.69 387.2 148.81 385.1 148.81 381.84C148.81 378.6 150.69 376.48 154.05 376.48C157.43 376.48 159.31 378.6 159.31 381.84C159.31 385.1 157.43 387.2 154.05 387.2ZM154.05 385.24C155.77 385.24 156.73 384.12 156.73 381.84C156.73 379.56 155.77 378.44 154.05 378.44C152.35 378.44 151.39 379.56 151.39 381.84C151.39 384.12 152.35 385.24 154.05 385.24ZM163.372 387H160.792V372.76H163.372V387ZM171.385 387H168.265L164.445 376.68H167.145L169.825 384.74L172.505 376.68H175.205L171.385 387ZM180.514 387.2C177.154 387.2 175.274 385.1 175.274 381.84C175.274 378.66 177.074 376.48 180.394 376.48C183.734 376.48 185.534 378.68 185.534 381.72C185.534 381.94 185.514 382.14 185.494 382.38H177.854C177.934 384.48 178.934 385.44 180.514 385.44C181.794 385.44 182.634 384.8 182.934 383.74H185.314C184.874 385.86 183.294 387.2 180.514 387.2ZM180.394 378.24C178.974 378.24 178.074 379.06 177.854 380.7H182.954C182.734 379.06 181.814 378.24 180.394 378.24Z" fill="#0E2642"/>
<path d="M27.936 434.16C24.368 434.16 22.528 431.776 22.528 428.304C22.528 424.832 24.368 422.448 27.936 422.448C31.024 422.448 32.928 424.304 32.928 426.576H31.664C31.456 424.864 30.224 423.584 27.936 423.584C25.28 423.584 23.904 425.296 23.904 428.304C23.904 431.312 25.28 433.024 27.936 433.024C30.192 433.024 31.456 431.808 31.664 429.936H32.928C32.928 432.256 31.088 434.16 27.936 434.16ZM37.9331 434.16C35.3891 434.16 33.9811 432.528 33.9811 429.872C33.9811 427.232 35.3891 425.584 37.9331 425.584C40.4931 425.584 41.9011 427.232 41.9011 429.872C41.9011 432.528 40.4931 434.16 37.9331 434.16ZM37.9331 433.136C39.6131 433.136 40.5731 432.032 40.5731 429.872C40.5731 427.712 39.6131 426.608 37.9331 426.608C36.2691 426.608 35.3091 427.712 35.3091 429.872C35.3091 432.032 36.2691 433.136 37.9331 433.136ZM50.0219 434H48.6939V428.752C48.6939 427.376 48.1979 426.656 46.8699 426.656C45.4939 426.656 44.5979 427.728 44.5979 429.392V434H43.2699V425.744H44.5339V427.264C44.9979 426.24 45.8459 425.584 47.2379 425.584C49.1259 425.584 50.0219 426.544 50.0219 428.544V434ZM54.4628 434.08C52.8788 434.08 52.2868 433.616 52.2868 432.08V426.704H50.8788V425.744H52.2868V423.248H53.6148V425.744H55.5988V426.704H53.6148V432.112C53.6148 432.912 53.8868 433.104 54.7348 433.104L55.5988 433.072V434C55.2788 434.032 54.7508 434.08 54.4628 434.08ZM58.1916 434H56.8636V425.744H58.1916V434ZM57.5196 424.096C56.9916 424.096 56.7036 423.776 56.7036 423.36C56.7036 422.944 56.9916 422.624 57.5196 422.624C58.0476 422.624 58.3516 422.944 58.3516 423.36C58.3516 423.776 58.0476 424.096 57.5196 424.096ZM66.6469 434H65.3189V428.752C65.3189 427.376 64.8229 426.656 63.4949 426.656C62.1189 426.656 61.2229 427.728 61.2229 429.392V434H59.8949V425.744H61.1589V427.264C61.6229 426.24 62.4709 425.584 63.8629 425.584C65.7509 425.584 66.6469 426.544 66.6469 428.544V434ZM71.116 434.16C69.228 434.16 68.348 433.2 68.348 431.2V425.744H69.676V430.992C69.676 432.368 70.172 433.088 71.5 433.088C72.876 433.088 73.772 432.016 73.772 430.352V425.744H75.1V434H73.836V432.48C73.372 433.504 72.524 434.16 71.116 434.16ZM80.4331 434.16C77.8891 434.16 76.4811 432.528 76.4811 429.872C76.4811 427.232 77.8891 425.584 80.4331 425.584C82.9931 425.584 84.4011 427.232 84.4011 429.872C84.4011 432.528 82.9931 434.16 80.4331 434.16ZM80.4331 433.136C82.1131 433.136 83.0731 432.032 83.0731 429.872C83.0731 427.712 82.1131 426.608 80.4331 426.608C78.7691 426.608 77.8091 427.712 77.8091 429.872C77.8091 432.032 78.7691 433.136 80.4331 433.136ZM88.5379 434.16C86.6499 434.16 85.7699 433.2 85.7699 431.2V425.744H87.0979V430.992C87.0979 432.368 87.5939 433.088 88.9219 433.088C90.2979 433.088 91.1939 432.016 91.1939 430.352V425.744H92.5219V434H91.2579V432.48C90.7939 433.504 89.9459 434.16 88.5379 434.16ZM97.311 434.16C94.799 434.16 93.903 433.024 93.903 431.488H95.167C95.247 432.512 95.663 433.248 97.327 433.248C98.975 433.248 99.407 432.512 99.407 431.712C99.407 430.96 98.895 430.592 98.047 430.464L96.431 430.224C94.879 430 94.127 429.424 94.127 428.096C94.127 426.72 94.911 425.584 97.311 425.584C99.727 425.584 100.511 426.72 100.511 428.128H99.247C99.167 427.28 98.911 426.496 97.311 426.496C95.951 426.496 95.455 427.056 95.455 428C95.455 428.8 95.903 429.056 96.607 429.152L98.239 429.392C99.775 429.616 100.735 430.208 100.735 431.648C100.735 433.024 99.839 434.16 97.311 434.16ZM107.442 434H106.114V425.744H107.442V434ZM106.77 424.096C106.242 424.096 105.954 423.776 105.954 423.36C105.954 422.944 106.242 422.624 106.77 422.624C107.298 422.624 107.602 422.944 107.602 423.36C107.602 423.776 107.298 424.096 106.77 424.096ZM119.897 434H118.617V428.72C118.617 427.344 118.201 426.656 117.097 426.656C115.977 426.656 115.129 427.696 115.129 429.36V434H113.865V428.72C113.865 427.344 113.433 426.656 112.361 426.656C111.241 426.656 110.425 427.696 110.425 429.36V434H109.145V425.744H110.409V427.264C110.793 426.24 111.609 425.584 112.745 425.584C114.009 425.584 114.745 426.176 115.017 427.36C115.433 426.192 116.329 425.584 117.465 425.584C119.113 425.584 119.897 426.544 119.897 428.544V434ZM125.774 434.16C124.366 434.16 123.39 433.584 122.926 432.432V437.136H121.598V425.744H122.862V427.392C123.326 426.224 124.286 425.584 125.774 425.584C127.998 425.584 129.358 427.168 129.358 429.872C129.358 432.576 127.998 434.16 125.774 434.16ZM125.47 433.136C126.99 433.136 128.03 432.128 128.03 429.872C128.03 427.616 126.99 426.608 125.47 426.608C123.966 426.608 122.926 427.616 122.926 429.872C122.926 432.128 123.966 433.136 125.47 433.136ZM132.067 434H130.739V425.744H132.003V427.696C132.451 426.256 133.203 425.664 134.435 425.664C134.659 425.664 134.947 425.696 135.187 425.744V426.896L134.387 426.864C132.979 426.864 132.067 427.984 132.067 430.016V434ZM139.558 434.16C137.014 434.16 135.606 432.528 135.606 429.872C135.606 427.232 137.014 425.584 139.558 425.584C142.118 425.584 143.526 427.232 143.526 429.872C143.526 432.528 142.118 434.16 139.558 434.16ZM139.558 433.136C141.238 433.136 142.198 432.032 142.198 429.872C142.198 427.712 141.238 426.608 139.558 426.608C137.894 426.608 136.934 427.712 136.934 429.872C136.934 432.032 137.894 433.136 139.558 433.136ZM148.587 434H146.987L143.771 425.744H145.147L147.786 432.8L150.427 425.744H151.803L148.587 434ZM156.011 434.16C153.467 434.16 152.059 432.528 152.059 429.872C152.059 427.328 153.371 425.584 155.915 425.584C158.475 425.584 159.787 427.376 159.787 429.68C159.787 429.808 159.787 429.952 159.755 430.08H153.387C153.419 432.32 154.475 433.232 156.011 433.232C157.339 433.232 158.139 432.528 158.427 431.488H159.611C159.227 433.136 158.091 434.16 156.011 434.16ZM155.915 426.512C154.491 426.512 153.563 427.392 153.387 429.184H158.459C158.283 427.392 157.339 426.512 155.915 426.512ZM171.913 434H170.633V428.72C170.633 427.344 170.217 426.656 169.113 426.656C167.993 426.656 167.145 427.696 167.145 429.36V434H165.881V428.72C165.881 427.344 165.449 426.656 164.377 426.656C163.257 426.656 162.441 427.696 162.441 429.36V434H161.161V425.744H162.424V427.264C162.809 426.24 163.625 425.584 164.761 425.584C166.025 425.584 166.761 426.176 167.033 427.36C167.449 426.192 168.345 425.584 169.481 425.584C171.129 425.584 171.913 426.544 171.913 428.544V434ZM177.246 434.16C174.702 434.16 173.294 432.528 173.294 429.872C173.294 427.328 174.606 425.584 177.15 425.584C179.71 425.584 181.022 427.376 181.022 429.68C181.022 429.808 181.022 429.952 180.99 430.08H174.622C174.654 432.32 175.71 433.232 177.246 433.232C178.574 433.232 179.374 432.528 179.662 431.488H180.846C180.462 433.136 179.326 434.16 177.246 434.16ZM177.15 426.512C175.726 426.512 174.798 427.392 174.622 429.184H179.694C179.518 427.392 178.574 426.512 177.15 426.512ZM189.147 434H187.819V428.752C187.819 427.376 187.323 426.656 185.995 426.656C184.619 426.656 183.723 427.728 183.723 429.392V434H182.395V425.744H183.659V427.264C184.123 426.24 184.971 425.584 186.363 425.584C188.251 425.584 189.147 426.544 189.147 428.544V434ZM193.588 434.08C192.004 434.08 191.412 433.616 191.412 432.08V426.704H190.004V425.744H191.412V423.248H192.74V425.744H194.724V426.704H192.74V432.112C192.74 432.912 193.012 433.104 193.86 433.104L194.724 433.072V434C194.404 434.032 193.876 434.08 193.588 434.08ZM199.077 434.16C196.565 434.16 195.669 433.024 195.669 431.488H196.933C197.013 432.512 197.429 433.248 199.093 433.248C200.741 433.248 201.173 432.512 201.173 431.712C201.173 430.96 200.661 430.592 199.813 430.464L198.197 430.224C196.645 430 195.893 429.424 195.893 428.096C195.893 426.72 196.677 425.584 199.077 425.584C201.493 425.584 202.277 426.72 202.277 428.128H201.013C200.933 427.28 200.677 426.496 199.077 426.496C197.717 426.496 197.221 427.056 197.221 428C197.221 428.8 197.669 429.056 198.373 429.152L200.005 429.392C201.541 429.616 202.501 430.208 202.501 431.648C202.501 433.024 201.605 434.16 199.077 434.16ZM216.919 434H215.511L213.559 427.456L211.607 434H210.199L207.239 425.744H208.615L210.967 432.512L212.951 425.744H214.167L216.151 432.512L218.503 425.744H219.879L216.919 434ZM222.27 434H220.942V425.744H222.27V434ZM221.598 424.096C221.07 424.096 220.782 423.776 220.782 423.36C220.782 422.944 221.07 422.624 221.598 422.624C222.126 422.624 222.43 422.944 222.43 423.36C222.43 423.776 222.126 424.096 221.598 424.096ZM226.869 434.08C225.285 434.08 224.693 433.616 224.693 432.08V426.704H223.285V425.744H224.693V423.248H226.021V425.744H228.005V426.704H226.021V432.112C226.021 432.912 226.293 433.104 227.141 433.104L228.005 433.072V434C227.685 434.032 227.157 434.08 226.869 434.08ZM236.022 434H234.694V428.752C234.694 427.376 234.198 426.656 232.87 426.656C231.494 426.656 230.598 427.728 230.598 429.392V434H229.27V422.608H230.598V427.184C231.046 426.192 231.894 425.584 233.238 425.584C235.126 425.584 236.022 426.544 236.022 428.544V434ZM32.8 458H31.376L30.24 455.12H24.768L23.632 458H22.208L26.672 446.608H28.336L32.8 458ZM29.872 454.048L27.504 447.92L25.12 454.048H29.872ZM35.3356 458H33.9596V446.608H35.3356V458ZM41.1453 453.92H37.0493V452.896H41.1453V453.92ZM46.0182 458.16C43.7943 458.16 42.4342 456.576 42.4342 453.872C42.4342 451.168 43.7943 449.584 46.0182 449.584C47.4263 449.584 48.4023 450.16 48.8663 451.312V446.608H50.1943V458H48.9303V456.352C48.4663 457.52 47.4903 458.16 46.0182 458.16ZM46.3063 457.136C47.8263 457.136 48.8663 456.128 48.8663 453.872C48.8663 451.616 47.8263 450.608 46.3063 450.608C44.8023 450.608 43.7623 451.616 43.7623 453.872C43.7623 456.128 44.8023 457.136 46.3063 457.136ZM53.2229 458H51.8949V449.744H53.1589V451.696C53.6069 450.256 54.3589 449.664 55.5909 449.664C55.8149 449.664 56.1029 449.696 56.3429 449.744V450.896L55.5429 450.864C54.1349 450.864 53.2229 451.984 53.2229 454.016V458ZM58.8323 458H57.5043V449.744H58.8323V458ZM58.1603 448.096C57.6323 448.096 57.3443 447.776 57.3443 447.36C57.3443 446.944 57.6323 446.624 58.1603 446.624C58.6883 446.624 58.9923 446.944 58.9923 447.36C58.9923 447.776 58.6883 448.096 58.1603 448.096ZM64.7115 458H63.1115L59.8955 449.744H61.2715L63.9115 456.8L66.5515 449.744H67.9275L64.7115 458ZM72.1363 458.16C69.5923 458.16 68.1842 456.528 68.1842 453.872C68.1842 451.328 69.4963 449.584 72.0403 449.584C74.6003 449.584 75.9123 451.376 75.9123 453.68C75.9123 453.808 75.9123 453.952 75.8802 454.08H69.5123C69.5443 456.32 70.6003 457.232 72.1363 457.232C73.4643 457.232 74.2643 456.528 74.5523 455.488H75.7362C75.3523 457.136 74.2163 458.16 72.1363 458.16ZM72.0403 450.512C70.6163 450.512 69.6883 451.392 69.5123 453.184H74.5843C74.4083 451.392 73.4643 450.512 72.0403 450.512ZM84.0375 458H82.7095V452.752C82.7095 451.376 82.2135 450.656 80.8855 450.656C79.5095 450.656 78.6135 451.728 78.6135 453.392V458H77.2855V449.744H78.5495V451.264C79.0135 450.24 79.8615 449.584 81.2535 449.584C83.1415 449.584 84.0375 450.544 84.0375 452.544V458ZM91.0666 458H89.7386V449.744H91.0666V458ZM90.3946 448.096C89.8666 448.096 89.5786 447.776 89.5786 447.36C89.5786 446.944 89.8666 446.624 90.3946 446.624C90.9226 446.624 91.2266 446.944 91.2266 447.36C91.2266 447.776 90.9226 448.096 90.3946 448.096ZM99.5219 458H98.1939V452.752C98.1939 451.376 97.6979 450.656 96.3699 450.656C94.9939 450.656 94.0979 451.728 94.0979 453.392V458H92.7699V449.744H94.0339V451.264C94.4979 450.24 95.3459 449.584 96.7379 449.584C98.6259 449.584 99.5219 450.544 99.5219 452.544V458ZM104.311 458.16C101.799 458.16 100.903 457.024 100.903 455.488H102.167C102.247 456.512 102.663 457.248 104.327 457.248C105.975 457.248 106.407 456.512 106.407 455.712C106.407 454.96 105.895 454.592 105.047 454.464L103.431 454.224C101.879 454 101.127 453.424 101.127 452.096C101.127 450.72 101.911 449.584 104.311 449.584C106.727 449.584 107.511 450.72 107.511 452.128H106.247C106.167 451.28 105.911 450.496 104.311 450.496C102.951 450.496 102.455 451.056 102.455 452C102.455 452.8 102.903 453.056 103.607 453.152L105.239 453.392C106.775 453.616 107.735 454.208 107.735 455.648C107.735 457.024 106.839 458.16 104.311 458.16ZM110.442 458H109.114V449.744H110.442V458ZM109.77 448.096C109.242 448.096 108.954 447.776 108.954 447.36C108.954 446.944 109.242 446.624 109.77 446.624C110.298 446.624 110.602 446.944 110.602 447.36C110.602 447.776 110.298 448.096 109.77 448.096ZM115.409 457.68C113.185 457.68 111.825 456.032 111.825 453.632C111.825 451.232 113.185 449.584 115.409 449.584C116.881 449.584 117.857 450.224 118.321 451.392V449.744H119.585V457.456C119.585 460 118.225 461.296 115.777 461.296C113.457 461.296 112.273 460.128 112.273 458.432H113.489C113.601 459.696 114.449 460.384 115.841 460.384C117.361 460.384 118.257 459.568 118.257 457.744V455.952C117.793 457.104 116.817 457.68 115.409 457.68ZM115.697 456.72C117.217 456.72 118.257 455.648 118.257 453.632C118.257 451.616 117.217 450.544 115.697 450.544C114.193 450.544 113.153 451.616 113.153 453.632C113.153 455.648 114.193 456.72 115.697 456.72ZM128.038 458H126.71V452.752C126.71 451.376 126.214 450.656 124.886 450.656C123.51 450.656 122.614 451.728 122.614 453.392V458H121.286V446.608H122.614V451.184C123.062 450.192 123.91 449.584 125.254 449.584C127.142 449.584 128.038 450.544 128.038 452.544V458ZM132.478 458.08C130.894 458.08 130.302 457.616 130.302 456.08V450.704H128.894V449.744H130.302V447.248H131.63V449.744H133.614V450.704H131.63V456.112C131.63 456.912 131.902 457.104 132.75 457.104L133.614 457.072V458C133.294 458.032 132.766 458.08 132.478 458.08ZM137.967 458.16C135.455 458.16 134.559 457.024 134.559 455.488H135.823C135.903 456.512 136.319 457.248 137.983 457.248C139.631 457.248 140.063 456.512 140.063 455.712C140.063 454.96 139.551 454.592 138.703 454.464L137.087 454.224C135.535 454 134.783 453.424 134.783 452.096C134.783 450.72 135.567 449.584 137.967 449.584C140.383 449.584 141.167 450.72 141.167 452.128H139.903C139.823 451.28 139.567 450.496 137.967 450.496C136.607 450.496 136.111 451.056 136.111 452C136.111 452.8 136.559 453.056 137.263 453.152L138.895 453.392C140.431 453.616 141.391 454.208 141.391 455.648C141.391 457.024 140.495 458.16 137.967 458.16ZM143.426 458.096C142.882 458.096 142.578 457.76 142.578 457.328C142.578 456.912 142.882 456.56 143.426 456.56C143.97 456.56 144.274 456.912 144.274 457.328C144.274 457.76 143.97 458.096 143.426 458.096Z" fill="#6E7D8E"/>
<rect x="295" y="136.5" width="261" height="256" rx="8" fill="black"/>
<path d="M341 171.5L346.253 175.332L352.756 175.32L354.753 181.508L360.021 185.32L358 191.5L360.021 197.68L354.753 201.492L352.756 207.68L346.253 207.668L341 211.5L335.747 207.668L329.244 207.68L327.247 201.492L321.979 197.68L324 191.5L321.979 185.32L327.247 181.508L329.244 175.32L335.747 175.332L341 171.5Z" stroke="white" stroke-width="2" stroke-linecap="round" stroke-linejoin="round"/>
<path d="M334 191.5L339 196.5L349 186.5" stroke="white" stroke-width="2" stroke-linecap="round" stroke-linejoin="round"/>
<path d="M323.98 250.7C319.88 250.7 317.9 248.8 317.9 245.12V236.26H320.62V244.86C320.62 247.54 321.64 248.48 323.98 248.48C326.32 248.48 327.36 247.54 327.36 244.86V236.26H330.08V245.12C330.08 248.8 328.1 250.7 323.98 250.7ZM341.084 250.5H338.504V244.18C338.504 242.78 338.004 242.08 336.744 242.08C335.384 242.08 334.504 243.06 334.504 244.74V250.5H331.924V240.18H334.384V241.86C334.944 240.76 335.864 239.98 337.544 239.98C339.904 239.98 341.084 241.18 341.084 243.68V250.5ZM347.1 250.7C344.32 250.7 342.56 248.72 342.56 245.34C342.56 241.96 344.32 239.98 347.1 239.98C348.66 239.98 349.7 240.62 350.28 241.74V236.26H352.86V250.5H350.4V248.74C349.84 249.94 348.82 250.7 347.1 250.7ZM347.7 248.74C349.24 248.74 350.28 247.7 350.28 245.34C350.28 242.98 349.24 241.94 347.7 241.94C346.18 241.94 345.14 242.98 345.14 245.34C345.14 247.7 346.18 248.74 347.7 248.74ZM359.577 250.7C356.217 250.7 354.337 248.6 354.337 245.34C354.337 242.16 356.137 239.98 359.457 239.98C362.797 239.98 364.597 242.18 364.597 245.22C364.597 245.44 364.577 245.64 364.557 245.88H356.917C356.997 247.98 357.997 248.94 359.577 248.94C360.857 248.94 361.697 248.3 361.997 247.24H364.377C363.937 249.36 362.357 250.7 359.577 250.7ZM359.457 241.74C358.037 241.74 357.137 242.56 356.917 244.2H362.017C361.797 242.56 360.877 241.74 359.457 241.74ZM368.665 250.5H366.085V240.18H368.545V242.48C369.085 240.66 369.985 240.04 371.425 240.04C371.705 240.04 372.125 240.12 372.365 240.18V242.44L371.305 242.42C369.725 242.42 368.665 243.6 368.665 245.7V250.5ZM377.943 250.7C374.623 250.7 373.263 249.28 373.263 247.24H375.763C375.883 248.34 376.383 249 377.983 249C379.523 249 380.063 248.36 380.063 247.6C380.063 246.9 379.503 246.54 378.623 246.4L376.843 246.14C374.463 245.8 373.543 245 373.543 243.24C373.543 241.4 374.803 239.98 377.943 239.98C381.103 239.98 382.363 241.4 382.363 243.28H379.863C379.763 242.42 379.443 241.68 377.923 241.68C376.623 241.68 376.123 242.22 376.123 243.04C376.123 243.72 376.523 244.02 377.263 244.12L379.023 244.38C381.303 244.7 382.643 245.46 382.643 247.44C382.643 249.28 381.283 250.7 377.943 250.7ZM387.936 250.6C385.596 250.6 384.816 249.88 384.816 247.6V242.02H383.196V240.18H384.816V237.06H387.396V240.18H389.636V242.02H387.396V247.7C387.396 248.5 387.736 248.78 388.556 248.78L389.636 248.76V250.5C389.216 250.54 388.396 250.6 387.936 250.6ZM394.424 250.7C392.004 250.7 390.704 249.48 390.704 247.58C390.704 246 391.644 244.74 394.244 244.54L396.344 244.36C397.384 244.26 397.684 243.98 397.684 243.44C397.684 242.42 397.064 241.82 395.784 241.82C394.584 241.82 393.924 242.34 393.824 243.44H391.264C391.264 241.34 392.584 239.98 395.764 239.98C398.944 239.98 400.264 241.34 400.264 243.44V247.86C400.264 249.26 400.384 250.16 400.584 250.5H398.244C397.944 250.12 397.804 249.7 397.804 248.9C397.224 250.08 396.184 250.7 394.424 250.7ZM395.184 248.94C396.784 248.94 397.684 247.72 397.684 246.22V245.5C397.504 245.72 397.024 245.84 396.324 245.9L395.104 246C393.804 246.12 393.284 246.66 393.284 247.4C393.284 248.32 393.864 248.94 395.184 248.94ZM411.299 250.5H408.719V244.18C408.719 242.78 408.219 242.08 406.959 242.08C405.599 242.08 404.719 243.06 404.719 244.74V250.5H402.139V240.18H404.599V241.86C405.159 240.76 406.079 239.98 407.759 239.98C410.119 239.98 411.299 241.18 411.299 243.68V250.5ZM417.314 250.7C414.534 250.7 412.774 248.72 412.774 245.34C412.774 241.96 414.534 239.98 417.314 239.98C418.874 239.98 419.914 240.62 420.494 241.74V236.26H423.074V250.5H420.614V248.74C420.054 249.94 419.034 250.7 417.314 250.7ZM417.914 248.74C419.454 248.74 420.494 247.7 420.494 245.34C420.494 242.98 419.454 241.94 417.914 241.94C416.394 241.94 415.354 242.98 415.354 245.34C415.354 247.7 416.394 248.74 417.914 248.74ZM440.012 250.5L438.912 249.38C437.672 250.26 436.212 250.7 434.632 250.7C431.232 250.7 429.552 248.9 429.552 246.8C429.552 245 430.352 243.78 432.552 242.88C431.572 241.8 431.172 240.84 431.172 239.66C431.172 237.7 432.672 236.06 435.332 236.06C438.012 236.06 439.512 237.7 439.512 239.66C439.512 241.36 438.452 242.34 435.892 243.28L438.952 246.4C439.412 245.68 439.772 244.74 439.972 243.6H442.292C441.972 245.34 441.332 246.8 440.432 247.92L442.972 250.5H440.012ZM434.812 248.74C435.752 248.74 436.672 248.5 437.492 247.94L433.732 244.08C432.592 244.64 432.132 245.42 432.132 246.54C432.132 247.86 433.312 248.74 434.812 248.74ZM433.632 239.6C433.632 240.38 433.832 241.06 434.752 242.08C436.332 241.46 437.052 240.6 437.052 239.6C437.052 238.52 436.372 237.9 435.332 237.9C434.312 237.9 433.632 238.52 433.632 239.6ZM462.135 250.5H459.335L458.255 247.54H452.055L450.975 250.5H448.175L453.475 236.26H456.835L462.135 250.5ZM457.575 245.44L455.155 238.74L452.715 245.44H457.575ZM472.373 250.5H469.793V244.18C469.793 242.78 469.293 242.08 468.033 242.08C466.673 242.08 465.793 243.06 465.793 244.74V250.5H463.213V240.18H465.673V241.86C466.233 240.76 467.153 239.98 468.833 239.98C471.193 239.98 472.373 241.18 472.373 243.68V250.5ZM477.569 250.7C475.149 250.7 473.849 249.48 473.849 247.58C473.849 246 474.789 244.74 477.389 244.54L479.489 244.36C480.529 244.26 480.829 243.98 480.829 243.44C480.829 242.42 480.209 241.82 478.929 241.82C477.729 241.82 477.069 242.34 476.969 243.44H474.409C474.409 241.34 475.729 239.98 478.909 239.98C482.089 239.98 483.409 241.34 483.409 243.44V247.86C483.409 249.26 483.529 250.16 483.729 250.5H481.389C481.089 250.12 480.949 249.7 480.949 248.9C480.369 250.08 479.329 250.7 477.569 250.7ZM478.329 248.94C479.929 248.94 480.829 247.72 480.829 246.22V245.5C480.649 245.72 480.169 245.84 479.469 245.9L478.249 246C476.949 246.12 476.429 246.66 476.429 247.4C476.429 248.32 477.009 248.94 478.329 248.94ZM487.864 250.5H485.284V236.26H487.864V250.5ZM489.877 254.42V252.58H490.917C492.117 252.58 492.817 252 492.817 251.04C492.817 250.74 492.757 250.4 492.617 250.04L488.937 240.18H491.637L494.317 248.5L496.997 240.18H499.697L496.017 250.04C494.777 253.38 493.417 254.42 490.897 254.42H489.877ZM508.792 250.5H500.292V248.8L505.592 242.02H500.492V240.18H508.592V241.88L503.312 248.66H508.792V250.5ZM515.046 250.7C511.686 250.7 509.806 248.6 509.806 245.34C509.806 242.16 511.606 239.98 514.926 239.98C518.266 239.98 520.066 242.18 520.066 245.22C520.066 245.44 520.046 245.64 520.026 245.88H512.386C512.466 247.98 513.466 248.94 515.046 248.94C516.326 248.94 517.166 248.3 517.466 247.24H519.846C519.406 249.36 517.826 250.7 515.046 250.7ZM514.926 241.74C513.506 241.74 512.606 242.56 512.386 244.2H517.486C517.266 242.56 516.346 241.74 514.926 241.74Z" fill="white"/>
<path d="M327.656 291.804C327.656 295.34 325.912 297.5 322.248 297.5H317.944V286.108H322.248C325.912 286.108 327.656 288.284 327.656 291.804ZM326.28 291.804C326.28 288.78 324.952 287.212 322.296 287.212H319.32V296.396H322.296C324.952 296.396 326.28 294.828 326.28 291.804ZM332.668 297.66C330.124 297.66 328.715 296.028 328.715 293.372C328.715 290.828 330.028 289.084 332.572 289.084C335.132 289.084 336.444 290.876 336.444 293.18C336.444 293.308 336.444 293.452 336.411 293.58H330.044C330.076 295.82 331.132 296.732 332.668 296.732C333.996 296.732 334.796 296.028 335.084 294.988H336.267C335.884 296.636 334.748 297.66 332.668 297.66ZM332.572 290.012C331.148 290.012 330.22 290.892 330.044 292.684H335.116C334.94 290.892 333.996 290.012 332.572 290.012ZM341.449 297.66C338.905 297.66 337.497 296.028 337.497 293.372C337.497 290.828 338.809 289.084 341.353 289.084C343.913 289.084 345.225 290.876 345.225 293.18C345.225 293.308 345.225 293.452 345.193 293.58H338.825C338.857 295.82 339.913 296.732 341.449 296.732C342.777 296.732 343.577 296.028 343.865 294.988H345.049C344.665 296.636 343.529 297.66 341.449 297.66ZM341.353 290.012C339.929 290.012 339.001 290.892 338.825 292.684H343.897C343.721 290.892 342.777 290.012 341.353 290.012ZM350.774 297.66C349.366 297.66 348.39 297.084 347.926 295.932V300.636H346.598V289.244H347.862V290.892C348.326 289.724 349.286 289.084 350.774 289.084C352.998 289.084 354.358 290.668 354.358 293.372C354.358 296.076 352.998 297.66 350.774 297.66ZM350.47 296.636C351.99 296.636 353.03 295.628 353.03 293.372C353.03 291.116 351.99 290.108 350.47 290.108C348.966 290.108 347.926 291.116 347.926 293.372C347.926 295.628 348.966 296.636 350.47 296.636ZM363.003 297.66C360.779 297.66 359.419 296.076 359.419 293.372C359.419 290.668 360.779 289.084 363.003 289.084C364.411 289.084 365.387 289.66 365.851 290.812V286.108H367.179V297.5H365.915V295.852C365.451 297.02 364.475 297.66 363.003 297.66ZM363.291 296.636C364.811 296.636 365.851 295.628 365.851 293.372C365.851 291.116 364.811 290.108 363.291 290.108C361.787 290.108 360.747 291.116 360.747 293.372C360.747 295.628 361.787 296.636 363.291 296.636ZM370.207 297.5H368.879V289.244H370.207V297.5ZM369.535 287.596C369.007 287.596 368.719 287.276 368.719 286.86C368.719 286.444 369.007 286.124 369.535 286.124C370.063 286.124 370.367 286.444 370.367 286.86C370.367 287.276 370.063 287.596 369.535 287.596ZM376.087 297.5H374.487L371.271 289.244H372.647L375.286 296.3L377.927 289.244H379.303L376.087 297.5ZM383.511 297.66C380.967 297.66 379.559 296.028 379.559 293.372C379.559 290.828 380.871 289.084 383.415 289.084C385.975 289.084 387.287 290.876 387.287 293.18C387.287 293.308 387.287 293.452 387.255 293.58H380.887C380.919 295.82 381.975 296.732 383.511 296.732C384.839 296.732 385.639 296.028 385.927 294.988H387.111C386.727 296.636 385.591 297.66 383.511 297.66ZM383.415 290.012C381.991 290.012 381.063 290.892 380.887 292.684H385.959C385.783 290.892 384.839 290.012 383.415 290.012ZM393.989 297.5H392.661V289.244H393.989V297.5ZM393.317 287.596C392.789 287.596 392.501 287.276 392.501 286.86C392.501 286.444 392.789 286.124 393.317 286.124C393.845 286.124 394.149 286.444 394.149 286.86C394.149 287.276 393.845 287.596 393.317 287.596ZM402.444 297.5H401.116V292.252C401.116 290.876 400.62 290.156 399.292 290.156C397.916 290.156 397.02 291.228 397.02 292.892V297.5H395.692V289.244H396.956V290.764C397.42 289.74 398.268 289.084 399.66 289.084C401.548 289.084 402.444 290.044 402.444 292.044V297.5ZM406.885 297.58C405.301 297.58 404.709 297.116 404.709 295.58V290.204H403.301V289.244H404.709V286.748H406.037V289.244H408.021V290.204H406.037V295.612C406.037 296.412 406.309 296.604 407.157 296.604L408.021 296.572V297.5C407.701 297.532 407.173 297.58 406.885 297.58ZM412.449 297.66C409.905 297.66 408.497 296.028 408.497 293.372C408.497 290.732 409.905 289.084 412.449 289.084C415.009 289.084 416.417 290.732 416.417 293.372C416.417 296.028 415.009 297.66 412.449 297.66ZM412.449 296.636C414.129 296.636 415.089 295.532 415.089 293.372C415.089 291.212 414.129 290.108 412.449 290.108C410.785 290.108 409.825 291.212 409.825 293.372C409.825 295.532 410.785 296.636 412.449 296.636ZM421.898 300.636V299.676H422.538C423.498 299.676 424.09 299.148 424.554 297.948L421.146 289.244H422.522L425.146 296.396L427.802 289.244H429.178L425.802 297.788C424.922 299.996 424.09 300.636 422.538 300.636H421.898ZM433.386 297.66C430.842 297.66 429.434 296.028 429.434 293.372C429.434 290.732 430.842 289.084 433.386 289.084C435.946 289.084 437.354 290.732 437.354 293.372C437.354 296.028 435.946 297.66 433.386 297.66ZM433.386 296.636C435.066 296.636 436.026 295.532 436.026 293.372C436.026 291.212 435.066 290.108 433.386 290.108C431.722 290.108 430.762 291.212 430.762 293.372C430.762 295.532 431.722 296.636 433.386 296.636ZM441.491 297.66C439.603 297.66 438.723 296.7 438.723 294.7V289.244H440.051V294.492C440.051 295.868 440.547 296.588 441.875 296.588C443.251 296.588 444.147 295.516 444.147 293.852V289.244H445.475V297.5H444.211V295.98C443.747 297.004 442.899 297.66 441.491 297.66ZM448.504 297.5H447.176V289.244H448.44V291.196C448.888 289.756 449.64 289.164 450.872 289.164C451.096 289.164 451.384 289.196 451.624 289.244V290.396L450.824 290.364C449.416 290.364 448.504 291.484 448.504 293.516V297.5ZM465.826 297.5H464.418L462.466 290.956L460.514 297.5H459.106L456.146 289.244H457.522L459.874 296.012L461.858 289.244H463.074L465.058 296.012L467.41 289.244H468.786L465.826 297.5ZM472.996 297.66C470.452 297.66 469.044 296.028 469.044 293.372C469.044 290.732 470.452 289.084 472.996 289.084C475.556 289.084 476.964 290.732 476.964 293.372C476.964 296.028 475.556 297.66 472.996 297.66ZM472.996 296.636C474.676 296.636 475.636 295.532 475.636 293.372C475.636 291.212 474.676 290.108 472.996 290.108C471.332 290.108 470.372 291.212 470.372 293.372C470.372 295.532 471.332 296.636 472.996 296.636ZM479.66 297.5H478.332V289.244H479.596V291.196C480.044 289.756 480.796 289.164 482.028 289.164C482.252 289.164 482.54 289.196 482.78 289.244V290.396L481.98 290.364C480.572 290.364 479.66 291.484 479.66 293.516V297.5ZM491.302 297.5H489.766L486.838 293.484L485.27 294.988V297.5H483.942V286.108H485.27V293.5L489.606 289.244H491.142L487.734 292.572L491.302 297.5ZM494.412 297.5H493.084V290.204H491.676V289.244H493.084V288.22C493.084 286.748 493.692 286.028 495.26 286.028C495.548 286.028 496.076 286.076 496.396 286.108V287.036L495.532 287.004C494.684 287.004 494.412 287.388 494.412 288.188V289.244H496.396V290.204H494.412V297.5ZM498.895 297.5H497.567V286.108H498.895V297.5ZM504.23 297.66C501.686 297.66 500.278 296.028 500.278 293.372C500.278 290.732 501.686 289.084 504.23 289.084C506.79 289.084 508.198 290.732 508.198 293.372C508.198 296.028 506.79 297.66 504.23 297.66ZM504.23 296.636C505.91 296.636 506.87 295.532 506.87 293.372C506.87 291.212 505.91 290.108 504.23 290.108C502.566 290.108 501.606 291.212 501.606 293.372C501.606 295.532 502.566 296.636 504.23 296.636ZM518.122 297.5H516.714L514.762 290.956L512.81 297.5H511.402L508.442 289.244H509.818L512.17 296.012L514.154 289.244H515.37L517.354 296.012L519.706 289.244H521.082L518.122 297.5ZM524.78 297.66C522.268 297.66 521.372 296.524 521.372 294.988H522.636C522.716 296.012 523.132 296.748 524.796 296.748C526.444 296.748 526.876 296.012 526.876 295.212C526.876 294.46 526.364 294.092 525.516 293.964L523.9 293.724C522.348 293.5 521.596 292.924 521.596 291.596C521.596 290.22 522.38 289.084 524.78 289.084C527.196 289.084 527.98 290.22 527.98 291.628H526.716C526.636 290.78 526.38 289.996 524.78 289.996C523.42 289.996 522.924 290.556 522.924 291.5C522.924 292.3 523.372 292.556 524.076 292.652L525.708 292.892C527.244 293.116 528.204 293.708 528.204 295.148C528.204 296.524 527.308 297.66 524.78 297.66ZM320.744 321.58C319.16 321.58 318.568 321.116 318.568 319.58V314.204H317.16V313.244H318.568V310.748H319.896V313.244H321.88V314.204H319.896V319.612C319.896 320.412 320.168 320.604 321.016 320.604L321.88 320.572V321.5C321.56 321.532 321.032 321.58 320.744 321.58ZM326.308 321.66C323.764 321.66 322.356 320.028 322.356 317.372C322.356 314.732 323.764 313.084 326.308 313.084C328.868 313.084 330.276 314.732 330.276 317.372C330.276 320.028 328.868 321.66 326.308 321.66ZM326.308 320.636C327.988 320.636 328.948 319.532 328.948 317.372C328.948 315.212 327.988 314.108 326.308 314.108C324.644 314.108 323.684 315.212 323.684 317.372C323.684 319.532 324.644 320.636 326.308 320.636ZM338.413 321.66C336.525 321.66 335.645 320.7 335.645 318.7V313.244H336.973V318.492C336.973 319.868 337.469 320.588 338.797 320.588C340.173 320.588 341.069 319.516 341.069 317.852V313.244H342.397V321.5H341.133V319.98C340.669 321.004 339.821 321.66 338.413 321.66ZM350.85 321.5H349.522V316.252C349.522 314.876 349.026 314.156 347.698 314.156C346.322 314.156 345.426 315.228 345.426 316.892V321.5H344.098V313.244H345.362V314.764C345.826 313.74 346.674 313.084 348.066 313.084C349.954 313.084 350.85 314.044 350.85 316.044V321.5ZM356.087 321.66C353.639 321.66 352.231 320.028 352.231 317.372C352.231 314.732 353.639 313.084 356.087 313.084C358.615 313.084 359.687 314.732 359.687 316.188H358.487C358.327 315.1 357.655 314.108 356.087 314.108C354.519 314.108 353.559 315.212 353.559 317.372C353.559 319.532 354.519 320.636 356.087 320.636C357.463 320.636 358.295 319.884 358.487 318.492H359.687C359.687 320.108 358.519 321.66 356.087 321.66ZM364.543 321.66C361.999 321.66 360.59 320.028 360.59 317.372C360.59 314.732 361.999 313.084 364.543 313.084C367.103 313.084 368.51 314.732 368.51 317.372C368.51 320.028 367.103 321.66 364.543 321.66ZM364.543 320.636C366.223 320.636 367.183 319.532 367.183 317.372C367.183 315.212 366.223 314.108 364.543 314.108C362.879 314.108 361.919 315.212 361.919 317.372C361.919 319.532 362.879 320.636 364.543 320.636ZM373.571 321.5H371.971L368.755 313.244H370.131L372.771 320.3L375.411 313.244H376.787L373.571 321.5ZM380.996 321.66C378.452 321.66 377.044 320.028 377.044 317.372C377.044 314.828 378.356 313.084 380.9 313.084C383.46 313.084 384.772 314.876 384.772 317.18C384.772 317.308 384.772 317.452 384.74 317.58H378.372C378.404 319.82 379.46 320.732 380.996 320.732C382.324 320.732 383.124 320.028 383.412 318.988H384.596C384.212 320.636 383.076 321.66 380.996 321.66ZM380.9 314.012C379.476 314.012 378.548 314.892 378.372 316.684H383.444C383.268 314.892 382.324 314.012 380.9 314.012ZM387.473 321.5H386.145V313.244H387.409V315.196C387.857 313.756 388.609 313.164 389.841 313.164C390.065 313.164 390.353 313.196 390.593 313.244V314.396L389.793 314.364C388.385 314.364 387.473 315.484 387.473 317.516V321.5ZM397.082 321.5H395.754V313.244H397.082V321.5ZM396.41 311.596C395.882 311.596 395.594 311.276 395.594 310.86C395.594 310.444 395.882 310.124 396.41 310.124C396.938 310.124 397.242 310.444 397.242 310.86C397.242 311.276 396.938 311.596 396.41 311.596ZM405.538 321.5H404.21V316.252C404.21 314.876 403.714 314.156 402.386 314.156C401.01 314.156 400.114 315.228 400.114 316.892V321.5H398.786V313.244H400.049V314.764C400.514 313.74 401.362 313.084 402.754 313.084C404.642 313.084 405.538 314.044 405.538 316.044V321.5ZM410.871 321.66C408.327 321.66 406.919 320.028 406.919 317.372C406.919 314.828 408.231 313.084 410.775 313.084C413.335 313.084 414.647 314.876 414.647 317.18C414.647 317.308 414.647 317.452 414.615 317.58H408.247C408.279 319.82 409.335 320.732 410.871 320.732C412.199 320.732 412.999 320.028 413.287 318.988H414.471C414.087 320.636 412.951 321.66 410.871 321.66ZM410.775 314.012C409.351 314.012 408.423 314.892 408.247 316.684H413.319C413.143 314.892 412.199 314.012 410.775 314.012ZM417.693 321.5H416.365V314.204H414.957V313.244H416.365V312.22C416.365 310.748 416.973 310.028 418.541 310.028C418.829 310.028 419.357 310.076 419.677 310.108V311.036L418.813 311.004C417.965 311.004 417.693 311.388 417.693 312.188V313.244H419.677V314.204H417.693V321.5ZM422.896 321.5H421.568V314.204H420.16V313.244H421.568V312.22C421.568 310.748 422.176 310.028 423.744 310.028C424.032 310.028 424.56 310.076 424.88 310.108V311.036L424.016 311.004C423.168 311.004 422.896 311.388 422.896 312.188V313.244H424.88V314.204H422.896V321.5ZM427.379 321.5H426.051V313.244H427.379V321.5ZM426.707 311.596C426.179 311.596 425.891 311.276 425.891 310.86C425.891 310.444 426.179 310.124 426.707 310.124C427.235 310.124 427.539 310.444 427.539 310.86C427.539 311.276 427.235 311.596 426.707 311.596ZM432.618 321.66C430.17 321.66 428.762 320.028 428.762 317.372C428.762 314.732 430.17 313.084 432.618 313.084C435.146 313.084 436.218 314.732 436.218 316.188H435.018C434.858 315.1 434.186 314.108 432.618 314.108C431.05 314.108 430.09 315.212 430.09 317.372C430.09 319.532 431.05 320.636 432.618 320.636C433.994 320.636 434.826 319.884 435.018 318.492H436.218C436.218 320.108 435.05 321.66 432.618 321.66ZM438.77 321.5H437.442V313.244H438.77V321.5ZM438.098 311.596C437.57 311.596 437.282 311.276 437.282 310.86C437.282 310.444 437.57 310.124 438.098 310.124C438.626 310.124 438.93 310.444 438.93 310.86C438.93 311.276 438.626 311.596 438.098 311.596ZM444.105 321.66C441.561 321.66 440.153 320.028 440.153 317.372C440.153 314.828 441.465 313.084 444.009 313.084C446.569 313.084 447.881 314.876 447.881 317.18C447.881 317.308 447.881 317.452 447.849 317.58H441.481C441.513 319.82 442.569 320.732 444.105 320.732C445.433 320.732 446.233 320.028 446.521 318.988H447.705C447.321 320.636 446.185 321.66 444.105 321.66ZM444.009 314.012C442.585 314.012 441.657 314.892 441.481 316.684H446.553C446.377 314.892 445.433 314.012 444.009 314.012ZM456.006 321.5H454.678V316.252C454.678 314.876 454.182 314.156 452.854 314.156C451.478 314.156 450.582 315.228 450.582 316.892V321.5H449.254V313.244H450.518V314.764C450.982 313.74 451.83 313.084 453.222 313.084C455.11 313.084 456.006 314.044 456.006 316.044V321.5ZM461.243 321.66C458.795 321.66 457.387 320.028 457.387 317.372C457.387 314.732 458.795 313.084 461.243 313.084C463.771 313.084 464.843 314.732 464.843 316.188H463.643C463.483 315.1 462.811 314.108 461.243 314.108C459.675 314.108 458.715 315.212 458.715 317.372C458.715 319.532 459.675 320.636 461.243 320.636C462.619 320.636 463.451 319.884 463.643 318.492H464.843C464.843 320.108 463.675 321.66 461.243 321.66ZM467.395 321.5H466.067V313.244H467.395V321.5ZM466.723 311.596C466.195 311.596 465.907 311.276 465.907 310.86C465.907 310.444 466.195 310.124 466.723 310.124C467.251 310.124 467.555 310.444 467.555 310.86C467.555 311.276 467.251 311.596 466.723 311.596ZM472.73 321.66C470.186 321.66 468.778 320.028 468.778 317.372C468.778 314.828 470.09 313.084 472.634 313.084C475.194 313.084 476.506 314.876 476.506 317.18C476.506 317.308 476.506 317.452 476.474 317.58H470.106C470.138 319.82 471.194 320.732 472.73 320.732C474.058 320.732 474.858 320.028 475.146 318.988H476.33C475.946 320.636 474.81 321.66 472.73 321.66ZM472.634 314.012C471.21 314.012 470.282 314.892 470.106 316.684H475.178C475.002 314.892 474.058 314.012 472.634 314.012ZM480.967 321.66C478.455 321.66 477.559 320.524 477.559 318.988H478.823C478.903 320.012 479.319 320.748 480.983 320.748C482.631 320.748 483.063 320.012 483.063 319.212C483.063 318.46 482.551 318.092 481.703 317.964L480.087 317.724C478.535 317.5 477.783 316.924 477.783 315.596C477.783 314.22 478.567 313.084 480.967 313.084C483.383 313.084 484.167 314.22 484.167 315.628H482.903C482.823 314.78 482.567 313.996 480.967 313.996C479.607 313.996 479.111 314.556 479.111 315.5C479.111 316.3 479.559 316.556 480.263 316.652L481.895 316.892C483.431 317.116 484.391 317.708 484.391 319.148C484.391 320.524 483.495 321.66 480.967 321.66ZM486.426 321.596C485.882 321.596 485.578 321.26 485.578 320.828C485.578 320.412 485.882 320.06 486.426 320.06C486.97 320.06 487.274 320.412 487.274 320.828C487.274 321.26 486.97 321.596 486.426 321.596Z" fill="white"/>
</svg>
