<?xml version="1.0" encoding="utf-8"?>
<!-- Generator: Adobe Illustrator 27.5.0, SVG Export Plug-In . SVG Version: 6.00 Build 0)  -->
<svg version="1.1" xmlns="http://www.w3.org/2000/svg" xmlns:xlink="http://www.w3.org/1999/xlink" x="0px" y="0px"
	 viewBox="0 0 3415 2500" style="enable-background:new 0 0 3415 2500;" xml:space="preserve">
<g id="Background">
	<rect style="fill:#FFFFFF;" width="3415" height="2500"/>
</g>
<g id="Illustration">
	<g id="AI-Powered_Risk_Modeling_1_">
		<g>
			<g>
				<rect x="1937.163" y="1135.603" style="fill:#E2EAFF;" width="898.221" height="714.041"/>
				<g>
					<g>
						<path style="fill:#FFFFFF;" d="M2749.084,1252.799H2328.63c-1.822,0-3.299-1.478-3.299-3.299s1.478-3.299,3.299-3.299h420.454
							c1.822,0,3.299,1.478,3.299,3.299S2750.906,1252.799,2749.084,1252.799z"/>
						<path style="fill:#FFFFFF;" d="M2749.084,1341.224H2328.63c-1.822,0-3.299-1.478-3.299-3.299s1.478-3.299,3.299-3.299h420.454
							c1.822,0,3.299,1.478,3.299,3.299S2750.906,1341.224,2749.084,1341.224z"/>
						<path style="fill:#FFFFFF;" d="M2749.084,1429.65H2328.63c-1.822,0-3.299-1.478-3.299-3.299c0-1.822,1.478-3.299,3.299-3.299
							h420.454c1.822,0,3.299,1.478,3.299,3.299C2752.383,1428.172,2750.906,1429.65,2749.084,1429.65z"/>
					</g>
					<g>
						<path style="fill:#FFFFFF;" d="M2152.645,1337.926v-129.985c-71.344,0-129.18,58.196-129.18,129.985
							c0,71.788,57.836,129.984,129.18,129.984c71.344,0,129.179-58.196,129.179-129.984c0-21.699-5.291-42.152-14.635-60.135
							L2152.645,1337.926z"/>
						<path style="fill:#FFFFFF;" d="M2267.189,1277.79l-114.545-69.849c-71.344,0-129.179,58.196-129.179,129.984
							c0,71.789,57.835,129.984,129.179,129.984s129.18-58.196,129.18-129.984
							C2281.824,1316.227,2276.532,1295.774,2267.189,1277.79z"/>
						<path style="fill:#5479F7;" d="M2267.189,1277.79c-21.57-41.513-64.765-69.849-114.544-69.849v129.985L2267.189,1277.79z"/>
						
							<ellipse transform="matrix(0.7071 -0.7071 0.7071 0.7071 -315.5614 1914.0188)" style="fill:#E2EAFF;" cx="2152.644" cy="1337.926" rx="62.045" ry="62.045"/>
					</g>
				</g>
			</g>
			<path style="fill:#5479F7;" d="M2209.916,1245.066c-1.216,0-2.2-0.984-2.2-2.199v-141.828c0-0.584,0.232-1.143,0.645-1.555
				l43.958-43.958v-92.82c0-1.216,0.984-2.2,2.2-2.2s2.199,0.984,2.199,2.2v93.731c0,0.584-0.232,1.143-0.644,1.555l-43.958,43.958
				v140.917C2212.116,1244.082,2211.132,1245.066,2209.916,1245.066z"/>
			<g>
				<path style="fill:#5479F7;" d="M1779.375,1397.411c-1.216,0-2.199-0.984-2.199-2.199v-168.742c0-0.584,0.232-1.143,0.644-1.555
					l156.058-156.056V962.705c0-1.216,0.984-2.2,2.2-2.2c1.216,0,2.199,0.984,2.199,2.2v107.063c0,0.584-0.232,1.143-0.644,1.555
					l-156.058,156.056v167.831C1781.575,1396.427,1780.591,1397.411,1779.375,1397.411z"/>
				<path style="fill:#5479F7;" d="M1786.206,1170.109c-0.563,0-1.126-0.215-1.555-0.644c-0.859-0.859-0.859-2.251,0-3.11
					l120.9-120.903v-82.746c0-1.216,0.984-2.2,2.2-2.2c1.216,0,2.199,0.984,2.199,2.2v83.657c0,0.584-0.232,1.143-0.644,1.555
					l-121.545,121.547C1787.331,1169.894,1786.769,1170.109,1786.206,1170.109z"/>
			</g>
			<g>
				<rect x="2328.629" y="1575.836" style="fill:#5479F7;" width="578.495" height="46.441"/>
				<rect x="2328.629" y="1660.432" style="fill:#5479F7;" width="578.495" height="46.441"/>
				<rect x="2328.629" y="1745.03" style="fill:#5479F7;" width="578.495" height="46.441"/>
			</g>
			<path style="fill:#5479F7;" d="M3075.601,1601.255h-144.122c-1.216,0-2.199-0.984-2.199-2.2s0.984-2.2,2.199-2.2h141.923V902.805
				l-90.678-90.677h-178.967c-1.216,0-2.199-0.984-2.199-2.2c0-1.216,0.984-2.199,2.199-2.199h179.877
				c0.584,0,1.143,0.232,1.555,0.644l91.967,91.965c0.413,0.412,0.645,0.971,0.645,1.555v697.162
				C3077.801,1600.271,3076.817,1601.255,3075.601,1601.255z"/>
		</g>
		<g>
			<g>
				<path style="fill:#5479F7;" d="M1159.508,1993.749H685.293c-0.584,0-1.143-0.232-1.555-0.644l-150.54-150.542
					c-0.412-0.412-0.644-0.971-0.644-1.555v-354.191c0-1.216,0.984-2.199,2.199-2.199c1.216,0,2.2,0.984,2.2,2.199v353.281
					l149.251,149.254h473.305c1.216,0,2.199,0.984,2.199,2.2C1161.708,1992.765,1160.724,1993.749,1159.508,1993.749z"/>
				<g>
					<path style="fill:#5479F7;" d="M948.161,2052.971H663.179c-0.584,0-1.143-0.232-1.555-0.645L490.208,1880.91
						c-0.412-0.412-0.644-0.971-0.644-1.555v-392.539c0-1.216,0.984-2.199,2.199-2.199c1.216,0,2.199,0.984,2.199,2.199v391.628
						l170.128,170.128h284.071c1.216,0,2.2,0.984,2.2,2.199C950.361,2051.987,949.377,2052.971,948.161,2052.971z"/>
					<g>
						<path style="fill:#FFFFFF;" d="M929.879,2050.771c0-10.096,8.185-18.281,18.281-18.281c10.096,0,18.281,8.185,18.281,18.281
							c0,10.096-8.185,18.281-18.281,18.281C938.064,2069.052,929.879,2060.867,929.879,2050.771z"/>
						<path style="fill:#5479F7;" d="M948.161,2071.252c-11.294,0-20.481-9.187-20.481-20.481c0-11.294,9.187-20.481,20.481-20.481
							c11.292,0,20.479,9.187,20.479,20.481C968.64,2062.065,959.453,2071.252,948.161,2071.252z M948.161,2034.689
							c-8.867,0-16.082,7.215-16.082,16.082c0,8.867,7.215,16.082,16.082,16.082c8.867,0,16.08-7.215,16.08-16.082
							C964.241,2041.904,957.028,2034.689,948.161,2034.689z"/>
					</g>
				</g>
				<g>
					<path style="fill:#5479F7;" d="M1159.508,1943.918H714.157c-0.584,0-1.143-0.232-1.555-0.644l-134.991-134.991
						c-0.412-0.412-0.644-0.971-0.644-1.555v-319.912c0-1.216,0.984-2.199,2.2-2.199c1.216,0,2.199,0.984,2.199,2.199v319.001
						l133.702,133.702h444.44c1.216,0,2.199,0.984,2.199,2.2S1160.724,1943.918,1159.508,1943.918z"/>
					<g>
						<path style="fill:#FFFFFF;" d="M560.885,1808.553c0-10.096,8.185-18.281,18.281-18.281c10.096,0,18.281,8.185,18.281,18.281
							c0,10.096-8.185,18.281-18.281,18.281C569.069,1826.833,560.885,1818.649,560.885,1808.553z"/>
						<path style="fill:#5479F7;" d="M579.166,1829.032c-11.294,0-20.481-9.187-20.481-20.479c0-11.294,9.187-20.481,20.481-20.481
							c11.292,0,20.479,9.187,20.479,20.481C599.645,1819.845,590.458,1829.032,579.166,1829.032z M579.166,1792.472
							c-8.867,0-16.082,7.215-16.082,16.082c0,8.867,7.215,16.08,16.082,16.08c8.867,0,16.08-7.213,16.08-16.08
							C595.246,1799.687,588.033,1792.472,579.166,1792.472z"/>
					</g>
				</g>
				<g>
					<path style="fill:#5479F7;" d="M735.098,1888.056c-0.563,0-1.125-0.215-1.555-0.644l-92.863-92.861
						c-0.412-0.412-0.644-0.971-0.644-1.555v-306.18c0-1.216,0.984-2.199,2.2-2.199c1.216,0,2.199,0.984,2.199,2.199v305.269
						l92.219,92.217c0.859,0.859,0.859,2.251,0,3.11C736.223,1887.841,735.661,1888.056,735.098,1888.056z"/>
					<g>
						
							<ellipse transform="matrix(0.2298 -0.9732 0.9732 0.2298 -1269.2023 2168.01)" style="fill:#FFFFFF;" cx="735.097" cy="1885.857" rx="18.281" ry="18.281"/>
						<path style="fill:#5479F7;" d="M735.098,1906.337c-11.294,0-20.481-9.187-20.481-20.481c0-11.292,9.187-20.479,20.481-20.479
							c11.292,0,20.479,9.187,20.479,20.479C755.576,1897.151,746.39,1906.337,735.098,1906.337z M735.098,1869.777
							c-8.867,0-16.082,7.213-16.082,16.08c0,8.867,7.215,16.082,16.082,16.082c8.867,0,16.08-7.215,16.08-16.082
							C751.177,1876.99,743.964,1869.777,735.098,1869.777z"/>
					</g>
				</g>
			</g>
			<g>
				<path style="fill:#5479F7;" d="M406.876,2072.201c0.702,0.2,1.405,0.341,2.107,0.451c-0.253,7.324,0.608,14.536,2.476,21.425
					c-0.659,0.269-1.311,0.566-1.948,0.92c-8.551,4.758-11.626,15.547-6.868,24.098c4.758,8.551,15.547,11.626,24.098,6.868
					c0.637-0.355,1.234-0.752,1.809-1.17c4.869,5.219,10.544,9.751,16.9,13.398c-0.276,0.656-0.527,1.327-0.727,2.029
					c-2.682,9.411,2.772,19.214,12.184,21.896c9.411,2.682,19.214-2.772,21.897-12.183c0.2-0.701,0.34-1.405,0.452-2.107
					c7.324,0.252,14.536-0.607,21.424-2.475c0.268,0.658,0.566,1.311,0.921,1.948c4.758,8.552,15.547,11.626,24.098,6.868
					c8.551-4.758,11.626-15.547,6.868-24.098c-0.355-0.637-0.752-1.233-1.171-1.809c5.219-4.869,9.752-10.544,13.399-16.9
					c0.655,0.276,1.327,0.527,2.028,0.727c9.411,2.682,19.215-2.773,21.897-12.184c2.682-9.411-2.773-19.214-12.184-21.897
					c-0.702-0.2-1.404-0.34-2.107-0.452c0.252-7.323-0.607-14.535-2.476-21.425c0.659-0.268,1.311-0.565,1.948-0.92
					c8.551-4.758,11.626-15.547,6.868-24.098c-4.758-8.551-15.547-11.626-24.098-6.868c-0.637,0.354-1.234,0.752-1.809,1.17
					c-4.869-5.219-10.544-9.751-16.9-13.398c0.276-0.656,0.527-1.327,0.727-2.029c2.682-9.411-2.773-19.215-12.183-21.897
					c-9.411-2.682-19.215,2.773-21.897,12.184c-0.2,0.701-0.341,1.404-0.452,2.107c-7.323-0.252-14.536,0.608-21.424,2.475
					c-0.268-0.659-0.566-1.311-0.921-1.948c-4.758-8.551-15.547-11.626-24.098-6.868c-8.551,4.758-11.626,15.547-6.868,24.098
					c0.355,0.637,0.752,1.234,1.171,1.809c-5.22,4.869-9.752,10.544-13.399,16.9c-0.655-0.276-1.327-0.527-2.028-0.727
					c-9.411-2.682-19.214,2.773-21.897,12.183C392.011,2059.715,397.465,2069.519,406.876,2072.201z M493.196,2034.79
					c22.264,6.345,35.17,29.539,28.824,51.804c-6.345,22.265-29.54,35.17-51.804,28.824c-22.265-6.345-35.17-29.539-28.825-51.804
					C447.737,2041.349,470.931,2028.444,493.196,2034.79z"/>
			</g>
			<g>
				<path style="fill:#5479F7;" d="M345.213,1959.335c0.437,0.125,0.875,0.212,1.312,0.281c-0.157,4.561,0.379,9.053,1.542,13.343
					c-0.41,0.167-0.816,0.352-1.214,0.573c-5.326,2.963-7.24,9.682-4.277,15.008c2.963,5.326,9.683,7.241,15.008,4.277
					c0.397-0.221,0.768-0.468,1.127-0.729c3.032,3.25,6.567,6.073,10.525,8.344c-0.172,0.408-0.328,0.827-0.453,1.263
					c-1.67,5.861,1.727,11.966,7.588,13.637c5.861,1.671,11.967-1.726,13.637-7.588c0.125-0.437,0.212-0.875,0.281-1.312
					c4.561,0.157,9.053-0.378,13.343-1.541c0.167,0.41,0.352,0.816,0.573,1.213c2.963,5.325,9.682,7.24,15.008,4.277
					c5.326-2.964,7.241-9.683,4.277-15.009c-0.221-0.396-0.468-0.768-0.729-1.126c3.25-3.033,6.074-6.567,8.345-10.525
					c0.408,0.172,0.826,0.328,1.263,0.453c5.861,1.67,11.966-1.727,13.637-7.588c1.67-5.861-1.727-11.967-7.588-13.637
					c-0.437-0.125-0.875-0.212-1.312-0.282c0.157-4.561-0.378-9.052-1.542-13.343c0.41-0.167,0.816-0.352,1.213-0.573
					c5.326-2.963,7.241-9.682,4.277-15.008c-2.963-5.325-9.683-7.241-15.008-4.277c-0.397,0.221-0.769,0.468-1.127,0.729
					c-3.032-3.25-6.567-6.073-10.525-8.344c0.172-0.408,0.328-0.827,0.453-1.263c1.67-5.861-1.727-11.966-7.588-13.637
					c-5.861-1.67-11.967,1.727-13.637,7.588c-0.124,0.437-0.212,0.875-0.281,1.312c-4.561-0.157-9.053,0.378-13.343,1.541
					c-0.167-0.41-0.352-0.816-0.573-1.213c-2.963-5.326-9.683-7.241-15.008-4.277c-5.326,2.963-7.24,9.682-4.277,15.008
					c0.221,0.397,0.468,0.768,0.729,1.126c-3.251,3.032-6.074,6.567-8.345,10.525c-0.408-0.172-0.826-0.328-1.263-0.453
					c-5.861-1.67-11.966,1.727-13.637,7.588C335.955,1951.559,339.352,1957.665,345.213,1959.335z M398.971,1936.036
					c13.866,3.952,21.904,18.396,17.952,32.263c-3.952,13.866-18.397,21.903-32.263,17.952
					c-13.866-3.952-21.904-18.397-17.952-32.263C370.66,1940.121,385.105,1932.084,398.971,1936.036z"/>
			</g>
		</g>
		<g>
			<g>
				<rect x="1111.83" y="1575.836" style="fill:#FFFFFF;" width="1177.304" height="586.964"/>
				<path d="M2289.133,2165H1111.83c-1.216,0-2.2-0.984-2.2-2.199v-586.964c0-1.216,0.984-2.2,2.2-2.2h1177.303
					c1.216,0,2.199,0.984,2.199,2.2v586.964C2291.333,2164.016,2290.349,2165,2289.133,2165z M1114.029,2160.601h1172.904v-582.566
					H1114.029V2160.601z"/>
			</g>
			<rect x="1704" y="1416.926" style="fill:#5479F7;" width="150.752" height="699.364"/>
			<g>
				<rect x="1258.954" y="1848.177" style="fill:#E2EAFF;" width="94.119" height="171.994"/>
				<rect x="1416.742" y="1795.945" style="fill:#E2EAFF;" width="94.119" height="224.226"/>
				<rect x="1574.529" y="1718.465" style="fill:#E2EAFF;" width="94.119" height="301.706"/>
				<rect x="1732.316" y="1848.177" style="fill:#E2EAFF;" width="94.119" height="171.994"/>
				<rect x="1890.104" y="1784.489" style="fill:#E2EAFF;" width="94.119" height="235.682"/>
				<rect x="2047.891" y="1835.515" style="fill:#E2EAFF;" width="94.119" height="184.656"/>
			</g>
			<g>
				<path d="M1353.072,2076.828h-94.117c-1.216,0-2.2-0.984-2.2-2.2v-410.623c0-1.216,0.984-2.2,2.2-2.2h94.117
					c1.216,0,2.199,0.984,2.199,2.2v410.623C1355.272,2075.844,1354.288,2076.828,1353.072,2076.828z M1261.154,2072.429h89.719
					v-406.224h-89.719V2072.429z"/>
				<path d="M1510.86,2076.828h-94.117c-1.216,0-2.2-0.984-2.2-2.2v-410.623c0-1.216,0.984-2.2,2.2-2.2h94.117
					c1.216,0,2.199,0.984,2.199,2.2v410.623C1513.059,2075.844,1512.076,2076.828,1510.86,2076.828z M1418.942,2072.429h89.719
					v-406.224h-89.719V2072.429z"/>
				<path d="M1668.648,2076.828h-94.118c-1.216,0-2.2-0.984-2.2-2.2v-410.623c0-1.216,0.984-2.2,2.2-2.2h94.118
					c1.216,0,2.199,0.984,2.199,2.2v410.623C1670.847,2075.844,1669.863,2076.828,1668.648,2076.828z M1576.73,2072.429h89.718
					v-406.224h-89.718V2072.429z"/>
				<path style="fill:#FFFFFF;" d="M1826.435,2076.828h-94.12c-1.216,0-2.2-0.984-2.2-2.2v-410.623c0-1.216,0.984-2.2,2.2-2.2h94.12
					c1.216,0,2.2,0.984,2.2,2.2v410.623C1828.635,2075.844,1827.651,2076.828,1826.435,2076.828z M1734.515,2072.429h89.721
					v-406.224h-89.721V2072.429z"/>
				<path d="M1984.223,2076.828h-94.12c-1.216,0-2.2-0.984-2.2-2.2v-410.623c0-1.216,0.984-2.2,2.2-2.2h94.12
					c1.216,0,2.2,0.984,2.2,2.2v410.623C1986.422,2075.844,1985.438,2076.828,1984.223,2076.828z M1892.303,2072.429h89.721
					v-406.224h-89.721V2072.429z"/>
				<path d="M2142.01,2076.828h-94.12c-1.216,0-2.2-0.984-2.2-2.2v-410.623c0-1.216,0.984-2.2,2.2-2.2h94.12
					c1.216,0,2.199,0.984,2.199,2.2v410.623C2144.21,2075.844,2143.226,2076.828,2142.01,2076.828z M2050.09,2072.429h89.721
					v-406.224h-89.721V2072.429z"/>
			</g>
		</g>
		<g>
			<g>
				<g>
					<ellipse style="fill:#FFFFFF;" cx="918.043" cy="501.935" rx="188.812" ry="164.736"/>
					<path d="M918.042,668.869c-105.323,0-191.01-74.887-191.01-166.934c0-92.049,85.687-166.936,191.01-166.936
						c105.326,0,191.012,74.887,191.012,166.936C1109.055,593.983,1023.368,668.869,918.042,668.869z M918.042,339.399
						c-102.898,0-186.611,72.913-186.611,162.537c0,89.622,83.713,162.535,186.611,162.535s186.613-72.913,186.613-162.535
						C1104.656,412.312,1020.941,339.399,918.042,339.399z"/>
				</g>
				<g>
					<path style="fill:#FFFFFF;" d="M1080.978,420.816c-24.66-5.188-61.607-9.06-111.923-4.429
						c-63.116,5.809-113.405,55.996-119.309,119.103c-2.412,25.778-3.33,56.355-1.266,91.645
						c4.416,75.529,61.253,137.917,136.188,148.354c18.963,2.641,40.704,4.533,65.602,5.311
						c40.612,1.269,75.577-28.34,80.871-68.626c7.939-60.411,13.981-153.106-4.018-244.914
						C1122.546,443.911,1104.262,425.714,1080.978,420.816z"/>
					<path d="M1052.812,783.038c-0.87,0-1.736-0.013-2.612-0.041c-23.578-0.735-45.728-2.528-65.835-5.331
						c-75.529-10.516-133.599-73.77-138.08-150.403c-1.873-32.009-1.446-62.955,1.27-91.978
						c6.012-64.248,57.024-115.172,121.298-121.09c42.165-3.879,80.04-2.378,112.579,4.468l0,0
						c24.334,5.121,43.116,24.029,47.85,48.175c17.97,91.667,12.115,184.167,4.038,245.622
						C1127.98,753.115,1093.604,783.038,1052.812,783.038z M1012.785,416.494c-13.917,0-28.439,0.694-43.529,2.083
						c-62.167,5.722-111.508,54.977-117.32,117.116c-2.696,28.804-3.119,59.525-1.261,91.312
						c4.358,74.545,60.839,136.076,134.295,146.305c19.952,2.779,41.945,4.56,65.367,5.29c39.673,1.297,73.463-27.44,78.622-66.712
						c8.033-61.131,13.861-153.122-3.995-244.205c-4.393-22.408-21.836-39.961-44.439-44.716l0,0
						C1060.029,418.657,1037.355,416.494,1012.785,416.494z"/>
				</g>
				<path style="fill:#E2EAFF;" d="M833.821,704.503h55.87c26.813,0,48.55-21.737,48.55-48.55V554.869
					c0-26.814-21.737-48.55-48.55-48.55h-55.87c-26.813,0-48.549,21.736-48.549,48.55v101.084
					C785.271,682.766,807.008,704.503,833.821,704.503z"/>
			</g>
			<g>
				<g>
					<path style="fill:#FFFFFF;" d="M441.391,1405.902l287.84-334.319l-74.405-99.265c-24.275-32.386-71.651-35.406-99.976-6.496
						c-69.26,70.691-181.402,206.859-208.384,369.561L441.391,1405.902z"/>
					<path d="M441.389,1408.101c-0.455,0-0.917-0.142-1.31-0.434l-94.924-70.518c-0.663-0.492-0.993-1.312-0.858-2.127
						c27.347-164.897,142.672-303.061,208.984-370.741c13.983-14.273,33.435-21.695,53.321-20.386
						c19.839,1.312,38.055,11.191,49.983,27.103l74.406,99.266c0.621,0.825,0.582,1.972-0.092,2.754l-287.841,334.318
						C442.624,1407.839,442.01,1408.101,441.389,1408.101z M348.858,1334.419l92.203,68.497l285.351-331.427l-73.345-97.853
						c-11.159-14.885-28.198-24.124-46.755-25.35c-18.608-1.252-36.805,5.722-49.891,19.076
						C490.65,1034.49,376.402,1171.292,348.858,1334.419z"/>
				</g>
				<g>
					<g>
						<path style="fill:#FFFFFF;" d="M1580.426,1249.392c0,0-195.77-258.594-319.266-318.549c0,0-48.489-35.372-110.293,87.926
							v82.743c0,0,214.78,288.156,357.051,310.753L1580.426,1249.392z"/>
						<path d="M1507.917,1414.464c-0.114,0-0.23-0.009-0.346-0.028c-59.488-9.449-137.921-64.796-233.121-164.502
							c-70.754-74.105-124.81-146.386-125.347-147.108c-0.284-0.38-0.436-0.84-0.436-1.314v-82.744c0-0.341,0.079-0.679,0.234-0.986
							c34.041-67.914,64.351-87.79,83.784-92.502c17.205-4.176,28.035,2.597,29.593,3.66
							c122.563,59.643,317.942,316.538,319.901,319.126c0.485,0.638,0.582,1.491,0.256,2.221l-72.509,162.872
							C1509.569,1413.961,1508.776,1414.464,1507.917,1414.464z M1153.067,1100.776c10.914,14.488,216.797,285.39,353.534,309.039
							l71.287-160.127c-13.702-17.925-200.015-259.739-317.687-316.868c-0.118-0.056-0.23-0.125-0.335-0.202
							c-0.4-0.286-10.063-7.03-26.328-3.02c-18.447,4.554-47.363,23.817-80.471,89.69V1100.776z"/>
					</g>
					
						<ellipse transform="matrix(0.7071 -0.7071 0.7071 0.7071 -490.4332 1486.757)" style="fill:#E2EAFF;" cx="1549.458" cy="1335.384" rx="90.386" ry="90.386"/>
					<g>
						<g>
							<path style="fill:#FFFFFF;" d="M1734.319,954.997l-72.205,366.982c-6.003,30.507-36.957,49.228-66.763,40.379l-82.231-24.416
								c-29.715-8.823-45.452-41.247-33.997-70.051l138.172-347.454c12.19-30.655,46.659-45.931,77.557-34.372l1.232,0.461
								C1723.867,896.919,1740.045,925.892,1734.319,954.997z"/>
							<path d="M1610.332,1366.731c-5.241,0-10.499-0.748-15.607-2.264l-82.231-24.416c-14.754-4.38-27.071-14.834-33.79-28.68
								c-6.721-13.846-7.314-29.99-1.628-44.291l138.175-347.455c12.538-31.528,48.585-47.509,80.373-35.62l1.233,0.462
								c28.918,10.817,45.582,40.659,39.621,70.956l-72.206,366.982c-2.981,15.145-12.267,28.415-25.477,36.404
								C1630.145,1364.04,1620.271,1366.731,1610.332,1366.731z M1673.876,884.467c-23.297,0-45.492,14.041-54.535,36.782
								l-138.174,347.455c-5.233,13.156-4.687,28.007,1.495,40.747c6.182,12.737,17.512,22.354,31.083,26.381l82.231,24.416
								c13.614,4.045,28.392,2.144,40.543-5.202c12.153-7.35,20.696-19.557,23.436-33.491l72.206-366.982l2.159,0.425l-2.159-0.425
								c5.544-28.175-9.954-55.927-36.848-65.986l-1.233-0.462C1687.449,885.644,1680.614,884.467,1673.876,884.467z"/>
						</g>
						<path d="M1683.481,987.774c-6.279,0-12.555-0.814-18.634-2.487c-22.053-6.068-40.603-23.192-48.413-44.689
							c-0.417-1.143,0.174-2.404,1.314-2.818c1.149-0.415,2.404,0.172,2.818,1.314c7.333,20.18,24.747,36.256,45.449,41.952
							c20.706,5.694,43.889,0.793,60.51-12.798c0.939-0.769,2.324-0.632,3.095,0.311c0.769,0.941,0.629,2.326-0.311,3.095
							C1716.483,982.142,1699.984,987.774,1683.481,987.774z"/>
					</g>
					<g>
						<g>
							<path style="fill:#FFFFFF;" d="M1858.131,665.628c0,0-0.581,53.128-17.296,118.409
								c-14.224,55.556-67.796,92.253-124.572,84.179c-8.181-1.163-16.729-2.712-25.581-4.732
								c-51.849-11.835-84.005-63.838-71.823-115.607c14.53-61.749,32.354-139.038,33.822-152.694l68.922,28.519L1858.131,665.628z"
								/>
							<path d="M1732.047,871.537c-5.318,0-10.691-0.374-16.093-1.143c-8.592-1.222-17.261-2.827-25.763-4.766
								c-25.548-5.832-47.275-21.319-61.178-43.612c-13.981-22.416-18.348-48.926-12.297-74.644
								c14.606-62.07,32.323-138.901,33.777-152.424c0.073-0.689,0.468-1.304,1.063-1.658c0.597-0.354,1.323-0.406,1.965-0.14
								l68.922,28.521l136.334,41.855c0.93,0.286,1.564,1.151,1.553,2.126c-0.006,0.535-0.775,54.142-17.364,118.931
								C1829.704,836.377,1783.594,871.537,1732.047,871.537z M1654.469,598.302c-3.054,19.431-19.654,91.362-33.47,150.078
								c-5.78,24.566-1.609,49.891,11.747,71.306c13.279,21.291,34.028,36.084,58.425,41.653c8.384,1.912,16.93,3.493,25.402,4.698
								c55.559,7.922,108.06-27.586,122.131-82.546c14.836-57.937,16.92-106.818,17.188-116.25l-134.938-41.436L1654.469,598.302z"
								/>
						</g>
						<g>
							<g>
								<g>
									<path style="fill:#FFFFFF;" d="M1811.023,753.305l15.417,4.527c7.398,2.172,15.157-2.064,17.329-9.463l22.006-74.957
										l-42.209-12.392l-22.005,74.956C1799.388,743.374,1803.625,751.132,1811.023,753.305z"/>
									<path d="M1830.364,760.598c-1.504,0-3.031-0.213-4.543-0.655l-15.418-4.53c-4.141-1.216-7.563-3.972-9.631-7.758
										c-2.068-3.789-2.539-8.156-1.323-12.297l22.006-74.958c0.165-0.561,0.546-1.033,1.057-1.312
										c0.511-0.281,1.117-0.342,1.673-0.18l42.21,12.394c1.166,0.344,1.834,1.566,1.493,2.73l-22.006,74.956
										C1843.812,756.023,1837.351,760.598,1830.364,760.598z M1825.056,663.749l-21.385,72.846
										c-0.885,3.016-0.544,6.195,0.962,8.951c1.506,2.758,3.995,4.764,7.009,5.647c0,0,0.002,0,0.002,0.002l15.416,4.528
										c6.22,1.819,12.77-1.751,14.6-7.975l21.385-72.844L1825.056,663.749z"/>
								</g>
								<g>
									<path style="fill:#FFFFFF;" d="M1819.627,653.259c-4.35,14.816,4.135,30.354,18.952,34.704
										c14.817,4.35,30.354-4.135,34.704-18.952c4.35-14.817-4.135-30.354-18.951-34.704
										C1839.515,629.957,1823.977,638.442,1819.627,653.259z"/>
									<path d="M1846.441,691.299c-2.805,0-5.656-0.395-8.48-1.224c-7.73-2.27-14.114-7.415-17.974-14.484
										c-3.862-7.071-4.738-15.223-2.47-22.951c4.685-15.957,21.482-25.125,37.432-20.444
										c15.957,4.685,25.127,21.477,20.444,37.435C1871.538,682.763,1859.482,691.299,1846.441,691.299z M1846.42,635.361
										c-4.257,0-8.472,1.068-12.312,3.164c-6.038,3.297-10.43,8.751-12.368,15.352c-1.94,6.603-1.19,13.564,2.107,19.604
										c3.297,6.04,8.751,10.433,15.352,12.37c6.603,1.94,13.564,1.188,19.604-2.107c6.038-3.297,10.431-8.751,12.368-15.352
										c1.94-6.603,1.19-13.564-2.107-19.604c-3.297-6.04-8.751-10.433-15.352-12.37
										C1851.309,635.711,1848.856,635.361,1846.42,635.361z"/>
								</g>
							</g>
							<g>
								<g>
									<path style="fill:#FFFFFF;" d="M1752.946,736.255l15.417,4.526c7.398,2.172,15.157-2.065,17.329-9.464l22.005-74.956
										l-42.209-12.392l-22.006,74.956C1741.311,726.324,1745.548,734.083,1752.946,736.255z"/>
									<path d="M1772.287,743.548c-1.504,0-3.031-0.213-4.543-0.655l-15.416-4.526c-4.143-1.216-7.563-3.974-9.634-7.763
										c-2.068-3.789-2.539-8.156-1.323-12.297l22.006-74.956c0.344-1.166,1.564-1.836,2.73-1.493l42.21,12.392
										c0.561,0.165,1.033,0.546,1.312,1.057c0.279,0.513,0.344,1.115,0.181,1.673l-22.006,74.956
										C1785.735,738.973,1779.274,743.548,1772.287,743.548z M1766.979,646.7l-21.385,72.844
										c-0.885,3.016-0.543,6.195,0.962,8.953s3.995,4.764,7.009,5.647l0,0l15.416,4.526c6.229,1.839,12.774-1.748,14.602-7.973
										l21.385-72.844L1766.979,646.7z"/>
								</g>
								<g>
									<path style="fill:#FFFFFF;" d="M1761.55,636.208c-4.35,14.817,4.135,30.354,18.952,34.704
										c14.816,4.35,30.354-4.135,34.704-18.952c4.35-14.816-4.135-30.354-18.952-34.704
										C1781.438,612.907,1765.9,621.392,1761.55,636.208z"/>
									<path d="M1788.42,674.259c-2.853,0-5.722-0.41-8.536-1.235c-7.731-2.27-14.114-7.415-17.976-14.484
										c-3.862-7.071-4.738-15.223-2.47-22.951v-0.002c4.689-15.955,21.48-25.118,37.435-20.442
										c7.73,2.27,14.114,7.415,17.974,14.484c3.862,7.071,4.738,15.223,2.47,22.951c-2.27,7.731-7.413,14.114-14.484,17.974
										C1798.338,673.008,1793.404,674.259,1788.42,674.259z M1763.661,636.826c-1.94,6.603-1.19,13.564,2.109,19.604
										c3.297,6.04,8.751,10.433,15.351,12.37c6.603,1.937,13.564,1.188,19.602-2.107c6.04-3.297,10.433-8.751,12.37-15.352
										c1.94-6.603,1.19-13.564-2.107-19.604c-3.297-6.04-8.751-10.433-15.352-12.37c-13.629-4.004-27.973,3.834-31.975,17.461
										V636.826z"/>
								</g>
							</g>
							<g>
								<g>
									<path style="fill:#FFFFFF;" d="M1714.838,475.338l-4.408-1.453c-10.32-3.401-21.443,2.207-24.844,12.527l-34.632,117.818
										l41.78,13.77l34.632-117.818C1730.767,489.863,1725.158,478.74,1714.838,475.338z"/>
									<path d="M1692.735,620.201c-0.232,0-0.464-0.036-0.689-0.109l-41.78-13.771c-1.126-0.372-1.755-1.572-1.42-2.711
										l34.632-117.818c3.796-11.52,16.187-17.774,27.64-13.996l4.408,1.452h0.002c11.453,3.776,17.703,16.168,13.93,27.623
										l-34.612,117.752c-0.168,0.571-0.561,1.05-1.087,1.327C1693.439,620.117,1693.087,620.201,1692.735,620.201z
										 M1653.666,602.809l37.6,12.392l33.992-115.638c3.035-9.219-1.957-19.119-11.109-22.135h0.002l-4.408-1.452
										c-9.157-3.018-19.053,1.974-22.066,11.124L1653.666,602.809z"/>
								</g>
								<g>
									<path style="fill:#FFFFFF;" d="M1694.869,719.205l15.417,4.526c7.398,2.172,15.157-2.065,17.329-9.463l22.005-74.956
										l-42.209-12.392l-22.005,74.956C1683.234,709.274,1687.47,717.033,1694.869,719.205z"/>
									<path d="M1714.21,726.497c-1.504,0-3.031-0.213-4.543-0.655l-15.416-4.526c-8.551-2.511-13.466-11.509-10.957-20.06
										l22.006-74.955c0.165-0.561,0.546-1.033,1.057-1.312c0.511-0.281,1.117-0.344,1.673-0.18l42.208,12.392
										c1.166,0.344,1.834,1.566,1.493,2.73l-22.004,74.956C1727.659,721.922,1721.198,726.497,1714.21,726.497z M1708.903,629.65
										l-21.385,72.844c-0.885,3.016-0.543,6.195,0.962,8.953c1.506,2.758,3.995,4.764,7.009,5.647l0,0l15.416,4.526
										c6.229,1.83,12.774-1.748,14.602-7.973l21.383-72.844L1708.903,629.65z"/>
								</g>
								<g>
									<path style="fill:#FFFFFF;" d="M1703.473,619.158c-4.349,14.817,4.135,30.354,18.952,34.704
										c14.817,4.35,30.354-4.135,34.704-18.951c4.35-14.817-4.135-30.354-18.952-34.704
										C1723.36,595.857,1707.823,604.342,1703.473,619.158z"/>
									<path d="M1730.342,657.208c-2.853,0-5.722-0.41-8.536-1.235c-15.957-4.685-25.127-21.478-20.444-37.433
										c2.27-7.731,7.415-14.114,14.484-17.976c7.075-3.862,15.225-4.736,22.951-2.47c15.957,4.687,25.127,21.48,20.444,37.435
										c-2.271,7.731-7.415,14.114-14.484,17.974C1740.259,655.958,1735.327,657.208,1730.342,657.208z M1730.266,601.26
										c-4.257,0-8.472,1.068-12.312,3.166c-6.04,3.297-10.433,8.751-12.37,15.352c-1.94,6.603-1.19,13.564,2.107,19.604
										c3.297,6.038,8.751,10.431,15.352,12.368c6.609,1.944,13.567,1.19,19.604-2.107c6.04-3.297,10.433-8.751,12.37-15.352
										c4.002-13.629-3.832-27.973-17.461-31.975C1735.155,601.61,1732.702,601.26,1730.266,601.26z"/>
								</g>
								<g>
									<path style="fill:#FFFFFF;" d="M1645.017,603.24c-4.35,14.817,4.135,30.354,18.951,34.704
										c14.817,4.35,30.354-4.135,34.704-18.952c4.35-14.816-4.135-30.354-18.952-34.704
										C1664.904,579.938,1649.366,588.423,1645.017,603.24z"/>
									<path d="M1671.887,641.289c-2.853,0-5.722-0.41-8.536-1.235c-7.731-2.27-14.114-7.413-17.976-14.484
										c-3.86-7.069-4.736-15.22-2.466-22.951l-0.002,0.002c2.271-7.731,7.413-14.114,14.484-17.976
										c7.071-3.862,15.223-4.734,22.949-2.47c15.957,4.687,25.127,21.48,20.444,37.435c-2.27,7.73-7.413,14.114-14.484,17.974
										C1681.804,640.039,1676.87,641.289,1671.887,641.289z M1671.809,585.341c-4.257,0-8.47,1.068-12.312,3.166
										c-6.038,3.297-10.431,8.751-12.368,15.352c0,0,0,0.002-0.002,0.002c-1.938,6.601-1.19,13.562,2.109,19.602
										c3.297,6.038,8.751,10.43,15.351,12.368c6.603,1.942,13.564,1.188,19.602-2.107c6.04-3.297,10.433-8.751,12.37-15.352
										c4.002-13.629-3.832-27.973-17.461-31.975C1676.698,585.692,1674.245,585.341,1671.809,585.341z M1645.018,603.24h0.021
										H1645.018z"/>
								</g>
							</g>
						</g>
						<path d="M1648.354,689.61c-1.207,0-2.191-0.975-2.2-2.185c-0.009-1.214,0.969-2.206,2.184-2.215l39.505-0.277
							c0.004,0,0.011,0,0.015,0c1.207,0,2.191,0.975,2.199,2.184c0.009,1.214-0.969,2.206-2.184,2.215l-39.505,0.277
							C1648.364,689.61,1648.358,689.61,1648.354,689.61z"/>
						<g>
							<path style="fill:#FFFFFF;" d="M1734.919,687.834c5.131,1.023,10.262,2.046,15.393,3.068L1734.919,687.834z"/>
							<path d="M1750.316,693.103c-0.142,0-0.288-0.013-0.432-0.043l-15.394-3.069c-1.192-0.238-1.965-1.396-1.727-2.588
								c0.236-1.188,1.379-1.972,2.588-1.725l15.392,3.069c1.192,0.236,1.965,1.394,1.727,2.586
								C1752.261,692.379,1751.342,693.103,1750.316,693.103z"/>
						</g>
						<path d="M1654.608,768c-0.818,0-1.602-0.458-1.983-1.244c-0.528-1.093-0.071-2.408,1.025-2.936
							c16.428-7.937,31.156-18.636,43.78-31.805c0.614-0.638,1.549-0.849,2.374-0.531c8.596,3.293,17.482,6.697,26.654,7.958
							c7.045,0.964,17.257,0.986,25.973-4.388c1.031-0.638,2.389-0.314,3.026,0.72c0.636,1.033,0.316,2.389-0.719,3.026
							c-9.829,6.055-21.134,6.053-28.877,5c-9.18-1.261-17.867-4.474-26.272-7.69c-12.759,13.066-27.563,23.718-44.027,31.67
							C1655.255,767.929,1654.928,768,1654.608,768z"/>
					</g>
				</g>
				<g>
					<g>
						<path style="fill:#FFFFFF;" d="M844.775,882.1h129.886c10.187,0,18.444-8.258,18.444-18.444v-40.728
							c0-10.187-8.258-18.444-18.444-18.444H844.775c-10.186,0-18.444,8.258-18.444,18.444v40.728
							C826.331,873.842,834.588,882.1,844.775,882.1z"/>
						<path d="M974.661,884.3H844.775c-11.384,0-20.644-9.26-20.644-20.644v-40.728c0-11.384,9.26-20.644,20.644-20.644h129.885
							c11.384,0,20.644,9.26,20.644,20.644v40.728C995.305,875.04,986.045,884.3,974.661,884.3z M844.775,806.683
							c-8.957,0-16.245,7.288-16.245,16.245v40.728c0,8.957,7.288,16.245,16.245,16.245h129.885c8.957,0,16.245-7.288,16.245-16.245
							v-40.728c0-8.957-7.288-16.245-16.245-16.245H844.775z"/>
					</g>
					<g>
						<path style="fill:#FFFFFF;" d="M710.481,902.679h430.975c49.669,0,88.491,42.864,83.589,92.29l-42.361,427.078
							c-4.415,44.506-41.853,78.414-86.577,78.414H755.83c-44.724,0-82.162-33.909-86.577-78.414l-42.361-427.078
							C621.99,945.542,660.812,902.679,710.481,902.679z"/>
						<path d="M1096.107,1502.661H755.83c-46.059,0-84.22-34.563-88.765-80.399l-42.362-427.076
							c-2.397-24.175,5.58-48.368,21.89-66.374c16.31-18.006,39.596-28.334,63.889-28.334h430.975
							c24.291,0,47.578,10.327,63.887,28.332c16.31,18.007,24.287,42.201,21.89,66.377l-42.362,427.076
							C1180.326,1468.098,1142.166,1502.661,1096.107,1502.661z M710.482,904.877c-23.054,0-45.152,9.799-60.628,26.886
							c-15.476,17.089-23.048,40.047-20.773,62.989l42.362,427.076c4.322,43.574,40.601,76.433,84.387,76.433h340.277
							c43.786,0,80.066-32.86,84.387-76.433l42.362-427.076c2.275-22.943-5.297-45.902-20.773-62.989s-37.574-26.886-60.626-26.886
							H710.482z"/>
					</g>
				</g>
				<g>
					
						<ellipse transform="matrix(0.1222 -0.9925 0.9925 0.1222 -990.6368 1591.2528)" style="fill:#E2EAFF;" cx="404.26" cy="1355.66" rx="67.06" ry="67.06"/>
					<g>
						<path style="fill:#FFFFFF;" d="M880.744,1344.87c0,0-267.437-38.937-427.21-22.914c-27.167,2.724-49.596,22.203-56.068,48.728
							c-2.613,10.71-4.933,22.963-6.265,36.197c-3.923,38.971,21.498,74.965,59.596,84.056
							c90.244,21.533,272.614,50.761,412.483-19.087L880.744,1344.87z"/>
						<path d="M650.539,1518.066c-78.01,0-150.714-13.171-200.253-24.992c-38.956-9.294-65.298-46.446-61.275-86.415
							c1.207-11.986,3.331-24.266,6.317-36.498c6.67-27.333,29.973-47.584,57.987-50.394
							c158.211-15.863,425.068,22.536,427.746,22.925c1.194,0.174,2.026,1.278,1.86,2.477l-17.463,126.979
							c-0.099,0.717-0.546,1.343-1.196,1.667C797.765,1507.026,721.929,1518.066,650.539,1518.066z M542.24,1320.322
							c-31.436,0-61.542,1.121-88.488,3.823c-26.16,2.623-47.923,21.533-54.15,47.06c-2.938,12.033-5.028,24.111-6.214,35.897
							c-3.804,37.787,21.097,72.908,57.92,81.694c94.053,22.442,272.173,49.822,409.95-18.399l17.008-123.659
							C857.109,1343.761,685.931,1320.322,542.24,1320.322z"/>
					</g>
				</g>
				<g>
					<polygon style="fill:#5479F7;" points="710.521,1667.725 1192.208,1667.725 1344.965,1155.325 863.279,1155.325 					"/>
					<g>
						<g>
							<path style="fill:#FFFFFF;" d="M932.493,1395.669l1.187-5.304c2.324-10.39-4.215-20.697-14.604-23.021l-109.484-24.372
								l-9.603,42.929l109.484,24.372C919.862,1412.597,930.169,1406.058,932.493,1395.669z"/>
							<g>
								<path style="fill:#FFFFFF;" d="M792.502,1390.339c15.07,3.371,30.018-6.113,33.389-21.182
									c3.371-15.069-6.112-30.019-21.182-33.389c-15.07-3.371-30.018,6.112-33.39,21.182
									C767.948,1372.019,777.432,1386.968,792.502,1390.339z"/>
								<path d="M798.662,1393.224c-2.208,0-4.433-0.245-6.641-0.739l0,0c-16.228-3.63-26.478-19.787-22.848-36.015
									c3.63-16.23,19.804-26.474,36.015-22.85c7.864,1.759,14.57,6.474,18.885,13.277s5.722,14.877,3.963,22.74
									c-1.757,7.862-6.472,14.568-13.275,18.883C809.869,1391.624,804.318,1393.224,798.662,1393.224z M792.983,1388.194
									c6.712,1.501,13.612,0.299,19.422-3.387c5.81-3.686,9.838-9.415,11.339-16.129c1.501-6.717,0.301-13.614-3.385-19.424
									c-3.686-5.81-9.415-9.838-16.131-11.341c-13.859-3.102-27.661,5.656-30.763,19.519
									C770.365,1371.292,779.12,1385.092,792.983,1388.194L792.983,1388.194z"/>
							</g>
						</g>
						<g>
							<path style="fill:#FFFFFF;" d="M900.384,1450.569l1.186-5.304c2.324-10.39-4.214-20.697-14.605-23.021l-90.587-20.203
								l-9.603,42.929l90.587,20.203C887.752,1467.497,898.059,1460.958,900.384,1450.569z"/>
							<g>
								<path style="fill:#FFFFFF;" d="M779.288,1449.407c15.069,3.371,30.018-6.112,33.389-21.182
									c3.371-15.07-6.113-30.018-21.182-33.389c-15.069-3.371-30.018,6.113-33.389,21.182
									C754.735,1431.087,764.219,1446.036,779.288,1449.407z"/>
								<path d="M785.394,1452.283c-2.174,0-4.38-0.236-6.586-0.73c0,0,0,0-0.002,0c-7.859-1.757-14.565-6.472-18.883-13.274
									c-4.315-6.803-5.722-14.879-3.963-22.741c1.757-7.861,6.472-14.568,13.275-18.883c6.805-4.315,14.877-5.724,22.74-3.965
									c16.228,3.63,26.478,19.787,22.848,36.015C811.688,1442.724,799.197,1452.283,785.394,1452.283z M779.767,1447.261
									c13.863,3.097,27.664-5.653,30.765-19.516c3.099-13.861-5.656-27.662-19.519-30.763c-6.706-1.495-13.609-0.297-19.422,3.387
									c-5.81,3.686-9.838,9.414-11.339,16.129c-1.502,6.715-0.299,13.614,3.387,19.424c3.686,5.81,9.415,9.838,16.129,11.339
									H779.767z"/>
							</g>
						</g>
						<g>
							<path style="fill:#FFFFFF;" d="M926.461,1332.355l1.186-5.304c2.324-10.39-4.214-20.697-14.605-23.021l-90.587-20.203
								l-9.603,42.93l90.587,20.203C913.83,1349.283,924.137,1342.745,926.461,1332.355z"/>
							<g>
								<path style="fill:#FFFFFF;" d="M805.366,1331.193c15.069,3.371,30.018-6.113,33.389-21.182
									c3.371-15.069-6.112-30.018-21.182-33.389c-15.069-3.371-30.018,6.113-33.389,21.182
									C780.813,1312.874,790.297,1327.822,805.366,1331.193z"/>
								<path d="M811.473,1334.069c-2.174,0-4.38-0.236-6.586-0.73c-7.864-1.757-14.57-6.472-18.885-13.274
									s-5.722-14.879-3.963-22.741c1.757-7.861,6.472-14.568,13.274-18.883c6.803-4.317,14.881-5.726,22.738-3.965
									c7.864,1.757,14.57,6.472,18.885,13.274c4.315,6.803,5.724,14.879,3.965,22.741
									C837.766,1324.511,825.276,1334.069,811.473,1334.069z M811.419,1278.138c-4.831,0-9.571,1.366-13.749,4.017
									c-5.81,3.686-9.838,9.414-11.339,16.129c-1.501,6.717-0.301,13.614,3.385,19.424c3.686,5.81,9.415,9.838,16.129,11.339
									c13.867,3.093,27.662-5.656,30.765-19.516c1.501-6.714,0.298-13.612-3.387-19.424c-3.686-5.81-9.415-9.838-16.129-11.339
									C815.208,1278.347,813.307,1278.138,811.419,1278.138z"/>
							</g>
						</g>
						<g>
							<path style="fill:#FFFFFF;" d="M866.47,1510.514l3.508-15.679c1.683-7.525-3.052-14.99-10.577-16.673l-76.236-17.054
								l-9.603,42.929l76.235,17.053C857.322,1522.775,864.787,1518.039,866.47,1510.514z"/>
							<g>
								<path style="fill:#FFFFFF;" d="M766.075,1508.475c15.069,3.371,30.018-6.113,33.389-21.182
									c3.371-15.069-6.112-30.018-21.182-33.389c-15.069-3.371-30.018,6.113-33.389,21.182
									C741.522,1490.155,751.006,1505.104,766.075,1508.475z"/>
								<path d="M772.236,1511.36c-2.208,0-4.433-0.245-6.641-0.739l0,0c-16.228-3.63-26.478-19.787-22.848-36.015
									c3.632-16.23,19.77-26.474,36.017-22.848c7.859,1.757,14.565,6.472,18.883,13.275c4.315,6.803,5.722,14.879,3.963,22.74
									c-1.757,7.862-6.472,14.568-13.274,18.883C783.442,1509.76,777.892,1511.36,772.236,1511.36z M766.557,1506.33
									c6.712,1.504,13.61,0.301,19.422-3.387c5.81-3.686,9.838-9.415,11.339-16.129c1.501-6.715,0.299-13.614-3.387-19.424
									c-3.686-5.81-9.415-9.838-16.129-11.339c-13.833-3.084-27.659,5.651-30.763,19.516
									C743.939,1489.427,752.694,1503.228,766.557,1506.33L766.557,1506.33z"/>
							</g>
						</g>
					</g>
				</g>
			</g>
		</g>
		<g>
			<path style="fill:#5479F7;" d="M2907.125,948.146H1496.106c-1.216,0-2.199-0.984-2.199-2.2v-577.73
				c0-1.216,0.984-2.199,2.199-2.199h1411.019c1.216,0,2.2,0.984,2.2,2.199v577.73
				C2909.325,947.162,2908.341,948.146,2907.125,948.146z M1498.305,943.747h1406.62V370.416h-1406.62V943.747z"/>
			<path style="fill:#5479F7;" d="M2803.756,490.008H1773.623c-1.216,0-2.2-0.984-2.2-2.199c0-1.216,0.984-2.199,2.2-2.199h1030.133
				c1.216,0,2.199,0.984,2.199,2.199C2805.956,489.024,2804.972,490.008,2803.756,490.008z"/>
			<g>
				<g>
					
						<ellipse transform="matrix(0.3162 -0.9487 0.9487 0.3162 734.0389 1994.0424)" style="fill:#FFFFFF;" cx="1750.313" cy="487.809" rx="52.337" ry="52.337"/>
					<path style="fill:#5479F7;" d="M1750.313,542.346c-30.072,0-54.537-24.465-54.537-54.537c0-30.072,24.465-54.537,54.537-54.537
						s54.537,24.465,54.537,54.537C1804.85,517.88,1780.385,542.346,1750.313,542.346z M1750.313,437.671
						c-27.647,0-50.138,22.491-50.138,50.138s22.491,50.138,50.138,50.138c27.646,0,50.138-22.491,50.138-50.138
						S1777.96,437.671,1750.313,437.671z"/>
				</g>
				
					<ellipse transform="matrix(0.3162 -0.9487 0.9487 0.3162 734.0389 1994.0424)" style="fill:#5479F7;" cx="1750.313" cy="487.809" rx="24.873" ry="24.873"/>
			</g>
			<path style="fill:#5479F7;" d="M2803.756,597.381h-856.322c-1.216,0-2.199-0.984-2.199-2.199c0-1.216,0.984-2.2,2.199-2.2
				h856.322c1.216,0,2.199,0.984,2.199,2.2C2805.956,596.397,2804.972,597.381,2803.756,597.381z"/>
			<path style="fill:#5479F7;" d="M2803.756,704.753h-856.322c-1.216,0-2.199-0.984-2.199-2.2c0-1.216,0.984-2.199,2.199-2.199
				h856.322c1.216,0,2.199,0.984,2.199,2.199C2805.956,703.77,2804.972,704.753,2803.756,704.753z"/>
			<path style="fill:#5479F7;" d="M2803.756,812.128h-856.322c-1.216,0-2.199-0.984-2.199-2.2c0-1.216,0.984-2.199,2.199-2.199
				h856.322c1.216,0,2.199,0.984,2.199,2.199C2805.956,811.144,2804.972,812.128,2803.756,812.128z"/>
			<g>
				<g>
					
						<ellipse transform="matrix(0.3162 -0.9487 0.9487 0.3162 734.0389 1994.0424)" style="fill:#FFFFFF;" cx="1750.313" cy="487.809" rx="52.337" ry="52.337"/>
					<path style="fill:#5479F7;" d="M1750.313,542.346c-30.072,0-54.537-24.465-54.537-54.537c0-30.072,24.465-54.537,54.537-54.537
						s54.537,24.465,54.537,54.537C1804.85,517.88,1780.385,542.346,1750.313,542.346z M1750.313,437.671
						c-27.647,0-50.138,22.491-50.138,50.138s22.491,50.138,50.138,50.138c27.646,0,50.138-22.491,50.138-50.138
						S1777.96,437.671,1750.313,437.671z"/>
				</g>
				
					<ellipse transform="matrix(0.3162 -0.9487 0.9487 0.3162 734.0389 1994.0424)" style="fill:#5479F7;" cx="1750.313" cy="487.809" rx="24.873" ry="24.873"/>
			</g>
			<g>
				<rect x="2761.496" y="533.021" style="fill:#5479F7;" width="314.105" height="124.322"/>
				<polygon style="fill:#5479F7;" points="2787.152,630.247 2717.023,595.182 2787.152,560.117 				"/>
			</g>
			<g>
				<rect x="2624.239" y="747.767" style="fill:#5479F7;" width="314.105" height="124.322"/>
				<polygon style="fill:#5479F7;" points="2649.896,844.992 2579.766,809.928 2649.896,774.863 				"/>
			</g>
			<g>
				<rect x="2138.744" y="640.394" style="fill:#5479F7;" width="314.105" height="124.322"/>
				<polygon style="fill:#5479F7;" points="2164.401,737.619 2094.271,702.555 2164.401,667.49 				"/>
			</g>
			<g>
				<g>
					
						<ellipse transform="matrix(0.1602 -0.9871 0.9871 0.1602 1002.764 2582.9368)" style="fill:#FFFFFF;" cx="2019.321" cy="702.164" rx="52.337" ry="52.337"/>
					<path style="fill:#5479F7;" d="M2019.321,756.702c-30.072,0-54.537-24.465-54.537-54.537c0-30.072,24.465-54.537,54.537-54.537
						s54.537,24.465,54.537,54.537C2073.857,732.237,2049.392,756.702,2019.321,756.702z M2019.321,652.027
						c-27.647,0-50.138,22.491-50.138,50.138s22.491,50.138,50.138,50.138c27.646,0,50.138-22.491,50.138-50.138
						S2046.967,652.027,2019.321,652.027z"/>
				</g>
				<circle style="fill:#5479F7;" cx="2019.321" cy="702.164" r="24.873"/>
			</g>
			<g>
				<g>
					
						<ellipse transform="matrix(0.7071 -0.7071 0.7071 0.7071 353.5748 2043.9688)" style="fill:#FFFFFF;" cx="2644.076" cy="595.182" rx="52.337" ry="52.337"/>
					<path style="fill:#5479F7;" d="M2644.076,649.718c-30.072,0-54.537-24.465-54.537-54.537c0-30.072,24.466-54.537,54.537-54.537
						s54.537,24.465,54.537,54.537C2698.613,625.253,2674.148,649.718,2644.076,649.718z M2644.076,545.043
						c-27.647,0-50.138,22.491-50.138,50.138s22.491,50.138,50.138,50.138c27.646,0,50.138-22.491,50.138-50.138
						S2671.723,545.043,2644.076,545.043z"/>
				</g>
				<circle style="fill:#5479F7;" cx="2644.076" cy="595.182" r="24.873"/>
			</g>
			<g>
				<g>
					
						<ellipse transform="matrix(0.7071 -0.7071 0.7071 0.7071 161.525 2009.8113)" style="fill:#FFFFFF;" cx="2506.819" cy="809.928" rx="52.337" ry="52.337"/>
					<path style="fill:#5479F7;" d="M2506.819,864.466c-30.072,0-54.537-24.465-54.537-54.537c0-30.071,24.466-54.537,54.537-54.537
						s54.537,24.465,54.537,54.537C2561.356,840,2536.891,864.466,2506.819,864.466z M2506.819,759.791
						c-27.646,0-50.138,22.491-50.138,50.138s22.491,50.138,50.138,50.138s50.138-22.491,50.138-50.138
						S2534.466,759.791,2506.819,759.791z"/>
				</g>
				
					<ellipse transform="matrix(0.7071 -0.7071 0.7071 0.7071 161.525 2009.8113)" style="fill:#5479F7;" cx="2506.819" cy="809.928" rx="24.873" ry="24.873"/>
			</g>
			<g>
				<rect x="1876.173" y="425.648" style="fill:#5479F7;" width="314.105" height="124.322"/>
				<polygon style="fill:#5479F7;" points="1901.83,522.873 1831.701,487.809 1901.83,452.744 				"/>
			</g>
		</g>
	</g>
</g>
</svg>
