<svg width="171" height="132" viewBox="0 0 171 132" fill="none" xmlns="http://www.w3.org/2000/svg">
<path d="M62.8553 20.6749H2.33301V23.9913L4.60451 26.8213H60.5835L62.8553 23.9913V20.6749Z" fill="white"/>
<path d="M4.66475 26.662H60.5241L62.7187 23.929V20.8341H2.47078V23.929L4.66475 26.662ZM60.584 26.9805H4.60504C4.56696 26.9805 4.53062 26.9624 4.50463 26.9298L2.23312 24.0998C2.2095 24.0709 2.19629 24.0318 2.19629 23.9912V20.6749C2.19629 20.5866 2.25774 20.5149 2.33353 20.5149H62.8558C62.9312 20.5149 62.9929 20.5866 62.9929 20.6749V23.9912C62.9929 24.0318 62.9798 24.0709 62.9561 24.0998L60.6843 26.9298C60.6588 26.9624 60.622 26.9805 60.584 26.9805Z" fill="black"/>
<path d="M63.044 0.159647H2.14392C1.06554 0.159647 0.191406 1.24026 0.191406 2.57346V21.635C0.191406 22.9682 1.06554 24.0488 2.14392 24.0488H63.044C64.1223 24.0488 64.9967 22.9682 64.9967 21.635V2.57346C64.9967 1.24026 64.1223 0.159647 63.044 0.159647Z" fill="white"/>
<path d="M2.14445 0.317856C1.14354 0.317856 0.329176 1.3297 0.329176 2.57244V21.634C0.329176 22.8774 1.14354 23.8886 2.14445 23.8886H63.0445C64.0455 23.8886 64.8595 22.8774 64.8595 21.634V2.57244C64.8595 1.3297 64.0455 0.317856 63.0445 0.317856H2.14445ZM63.0445 24.207H2.14445C0.992147 24.207 0.0546875 23.0526 0.0546875 21.634V2.57244C0.0546875 1.15383 0.992147 -0.000608444 2.14445 -0.000608444H63.0445C64.197 -0.000608444 65.1344 1.15383 65.1344 2.57244V21.634C65.1344 23.0526 64.197 24.207 63.0445 24.207Z" fill="black"/>
<path d="M40.4509 21.8145H24.7373V18.3222H40.4509V21.8145Z" fill="#E2EAFF"/>
<path d="M56.1816 6.71511C56.1816 7.5062 55.6624 8.14746 55.0229 8.14746C54.3828 8.14746 53.8643 7.5062 53.8643 6.71511C53.8643 5.92401 54.3828 5.28274 55.0229 5.28274C55.6624 5.28274 56.1816 5.92401 56.1816 6.71511Z" fill="#0E2642"/>
<path d="M59.3186 6.71511C59.3186 7.5062 58.8001 8.14746 58.1606 8.14746C57.5205 8.14746 57.002 7.5062 57.002 6.71511C57.002 5.92401 57.5205 5.28274 58.1606 5.28274C58.8001 5.28274 59.3186 5.92401 59.3186 6.71511Z" fill="#E2EAFF"/>
<path d="M62.4573 6.71511C62.4573 7.5062 61.9388 8.14746 61.2987 8.14746C60.6592 8.14746 60.1406 7.5062 60.1406 6.71511C60.1406 5.92401 60.6592 5.28274 61.2987 5.28274C61.9388 5.28274 62.4573 5.92401 62.4573 6.71511Z" fill="#E2EAFF"/>
<path d="M16.4288 25.1324C16.4288 30.0737 12.9802 34.0791 8.72611 34.0791C4.47199 34.0791 1.02344 30.0737 1.02344 25.1324C1.02344 20.1912 4.47199 16.1857 8.72611 16.1857C12.9802 16.1857 16.4288 20.1912 16.4288 25.1324Z" fill="#0E2642"/>
<path d="M8.04638 29.8919C8.03249 29.8933 8.0184 29.8948 8.0045 29.8955C7.63758 29.9187 7.28325 29.7355 7.05252 29.4033L4.63666 25.9277C4.23989 25.3566 4.31662 24.5207 4.80819 24.0596C5.29889 23.5986 6.01939 23.6883 6.41616 24.2594L7.83584 26.3019L10.9643 20.6369C11.3055 20.0188 12.0126 19.84 12.5443 20.2359C13.0759 20.6318 13.2302 21.454 12.8894 22.0707L8.90475 29.2861C8.71391 29.6313 8.39679 29.8542 8.04638 29.8919Z" fill="white"/>
<path d="M97.4765 12.8103L90.8873 24.4769L90.8555 43.1426H170.815L170.79 13.0354L97.4765 12.8103Z" fill="white"/>
<path d="M90.9926 42.9826H170.678L170.653 13.1946L97.55 12.9702L91.0238 24.5247L90.9926 42.9826ZM170.815 43.3018H90.8549C90.8187 43.3018 90.7838 43.2851 90.7577 43.2547C90.7321 43.225 90.7178 43.1845 90.7178 43.1418L90.7496 24.4762C90.7496 24.445 90.757 24.4154 90.772 24.3893L97.3612 12.7227C97.3867 12.6778 97.4298 12.651 97.4765 12.651L170.79 12.8761C170.866 12.8761 170.927 12.9477 170.927 13.0353L170.952 43.1418C170.952 43.1845 170.938 43.225 170.912 43.2547C170.886 43.2851 170.852 43.3018 170.815 43.3018Z" fill="black"/>
<path d="M170.815 43.1426L161.821 43.1252L161.822 24.5826L167.931 13.0542L170.806 13.0448L170.815 43.1426Z" fill="white"/>
<path d="M161.959 42.9659L170.678 42.9826L170.669 13.2047L168.008 13.2134L161.96 24.6274L161.959 42.9659ZM170.815 43.3018L161.822 43.2844C161.746 43.2844 161.685 43.2127 161.685 43.1252L161.685 24.5826C161.685 24.5529 161.693 24.5239 161.706 24.4993L167.814 12.9709C167.839 12.9239 167.883 12.8949 167.93 12.8949L170.806 12.8855C170.842 12.8855 170.877 12.9021 170.903 12.9318C170.929 12.9615 170.943 13.0028 170.943 13.0447L170.953 43.1425C170.953 43.1845 170.938 43.225 170.913 43.2554C170.887 43.2851 170.852 43.3018 170.815 43.3018Z" fill="black"/>
<path d="M169.89 0.234334L170.848 8.45143L170.791 13.0352L158.805 13.0214L164.248 3.58183L169.89 0.234334Z" fill="white"/>
<path d="M159.061 12.8621L170.656 12.8759L170.71 8.4608L169.78 0.47819L164.342 3.70554L159.061 12.8621ZM170.791 13.1943L158.804 13.1806C158.753 13.1806 158.707 13.148 158.683 13.0959C158.659 13.0438 158.662 12.9815 158.691 12.9323L164.134 3.49347C164.147 3.47103 164.165 3.45295 164.186 3.43992L169.828 0.0924234C169.867 0.0685387 169.914 0.0692596 169.954 0.0931444C169.993 0.117029 170.02 0.161903 170.026 0.212568L170.983 8.42967C170.985 8.43763 170.985 8.4456 170.985 8.45356L170.928 13.0373C170.928 13.1249 170.867 13.1943 170.791 13.1943Z" fill="black"/>
<path d="M164.108 12.8285L155.826 24.6261L155.808 40.0811L96.0692 40.0253L96.0361 23.3884L102.59 12.8567L164.108 12.8285Z" fill="#5479F7"/>
<path d="M160.538 20.4062H97.3594V18.8313H160.538V20.4062Z" fill="white"/>
<path d="M164.62 15.8857H101.441V14.3101H164.62V15.8857Z" fill="white"/>
<path d="M101.525 27.3789C101.524 27.3789 101.524 27.3789 101.524 27.3789C101.41 27.3782 101.319 27.2703 101.319 27.1386L101.336 23.9496C101.336 23.8968 101.352 23.8454 101.38 23.8034L104.951 18.5422C105.021 18.4387 105.15 18.4206 105.24 18.5024C105.329 18.5842 105.344 18.734 105.274 18.8383L101.747 24.035L101.731 27.1415C101.73 27.2725 101.638 27.3789 101.525 27.3789Z" fill="white"/>
<path d="M107.524 27.3789C107.523 27.3789 107.522 27.3789 107.522 27.3789C107.408 27.3782 107.317 27.2703 107.317 27.1386L107.334 23.9496C107.334 23.8968 107.35 23.8454 107.378 23.8034L110.949 18.5422C111.019 18.4387 111.149 18.4206 111.238 18.5024C111.327 18.5842 111.342 18.734 111.272 18.8383L107.746 24.035L107.729 27.1415C107.729 27.2725 107.636 27.3789 107.524 27.3789Z" fill="white"/>
<path d="M113.522 27.3789C113.521 27.3789 113.521 27.3789 113.521 27.3789C113.407 27.3782 113.316 27.2703 113.316 27.1386L113.333 23.9496C113.333 23.8968 113.349 23.8454 113.377 23.8034L116.948 18.5422C117.018 18.4387 117.147 18.4206 117.237 18.5024C117.326 18.5842 117.341 18.734 117.271 18.8383L113.744 24.035L113.728 27.1415C113.727 27.2725 113.636 27.3789 113.522 27.3789Z" fill="white"/>
<path d="M119.52 27.3789C119.52 27.3789 119.52 27.3789 119.519 27.3789C119.405 27.3782 119.314 27.2703 119.314 27.1386L119.331 23.9496C119.331 23.8968 119.347 23.8454 119.376 23.8034L122.946 18.5422C123.016 18.4387 123.146 18.4206 123.235 18.5024C123.324 18.5842 123.34 18.734 123.269 18.8383L119.743 24.035L119.726 27.1415C119.726 27.2725 119.634 27.3789 119.52 27.3789Z" fill="white"/>
<path d="M125.519 27.3789C125.519 27.3789 125.519 27.3789 125.518 27.3789C125.404 27.3782 125.313 27.2703 125.313 27.1386L125.33 23.9496C125.33 23.8968 125.346 23.8454 125.374 23.8034L128.945 18.5422C129.015 18.4387 129.144 18.4206 129.234 18.5024C129.323 18.5842 129.339 18.734 129.268 18.8383L125.741 24.035L125.725 27.1415C125.724 27.2725 125.633 27.3789 125.519 27.3789Z" fill="white"/>
<path d="M131.518 27.3789C131.517 27.3789 131.517 27.3789 131.517 27.3789C131.403 27.3782 131.311 27.2703 131.312 27.1386L131.328 23.9496C131.328 23.8968 131.344 23.8454 131.373 23.8034L134.943 18.5422C135.013 18.4387 135.143 18.4206 135.232 18.5024C135.322 18.5842 135.337 18.734 135.266 18.8383L131.74 24.035L131.724 27.1415C131.723 27.2725 131.631 27.3789 131.518 27.3789Z" fill="white"/>
<path d="M137.516 27.3789C137.516 27.3789 137.516 27.3789 137.515 27.3789C137.402 27.3782 137.31 27.2703 137.311 27.1386L137.327 23.9496C137.327 23.8968 137.343 23.8454 137.371 23.8034L140.942 18.5422C141.012 18.4387 141.141 18.4206 141.231 18.5024C141.32 18.5842 141.336 18.734 141.265 18.8383L137.738 24.035L137.722 27.1415C137.721 27.2725 137.63 27.3789 137.516 27.3789Z" fill="white"/>
<path d="M143.516 27.3789C143.515 27.3789 143.515 27.3789 143.514 27.3789C143.401 27.3782 143.309 27.2703 143.31 27.1386L143.326 23.9496C143.326 23.8968 143.342 23.8454 143.371 23.8034L146.941 18.5422C147.011 18.4387 147.141 18.4206 147.23 18.5024C147.32 18.5842 147.335 18.734 147.264 18.8383L143.738 24.035L143.722 27.1415C143.721 27.2725 143.629 27.3789 143.516 27.3789Z" fill="white"/>
<path d="M149.514 27.3789C149.514 27.3789 149.514 27.3789 149.513 27.3789C149.4 27.3782 149.308 27.2703 149.309 27.1386L149.325 23.9496C149.325 23.8968 149.341 23.8454 149.369 23.8034L152.94 18.5422C153.01 18.4387 153.14 18.4206 153.229 18.5024C153.318 18.5842 153.334 18.734 153.263 18.8383L149.736 24.035L149.72 27.1415C149.719 27.2725 149.628 27.3789 149.514 27.3789Z" fill="white"/>
<path d="M157.579 28.6777H94.4004V27.1028H157.579V28.6777Z" fill="white"/>
<path d="M157.628 24.6826H94.4492V23.1069H157.628V24.6826Z" fill="white"/>
<path d="M124.667 27.4391V40.4375H123.278V27.4391H124.667Z" fill="white"/>
<path d="M154.324 30.501H126.487C126.373 30.501 126.281 30.3939 126.281 30.2621C126.281 30.1297 126.373 30.0233 126.487 30.0233H154.324C154.437 30.0233 154.53 30.1297 154.53 30.2621C154.53 30.3939 154.437 30.501 154.324 30.501Z" fill="white"/>
<path d="M154.324 33.2363H126.487C126.373 33.2363 126.281 33.1292 126.281 32.9975C126.281 32.865 126.373 32.7579 126.487 32.7579H154.324C154.437 32.7579 154.53 32.865 154.53 32.9975C154.53 33.1292 154.437 33.2363 154.324 33.2363Z" fill="white"/>
<path d="M154.324 31.8691H126.487C126.373 31.8691 126.281 31.762 126.281 31.6303C126.281 31.4978 126.373 31.3914 126.487 31.3914H154.324C154.437 31.3914 154.53 31.4978 154.53 31.6303C154.53 31.762 154.437 31.8691 154.324 31.8691Z" fill="white"/>
<path d="M154.324 34.6045H126.487C126.373 34.6045 126.281 34.4974 126.281 34.3649C126.281 34.2332 126.373 34.1261 126.487 34.1261H154.324C154.437 34.1261 154.53 34.2332 154.53 34.3649C154.53 34.4974 154.437 34.6045 154.324 34.6045Z" fill="white"/>
<path d="M154.324 35.9717H126.487C126.373 35.9717 126.281 35.8646 126.281 35.7328C126.281 35.6011 126.373 35.494 126.487 35.494H154.324C154.437 35.494 154.53 35.6011 154.53 35.7328C154.53 35.8646 154.437 35.9717 154.324 35.9717Z" fill="white"/>
<path d="M154.324 37.3398H126.487C126.373 37.3398 126.281 37.2327 126.281 37.101C126.281 36.9693 126.373 36.8621 126.487 36.8621H154.324C154.437 36.8621 154.53 36.9693 154.53 37.101C154.53 37.2327 154.437 37.3398 154.324 37.3398Z" fill="white"/>
<path d="M154.324 38.708H126.487C126.373 38.708 126.281 38.6009 126.281 38.4692C126.281 38.3367 126.373 38.2296 126.487 38.2296H154.324C154.437 38.2296 154.53 38.3367 154.53 38.4692C154.53 38.6009 154.437 38.708 154.324 38.708Z" fill="white"/>
<path d="M121.526 30.501H97.5738C97.4604 30.501 97.3682 30.3939 97.3682 30.2621C97.3682 30.1297 97.4604 30.0233 97.5738 30.0233H121.526C121.64 30.0233 121.732 30.1297 121.732 30.2621C121.732 30.3939 121.64 30.501 121.526 30.501Z" fill="white"/>
<path d="M121.526 33.2363H97.5738C97.4604 33.2363 97.3682 33.1292 97.3682 32.9975C97.3682 32.865 97.4604 32.7579 97.5738 32.7579H121.526C121.64 32.7579 121.732 32.865 121.732 32.9975C121.732 33.1292 121.64 33.2363 121.526 33.2363Z" fill="white"/>
<path d="M121.526 31.8691H97.5738C97.4604 31.8691 97.3682 31.762 97.3682 31.6303C97.3682 31.4978 97.4604 31.3914 97.5738 31.3914H121.526C121.64 31.3914 121.732 31.4978 121.732 31.6303C121.732 31.762 121.64 31.8691 121.526 31.8691Z" fill="white"/>
<path d="M121.526 34.6045H97.5738C97.4604 34.6045 97.3682 34.4974 97.3682 34.3649C97.3682 34.2332 97.4604 34.1261 97.5738 34.1261H121.526C121.64 34.1261 121.732 34.2332 121.732 34.3649C121.732 34.4974 121.64 34.6045 121.526 34.6045Z" fill="white"/>
<path d="M121.526 35.9717H97.5738C97.4604 35.9717 97.3682 35.8646 97.3682 35.7328C97.3682 35.6011 97.4604 35.494 97.5738 35.494H121.526C121.64 35.494 121.732 35.6011 121.732 35.7328C121.732 35.8646 121.64 35.9717 121.526 35.9717Z" fill="white"/>
<path d="M121.526 37.3398H97.5738C97.4604 37.3398 97.3682 37.2327 97.3682 37.101C97.3682 36.9693 97.4604 36.8621 97.5738 36.8621H121.526C121.64 36.8621 121.732 36.9693 121.732 37.101C121.732 37.2327 121.64 37.3398 121.526 37.3398Z" fill="white"/>
<path d="M121.526 38.708H97.5738C97.4604 38.708 97.3682 38.6009 97.3682 38.4692C97.3682 38.3367 97.4604 38.2296 97.5738 38.2296H121.526C121.64 38.2296 121.732 38.3367 121.732 38.4692C121.732 38.6009 121.64 38.708 121.526 38.708Z" fill="white"/>
<path d="M155.122 19.2764L82.0018 19.1895L81.4203 17.5053C81.3979 17.4401 81.4135 17.3656 81.4583 17.3207L96.7004 1.83464C96.7235 1.8122 96.7527 1.79917 96.782 1.79845L169.944 0.224943C169.947 0.330616 170.107 2.07711 170.107 2.07711L168.767 4.14641C167.283 4.15581 164.533 4.15292 164.533 4.15292L155.228 19.2119C155.203 19.2525 155.164 19.2764 155.122 19.2764Z" fill="white"/>
<path d="M82.095 19.0302L155.119 19.1171L164.423 4.06022C164.448 4.01824 164.49 3.99364 164.534 3.99364C164.534 3.99364 164.534 3.99364 164.534 3.99364C164.561 3.99364 167.216 3.99653 168.699 3.98784L169.965 2.03145C169.939 1.74773 169.851 0.775692 169.819 0.38702L96.7855 1.95763L81.549 17.4408L82.095 19.0302ZM155.122 19.4355L82.0022 19.3487C81.9461 19.3487 81.8956 19.3096 81.8744 19.2488L81.2935 17.5646C81.2492 17.4357 81.2798 17.2895 81.3695 17.2005L96.6103 1.71516C96.659 1.66667 96.7188 1.64061 96.7799 1.63916L169.942 0.0656567C170.016 0.0598679 170.079 0.132254 170.081 0.219109C170.084 0.297276 170.18 1.36268 170.244 2.05968C170.248 2.10021 170.238 2.14002 170.217 2.17259L168.877 4.24261C168.852 4.28241 168.811 4.30558 168.769 4.3063C167.432 4.31427 165.044 4.31282 164.604 4.31282L155.34 19.3053C155.289 19.3871 155.208 19.4355 155.122 19.4355Z" fill="black"/>
<path d="M81.3926 17.3711H154.508L163.801 2.33378C163.817 2.30555 163.842 2.28601 163.869 2.27588L168.751 2.26864L169.936 0.234091L96.3174 0.192104L91.4098 2.2093C90.8438 2.44235 90.3527 2.87083 90.0024 3.43683L81.3926 17.3711Z" fill="white"/>
<path d="M81.6596 17.2118H154.438L163.689 2.24036C163.722 2.18535 163.772 2.14337 163.828 2.12383C163.841 2.11877 163.855 2.11659 163.868 2.11659L168.677 2.11008L169.677 0.39327L96.3401 0.351284L91.4555 2.35978C90.9133 2.58271 90.449 2.98731 90.1136 3.53015L81.6596 17.2118ZM154.508 17.5303H81.3922C81.3405 17.5303 81.2931 17.497 81.2701 17.4434C81.2464 17.3906 81.2508 17.3269 81.2807 17.2777L89.8905 3.34413C90.2589 2.74845 90.7687 2.30405 91.3639 2.05941L96.2709 0.0415134C96.2859 0.0357227 96.3015 0.0320988 96.317 0.0320988L169.936 0.0748043C169.986 0.0748043 170.033 0.10737 170.057 0.159483C170.08 0.211594 170.078 0.274561 170.049 0.323053L168.864 2.35834C168.839 2.40177 168.796 2.42854 168.75 2.42854L163.904 2.43506L154.62 17.4637C154.593 17.5057 154.552 17.5303 154.508 17.5303Z" fill="black"/>
<path d="M142.376 132.293H77.4658V74.205H142.376V132.293Z" fill="white"/>
<path d="M77.6024 132.134H142.238V74.3642H77.6024V132.134ZM142.376 132.452H77.4652C77.3898 132.452 77.3281 132.381 77.3281 132.293V74.205C77.3281 74.1167 77.3898 74.0458 77.4652 74.0458H142.376C142.451 74.0458 142.513 74.1167 142.513 74.205V132.293C142.513 132.381 142.451 132.452 142.376 132.452Z" fill="black"/>
<path d="M124.879 63.6767H94.9617L75.8467 74.6182H143.994L124.879 63.6767Z" fill="white"/>
<path d="M76.4351 74.4582H143.405L124.847 63.8359H94.993L76.4351 74.4582ZM143.994 74.7773H75.8461C75.7826 74.7773 75.7271 74.726 75.7128 74.6536C75.6978 74.5819 75.7283 74.5074 75.7857 74.4748L94.9001 63.5341C94.9188 63.5232 94.94 63.5174 94.9612 63.5174H124.879C124.9 63.5174 124.921 63.5232 124.94 63.5341L144.054 74.4748C144.112 74.5074 144.142 74.5819 144.127 74.6536C144.113 74.726 144.057 74.7773 143.994 74.7773Z" fill="black"/>
<path d="M170.863 95.1738H127.766L149.314 87.6914L170.863 95.1738Z" fill="white"/>
<path d="M128.703 95.0145H169.924L149.314 87.8578L128.703 95.0145ZM170.863 95.333H127.765C127.697 95.333 127.639 95.2751 127.629 95.1969C127.619 95.118 127.661 95.0435 127.726 95.0211L149.274 87.5386C149.3 87.5299 149.327 87.5299 149.353 87.5386L170.902 95.0211C170.967 95.0435 171.008 95.118 170.998 95.1969C170.988 95.2751 170.93 95.333 170.863 95.333Z" fill="black"/>
<path d="M169.248 132.293H129.381V95.1875H169.248V132.293Z" fill="white"/>
<path d="M129.517 132.134H169.11V95.3467H129.517V132.134ZM169.247 132.452H129.38C129.304 132.452 129.243 132.381 129.243 132.293V95.1875C129.243 95.0992 129.304 95.0282 129.38 95.0282H169.247C169.323 95.0282 169.384 95.0992 169.384 95.1875V132.293C169.384 132.381 169.323 132.452 169.247 132.452Z" fill="black"/>
<path d="M164.815 122.743H133.814V100.702H164.815V122.743Z" fill="#E2EAFF"/>
<path d="M106.493 132.293H87.9248V95.1875H106.493V132.293Z" fill="white"/>
<path d="M88.062 132.134H106.355V95.3467H88.062V132.134ZM106.493 132.452H87.9242C87.8488 132.452 87.7871 132.381 87.7871 132.293V95.1875C87.7871 95.0992 87.8488 95.0282 87.9242 95.0282H106.493C106.568 95.0282 106.63 95.0992 106.63 95.1875V132.293C106.63 132.381 106.568 132.452 106.493 132.452Z" fill="black"/>
<path d="M106.493 129.217H88.1723C88.0969 129.217 88.0352 129.146 88.0352 129.058C88.0352 128.969 88.0969 128.898 88.1723 128.898H106.493C106.569 128.898 106.63 128.969 106.63 129.058C106.63 129.146 106.569 129.217 106.493 129.217Z" fill="black"/>
<path d="M106.493 125.983H88.1723C88.0969 125.983 88.0352 125.912 88.0352 125.824C88.0352 125.736 88.0969 125.664 88.1723 125.664H106.493C106.569 125.664 106.63 125.736 106.63 125.824C106.63 125.912 106.569 125.983 106.493 125.983Z" fill="black"/>
<path d="M121.119 132.293H114.395V124.482H121.119V132.293Z" fill="white"/>
<path d="M114.531 132.134H120.981V124.641H114.531V132.134ZM121.118 132.452H114.394C114.318 132.452 114.257 132.381 114.257 132.293V124.482C114.257 124.394 114.318 124.323 114.394 124.323H121.118C121.194 124.323 121.256 124.394 121.256 124.482V132.293C121.256 132.381 121.194 132.452 121.118 132.452Z" fill="black"/>
<path d="M117.757 96.3014C115.409 96.3014 113.32 104.157 113.32 110.349C113.32 115.571 114.771 118.108 117.757 118.108C120.741 118.108 122.192 115.571 122.192 110.349C122.192 104.157 120.104 96.3014 117.757 96.3014ZM117.757 118.427C114.631 118.427 113.046 115.71 113.046 110.349C113.046 104.564 115.024 95.9822 117.757 95.9822C120.489 95.9822 122.467 104.564 122.467 110.349C122.467 115.71 120.882 118.427 117.757 118.427Z" fill="black"/>
<path d="M117.756 124.641C117.68 124.641 117.619 124.57 117.619 124.481V111.068C117.619 110.979 117.68 110.908 117.756 110.908C117.832 110.908 117.893 110.979 117.893 111.068V124.481C117.893 124.57 117.832 124.641 117.756 124.641Z" fill="black"/>
<path d="M117.757 117.031C117.699 117.031 117.645 116.989 117.626 116.922C117.602 116.839 117.641 116.748 117.714 116.721C121.32 115.334 120.432 110.288 120.392 110.074C120.376 109.988 120.424 109.903 120.497 109.885C120.572 109.867 120.644 109.922 120.66 110.007C120.67 110.063 121.641 115.547 117.8 117.023C117.785 117.029 117.771 117.031 117.757 117.031Z" fill="black"/>
<path d="M117.443 113.634C116.772 113.634 116.211 113.382 115.773 112.883C114.533 111.47 114.712 108.588 114.72 108.465C114.727 108.378 114.792 108.315 114.868 108.319C114.944 108.326 115 108.402 114.994 108.491C114.992 108.519 114.816 111.347 115.965 112.656C116.412 113.165 117.01 113.38 117.743 113.298C117.82 113.289 117.886 113.354 117.894 113.441C117.901 113.529 117.846 113.606 117.77 113.615C117.659 113.627 117.55 113.634 117.443 113.634Z" fill="black"/>
<path d="M149.679 78.7451C149.644 78.7451 149.608 78.7299 149.582 78.6988C145.957 74.4886 145.957 67.6387 149.582 63.4291C153.099 59.3434 153.099 52.6954 149.582 48.6104C149.528 48.5482 149.528 48.4468 149.582 48.3846C149.636 48.3223 149.722 48.3223 149.776 48.3846C153.4 52.5948 153.4 59.4447 149.776 63.6542C146.258 67.74 146.258 74.3872 149.776 78.473C149.829 78.5352 149.829 78.6366 149.776 78.6988C149.749 78.7299 149.714 78.7451 149.679 78.7451Z" fill="black"/>
<path d="M156.128 78.7451C156.093 78.7451 156.058 78.7299 156.031 78.6988C152.406 74.4886 152.406 67.6387 156.031 63.4291C159.548 59.3434 159.548 52.6954 156.031 48.6104C155.977 48.5482 155.977 48.4468 156.031 48.3846C156.084 48.3223 156.172 48.3223 156.225 48.3846C159.85 52.5948 159.85 59.4447 156.225 63.6542C152.707 67.74 152.707 74.3872 156.225 78.473C156.279 78.5352 156.279 78.6366 156.225 78.6988C156.198 78.7299 156.163 78.7451 156.128 78.7451Z" fill="black"/>
<path d="M162.577 78.7451C162.542 78.7451 162.507 78.7299 162.48 78.6988C158.856 74.4886 158.856 67.6387 162.48 63.4291C165.998 59.3434 165.998 52.6954 162.48 48.6104C162.426 48.5482 162.426 48.4468 162.48 48.3846C162.534 48.3223 162.62 48.3223 162.674 48.3846C166.299 52.5948 166.299 59.4447 162.674 63.6542C159.157 67.74 159.157 74.3872 162.674 78.473C162.728 78.5352 162.728 78.6366 162.674 78.6988C162.648 78.7299 162.612 78.7451 162.577 78.7451Z" fill="black"/>
<path d="M79.1168 42.212C78.708 45.5378 80.3802 71.2386 80.3802 71.2386L79.2166 70.1797C79.2166 70.1797 71.7404 78.467 69.5098 86.6197C69.5098 86.6197 76.0803 94.6739 86.9657 91.8939C104.202 87.4918 91.9375 45.9923 91.9375 45.9923C91.9375 45.9923 93.8553 45.5732 94.1358 42.9365C94.4169 40.2997 93.9843 38.5026 91.9637 39.2633C91.9637 39.2633 92.2641 35.1594 89.4494 35.7182C89.4494 35.7182 88.3973 30.9854 85.1657 35.711C85.1657 35.711 88.6205 25.5802 85.4268 25.379C84.5499 25.324 84.0413 24.9498 83.2996 27.7247C82.5579 30.499 79.5257 38.8869 79.1168 42.212Z" fill="white"/>
<path d="M82.4532 92.6357C77.1529 92.6357 73.2681 90.1799 71.2001 88.4617C71.1384 88.4103 71.124 88.3104 71.1683 88.2388C71.2125 88.1671 71.2979 88.1505 71.3596 88.2018C73.9431 90.3486 79.4023 93.6621 86.9364 91.7383C89.9393 90.971 92.2304 88.9937 93.7468 85.8597C96.8937 79.3558 96.2013 68.8841 95.0663 61.2445C93.8341 52.95 91.8278 46.1117 91.8079 46.0436C91.7948 46.0002 91.7991 45.9517 91.8191 45.9119C91.839 45.8721 91.8727 45.8439 91.9119 45.8352C91.9861 45.8186 93.735 45.4009 93.9999 42.9169C94.1887 41.1444 94.0286 40.0008 93.5243 39.5173C93.189 39.1959 92.6786 39.1619 92.0061 39.4152C91.9624 39.4319 91.9144 39.4218 91.8783 39.3885C91.8428 39.3552 91.8234 39.3031 91.8272 39.2502C91.8284 39.23 91.9624 37.228 91.0905 36.2986C90.6997 35.8817 90.1549 35.7399 89.4725 35.8752C89.402 35.8882 89.3341 35.8383 89.3166 35.758C89.3123 35.7406 88.9221 34.0397 87.9473 33.8001C87.2094 33.6185 86.3094 34.2952 85.2735 35.8101C85.2311 35.8716 85.1563 35.8875 85.0971 35.8492C85.0385 35.8094 85.013 35.7254 85.0385 35.6523C85.0635 35.5792 87.5198 28.3066 86.315 26.1222C86.1118 25.7546 85.8189 25.5635 85.42 25.5382C85.329 25.5324 85.2423 25.5237 85.1588 25.515C84.477 25.4448 84.0644 25.4006 83.4305 27.7717C83.188 28.6786 82.7056 30.1725 82.1459 31.9031C80.9792 35.5141 79.5263 40.0087 79.2527 42.2344C78.8507 45.5052 80.5005 70.97 80.5167 71.2262C80.5229 71.3145 80.4662 71.3905 80.3902 71.397C80.316 71.4021 80.2487 71.3384 80.2431 71.2501C80.1752 70.2006 78.5746 45.4943 78.981 42.1895C79.2589 39.9291 80.7174 35.4171 81.8891 31.7909C82.447 30.0654 82.9288 28.5751 83.1687 27.6769C83.8356 25.1821 84.3436 25.1097 85.1838 25.198C85.2642 25.2059 85.3477 25.2146 85.4343 25.2204C85.9217 25.2508 86.295 25.4962 86.5456 25.9507C87.5821 27.8282 86.1897 32.8961 85.5652 34.9234C86.4689 33.7943 87.2879 33.3109 88.0047 33.4889C88.977 33.7285 89.4251 35.0928 89.5473 35.5394C90.2621 35.4272 90.8437 35.6031 91.2768 36.0649C92.0703 36.911 92.1214 38.4606 92.1101 39.0468C92.7876 38.8341 93.3211 38.9093 93.6995 39.2719C94.2885 39.8372 94.4761 41.0423 94.2723 42.956C94.0292 45.2337 92.5882 45.9322 92.1139 46.1016C92.4243 47.1865 94.2056 53.5746 95.3362 61.1852C96.4793 68.8776 97.173 79.4289 93.9862 86.016C92.4305 89.2318 90.0783 91.262 86.995 92.0495C85.3857 92.4606 83.8686 92.6357 82.4532 92.6357Z" fill="black"/>
<path d="M81.9927 49.0381C81.9204 49.0381 81.8599 48.9722 81.8562 48.8868C81.8518 48.7992 81.9104 48.724 81.9858 48.7196C83.1688 48.648 84.2751 47.673 84.6765 46.3485C84.7974 45.9475 84.8628 45.5068 84.9264 45.0804C85.0323 44.3632 85.142 43.622 85.5197 43.0198C85.7379 42.6724 86.0246 42.4075 86.3013 42.1506C86.4147 42.0463 86.5319 41.9378 86.641 41.827C86.9452 41.5158 87.3073 41.0287 87.3023 40.4699C87.2967 39.8996 86.909 39.4378 86.5263 39.233C86.0695 38.9884 85.5472 38.9876 85.0965 39.0195C83.2978 39.1454 81.5034 39.9068 80.0443 41.1633C79.9832 41.2162 79.8972 41.201 79.8524 41.13C79.8069 41.0598 79.8199 40.9599 79.881 40.9071C81.3819 39.6152 83.2286 38.8313 85.0797 38.701C85.5646 38.667 86.1293 38.6692 86.6416 38.9442C87.1022 39.191 87.5697 39.7577 87.5765 40.4663C87.5821 41.0121 87.3278 41.5498 86.8217 42.0659C86.7083 42.1824 86.588 42.2932 86.4727 42.4003C86.1972 42.6543 85.938 42.8946 85.7416 43.2073C85.4019 43.7494 85.3022 44.4218 85.1969 45.134C85.1314 45.5733 85.0641 46.0279 84.9351 46.4542C84.4982 47.8974 83.2909 48.9599 82.0001 49.0381C81.9976 49.0381 81.9952 49.0381 81.9927 49.0381Z" fill="black"/>
<path d="M86.8039 44.793C86.6686 44.793 86.5371 44.7698 86.4125 44.7235C85.8615 44.5172 85.5112 43.8311 85.6477 43.2245C85.667 43.1391 85.7418 43.0892 85.8154 43.1109C85.8889 43.1333 85.9325 43.2202 85.9132 43.3056C85.8141 43.7464 86.0865 44.2668 86.4966 44.4202C86.8687 44.5599 87.3299 44.4275 87.6989 44.075C88.0747 43.716 88.3222 43.1905 88.4954 42.7722C89.3387 40.7398 89.5899 38.3983 89.2016 36.1792C89.1866 36.0931 89.2346 36.0084 89.3088 35.991C89.383 35.9744 89.4559 36.0294 89.4708 36.1155C89.8704 38.4027 89.6123 40.8158 88.7429 42.9111C88.5571 43.3584 88.2904 43.923 87.8734 44.3211C87.5518 44.6279 87.1672 44.793 86.8039 44.793Z" fill="black"/>
<path d="M89.1935 45.4238C88.5472 45.4238 87.9258 45.0822 87.5998 44.4771C87.56 44.4026 87.5793 44.3041 87.6435 44.2578C87.7077 44.2108 87.7924 44.2339 87.8329 44.3085C88.2393 45.0641 89.1991 45.3312 89.972 44.9027C90.6495 44.5285 91.1818 43.7012 91.4329 42.6336C91.6629 41.6565 91.6492 40.6179 91.6361 39.614C91.6355 39.5257 91.696 39.4533 91.7714 39.4519C91.8524 39.4533 91.9097 39.5207 91.911 39.609C91.9241 40.6353 91.9378 41.6971 91.6978 42.7176C91.4255 43.8749 90.8396 44.7768 90.0904 45.1908C89.805 45.3486 89.4964 45.4238 89.1935 45.4238Z" fill="black"/>
<path d="M91.5804 45.9482C91.0649 45.9482 90.5582 45.5523 90.375 44.9762C90.3482 44.8937 90.385 44.8018 90.456 44.7714C90.5264 44.741 90.6062 44.7829 90.6324 44.8655C90.7932 45.3721 91.27 45.7022 91.7194 45.6167C91.7942 45.6037 91.8646 45.6616 91.8771 45.7485C91.8889 45.8353 91.8384 45.9171 91.7636 45.9316C91.7026 45.9432 91.6415 45.9482 91.5804 45.9482Z" fill="black"/>
<path d="M71.2797 88.4912C71.2566 88.4912 71.2329 88.484 71.2117 88.4702C71.1457 88.4261 71.1232 88.3291 71.1606 88.2524L80.1837 69.9508C80.2217 69.8741 80.3052 69.8473 80.3713 69.8914C80.4368 69.9349 80.4598 70.0326 80.4218 70.1093L71.3987 88.4109C71.3738 88.4623 71.327 88.4912 71.2797 88.4912Z" fill="black"/>
<path d="M19.9831 100.306L1.12793 85.8004C1.12793 85.8004 5.96668 77.453 10.751 70.3477C14.5865 64.6515 20.2962 61.1846 26.4289 60.8046C35.7825 60.2256 48.9887 59.4395 60.8377 58.2221C65.7802 57.7148 70.7184 59.2296 74.8338 62.52L82.8404 68.9204L70.3563 89.8855L65.6905 85.5818L27.9045 113.037H15.8727L19.9831 100.306Z" fill="white"/>
<path d="M16.0703 112.877H27.8645L65.6171 85.4464C65.6663 85.411 65.7299 85.4146 65.7754 85.4566L70.3265 89.6545L82.6485 68.9608L74.7554 62.6509C70.6824 59.3946 65.7436 57.8783 60.8491 58.3813C49.6738 59.5292 37.1897 60.3001 28.074 60.8624L26.4357 60.9638C20.3396 61.3416 14.6619 64.7976 10.8587 70.446C6.4595 76.9796 1.95999 84.6568 1.31871 85.7562L20.0584 100.173C20.1117 100.215 20.1336 100.293 20.1112 100.362L16.0703 112.877ZM27.9039 113.196H15.8722C15.8272 113.196 15.785 113.17 15.7594 113.128C15.7338 113.085 15.728 113.03 15.7437 112.981L19.8158 100.369L1.05164 85.9336C1.02116 85.9097 1.00003 85.8735 0.992864 85.8315C0.985759 85.7902 0.993176 85.7468 1.01362 85.7114C1.06205 85.6281 5.9099 77.2786 10.6424 70.2492C14.4946 64.5284 20.2457 61.0275 26.4211 60.6453L28.0595 60.544C37.173 59.9816 49.6545 59.2108 60.8254 58.0636C65.7829 57.5547 70.7858 59.0906 74.9113 62.3889L82.9178 68.7886C82.9477 68.8132 82.9683 68.8494 82.9745 68.8914C82.9813 68.9333 82.9732 68.976 82.9527 69.0108L70.4686 89.9759C70.4468 90.0121 70.4137 90.0367 70.3757 90.0432C70.3383 90.0483 70.3003 90.0374 70.2704 90.0099L65.6806 85.7765L27.9767 113.172C27.9549 113.188 27.9296 113.196 27.9039 113.196Z" fill="black"/>
<path d="M20.3315 99.8965C20.3136 99.8965 20.2954 99.8929 20.2779 99.8842C20.2082 99.8494 20.1756 99.7561 20.2053 99.675L23.2055 91.4847C23.2352 91.4036 23.3157 91.3653 23.3855 91.4C23.4554 91.4347 23.4878 91.5281 23.4582 91.6092L20.4579 99.7995C20.4357 99.8603 20.3849 99.8965 20.3315 99.8965Z" fill="black"/>
<path d="M32.9495 60.1496C32.9495 60.1496 35.6211 63.0889 37.2597 68.366C39.825 76.6273 40.8161 90.5543 32.401 107.421L15.8718 109.448L8.49121 132.228H57.2923L68.3241 86.5901C68.3241 86.5901 69.4392 67.9896 61.3279 58.068H57.9585C57.9585 58.068 64.9766 68.953 63.7281 81.7676C63.7281 81.7676 51.1768 84.0866 44.1288 83.2006C44.1288 83.2006 43.8284 66.2786 36.2448 59.821L32.9495 60.1496Z" fill="#0E2642"/>
<path d="M52.2144 104.599H25.9681L16.2334 65.6128H42.4795L52.2144 104.599Z" fill="black"/>
<path d="M35.1455 67.5781H23.3027L22.3867 64.0707H34.2068L35.1455 67.5781Z" fill="white"/>
<path d="M23.4049 67.4181H34.9597L34.1062 64.2298H22.5723L23.4049 67.4181ZM35.146 67.7373H23.3031C23.2427 67.7373 23.1893 67.691 23.1718 67.6237L22.2559 64.1162C22.2433 64.0684 22.2511 64.0156 22.277 63.9751C22.3029 63.9345 22.3438 63.9107 22.3872 63.9107H34.2072C34.2673 63.9107 34.3204 63.9563 34.3383 64.0228L35.2771 67.5303C35.2901 67.5788 35.2824 67.6316 35.2565 67.6722C35.2306 67.7127 35.1896 67.7373 35.146 67.7373Z" fill="black"/>
<path d="M2.44417 86.8139C2.44417 86.8139 -3.90234 106.397 4.44642 111.597C12.7952 116.797 20.1632 94.4289 21.6379 87.0912C21.6379 87.0912 24.2197 83.7386 26.6951 82.9084C29.1113 82.0985 29.1226 79.0485 25.7273 80.1465C25.7273 80.1465 29.7626 78.6888 29.8822 76.681C30.0019 74.6739 24.0711 76.9567 24.0711 76.9567C24.0711 76.9567 28.936 75.0677 29.6016 74.3294C30.3123 73.5419 30.6353 71.008 26.3958 72.3122C26.3958 72.3122 28.393 71.4184 28.6374 69.7001C28.8819 67.9826 22.6613 67.8081 18.653 71.1781C12.5653 76.2966 5.57048 89.2191 5.57048 89.2191L2.44417 86.8139Z" fill="white"/>
<path d="M21.7204 74.3584C21.6703 74.3584 21.622 74.3266 21.5978 74.2708C21.5636 74.1919 21.5907 74.0964 21.6584 74.0566C23.1109 73.204 24.6487 72.5562 26.229 72.1299C26.303 72.1089 26.3766 72.1639 26.3938 72.2493C26.4109 72.3347 26.3649 72.4208 26.2911 72.4404C24.7321 72.8609 23.2151 73.5 21.7822 74.341C21.7624 74.3526 21.7412 74.3584 21.7204 74.3584Z" fill="black"/>
<path d="M24.3072 80.9893C24.2557 80.9893 24.2062 80.9552 24.1829 80.8981C24.1508 80.8177 24.1803 80.7229 24.2489 80.686C24.3265 80.6433 24.4143 80.5933 24.5097 80.5398C24.8679 80.3364 25.3585 80.0585 25.8127 79.8992C25.8852 79.8732 25.9618 79.921 25.9837 80.0056C26.0057 80.0896 25.9646 80.1786 25.8921 80.204C25.4591 80.3559 24.9994 80.6165 24.6301 80.8264C24.5333 80.8807 24.4442 80.9314 24.3654 80.9741C24.3465 80.9842 24.3267 80.9893 24.3072 80.9893Z" fill="black"/>
<path d="M23.3951 77.4678C23.3418 77.4678 23.2911 77.4316 23.2688 77.3708C23.2391 77.2897 23.2716 77.1964 23.3412 77.1616C23.4198 77.1233 23.5088 77.0769 23.6054 77.027C23.9696 76.8388 24.4685 76.5819 24.9275 76.4407C25.0013 76.4183 25.0759 76.4697 25.0951 76.5544C25.1145 76.6398 25.0707 76.7266 24.9974 76.7491C24.5599 76.883 24.0924 77.1247 23.7169 77.3187C23.6188 77.3693 23.5286 77.4157 23.4489 77.4547C23.4313 77.4642 23.4131 77.4678 23.3951 77.4678Z" fill="black"/>
<path d="M2.76618 96.5732C2.75067 96.5732 2.7349 96.5703 2.7195 96.5638C2.6482 96.5342 2.6113 96.443 2.63717 96.3597C3.39862 93.9184 4.31701 91.5212 5.36684 89.2355C5.40255 89.1581 5.48545 89.1284 5.55251 89.1697C5.61939 89.2116 5.64463 89.3079 5.60904 89.3853C4.56525 91.658 3.65229 94.0414 2.89527 96.4683C2.87501 96.5334 2.82234 96.5732 2.76618 96.5732Z" fill="black"/>
<path d="M2.51409 87.0594C2.22197 88.0105 0.925817 92.4212 0.450761 97.2799C-0.039129 102.289 0.267892 108.815 4.51167 111.458C6.03307 112.406 7.61512 112.46 9.21406 111.62C15.4871 108.327 20.4181 92.4617 21.5046 87.0551C21.5098 87.029 21.5206 87.0051 21.5359 86.9856C21.6424 86.8473 24.1726 83.5896 26.6574 82.7565C27.8385 82.3599 28.3999 81.4204 28.2428 80.7777C28.1094 80.2312 27.3804 79.7789 25.7644 80.3007C25.6924 80.3253 25.6172 80.2761 25.596 80.1922C25.5748 80.1089 25.6153 80.0213 25.6868 79.9953C25.7263 79.9808 29.6339 78.547 29.7457 76.671C29.7566 76.4886 29.7086 76.3561 29.5947 76.2533C28.7947 75.5324 25.3675 76.6261 24.1146 77.1088C24.0428 77.1363 23.9651 77.0915 23.9412 77.0075C23.9173 76.9243 23.9561 76.8345 24.0279 76.8063C25.373 76.2845 28.9795 74.8007 29.5073 74.2152C29.8231 73.8648 30.0224 73.1939 29.7937 72.7198C29.5919 72.3015 28.8865 71.7123 26.4314 72.4672C26.3609 72.4882 26.2883 72.4433 26.2657 72.3623C26.2432 72.2819 26.2788 72.1951 26.3467 72.1647C26.366 72.156 28.2738 71.2817 28.5024 69.6749C28.5132 69.5996 28.5458 69.3716 28.2125 69.132C26.9406 68.2179 22.0633 68.5089 18.7339 71.3084C12.7371 76.3496 5.75684 89.1757 5.68697 89.3046C5.66728 89.3408 5.63586 89.3668 5.59965 89.3755C5.56375 89.3842 5.52579 89.3762 5.495 89.3531L2.51409 87.0594ZM6.97639 112.532C6.09839 112.532 5.23124 112.267 4.38191 111.738C0.914598 109.579 -0.538868 104.565 0.178516 97.2387C0.717207 91.7365 2.30019 86.8075 2.31608 86.7583C2.33079 86.7134 2.36251 86.678 2.40234 86.6635C2.44198 86.6483 2.48549 86.6548 2.52033 86.6816L5.53009 88.9977C6.30538 87.5899 12.8712 75.8437 18.5729 71.0501C22.047 68.1289 26.997 67.8842 28.3569 68.8606C28.7616 69.1516 28.8067 69.4925 28.7733 69.727C28.631 70.7265 27.946 71.4518 27.3552 71.9034C29.1064 71.5545 29.782 72.0431 30.0332 72.5642C30.3301 73.1794 30.0953 74.0038 29.6968 74.446C29.3836 74.7927 28.2166 75.3689 27.0296 75.8972C28.1593 75.6555 29.2828 75.5686 29.7629 76.0014C29.9479 76.1686 30.0366 76.4075 30.0195 76.6934C29.9387 78.0483 28.2486 79.1362 27.0228 79.7506C27.0259 79.7506 27.029 79.7506 27.032 79.7506C27.9287 79.7506 28.3823 80.1806 28.5069 80.6908C28.7041 81.4979 28.0947 82.606 26.7335 83.0627C24.4464 83.8299 22.0258 86.8358 21.7637 87.168C20.6528 92.6535 15.6789 108.576 9.32718 111.911C8.53818 112.325 7.75305 112.532 6.97639 112.532Z" fill="black"/>
<path d="M42.3868 47.4996L40.8027 60.2215C40.8027 60.2215 44.5894 66.4461 50.5778 64.5092C56.5668 62.5724 52.422 58.9506 52.422 58.9506L53.332 49.655L42.3868 47.4996Z" fill="white"/>
<path d="M40.9451 60.1796C41.3224 60.7608 44.9993 66.1472 50.5396 64.3558C52.4399 63.7413 53.4889 62.9061 53.6565 61.8718C53.8878 60.451 52.3539 59.091 52.3383 59.078C52.2997 59.044 52.2791 58.9882 52.2847 58.9325L53.1797 49.7868L42.5013 47.6842L40.9451 60.1796ZM48.3014 65.0391C43.625 65.0391 40.7224 60.3678 40.6892 60.3135C40.6689 60.2802 40.6604 60.2389 40.6655 60.1984L42.2495 47.4772C42.2545 47.4345 42.2744 47.3961 42.3043 47.3708C42.3342 47.3462 42.3716 47.3361 42.4084 47.3426L53.3536 49.4973C53.4253 49.5117 53.4752 49.5885 53.4671 49.6724L52.5658 58.8804C52.8737 59.1685 54.1633 60.4771 53.9264 61.9311C53.7376 63.0943 52.6225 64.0135 50.6131 64.6627C49.8029 64.9254 49.03 65.0391 48.3014 65.0391Z" fill="black"/>
<path d="M37.8612 42.8761C37.8612 42.8761 36.89 48.1611 39.5667 50.7776C40.5207 51.7098 41.9711 51.4529 41.9711 51.4529L42.2036 49.8353C43.6414 49.0188 44.0927 48.1365 44.3034 46.2605C44.4093 45.3109 44.9422 44.2158 46.4219 43.2032C50.1216 40.6714 37.8612 42.8761 37.8612 42.8761Z" fill="black"/>
<path d="M47.873 33.5921C47.873 33.5921 54.4697 29.4398 54.1269 37.6432C53.1241 44.4424 47.873 33.5921 47.873 33.5921Z" fill="black"/>
<path d="M51.4689 32.7058C54.723 39.2864 56.6271 44.785 56.4844 48.645C56.3959 51.0392 55.0184 53.0941 53.0988 53.8323C50.2554 54.9252 44.5338 55.7185 40.7436 46.8811L37.8467 39.7815L51.4689 32.7058Z" fill="white"/>
<path d="M38.0303 39.86L40.8672 46.8127C44.5683 55.4416 50.0923 54.8199 53.0553 53.6799C54.9395 52.9562 56.262 50.9296 56.3468 48.6381C56.4789 45.0604 54.864 39.9143 51.4111 32.9095L38.0303 39.86ZM49.7458 54.6426C48.9492 54.6426 48.1022 54.5275 47.2371 54.2329C44.5221 53.3079 42.2958 50.8586 40.6203 46.9517L37.7222 39.8492C37.7064 39.8108 37.7047 39.7659 37.7175 39.7261C37.7303 39.6856 37.7565 39.653 37.7902 39.6357L51.4124 32.56C51.4766 32.5274 51.552 32.5556 51.5875 32.6258C55.1096 39.7486 56.7563 44.9909 56.621 48.6518C56.5313 51.0751 55.1333 53.2174 53.142 53.9825C52.2532 54.3241 51.0696 54.6426 49.7458 54.6426Z" fill="black"/>
<path d="M39.2109 40.7428L40.2992 44.3096L41.6429 43.8608L41.7058 43.8254C43.1437 43.0089 44.1222 42.1636 44.5872 40.5676C44.8508 39.6622 45.1294 38.7871 46.6091 37.7745C50.3088 35.2427 39.2109 40.7428 39.2109 40.7428Z" fill="black"/>
<path d="M52.9353 34.235C52.9353 34.235 49.0529 20.7401 40.4047 25.7993C33.7078 29.7172 34.1332 36.6568 37.3486 43.207L52.9353 34.235Z" fill="#0E2642"/>
<path d="M58.6663 30.1435L52.3949 32.9105L37.3486 43.207L58.9629 30.9577C59.36 30.7326 59.0789 29.9611 58.6663 30.1435Z" fill="#0E2642"/>
<path d="M37.6679 45.2193C37.5621 44.3478 37.5882 43.4105 37.9728 42.7114C38.5532 41.6568 39.83 41.4759 40.8108 42.0469C41.3863 42.382 41.8681 42.9198 42.2645 43.5517L42.1237 43.2672C42.9078 43.9867 43.3771 45.2258 43.3073 46.3947C43.2381 47.5636 42.6329 48.6167 41.7796 49.0532C40.9265 49.4896 39.8591 49.2913 39.0853 48.553C38.2587 47.7648 37.82 46.4758 37.6679 45.2193Z" fill="white"/>
<path d="M40.8157 49.4434C40.1775 49.4434 39.5273 49.1799 38.9999 48.6761C37.9667 47.6911 37.6378 46.1017 37.5337 45.2418C37.4001 44.1409 37.5095 43.2608 37.8588 42.6253C38.505 41.4513 39.8993 41.3363 40.8739 41.9044C41.4267 42.2265 41.9321 42.7491 42.3771 43.4584C42.422 43.5293 42.4083 43.6292 42.3472 43.6813C42.2861 43.7327 42.2001 43.7168 42.1553 43.6459C41.7364 42.9785 41.2639 42.4878 40.7509 42.1889C39.8849 41.6851 38.6529 41.7749 38.0901 42.7969C37.7771 43.3665 37.6812 44.1735 37.8054 45.1976C37.904 46.0112 38.2128 47.5138 39.1741 48.4301C39.9129 49.135 40.9144 49.3225 41.7258 48.907C41.795 48.8723 41.876 48.9085 41.9066 48.9888C41.9371 49.0699 41.906 49.1633 41.8361 49.1987C41.5152 49.3637 41.1671 49.4434 40.8157 49.4434Z" fill="black"/>
<path d="M43.0041 46.9834C42.958 46.9834 42.9125 46.9566 42.8863 46.9067C42.4432 46.0548 41.6199 45.5062 40.8381 45.5438C40.7613 45.5474 40.6985 45.4794 40.6954 45.3911C40.6924 45.3035 40.7513 45.2289 40.827 45.226C41.7059 45.1826 42.6283 45.7935 43.1213 46.7424C43.1606 46.8176 43.14 46.9154 43.0752 46.961C43.0528 46.9762 43.0284 46.9834 43.0041 46.9834Z" fill="black"/>
<path d="M87.0811 24.2323C87.0811 25.3332 86.3133 26.2256 85.3653 26.2256C84.4179 26.2256 83.6494 25.3332 83.6494 24.2323C83.6494 23.1314 84.4179 22.239 85.3653 22.239C86.3133 22.239 87.0811 23.1314 87.0811 24.2323Z" fill="#E2EAFF"/>
<path d="M85.4135 21.6914C85.3374 21.6914 85.2764 21.6205 85.2764 21.5322V12.8106C85.2764 12.7686 85.2907 12.7281 85.3163 12.6984C85.3424 12.668 85.3773 12.6514 85.4135 12.6514L94.3275 12.655C94.4029 12.655 94.4646 12.7266 94.4646 12.8142C94.4646 12.9025 94.4029 12.9742 94.3275 12.9742C94.3275 12.9742 94.3275 12.9742 94.3269 12.9742L85.5506 12.9698V21.5322C85.5506 21.6205 85.4895 21.6914 85.4135 21.6914Z" fill="#5479F7"/>
</svg>
