<svg width="281" height="188" viewBox="0 0 281 188" fill="none" xmlns="http://www.w3.org/2000/svg">
<path d="M103.84 29.4123H3.85449V34.1302L7.60713 38.1562H100.087L103.84 34.1302V29.4123Z" fill="white"/>
<path d="M7.70643 37.9298H99.989L103.614 34.0417V29.6388H4.08189V34.0417L7.70643 37.9298ZM100.088 38.3828H7.60779C7.54488 38.3828 7.48485 38.3571 7.44191 38.3107L3.68927 34.2847C3.65025 34.2435 3.62842 34.1879 3.62842 34.1303V29.4123C3.62842 29.2867 3.72994 29.1848 3.85515 29.1848H103.841C103.966 29.1848 104.068 29.2867 104.068 29.4123V34.1303C104.068 34.1879 104.046 34.2435 104.007 34.2847L100.254 38.3107C100.211 38.3571 100.151 38.3828 100.088 38.3828Z" fill="black"/>
<path d="M104.153 0.226048H3.54255C1.76101 0.226048 0.316895 1.76335 0.316895 3.66001V30.7775C0.316895 32.6741 1.76101 34.2114 3.54255 34.2114H104.153C105.934 34.2114 107.379 32.6741 107.379 30.7775V3.66001C107.379 1.76335 105.934 0.226048 104.153 0.226048Z" fill="white"/>
<path d="M3.54272 0.452618C1.88917 0.452618 0.5438 1.8921 0.5438 3.66005V30.7775C0.5438 32.5465 1.88917 33.9849 3.54272 33.9849H104.153C105.806 33.9849 107.151 32.5465 107.151 30.7775V3.66005C107.151 1.8921 105.806 0.452618 104.153 0.452618H3.54272ZM104.153 34.438H3.54272C1.63906 34.438 0.090332 32.7957 0.090332 30.7775V3.66005C0.090332 1.64189 1.63906 -0.00043869 3.54272 -0.00043869H104.153C106.057 -0.00043869 107.605 1.64189 107.605 3.66005V30.7775C107.605 32.7957 106.057 34.438 104.153 34.438Z" fill="black"/>
<path d="M66.8274 31.0337H40.8677V26.0655H66.8274V31.0337Z" fill="#E2EAFF"/>
<path d="M92.8142 9.55263C92.8142 10.6781 91.9564 11.5903 90.9 11.5903C89.8425 11.5903 88.9858 10.6781 88.9858 9.55263C88.9858 8.42719 89.8425 7.5149 90.9 7.5149C91.9564 7.5149 92.8142 8.42719 92.8142 9.55263Z" fill="#0E2642"/>
<path d="M97.9982 9.55263C97.9982 10.6781 97.1415 11.5903 96.0851 11.5903C95.0276 11.5903 94.1709 10.6781 94.1709 9.55263C94.1709 8.42719 95.0276 7.5149 96.0851 7.5149C97.1415 7.5149 97.9982 8.42719 97.9982 9.55263Z" fill="#E2EAFF"/>
<path d="M103.182 9.55263C103.182 10.6781 102.326 11.5903 101.268 11.5903C100.212 11.5903 99.355 10.6781 99.355 9.55263C99.355 8.42719 100.212 7.5149 101.268 7.5149C102.326 7.5149 103.182 8.42719 103.182 9.55263Z" fill="#E2EAFF"/>
<path d="M27.1409 35.7546C27.1409 42.7842 21.4436 48.4824 14.4156 48.4824C7.38761 48.4824 1.69043 42.7842 1.69043 35.7546C1.69043 28.7251 7.38761 23.0269 14.4156 23.0269C21.4436 23.0269 27.1409 28.7251 27.1409 35.7546Z" fill="#0E2642"/>
<path d="M13.2917 42.5243C13.2687 42.5263 13.2454 42.5284 13.2225 42.5294C12.6163 42.5624 12.0309 42.3019 11.6497 41.8293L7.65863 36.8848C7.00314 36.0723 7.1299 34.8831 7.942 34.2272C8.75266 33.5713 9.94296 33.699 10.5984 34.5114L12.9438 37.4171L18.1123 29.3579C18.6758 28.4785 19.844 28.2242 20.7225 28.7874C21.6006 29.3507 21.8557 30.5204 21.2925 31.3977L14.7097 41.6624C14.3944 42.1536 13.8705 42.4707 13.2917 42.5243Z" fill="white"/>
<path d="M161.037 18.224L150.151 34.8213L150.099 61.3755H282.196L282.155 18.5442L161.037 18.224Z" fill="white"/>
<path d="M150.326 61.1475H281.97L281.929 18.7703L161.159 18.4511L150.378 34.8888L150.326 61.1475ZM282.196 61.6016H150.099C150.039 61.6016 149.981 61.5779 149.938 61.5346C149.896 61.4924 149.872 61.4347 149.872 61.374L149.925 34.8198C149.925 34.7755 149.937 34.7333 149.962 34.6962L160.847 18.0989C160.89 18.0351 160.961 17.997 161.038 17.997L282.156 18.3172C282.281 18.3172 282.382 18.4191 282.382 18.5437L282.424 61.374C282.424 61.4347 282.4 61.4924 282.357 61.5346C282.315 61.5779 282.257 61.6016 282.196 61.6016Z" fill="black"/>
<path d="M282.196 61.3755L267.338 61.3508L267.339 34.9716L277.431 18.571L282.181 18.5576L282.196 61.3755Z" fill="white"/>
<path d="M267.565 61.1238L281.97 61.1475L281.955 18.7847L277.558 18.797L267.567 35.035L267.565 61.1238ZM282.197 61.6016L267.338 61.5768C267.213 61.5768 267.112 61.4749 267.112 61.3503L267.113 34.9711C267.113 34.9289 267.125 34.8877 267.147 34.8527L277.238 18.4521C277.279 18.3852 277.352 18.344 277.43 18.344L282.181 18.3306C282.241 18.3306 282.298 18.3543 282.342 18.3965C282.384 18.4387 282.408 18.4974 282.408 18.5571L282.423 61.375C282.423 61.4348 282.399 61.4924 282.357 61.5357C282.315 61.5779 282.257 61.6016 282.197 61.6016Z" fill="black"/>
<path d="M280.666 0.333158L282.247 12.023L282.155 18.5439L262.352 18.5244L271.345 5.0954L280.666 0.333158Z" fill="white"/>
<path d="M262.777 18.2979L281.932 18.3175L282.021 12.0364L280.484 0.680185L271.501 5.2715L262.777 18.2979ZM282.155 18.7705L262.351 18.7509C262.268 18.7509 262.191 18.7046 262.152 18.6305C262.112 18.5563 262.117 18.4678 262.164 18.3978L271.157 4.9698C271.179 4.93788 271.208 4.91215 271.243 4.89362L280.563 0.131382C280.628 0.0974026 280.706 0.0984287 280.771 0.132406C280.836 0.166386 280.88 0.230227 280.891 0.302303L282.472 11.9922C282.474 12.0035 282.474 12.0148 282.474 12.0262L282.382 18.5471C282.381 18.6717 282.28 18.7705 282.155 18.7705Z" fill="black"/>
<path d="M271.115 18.2498L257.434 35.0334L257.403 57.02L158.712 56.9407L158.657 33.2727L169.485 18.2899L271.115 18.2498Z" fill="#5479F7"/>
<path d="M265.217 29.0303H160.842V26.7897H265.217V29.0303Z" fill="white"/>
<path d="M271.961 22.5996H167.586V20.358H271.961V22.5996Z" fill="white"/>
<path d="M167.724 38.9502C167.723 38.9502 167.723 38.9502 167.722 38.9502C167.534 38.9492 167.383 38.7957 167.384 38.6083L167.411 34.0716C167.412 33.9964 167.437 33.9233 167.484 33.8636L173.383 26.3789C173.499 26.2317 173.712 26.2059 173.86 26.3223C174.008 26.4386 174.033 26.6518 173.917 26.8001L168.09 34.1931L168.063 38.6125C168.062 38.7988 167.91 38.9502 167.724 38.9502Z" fill="white"/>
<path d="M177.634 38.9502C177.633 38.9502 177.632 38.9502 177.632 38.9502C177.444 38.9492 177.292 38.7957 177.293 38.6083L177.321 34.0716C177.321 33.9964 177.347 33.9233 177.394 33.8636L183.292 26.3789C183.409 26.2317 183.623 26.2059 183.77 26.3223C183.917 26.4386 183.943 26.6518 183.827 26.8001L178.001 34.1931L177.974 38.6125C177.973 38.7988 177.821 38.9502 177.634 38.9502Z" fill="white"/>
<path d="M187.543 38.9502C187.542 38.9502 187.542 38.9502 187.541 38.9502C187.354 38.9492 187.203 38.7957 187.204 38.6083L187.23 34.0716C187.231 33.9964 187.257 33.9233 187.303 33.8636L193.202 26.3789C193.319 26.2317 193.532 26.2059 193.68 26.3223C193.828 26.4386 193.853 26.6518 193.737 26.8001L187.91 34.1931L187.883 38.6125C187.882 38.7988 187.731 38.9502 187.543 38.9502Z" fill="white"/>
<path d="M197.453 38.9502C197.453 38.9502 197.452 38.9502 197.451 38.9502C197.263 38.9492 197.112 38.7957 197.113 38.6083L197.141 34.0716C197.141 33.9964 197.166 33.9233 197.214 33.8636L203.112 26.3789C203.228 26.2317 203.442 26.2059 203.589 26.3223C203.737 26.4386 203.762 26.6518 203.646 26.8001L197.82 34.1931L197.793 38.6125C197.792 38.7988 197.64 38.9502 197.453 38.9502Z" fill="white"/>
<path d="M207.364 38.9502C207.363 38.9502 207.363 38.9502 207.362 38.9502C207.175 38.9492 207.023 38.7957 207.024 38.6083L207.051 34.0716C207.052 33.9964 207.078 33.9233 207.124 33.8636L213.023 26.3789C213.14 26.2317 213.353 26.2059 213.501 26.3223C213.648 26.4386 213.674 26.6518 213.558 26.8001L207.731 34.1931L207.704 38.6125C207.703 38.7988 207.552 38.9502 207.364 38.9502Z" fill="white"/>
<path d="M217.274 38.9502C217.273 38.9502 217.272 38.9502 217.272 38.9502C217.083 38.9492 216.932 38.7957 216.933 38.6083L216.961 34.0716C216.961 33.9964 216.987 33.9233 217.034 33.8636L222.932 26.3789C223.048 26.2317 223.263 26.2059 223.41 26.3223C223.558 26.4386 223.583 26.6518 223.466 26.8001L217.641 34.1931L217.614 38.6125C217.613 38.7988 217.46 38.9502 217.274 38.9502Z" fill="white"/>
<path d="M227.184 38.9502C227.183 38.9502 227.183 38.9502 227.182 38.9502C226.995 38.9492 226.843 38.7957 226.844 38.6083L226.871 34.0716C226.872 33.9964 226.898 33.9233 226.944 33.8636L232.843 26.3789C232.959 26.2317 233.173 26.2059 233.321 26.3223C233.468 26.4386 233.494 26.6518 233.378 26.8001L227.551 34.1931L227.524 38.6125C227.523 38.7988 227.371 38.9502 227.184 38.9502Z" fill="white"/>
<path d="M237.095 38.9502C237.094 38.9502 237.093 38.9502 237.092 38.9502C236.904 38.9492 236.753 38.7957 236.754 38.6083L236.782 34.0716C236.782 33.9964 236.807 33.9233 236.855 33.8636L242.753 26.3789C242.869 26.2317 243.083 26.2059 243.231 26.3223C243.379 26.4386 243.404 26.6518 243.287 26.8001L237.461 34.1931L237.435 38.6125C237.433 38.7988 237.281 38.9502 237.095 38.9502Z" fill="white"/>
<path d="M247.004 38.9502C247.004 38.9502 247.003 38.9502 247.002 38.9502C246.815 38.9492 246.664 38.7957 246.665 38.6083L246.691 34.0716C246.692 33.9964 246.718 33.9233 246.764 33.8636L252.663 26.3789C252.78 26.2317 252.994 26.2059 253.141 26.3223C253.288 26.4386 253.314 26.6518 253.198 26.8001L247.371 34.1931L247.344 38.6125C247.343 38.7988 247.192 38.9502 247.004 38.9502Z" fill="white"/>
<path d="M260.328 40.7974H155.954V38.5568H260.328V40.7974Z" fill="white"/>
<path d="M260.409 35.1143H156.036V32.8726H260.409V35.1143Z" fill="white"/>
<path d="M205.956 39.0359V57.5278H203.662V39.0359H205.956Z" fill="white"/>
<path d="M254.952 43.3911H208.963C208.775 43.3911 208.624 43.2387 208.624 43.0513C208.624 42.8629 208.775 42.7115 208.963 42.7115H254.952C255.139 42.7115 255.291 42.8629 255.291 43.0513C255.291 43.2387 255.139 43.3911 254.952 43.3911Z" fill="white"/>
<path d="M254.952 47.2827H208.963C208.775 47.2827 208.624 47.1303 208.624 46.9429C208.624 46.7545 208.775 46.6021 208.963 46.6021H254.952C255.139 46.6021 255.291 46.7545 255.291 46.9429C255.291 47.1303 255.139 47.2827 254.952 47.2827Z" fill="white"/>
<path d="M254.952 45.3369H208.963C208.775 45.3369 208.624 45.1845 208.624 44.9971C208.624 44.8087 208.775 44.6573 208.963 44.6573H254.952C255.139 44.6573 255.291 44.8087 255.291 44.9971C255.291 45.1845 255.139 45.3369 254.952 45.3369Z" fill="white"/>
<path d="M254.952 49.229H208.963C208.775 49.229 208.624 49.0766 208.624 48.8882C208.624 48.7008 208.775 48.5484 208.963 48.5484H254.952C255.139 48.5484 255.291 48.7008 255.291 48.8882C255.291 49.0766 255.139 49.229 254.952 49.229Z" fill="white"/>
<path d="M254.952 51.1743H208.963C208.775 51.1743 208.624 51.0219 208.624 50.8345C208.624 50.6471 208.775 50.4947 208.963 50.4947H254.952C255.139 50.4947 255.291 50.6471 255.291 50.8345C255.291 51.0219 255.139 51.1743 254.952 51.1743Z" fill="white"/>
<path d="M254.952 53.1201H208.963C208.775 53.1201 208.624 52.9677 208.624 52.7803C208.624 52.5929 208.775 52.4405 208.963 52.4405H254.952C255.139 52.4405 255.291 52.5929 255.291 52.7803C255.291 52.9677 255.139 53.1201 254.952 53.1201Z" fill="white"/>
<path d="M254.952 55.0664H208.963C208.775 55.0664 208.624 54.914 208.624 54.7266C208.624 54.5382 208.775 54.3858 208.963 54.3858H254.952C255.139 54.3858 255.291 54.5382 255.291 54.7266C255.291 54.914 255.139 55.0664 254.952 55.0664Z" fill="white"/>
<path d="M200.767 43.3911H161.196C161.009 43.3911 160.856 43.2387 160.856 43.0513C160.856 42.8629 161.009 42.7115 161.196 42.7115H200.767C200.955 42.7115 201.107 42.8629 201.107 43.0513C201.107 43.2387 200.955 43.3911 200.767 43.3911Z" fill="white"/>
<path d="M200.767 47.2827H161.196C161.009 47.2827 160.856 47.1303 160.856 46.9429C160.856 46.7545 161.009 46.6021 161.196 46.6021H200.767C200.955 46.6021 201.107 46.7545 201.107 46.9429C201.107 47.1303 200.955 47.2827 200.767 47.2827Z" fill="white"/>
<path d="M200.767 45.3369H161.196C161.009 45.3369 160.856 45.1845 160.856 44.9971C160.856 44.8087 161.009 44.6573 161.196 44.6573H200.767C200.955 44.6573 201.107 44.8087 201.107 44.9971C201.107 45.1845 200.955 45.3369 200.767 45.3369Z" fill="white"/>
<path d="M200.767 49.229H161.196C161.009 49.229 160.856 49.0766 160.856 48.8882C160.856 48.7008 161.009 48.5484 161.196 48.5484H200.767C200.955 48.5484 201.107 48.7008 201.107 48.8882C201.107 49.0766 200.955 49.229 200.767 49.229Z" fill="white"/>
<path d="M200.767 51.1743H161.196C161.009 51.1743 160.856 51.0219 160.856 50.8345C160.856 50.6471 161.009 50.4947 161.196 50.4947H200.767C200.955 50.4947 201.107 50.6471 201.107 50.8345C201.107 51.0219 200.955 51.1743 200.767 51.1743Z" fill="white"/>
<path d="M200.767 53.1201H161.196C161.009 53.1201 160.856 52.9677 160.856 52.7803C160.856 52.5929 161.009 52.4405 161.196 52.4405H200.767C200.955 52.4405 201.107 52.5929 201.107 52.7803C201.107 52.9677 200.955 53.1201 200.767 53.1201Z" fill="white"/>
<path d="M200.767 55.0664H161.196C161.009 55.0664 160.856 54.914 160.856 54.7266C160.856 54.5382 161.009 54.3858 161.196 54.3858H200.767C200.955 54.3858 201.107 54.5382 201.107 54.7266C201.107 54.914 200.955 55.0664 200.767 55.0664Z" fill="white"/>
<path d="M256.269 27.4229L135.471 27.2993L134.51 24.9032C134.473 24.8106 134.499 24.7045 134.573 24.6407L159.754 2.60979C159.792 2.57787 159.84 2.55934 159.889 2.55831L280.756 0.319796C280.761 0.470127 281.026 2.95473 281.026 2.95473L278.812 5.89857C276.359 5.91196 271.817 5.90784 271.817 5.90784L256.444 27.3312C256.403 27.3889 256.338 27.4229 256.269 27.4229Z" fill="white"/>
<path d="M135.624 27.0723L256.263 27.1959L271.634 5.77558C271.676 5.71586 271.745 5.68086 271.817 5.68086C271.818 5.68086 271.818 5.68086 271.818 5.68086C271.862 5.68086 276.249 5.68497 278.698 5.67261L280.791 2.8894C280.747 2.48577 280.601 1.10292 280.549 0.54999L159.894 2.78438L134.722 24.8111L135.624 27.0723ZM256.269 27.6489L135.471 27.5254C135.378 27.5254 135.295 27.4698 135.26 27.3833L134.3 24.9872C134.227 24.8039 134.278 24.5959 134.426 24.4693L159.604 2.43944C159.685 2.37045 159.784 2.33338 159.885 2.33132L280.752 0.0928116C280.874 0.0845737 280.978 0.187553 280.982 0.311113C280.986 0.422319 281.145 1.93798 281.251 2.92956C281.257 2.98722 281.242 3.04385 281.207 3.09019L278.993 6.03505C278.951 6.09168 278.884 6.12464 278.814 6.12567C276.606 6.137 272.66 6.13494 271.933 6.13494L256.628 27.4636C256.545 27.5799 256.41 27.6489 256.269 27.6489Z" fill="black"/>
<path d="M134.465 24.7129H255.256L270.607 3.32042C270.635 3.28026 270.675 3.25246 270.719 3.23804L278.785 3.22775L280.743 0.33334L159.121 0.273609L151.014 3.14332C150.079 3.47487 149.267 4.08444 148.689 4.88964L134.465 24.7129Z" fill="white"/>
<path d="M134.906 24.4859H255.139L270.423 3.18713C270.478 3.10887 270.561 3.04916 270.653 3.02135C270.675 3.01415 270.697 3.01106 270.719 3.01106L278.664 3.00179L280.316 0.559412L159.159 0.499681L151.09 3.35702C150.194 3.67416 149.427 4.24976 148.873 5.02202L134.906 24.4859ZM255.256 24.939H134.465C134.379 24.939 134.301 24.8916 134.263 24.8154C134.224 24.7402 134.231 24.6496 134.28 24.5796L148.504 4.75738C149.113 3.90996 149.955 3.27774 150.938 2.92971L159.045 0.0589943C159.07 0.0507565 159.096 0.0456009 159.121 0.0456009L280.743 0.106356C280.827 0.106356 280.904 0.152683 280.943 0.226818C280.982 0.300955 280.978 0.390533 280.93 0.45952L278.973 3.35497C278.931 3.41675 278.861 3.45484 278.785 3.45484L270.779 3.46411L255.44 24.8442C255.397 24.904 255.329 24.939 255.256 24.939Z" fill="black"/>
<path d="M235.212 188.203H127.977V105.565H235.212V188.203Z" fill="white"/>
<path d="M128.204 187.977H234.985V105.792H128.204V187.977ZM235.212 188.43H127.977C127.852 188.43 127.75 188.329 127.75 188.203V105.566C127.75 105.44 127.852 105.339 127.977 105.339H235.212C235.337 105.339 235.439 105.44 235.439 105.566V188.203C235.439 188.329 235.337 188.43 235.212 188.43Z" fill="black"/>
<path d="M206.308 90.5882H156.882L125.303 106.154H237.887L206.308 90.5882Z" fill="white"/>
<path d="M126.276 105.926H236.913L206.255 90.8143H156.934L126.276 105.926ZM237.886 106.38H125.303C125.198 106.38 125.106 106.307 125.082 106.204C125.058 106.102 125.108 105.996 125.203 105.949L156.781 90.3849C156.812 90.3695 156.847 90.3613 156.882 90.3613H206.307C206.342 90.3613 206.376 90.3695 206.408 90.3849L237.986 105.949C238.081 105.996 238.13 106.102 238.107 106.204C238.083 106.307 237.991 106.38 237.886 106.38Z" fill="black"/>
<path d="M282.274 135.397H211.076L246.675 124.752L282.274 135.397Z" fill="white"/>
<path d="M212.625 135.17H280.725L246.674 124.989L212.625 135.17ZM282.274 135.624H211.076C210.962 135.624 210.868 135.541 210.851 135.43C210.835 135.318 210.903 135.212 211.011 135.18L246.61 124.535C246.652 124.523 246.697 124.523 246.739 124.535L282.339 135.18C282.447 135.212 282.514 135.318 282.499 135.43C282.482 135.541 282.387 135.624 282.274 135.624Z" fill="black"/>
<path d="M279.605 188.203H213.743V135.415H279.605V188.203Z" fill="white"/>
<path d="M213.97 187.977H279.379V135.642H213.97V187.977ZM279.606 188.43H213.744C213.618 188.43 213.517 188.329 213.517 188.203V135.416C213.517 135.29 213.618 135.189 213.744 135.189H279.606C279.731 135.189 279.832 135.29 279.832 135.416V188.203C279.832 188.329 279.731 188.43 279.606 188.43Z" fill="black"/>
<path d="M272.283 174.618H221.068V143.261H272.283V174.618Z" fill="#E2EAFF"/>
<path d="M175.932 188.203H145.256V135.415H175.932V188.203Z" fill="white"/>
<path d="M145.483 187.977H175.704V135.642H145.483V187.977ZM175.932 188.43H145.256C145.131 188.43 145.029 188.329 145.029 188.203V135.416C145.029 135.29 145.131 135.189 145.256 135.189H175.932C176.056 135.189 176.158 135.29 176.158 135.416V188.203C176.158 188.329 176.056 188.43 175.932 188.43Z" fill="black"/>
<path d="M175.932 183.828H145.665C145.54 183.828 145.438 183.727 145.438 183.601C145.438 183.475 145.54 183.375 145.665 183.375H175.932C176.057 183.375 176.159 183.475 176.159 183.601C176.159 183.727 176.057 183.828 175.932 183.828Z" fill="black"/>
<path d="M175.932 179.228H145.665C145.54 179.228 145.438 179.126 145.438 179.001C145.438 178.875 145.54 178.773 145.665 178.773H175.932C176.057 178.773 176.159 178.875 176.159 179.001C176.159 179.126 176.057 179.228 175.932 179.228Z" fill="black"/>
<path d="M200.094 188.203H188.985V177.09H200.094V188.203Z" fill="white"/>
<path d="M189.212 187.977H199.868V177.317H189.212V187.977ZM200.094 188.43H188.985C188.86 188.43 188.759 188.329 188.759 188.203V177.091C188.759 176.965 188.86 176.864 188.985 176.864H200.094C200.22 176.864 200.322 176.965 200.322 177.091V188.203C200.322 188.329 200.22 188.43 200.094 188.43Z" fill="black"/>
<path d="M194.541 137C190.662 137 187.211 148.177 187.211 156.985C187.211 164.413 189.608 168.024 194.541 168.024C199.472 168.024 201.869 164.413 201.869 156.985C201.869 148.177 198.418 137 194.541 137ZM194.541 168.477C189.377 168.477 186.758 164.611 186.758 156.985C186.758 148.755 190.025 136.546 194.541 136.546C199.055 136.546 202.322 148.755 202.322 156.985C202.322 164.611 199.704 168.477 194.541 168.477Z" fill="black"/>
<path d="M194.54 177.317C194.414 177.317 194.313 177.216 194.313 177.09V158.007C194.313 157.882 194.414 157.781 194.54 157.781C194.665 157.781 194.767 157.882 194.767 158.007V177.09C194.767 177.216 194.665 177.317 194.54 177.317Z" fill="black"/>
<path d="M194.54 166.491C194.444 166.491 194.356 166.431 194.325 166.336C194.285 166.217 194.35 166.089 194.469 166.049C200.427 164.077 198.959 156.899 198.895 156.594C198.868 156.471 198.946 156.351 199.068 156.325C199.191 156.298 199.311 156.377 199.337 156.498C199.354 156.578 200.957 164.379 194.611 166.48C194.587 166.488 194.564 166.491 194.54 166.491Z" fill="black"/>
<path d="M194.021 161.658C192.912 161.658 191.986 161.3 191.262 160.59C189.214 158.579 189.51 154.479 189.524 154.305C189.534 154.181 189.641 154.091 189.768 154.097C189.892 154.107 189.986 154.216 189.976 154.341C189.973 154.382 189.682 158.405 191.58 160.267C192.318 160.991 193.307 161.298 194.518 161.18C194.644 161.168 194.753 161.26 194.766 161.384C194.778 161.509 194.687 161.619 194.562 161.631C194.378 161.649 194.197 161.658 194.021 161.658Z" fill="black"/>
<path d="M247.277 112.025C247.22 112.025 247.161 112.004 247.118 111.959C241.129 105.97 241.129 96.2251 247.118 90.2365C252.928 84.424 252.928 74.9664 247.118 69.155C247.029 69.0664 247.029 68.9223 247.118 68.8337C247.206 68.7452 247.35 68.7452 247.438 68.8337C253.426 74.8233 253.426 84.5681 247.438 90.5567C241.627 96.3692 241.627 105.826 247.438 111.638C247.527 111.727 247.527 111.871 247.438 111.959C247.394 112.004 247.336 112.025 247.277 112.025Z" fill="black"/>
<path d="M257.931 112.025C257.873 112.025 257.815 112.004 257.77 111.959C251.783 105.97 251.783 96.2251 257.77 90.2365C263.582 84.424 263.582 74.9664 257.77 69.155C257.682 69.0664 257.682 68.9223 257.77 68.8337C257.859 68.7452 258.003 68.7452 258.092 68.8337C264.079 74.8233 264.079 84.5681 258.092 90.5567C252.28 96.3692 252.28 105.826 258.092 111.638C258.18 111.727 258.18 111.871 258.092 111.959C258.047 112.004 257.989 112.025 257.931 112.025Z" fill="black"/>
<path d="M268.585 112.025C268.526 112.025 268.469 112.004 268.424 111.959C262.437 105.97 262.437 96.2251 268.424 90.2365C274.236 84.424 274.236 74.9664 268.424 69.155C268.336 69.0664 268.336 68.9223 268.424 68.8337C268.513 68.7452 268.656 68.7452 268.744 68.8337C274.733 74.8233 274.733 84.5681 268.744 90.5567C262.934 96.3692 262.934 105.826 268.744 111.638C268.834 111.727 268.834 111.871 268.744 111.959C268.701 112.004 268.643 112.025 268.585 112.025Z" fill="black"/>
<path d="M130.705 60.0524C130.03 64.7838 132.793 101.346 132.793 101.346L130.87 99.84C130.87 99.84 118.519 111.63 114.834 123.228C114.834 123.228 125.689 134.686 143.672 130.731C172.147 124.469 151.886 65.4304 151.886 65.4304C151.886 65.4304 155.054 64.8342 155.517 61.0831C155.982 57.332 155.267 54.7753 151.929 55.8575C151.929 55.8575 152.425 50.0193 147.775 50.8142C147.775 50.8142 146.037 44.0812 140.698 50.8039C140.698 50.8039 146.406 36.3916 141.13 36.1053C139.681 36.0271 138.841 35.4947 137.615 39.4425C136.39 43.3892 131.381 55.3221 130.705 60.0524Z" fill="white"/>
<path d="M136.217 131.786C127.461 131.786 121.043 128.292 117.627 125.848C117.525 125.775 117.501 125.633 117.574 125.531C117.647 125.429 117.788 125.405 117.89 125.478C122.158 128.532 131.177 133.246 143.624 130.509C148.585 129.418 152.37 126.605 154.875 122.146C160.074 112.894 158.93 97.9964 157.055 87.1282C155.019 75.3281 151.705 65.5998 151.672 65.503C151.65 65.4412 151.657 65.3722 151.69 65.3156C151.723 65.259 151.779 65.2188 151.844 65.2065C151.966 65.1828 154.856 64.5887 155.293 61.0548C155.605 58.5331 155.341 56.9063 154.508 56.2185C153.954 55.7613 153.11 55.7129 151.999 56.0733C151.927 56.0969 151.848 56.0825 151.788 56.0352C151.729 55.9878 151.698 55.9137 151.704 55.8385C151.706 55.8097 151.927 52.9616 150.487 51.6395C149.841 51.0464 148.941 50.8446 147.814 51.0371C147.697 51.0557 147.585 50.9846 147.556 50.8703C147.549 50.8456 146.904 48.4259 145.294 48.0851C144.075 47.8266 142.588 48.7893 140.877 50.9445C140.807 51.032 140.683 51.0546 140.585 51.0001C140.489 50.9434 140.446 50.824 140.489 50.72C140.53 50.616 144.588 40.2698 142.597 37.1623C142.262 36.6392 141.778 36.3674 141.119 36.3313C140.968 36.3231 140.825 36.3108 140.687 36.2984C139.561 36.1985 138.879 36.1357 137.832 39.5089C137.431 40.7991 136.634 42.9243 135.71 45.3863C133.782 50.5233 131.382 56.9176 130.93 60.0838C130.266 64.7369 132.991 100.964 133.018 101.328C133.029 101.454 132.935 101.562 132.809 101.571C132.687 101.579 132.576 101.488 132.566 101.362C132.454 99.8694 129.81 64.7215 130.481 60.02C130.94 56.8043 133.35 50.3854 135.286 45.2267C136.207 42.7719 137.003 40.6519 137.4 39.374C138.501 35.8247 139.34 35.7218 140.728 35.8474C140.861 35.8587 140.999 35.8711 141.142 35.8793C141.948 35.9226 142.564 36.2716 142.978 36.9183C144.691 39.5892 142.39 46.799 141.359 49.6831C142.852 48.0768 144.205 47.389 145.389 47.6423C146.995 47.9831 147.735 49.9241 147.937 50.5594C149.118 50.3998 150.079 50.65 150.795 51.3069C152.105 52.5106 152.19 54.7151 152.171 55.5492C153.29 55.2464 154.172 55.3535 154.797 55.8694C155.77 56.6736 156.08 58.388 155.743 61.1104C155.342 64.3508 152.961 65.3444 152.177 65.5854C152.69 67.1289 155.633 76.2167 157.501 87.0438C159.389 97.9871 160.535 112.998 155.271 122.369C152.7 126.944 148.814 129.832 143.721 130.952C141.062 131.537 138.556 131.786 136.217 131.786Z" fill="black"/>
<path d="M135.457 69.7627C135.337 69.7627 135.237 69.669 135.231 69.5475C135.224 69.4229 135.321 69.3158 135.445 69.3096C137.4 69.2077 139.227 67.8207 139.891 65.9364C140.09 65.366 140.198 64.7389 140.303 64.1324C140.478 63.112 140.66 62.0577 141.284 61.201C141.644 60.7067 142.118 60.3299 142.575 59.9643C142.762 59.8161 142.956 59.6616 143.136 59.5041C143.639 59.0613 144.237 58.3683 144.229 57.5734C144.219 56.762 143.579 56.1051 142.947 55.8137C142.192 55.4657 141.329 55.4647 140.585 55.51C137.613 55.6891 134.648 56.7723 132.238 58.5599C132.137 58.635 131.995 58.6134 131.921 58.5125C131.846 58.4126 131.867 58.2705 131.968 58.1954C134.448 56.3574 137.499 55.2422 140.557 55.0569C141.358 55.0085 142.291 55.0116 143.137 55.4029C143.898 55.754 144.67 56.5602 144.682 57.5683C144.691 58.3447 144.271 59.1097 143.435 59.8439C143.247 60.0096 143.049 60.1672 142.858 60.3196C142.403 60.681 141.975 61.0228 141.65 61.4677C141.089 62.2389 140.924 63.1954 140.75 64.2086C140.642 64.8337 140.531 65.4803 140.318 66.0868C139.596 68.1399 137.602 69.6515 135.469 69.7627C135.465 69.7627 135.461 69.7627 135.457 69.7627Z" fill="black"/>
<path d="M143.406 63.7241C143.182 63.7241 142.965 63.6912 142.759 63.6253C141.849 63.3318 141.27 62.3557 141.496 61.4928C141.528 61.3713 141.651 61.3003 141.773 61.3312C141.894 61.3631 141.966 61.4866 141.934 61.6081C141.771 62.2352 142.22 62.9755 142.898 63.1938C143.513 63.3926 144.275 63.2041 144.884 62.7027C145.505 62.192 145.914 61.4444 146.2 60.8493C147.593 57.958 148.008 54.627 147.367 51.47C147.342 51.3474 147.421 51.227 147.544 51.2023C147.666 51.1786 147.787 51.2569 147.812 51.3794C148.472 54.6331 148.045 58.0661 146.609 61.047C146.302 61.6833 145.861 62.4865 145.173 63.0528C144.641 63.4894 144.006 63.7241 143.406 63.7241Z" fill="black"/>
<path d="M147.352 64.6206C146.284 64.6206 145.257 64.1346 144.719 63.2738C144.653 63.1677 144.685 63.0277 144.791 62.9618C144.897 62.8949 145.037 62.9278 145.104 63.0339C145.775 64.1089 147.361 64.4888 148.638 63.8792C149.757 63.3469 150.636 62.17 151.051 60.6512C151.431 59.2612 151.409 57.7836 151.387 56.3554C151.386 56.2298 151.486 56.1268 151.61 56.1248C151.744 56.1268 151.839 56.2226 151.841 56.3482C151.863 57.8083 151.885 59.3188 151.489 60.7707C151.039 62.4171 150.071 63.7001 148.833 64.289C148.362 64.5135 147.852 64.6206 147.352 64.6206Z" fill="black"/>
<path d="M151.296 65.3672C150.444 65.3672 149.607 64.8039 149.305 63.9843C149.26 63.8669 149.321 63.7362 149.438 63.6929C149.555 63.6497 149.687 63.7094 149.73 63.8268C149.995 64.5476 150.783 65.0171 151.526 64.8956C151.649 64.8771 151.765 64.9594 151.786 65.083C151.806 65.2066 151.722 65.3229 151.599 65.3435C151.498 65.36 151.397 65.3672 151.296 65.3672Z" fill="black"/>
<path d="M117.758 125.89C117.72 125.89 117.681 125.88 117.646 125.86C117.537 125.797 117.5 125.659 117.562 125.55L132.468 99.514C132.531 99.4049 132.669 99.3668 132.778 99.4296C132.886 99.4914 132.924 99.6304 132.861 99.7395L117.955 125.776C117.914 125.849 117.836 125.89 117.758 125.89Z" fill="black"/>
<path d="M33.0115 142.699L1.86182 122.062C1.86182 122.062 9.85568 110.187 17.7597 100.079C24.0961 91.9754 33.5288 87.0433 43.6604 86.5027C59.113 85.679 80.9303 84.5607 100.505 82.8288C108.671 82.107 116.829 84.2621 123.628 88.943L136.855 98.0484L116.231 127.874L108.522 121.751L46.098 160.81H26.221L33.0115 142.699Z" fill="white"/>
<path d="M26.5482 160.582H46.0329L108.402 121.558C108.483 121.508 108.588 121.513 108.664 121.573L116.182 127.545L136.539 98.1056L123.499 89.1289C116.77 84.4964 108.611 82.3393 100.525 83.0549C82.063 84.688 61.4386 85.7846 46.379 86.5846L43.6725 86.7288C33.6014 87.2663 24.2216 92.1829 17.9384 100.219C10.6708 109.513 3.23734 120.435 2.17791 121.999L33.1369 142.509C33.2248 142.568 33.2611 142.679 33.224 142.778L26.5482 160.582ZM46.098 161.036H26.2211C26.1466 161.036 26.077 160.999 26.0347 160.938C25.9924 160.878 25.9827 160.799 26.0088 160.729L32.736 142.788L1.7367 122.251C1.68634 122.217 1.65144 122.166 1.6396 122.106C1.62786 122.048 1.64011 121.986 1.67389 121.935C1.75389 121.817 9.76279 109.939 17.5812 99.9384C23.9451 91.7999 33.4462 86.8194 43.6484 86.2757L46.355 86.1316C61.4111 85.3315 82.0311 84.2349 100.486 82.6029C108.676 81.879 116.941 84.064 123.757 88.7562L136.984 97.8606C137.033 97.8956 137.067 97.9471 137.077 98.0068C137.089 98.0665 137.075 98.1273 137.041 98.1767L116.417 128.002C116.381 128.054 116.326 128.089 116.264 128.098C116.202 128.105 116.139 128.09 116.09 128.051L108.507 122.028L46.2183 161.001C46.1822 161.024 46.1405 161.036 46.098 161.036Z" fill="black"/>
<path d="M33.5885 142.116C33.5589 142.116 33.5288 142.111 33.4998 142.098C33.3847 142.049 33.3309 141.916 33.38 141.801L38.3365 130.149C38.3855 130.034 38.5184 129.979 38.6339 130.028C38.7492 130.078 38.8027 130.211 38.7538 130.326L33.7973 141.978C33.7605 142.064 33.6767 142.116 33.5885 142.116Z" fill="black"/>
<path d="M54.4342 85.5704C54.4342 85.5704 58.8477 89.7519 61.5548 97.2592C65.7929 109.012 67.4302 128.825 53.528 152.82L26.221 155.703L14.0278 188.11H94.6497L112.875 123.185C112.875 123.185 114.717 96.7238 101.317 82.6091H95.7504C95.7504 82.6091 107.344 98.0943 105.282 116.325C105.282 116.325 84.5465 119.624 72.903 118.363C72.903 118.363 72.4067 94.2897 59.8781 85.1029L54.4342 85.5704Z" fill="#0E2642"/>
<path d="M86.2607 148.804H42.9006L26.8184 93.3419H70.1783L86.2607 148.804Z" fill="black"/>
<path d="M58.0621 96.1377H38.4971L36.9839 91.1479H56.5112L58.0621 96.1377Z" fill="white"/>
<path d="M38.6653 95.9111H57.7544L56.3444 91.3754H37.2898L38.6653 95.9111ZM58.0622 96.3652H38.4972C38.3973 96.3652 38.3092 96.2993 38.2802 96.2036L36.767 91.2138C36.7463 91.1458 36.7592 91.0706 36.8019 91.013C36.8446 90.9553 36.9123 90.9214 36.9841 90.9214H56.5113C56.6106 90.9214 56.6983 90.9862 56.7278 91.081L58.2787 96.0707C58.3001 96.1397 58.2875 96.2149 58.2447 96.2726C58.202 96.3302 58.1343 96.3652 58.0622 96.3652Z" fill="black"/>
<path d="M4.03888 123.505C4.03888 123.505 -6.44587 151.365 7.3467 158.762C21.1394 166.16 33.3117 134.338 35.7479 123.899C35.7479 123.899 40.0132 119.13 44.1027 117.949C48.0944 116.796 48.113 112.457 42.5037 114.019C42.5037 114.019 49.1703 111.946 49.368 109.089C49.5657 106.234 39.7676 109.482 39.7676 109.482C39.7676 109.482 47.8048 106.794 48.9044 105.744C50.0784 104.624 50.6121 101.019 43.6082 102.874C43.6082 102.874 46.9077 101.602 47.3115 99.158C47.7154 96.7146 37.4386 96.4665 30.8168 101.261C20.7595 108.542 9.20372 126.926 9.20372 126.926L4.03888 123.505Z" fill="white"/>
<path d="M35.8833 105.784C35.8004 105.784 35.7206 105.738 35.6806 105.659C35.6242 105.547 35.669 105.411 35.7807 105.354C38.1804 104.141 40.7209 103.22 43.3317 102.613C43.4538 102.583 43.5755 102.662 43.6039 102.783C43.6322 102.905 43.5562 103.027 43.4343 103.055C40.8588 103.653 38.3525 104.563 35.9853 105.759C35.9526 105.775 35.9176 105.784 35.8833 105.784Z" fill="black"/>
<path d="M40.1555 115.217C40.0704 115.217 39.9887 115.168 39.9502 115.087C39.8971 114.973 39.9459 114.838 40.0592 114.785C40.1874 114.725 40.3324 114.654 40.4901 114.577C41.0818 114.288 41.8923 113.893 42.6426 113.666C42.7624 113.629 42.889 113.697 42.9252 113.817C42.9616 113.937 42.8936 114.064 42.7739 114.1C42.0584 114.316 41.2991 114.687 40.6889 114.985C40.5291 115.062 40.3818 115.134 40.2516 115.195C40.2205 115.21 40.1877 115.217 40.1555 115.217Z" fill="black"/>
<path d="M38.6502 110.207C38.5621 110.207 38.4783 110.156 38.4415 110.069C38.3925 109.954 38.446 109.821 38.5612 109.771C38.691 109.717 38.8379 109.651 38.9975 109.58C39.5993 109.312 40.4234 108.947 41.1817 108.746C41.3037 108.714 41.4268 108.787 41.4587 108.908C41.4907 109.029 41.4184 109.153 41.2973 109.185C40.5744 109.375 39.8021 109.719 39.1817 109.995C39.0198 110.067 38.8707 110.133 38.739 110.188C38.7099 110.202 38.6799 110.207 38.6502 110.207Z" fill="black"/>
<path d="M4.57103 137.388C4.54539 137.388 4.51934 137.384 4.49391 137.374C4.37611 137.332 4.31516 137.202 4.35789 137.084C5.61584 133.611 7.13306 130.201 8.86744 126.949C8.92644 126.839 9.06339 126.796 9.17418 126.855C9.28467 126.915 9.32637 127.052 9.26757 127.162C7.54318 130.395 6.03492 133.786 4.78428 137.238C4.75081 137.331 4.6638 137.388 4.57103 137.388Z" fill="black"/>
<path d="M4.15341 123.853C3.6708 125.206 1.5295 131.481 0.74468 138.393C-0.064643 145.518 0.442571 154.803 7.45351 158.563C9.96694 159.911 12.5806 159.988 15.2221 158.794C25.5855 154.109 33.7317 131.538 35.5266 123.847C35.5353 123.81 35.5532 123.776 35.5784 123.748C35.7544 123.551 39.9343 118.917 44.0394 117.732C45.9906 117.167 46.9181 115.831 46.6586 114.916C46.4382 114.139 45.2338 113.496 42.5641 114.238C42.4451 114.273 42.3209 114.203 42.2859 114.083C42.2508 113.965 42.3177 113.84 42.4359 113.803C42.5011 113.783 48.9567 111.743 49.1415 109.074C49.1594 108.815 49.0801 108.626 48.892 108.48C47.5703 107.454 41.9084 109.01 39.8385 109.697C39.7198 109.736 39.5916 109.672 39.5521 109.553C39.5126 109.435 39.5767 109.307 39.6952 109.267C41.9175 108.524 47.8756 106.413 48.7475 105.58C49.2693 105.082 49.5985 104.128 49.2207 103.453C48.8873 102.858 47.7219 102.02 43.666 103.094C43.5496 103.124 43.4296 103.06 43.3923 102.944C43.3551 102.83 43.4139 102.707 43.5261 102.663C43.5579 102.651 46.7097 101.407 47.0875 99.1213C47.1052 99.0142 47.159 98.6899 46.6085 98.349C44.5072 97.0486 36.4496 97.4625 30.9493 101.445C21.0423 108.617 9.51059 126.864 9.39517 127.047C9.36263 127.099 9.31073 127.136 9.25091 127.148C9.1916 127.16 9.12889 127.149 9.07802 127.116L4.15341 123.853ZM11.5254 160.091C10.0749 160.091 8.64227 159.714 7.23913 158.962C1.51096 155.89 -0.890236 148.757 0.294917 138.334C1.18486 130.507 3.80003 123.495 3.82628 123.425C3.85058 123.361 3.90299 123.31 3.96879 123.29C4.03428 123.268 4.10615 123.277 4.16371 123.316L9.13599 126.61C10.4168 124.608 21.2639 107.897 30.6833 101.078C36.4228 96.9219 44.6004 96.5739 46.847 97.9629C47.5156 98.3769 47.59 98.8618 47.535 99.1954C47.2998 100.617 46.1682 101.649 45.1921 102.292C48.0852 101.795 49.2014 102.49 49.6163 103.232C50.1068 104.107 49.7189 105.28 49.0606 105.909C48.5431 106.402 46.6153 107.222 44.6542 107.973C46.5206 107.629 48.3767 107.506 49.1699 108.122C49.4754 108.36 49.6219 108.699 49.5938 109.106C49.4602 111.034 46.6681 112.581 44.643 113.455C44.6481 113.455 44.6532 113.455 44.6583 113.455C46.1397 113.455 46.889 114.067 47.0948 114.793C47.4206 115.941 46.4139 117.517 44.1651 118.167C40.3867 119.259 36.3877 123.535 35.9548 124.007C34.1195 131.811 25.9023 154.463 15.409 159.208C14.1055 159.797 12.8084 160.091 11.5254 160.091Z" fill="black"/>
<path d="M70.0232 67.5739L67.4062 85.6724C67.4062 85.6724 73.662 94.5276 83.5551 91.7722C93.4493 89.0168 86.6019 83.8643 86.6019 83.8643L88.1052 70.6403L70.0232 67.5739Z" fill="white"/>
<path d="M67.6436 85.6131C68.2667 86.44 74.3413 94.1028 83.494 91.5544C86.6335 90.6802 88.3665 89.4919 88.6434 88.0205C89.0254 85.9993 86.4914 84.0645 86.4657 84.046C86.4018 83.9976 86.3679 83.9183 86.3771 83.839L87.8557 70.8281L70.2144 67.8369L67.6436 85.6131ZM79.7965 92.5264C72.0709 92.5264 67.2756 85.8809 67.2207 85.8036C67.1872 85.7563 67.1732 85.6976 67.1816 85.6399L69.7984 67.5424C69.8066 67.4816 69.8396 67.4271 69.889 67.391C69.9384 67.356 70.0002 67.3416 70.0609 67.3509L88.143 70.4162C88.2614 70.4368 88.3438 70.5459 88.3304 70.6654L86.8415 83.7649C87.3502 84.1747 89.4806 86.0363 89.0893 88.1049C88.7773 89.7596 86.9352 91.0673 83.6155 91.9909C82.277 92.3647 81.0002 92.5264 79.7965 92.5264Z" fill="black"/>
<path d="M62.5484 60.9959C62.5484 60.9959 60.9439 68.5145 65.366 72.2368C66.9421 73.563 69.3381 73.1975 69.3381 73.1975L69.7222 70.8962C72.0976 69.7347 72.8431 68.4795 73.1912 65.8106C73.3662 64.4597 74.2466 62.9018 76.691 61.4613C82.8032 57.8595 62.5484 60.9959 62.5484 60.9959Z" fill="black"/>
<path d="M79.0884 47.789C79.0884 47.789 89.9864 41.8818 89.4201 53.5521C87.7634 63.2248 79.0884 47.789 79.0884 47.789Z" fill="black"/>
<path d="M85.03 46.5285C90.4059 55.8903 93.5516 63.7127 93.3158 69.2039C93.1696 72.6101 90.894 75.5333 87.7226 76.5836C83.0253 78.1384 73.5729 79.2669 67.3113 66.6946L62.5254 56.5946L85.03 46.5285Z" fill="white"/>
<path d="M62.8287 56.7063L67.5154 66.5973C73.6297 78.8731 82.7557 77.9886 87.6508 76.3669C90.7635 75.3372 92.9484 72.4541 93.0885 69.1942C93.3068 64.1045 90.6389 56.7835 84.9345 46.8183L62.8287 56.7063ZM82.1832 77.7363C80.8673 77.7363 79.468 77.5726 78.0388 77.1535C73.5535 75.8376 69.8755 72.3532 67.1076 66.795L62.3197 56.6908C62.2935 56.6363 62.2908 56.5724 62.312 56.5158C62.3331 56.4581 62.3763 56.4118 62.432 56.3871L84.9366 46.321C85.0426 46.2747 85.1672 46.3148 85.2259 46.4147C91.0446 56.5477 93.765 64.0056 93.5415 69.2137C93.3933 72.6611 91.0837 75.7089 87.7939 76.7973C86.3256 77.2833 84.3702 77.7363 82.1832 77.7363Z" fill="black"/>
<path d="M64.7788 57.9619L66.5766 63.0361L68.7965 62.3977L68.9005 62.3473C71.2759 61.1858 72.8925 59.9832 73.6607 57.7127C74.0962 56.4246 74.5565 55.1797 77.0009 53.7392C83.1131 50.1374 64.7788 57.9619 64.7788 57.9619Z" fill="black"/>
<path d="M87.4523 48.703C87.4523 48.703 81.0384 29.5047 66.7511 36.7021C55.6876 42.2758 56.3903 52.1483 61.7024 61.4668L87.4523 48.703Z" fill="#0E2642"/>
<path d="M96.9199 42.8822L86.5594 46.8187L61.7021 61.4668L97.4101 44.0406C98.066 43.7204 97.6016 42.6228 96.9199 42.8822Z" fill="#0E2642"/>
<path d="M62.2297 64.3293C62.0549 63.0896 62.0981 61.7562 62.7334 60.7615C63.6922 59.2613 65.8016 59.0038 67.4219 59.8163C68.3727 60.293 69.1687 61.058 69.8236 61.957L69.5909 61.5523C70.8862 62.5758 71.6616 64.3386 71.5463 66.0015C71.432 67.6644 70.4322 69.1626 69.0225 69.7835C67.6131 70.4044 65.8497 70.1223 64.5714 69.072C63.2057 67.9507 62.481 66.1168 62.2297 64.3293Z" fill="white"/>
<path d="M67.4282 70.3389C66.3739 70.3389 65.2997 69.9641 64.4284 69.2474C62.7215 67.846 62.1782 65.5849 62.0061 64.3616C61.7855 62.7955 61.9662 61.5434 62.5432 60.6393C63.6108 58.9692 65.9143 58.8055 67.5245 59.6138C68.4376 60.072 69.2726 60.8154 70.0078 61.8245C70.082 61.9254 70.0593 62.0675 69.9584 62.1416C69.8575 62.2147 69.7154 62.1921 69.6413 62.0912C68.9493 61.1418 68.1687 60.4437 67.3212 60.0185C65.8905 59.3018 63.8551 59.4295 62.9254 60.8834C62.4083 61.6937 62.25 62.8418 62.4551 64.2988C62.618 65.4562 63.1282 67.5938 64.7162 68.8973C65.9368 69.9002 67.5913 70.1669 68.9318 69.5759C69.0461 69.5264 69.18 69.5779 69.2304 69.6922C69.2809 69.8076 69.2294 69.9404 69.1141 69.9908C68.5838 70.2256 68.0088 70.3389 67.4282 70.3389Z" fill="black"/>
<path d="M71.0443 66.8398C70.9681 66.8398 70.8929 66.8017 70.8497 66.7307C70.1176 65.5188 68.7574 64.7383 67.4659 64.7918C67.339 64.797 67.2352 64.7002 67.2302 64.5746C67.2251 64.45 67.3224 64.3439 67.4475 64.3398C68.8995 64.278 70.4234 65.1471 71.2379 66.497C71.3027 66.604 71.2687 66.743 71.1617 66.8079C71.1246 66.8295 71.0844 66.8398 71.0443 66.8398Z" fill="black"/>
<path d="M143.861 34.4738C143.861 36.04 142.593 37.3096 141.027 37.3096C139.461 37.3096 138.192 36.04 138.192 34.4738C138.192 32.9077 139.461 31.6381 141.027 31.6381C142.593 31.6381 143.861 32.9077 143.861 34.4738Z" fill="#E2EAFF"/>
<path d="M141.107 30.8579C140.982 30.8579 140.881 30.757 140.881 30.6314V18.2238C140.881 18.1641 140.905 18.1064 140.947 18.0642C140.99 18.021 141.048 17.9973 141.107 17.9973L155.834 18.0024C155.958 18.0024 156.06 18.1044 156.06 18.229C156.06 18.3546 155.958 18.4565 155.834 18.4565C155.834 18.4565 155.834 18.4565 155.833 18.4565L141.334 18.4504V30.6314C141.334 30.757 141.233 30.8579 141.107 30.8579Z" fill="#5479F7"/>
</svg>
